<svg width="113" height="29" viewBox="0 0 113 29" fill="none" xmlns="http://www.w3.org/2000/svg">
<path d="M37.3625 6.55824H40.1092V19.6643H48.414V22H37.3625V6.55824ZM60.822 12.9599V15.1442H52.9714V19.7075H61.1897V22H50.2247V6.55824H61.1897V8.78583H52.9714V12.9599H60.822ZM69.7611 16.0958H66.171V22H63.446V6.55824H70.7776C72.4933 6.55824 73.827 6.98357 74.7786 7.83424C75.7446 8.6849 76.2276 9.84556 76.2276 11.3162C76.2276 12.4841 75.9248 13.4645 75.3193 14.2575C74.7137 15.0505 73.8414 15.5912 72.7024 15.8795L76.4871 22H73.308L69.7611 16.0958ZM70.3883 13.8682C71.3831 13.8682 72.1401 13.6519 72.6591 13.2194C73.1782 12.7724 73.4377 12.138 73.4377 11.3162C73.4377 10.5088 73.1782 9.88881 72.6591 9.45627C72.1401 9.00931 71.3831 8.78583 70.3883 8.78583H66.171V13.8682H70.3883ZM88.3501 22L80.9104 10.3214H80.8239V22H78.2935V6.55824H81.3646L88.6962 18.0422H88.7827V6.55824H91.313V22H88.3501ZM94.093 6.55824H96.818V22H94.093V6.55824ZM105.313 16.0525L101.637 22H98.609L103.821 14.0196L98.9983 6.55824H102.113L105.4 11.965L108.752 6.55824H111.737L106.892 13.9547L112.126 22H109.012L105.313 16.0525Z" fill="#111111"/>
<g clip-path="url(#clip0_387_13964)">
<path d="M14.7825 27.5051C17.6017 23.812 23.5973 24.9449 23.5973 24.9449V12.2709C19.0632 11.7539 16.4858 14.8328 15.7101 15.9489C16.6921 14.8104 18.9518 13.3621 21.8944 13.4578V23.4222C21.8944 23.4222 16.182 23.8751 14.7825 27.5051Z" fill="#553CDF"/>
<path d="M23.9946 12.9102V13.8499H24.5109V26.3984C24.5109 26.3984 16.5889 25.0556 14.1073 29.0003C14.1073 29.0003 17.6216 25.8947 26 27.7833V12.9102H23.9946Z" fill="#553CDF"/>
<path d="M11.2174 27.5051C8.39823 23.812 2.40265 24.9449 2.40265 24.9449V12.2709C6.93673 11.7539 9.51418 14.8328 10.2899 15.9489C9.3079 14.8104 7.04816 13.3621 4.10558 13.4578V23.4222C4.10558 23.4222 9.81795 23.8751 11.2174 27.5051Z" fill="#553CDF"/>
<path d="M2.00538 12.9102V13.8499H1.48903V26.3984C1.48903 26.3984 9.41107 25.0556 11.8927 29.0003C11.8927 29.0003 8.37837 25.8947 0 27.7833V12.9102H2.00538Z" fill="#553CDF"/>
<path d="M19.2188 8.15137C18.7744 11.4112 16.37 11.9191 14.1624 14.5833C13.6238 15.2332 13.2514 16.0965 13 17.0601C12.7483 16.0962 12.3759 15.2332 11.8376 14.5833C9.63026 11.9191 7.22559 11.4112 6.78121 8.15137C6.78121 8.15137 6.34876 9.99579 7.81026 12.0768C9.19251 14.0446 12.3447 14.3468 13 24.6446C13.6553 14.3468 16.8075 14.0446 18.1897 12.0765C19.6512 9.99579 19.2188 8.15137 19.2188 8.15137Z" fill="#553CDF"/>
<path d="M10.6354 10.2684C10.5953 10.2951 10.5685 10.3421 10.5685 10.3957C10.5685 10.4591 10.6056 10.5135 10.6583 10.5355L10.4683 11.1006H10.7114H10.9545L10.7645 10.5355C10.8168 10.5131 10.8543 10.4591 10.8543 10.3957C10.8543 10.3421 10.8275 10.2951 10.7873 10.2684V9.53236L11.7013 9.14434L10.9316 9.59966L11.5849 9.90461V10.3238C11.373 10.6302 11.2473 11.0077 11.2473 11.4164C11.2473 12.4395 12.032 13.2689 13 13.2689C13.968 13.2689 14.7527 12.4395 14.7527 11.4164C14.7527 11.0045 14.6253 10.6246 14.4104 10.3168V9.90461L15.9449 9.13383L13.0584 7.64062L9.89856 9.1177L10.6354 9.46156V10.2684Z" fill="#553CDF"/>
<path d="M12.9218 0L13.4268 1.64357H15.0618L13.7392 2.65902L14.2443 4.30259L12.9218 3.2868L11.5992 4.30259L12.1043 2.65902L10.7817 1.64357H12.4164L12.9218 0Z" fill="#553CDF"/>
<path d="M19.2785 5.28906L19.5083 6.03636H20.2515L19.6503 6.49799L19.8801 7.2453L19.2785 6.78367L18.6772 7.2453L18.9071 6.49799L18.3055 6.03636H19.049L19.2785 5.28906Z" fill="#553CDF"/>
<path d="M6.81011 5.28906L7.03993 6.03636H7.78312L7.18187 6.49799L7.41136 7.2453L6.81011 6.78367L6.20886 7.2453L6.43835 6.49799L5.8371 6.03636H6.58029L6.81011 5.28906Z" fill="#553CDF"/>
</g>
<defs>
<clipPath id="clip0_387_13964">
<rect width="26" height="29" fill="white"/>
</clipPath>
</defs>
</svg>
