<svg width="65" height="54" viewBox="0 0 65 54" fill="none" xmlns="http://www.w3.org/2000/svg">
<g clip-path="url(#clip0_317_4790)">
<path d="M30.818 36.7086L26.4305 43.9265L17.9858 44.1173L13.4191 51.6423C13.2018 51.9715 13.3459 52.3975 13.653 52.5766C13.9822 52.794 14.4082 52.6498 14.5873 52.3427L18.7575 45.454L27.2022 45.2632L31.5897 38.0453L40.0344 37.8546L44.4219 30.6366L52.8666 30.4459L57.4332 22.9209C57.6506 22.5917 57.5065 22.1657 57.1994 21.9866C56.8702 21.7692 56.4442 21.9133 56.265 22.2205L52.0948 29.1092L43.6502 29.3L39.2626 36.5179L30.818 36.7086Z" fill="#DEE5FF"/>
<path d="M27.7751 31.4391L23.3876 38.657L14.9429 38.8478L10.3763 46.3728C10.1589 46.702 10.3031 47.128 10.6102 47.3071C10.9393 47.5244 11.3653 47.3803 11.5445 47.0732L15.7147 40.1845L24.1593 39.9937L28.5469 32.7758L36.9915 32.585L41.3791 25.3671L49.8237 25.1764L54.3904 17.6513C54.6077 17.3222 54.4636 16.8962 54.1565 16.717C53.8273 16.4997 53.4013 16.6438 53.2222 16.9509L49.052 23.8397L40.6073 24.0304L36.2198 31.2483L27.7751 31.4391Z" fill="#DEE5FF"/>
<path d="M24.7323 26.1686L20.3448 33.3865L11.9001 33.5773L7.33342 41.1023C7.11609 41.4314 7.26021 41.8575 7.56732 42.0366C7.89648 42.2539 8.32249 42.1098 8.50163 41.8027L12.6718 34.9139L21.1165 34.7232L25.504 27.5053L33.9487 27.3145L38.3362 20.0966L46.7809 19.9059L51.3476 12.3808C51.5649 12.0517 51.4208 11.6257 51.1137 11.4465C50.7845 11.2292 50.3585 11.3733 50.1793 11.6804L46.0091 18.5692L37.5645 18.7599L33.177 25.9778L24.7323 26.1686Z" fill="#DEE5FF"/>
<path d="M21.7115 20.9362L17.3239 28.1541L8.87928 28.3448L4.31261 35.8699C4.09528 36.199 4.23939 36.625 4.5465 36.8042C4.87567 37.0215 5.30168 36.8774 5.48082 36.5703L9.65102 29.6815L18.0957 29.4908L22.4832 22.2729L30.9279 22.0821L35.3154 14.8642L43.7601 14.6734L48.3267 7.14841C48.5441 6.81924 48.4 6.39323 48.0928 6.2141C47.7637 5.99677 47.3377 6.14088 47.1585 6.44799L42.9883 13.3367L34.5055 13.5495L30.1179 20.7675L21.7115 20.9362Z" fill="#DEE5FF"/>
<path d="M33.4562 30.9596L29.0687 38.1775L20.624 38.3683L16.0574 45.8933C15.84 46.2225 15.9841 46.6485 16.2913 46.8276C16.6204 47.0449 17.0464 46.9008 17.2256 46.5937L21.3958 39.705L29.8404 39.5142L34.228 32.2963L42.6726 32.1055L47.0602 24.8876L55.5048 24.6969L60.0715 17.1718C60.2888 16.8427 60.1447 16.4167 59.8376 16.2375C59.5305 16.0584 59.0824 16.1643 58.9033 16.4714L54.7331 23.3602L46.2884 23.5509L41.9009 30.7688L33.4562 30.9596Z" fill="#B9ACFF"/>
<path d="M30.4134 25.6891L26.0258 32.907L17.5812 33.0978L13.0145 40.6228C12.7972 40.952 12.9413 41.378 13.2484 41.5571C13.5776 41.7744 14.0036 41.6303 14.1827 41.3232L18.3529 34.4345L26.7976 34.2437L31.1851 27.0258L39.6298 26.835L44.0173 19.6171L52.462 19.4264L57.0286 11.9013C57.246 11.5722 57.1019 11.1462 56.7947 10.967C56.4656 10.7497 56.0396 10.8938 55.8604 11.2009L51.6902 18.0897L43.2456 18.2804L38.858 25.4983L30.4134 25.6891Z" fill="#B9ACFF"/>
<path d="M27.3705 20.4186L22.983 27.6365L14.5383 27.8273L9.97167 35.3523C9.75434 35.6814 9.89845 36.1075 10.2056 36.2866C10.5347 36.5039 10.9607 36.3598 11.1399 36.0527L15.3101 29.1639L23.7547 28.9732L28.1423 21.7553L36.5869 21.5645L40.9745 14.3466L49.4191 14.1559L53.9858 6.63083C54.2031 6.30167 54.059 5.87566 53.7519 5.69652C53.4227 5.47919 52.9967 5.6233 52.8176 5.93041L48.6474 12.8192L40.2027 13.0099L35.8152 20.2278L27.3705 20.4186Z" fill="#B9ACFF"/>
<path d="M24.3277 15.1484L19.9402 22.3663L11.4955 22.557L6.92885 30.0821C6.71152 30.4112 6.85563 30.8372 7.16275 31.0164C7.49191 31.2337 7.91792 31.0896 8.09706 30.7825L12.2673 23.8937L20.7119 23.703L25.1215 16.5232L33.5662 16.3325L37.9537 9.11458L46.3984 8.92382L50.965 1.3988C51.1221 1.0535 51.0382 0.643627 50.7091 0.426297C50.402 0.247159 49.9539 0.353082 49.7748 0.660193L45.6046 7.54894L37.1599 7.7397L32.7724 14.9576L24.3277 15.1484Z" fill="#B9ACFF"/>
</g>
<defs>
<clipPath id="clip0_317_4790">
<rect width="27.562" height="58.3874" fill="white" transform="translate(50.5649) rotate(60)"/>
</clipPath>
</defs>
</svg>
