<svg width="65" height="49" viewBox="0 0 65 49" fill="none" xmlns="http://www.w3.org/2000/svg">
<path d="M8.85805 36.7463C8.11989 35.328 8.20095 33.4576 9.0719 32.1309C9.97699 30.7854 11.6378 30.0025 13.2505 30.1813C15.1774 30.3647 17.0326 31.79 18.8936 31.2084C20.7357 30.5926 21.3441 28.3867 21.7206 26.4868C22.063 24.6058 22.6526 22.3657 24.4758 21.7158C26.9854 20.7762 29.6164 23.6882 32.2084 23.0594C34.1788 22.5954 35.1356 20.3753 35.7205 18.4495C36.3395 16.5049 37.175 14.3072 39.1043 13.6879C40.5179 13.264 42.0082 13.8666 43.4043 14.2984C44.8004 14.7303 46.5378 14.9738 47.6312 13.9697C48.9448 12.7995 48.595 10.6325 49.5648 9.16222C50.4205 7.88852 52.1108 7.40106 53.6363 7.58339C55.1619 7.76571 56.5533 8.51188 57.8917 9.24276" stroke="#EEEEEE" stroke-width="2" stroke-miterlimit="10" stroke-linecap="round" stroke-linejoin="round"/>
<path d="M11.6835 41.8665C10.9453 40.4481 11.0264 38.5777 11.8973 37.251C12.8024 35.9055 14.4633 35.1226 16.0759 35.3014C18.0028 35.4848 19.8581 36.9102 21.719 36.3285C23.5612 35.7127 24.1695 33.5068 24.5461 31.6069C24.8884 29.7259 25.478 27.4858 27.3013 26.8359C29.8108 25.8963 32.4419 28.8083 35.0338 28.1795C37.0042 27.7156 37.961 25.4955 38.5459 23.5697C39.1649 21.625 40.0005 19.4273 41.9297 18.808C43.3434 18.3841 44.8336 18.9867 46.2297 19.4186C47.6258 19.8504 49.3632 20.094 50.4567 19.0898C51.7702 17.9196 51.4204 15.7526 52.3903 14.2823C53.2459 13.0086 54.9362 12.5212 56.4617 12.7035C57.9873 12.8858 59.3787 13.632 60.7171 14.3629" stroke="#EEEEEE" stroke-width="2" stroke-miterlimit="10" stroke-linecap="round" stroke-linejoin="round"/>
<path d="M14.509 46.9866C13.7709 45.5682 13.852 43.6978 14.7229 42.3711C15.628 41.0256 17.2888 40.2427 18.9015 40.4215C20.8284 40.605 22.6836 42.0303 24.5446 41.4486C26.3867 40.8329 26.9951 38.6269 27.3716 36.727C27.714 34.846 28.3036 32.6059 30.1268 31.956C32.6364 31.0165 35.2674 33.9284 37.8594 33.2996C39.8298 32.8357 40.7866 30.6156 41.3715 28.6898C41.9905 26.7452 42.826 24.5474 44.7553 23.9281C46.1689 23.5042 47.6592 24.1068 49.0553 24.5387C50.4514 24.9706 52.1888 25.2141 53.2822 24.2099C54.5958 23.0398 54.246 20.8727 55.2158 19.4025C56.0715 18.1288 57.7618 17.6413 59.2873 17.8236C60.8129 18.0059 62.2043 18.7521 63.5427 19.483" stroke="#EEEEEE" stroke-width="2" stroke-miterlimit="10" stroke-linecap="round" stroke-linejoin="round"/>
<path d="M2.9402 34.301C2.20204 32.8827 2.28311 31.0122 3.15406 29.6856C4.05914 28.3401 5.71997 27.5572 7.33262 27.7359C9.25956 27.9194 11.1148 29.3447 12.9758 28.7631C14.8179 28.1473 15.4263 25.9414 15.8028 24.0415C16.1452 22.1604 16.7347 19.9204 18.558 19.2705C21.0675 18.3309 23.6986 21.2429 26.2905 20.6141C28.261 20.1501 29.2178 17.93 29.8026 16.0042C30.4216 14.0596 31.2572 11.8619 33.1864 11.2426C34.6001 10.8187 36.0903 11.4212 37.4864 11.8531C38.8825 12.285 40.6199 12.5285 41.7134 11.5244C43.0269 10.3542 42.6772 8.18719 43.647 6.71691C44.5026 5.44321 46.1929 4.95575 47.7185 5.13807C49.244 5.3204 50.6354 6.06657 51.9738 6.79745" stroke="#B6B6B6" stroke-opacity="0.5" stroke-width="2" stroke-miterlimit="10" stroke-linecap="round" stroke-linejoin="round"/>
<path d="M5.76564 39.4211C5.02748 38.0028 5.10855 36.1324 5.9795 34.8057C6.88458 33.4602 8.54541 32.6773 10.1581 32.8561C12.085 33.0395 13.9402 34.4649 15.8012 33.8832C17.6433 33.2674 18.2517 31.0615 18.6282 29.1616C18.9706 27.2806 19.5601 25.0405 21.3834 24.3906C23.8929 23.451 26.524 26.363 29.116 25.7342C31.0864 25.2702 32.0432 23.0501 32.6281 21.1244C33.2471 19.1797 34.0826 16.982 36.0118 16.3627C37.4255 15.9388 38.9158 16.5414 40.3119 16.9732C41.708 17.4051 43.4454 17.6486 44.5388 16.6445C45.8524 15.4743 45.5026 13.3073 46.4724 11.837C47.3281 10.5633 49.0184 10.0759 50.5439 10.2582C52.0694 10.4405 53.4608 11.1867 54.7993 11.9176" stroke="#B6B6B6" stroke-opacity="0.5" stroke-width="2" stroke-miterlimit="10" stroke-linecap="round" stroke-linejoin="round"/>
<path d="M8.5912 44.5413C7.85304 43.1229 7.93411 41.2525 8.80506 39.9258C9.71014 38.5803 11.371 37.7974 12.9836 37.9762C14.9106 38.1596 16.7658 39.585 18.6268 39.0033C20.4689 38.3875 21.0773 36.1816 21.4538 34.2817C21.7962 32.4007 22.3857 30.1606 24.209 29.5107C26.7185 28.5711 29.3496 31.4831 31.9415 30.8543C33.912 30.3904 34.8688 28.1703 35.4536 26.2445C36.0726 24.2998 36.9082 22.1021 38.8374 21.4828C40.2511 21.0589 41.7413 21.6615 43.1374 22.0934C44.5335 22.5252 46.2709 22.7688 47.3644 21.7646C48.6779 20.5945 48.3282 18.4274 49.298 16.9571C50.1536 15.6834 51.8439 15.196 53.3695 15.3783C54.895 15.5606 56.2864 16.3068 57.6248 17.0377" stroke="#B6B6B6" stroke-opacity="0.5" stroke-width="2" stroke-miterlimit="10" stroke-linecap="round" stroke-linejoin="round"/>
</svg>
