<svg width="74" height="72" viewBox="0 0 74 72" fill="none" xmlns="http://www.w3.org/2000/svg">
<path d="M70.2083 20.0139C70.2083 19.2526 69.5964 18.6406 68.8351 18.6406C68.0738 18.6406 67.4617 19.2526 67.4617 20.0139C67.4617 20.7752 68.0738 21.3873 68.8351 21.3873C69.5814 21.3873 70.2083 20.7752 70.2083 20.0139Z" fill="#D1D1D1"/>
<path d="M64.2524 23.2227C63.4911 23.2227 62.8792 23.8347 62.8792 24.596C62.8792 25.3573 63.4911 25.9693 64.2524 25.9693C65.0137 25.9693 65.6257 25.3573 65.6257 24.596C65.6257 23.8496 64.9988 23.2227 64.2524 23.2227Z" fill="#D1D1D1"/>
<path d="M72.0295 33.762C72.0295 34.5233 72.6416 35.1353 73.4029 35.1353C73.6268 35.1353 73.8208 35.0756 74 34.986C73.985 34.1352 73.9553 33.2992 73.8806 32.4782C73.7313 32.4185 73.5671 32.3887 73.388 32.3887C72.6565 32.3887 72.0295 33.0007 72.0295 33.762Z" fill="#D1D1D1"/>
<path d="M70.2083 38.344C70.2083 37.5827 69.5964 36.9707 68.8351 36.9707C68.0738 36.9707 67.4617 37.5827 67.4617 38.344C67.4617 39.1053 68.0738 39.7173 68.8351 39.7173C69.5814 39.7173 70.2083 39.1053 70.2083 38.344Z" fill="#D1D1D1"/>
<path d="M68.8198 27.8057C68.0585 27.8057 67.4465 28.4177 67.4465 29.179C67.4465 29.9403 68.0585 30.5523 68.8198 30.5523C69.5811 30.5523 70.1931 29.9403 70.1931 29.179C70.208 28.4177 69.5811 27.8057 68.8198 27.8057Z" fill="#D1D1D1"/>
<path d="M64.2524 32.3887C63.4911 32.3887 62.8792 33.0007 62.8792 33.762C62.8792 34.5233 63.4911 35.1353 64.2524 35.1353C65.0137 35.1353 65.6257 34.5233 65.6257 33.762C65.6257 33.0007 64.9988 32.3887 64.2524 32.3887Z" fill="#D1D1D1"/>
<path d="M72.7461 25.8058C72.5819 25.1788 72.3879 24.5668 72.1938 23.9697C72.0893 24.1638 72.0295 24.3728 72.0295 24.6116C72.0295 25.1191 72.3282 25.567 72.7461 25.8058Z" fill="#D1D1D1"/>
<path d="M67.5212 56.287C67.6705 56.0631 67.8198 55.8391 67.984 55.6152C67.7601 55.7794 67.5959 56.0183 67.5212 56.287Z" fill="#D1D1D1"/>
<path d="M67.4465 47.51C67.4465 48.2713 68.0585 48.8834 68.8198 48.8834C69.5811 48.8834 70.1931 48.2713 70.1931 47.51C70.1931 46.7487 69.5811 46.1367 68.8198 46.1367C68.0735 46.1367 67.4465 46.7487 67.4465 47.51Z" fill="#D1D1D1"/>
<path d="M73.4925 41.5687C73.4626 41.5687 73.4328 41.5537 73.4029 41.5537C72.6416 41.5537 72.0295 42.1657 72.0295 42.927C72.0295 43.5241 72.4177 44.0317 72.9402 44.2108C73.1641 43.345 73.3432 42.4643 73.4925 41.5687Z" fill="#D1D1D1"/>
<path d="M55.0869 4.89258C54.3256 4.89258 53.7136 5.5046 53.7136 6.2659C53.7136 7.02719 54.3256 7.63921 55.0869 7.63921C55.8482 7.63921 56.4602 7.02719 56.4602 6.2659C56.4602 5.51953 55.8482 4.89258 55.0869 4.89258Z" fill="#D1D1D1"/>
<path d="M49.1306 1.6981C49.1306 2.4594 49.7426 3.07142 50.5039 3.07142C51.2652 3.07142 51.8772 2.4594 51.8772 1.6981C51.8772 1.68318 51.8772 1.65333 51.8772 1.6384C51.1159 1.31 50.3397 0.996511 49.5485 0.712891C49.2798 0.966656 49.1306 1.30999 49.1306 1.6981Z" fill="#D1D1D1"/>
<path d="M45.9216 4.89258C45.1603 4.89258 44.5483 5.5046 44.5483 6.2659C44.5483 7.02719 45.1603 7.63921 45.9216 7.63921C46.6829 7.63921 47.295 7.02719 47.295 6.2659C47.295 5.51953 46.6829 4.89258 45.9216 4.89258Z" fill="#D1D1D1"/>
<path d="M55.0869 23.2227C54.3256 23.2227 53.7136 23.8347 53.7136 24.596C53.7136 25.3573 54.3256 25.9693 55.0869 25.9693C55.8482 25.9693 56.4602 25.3573 56.4602 24.596C56.4602 23.8496 55.8482 23.2227 55.0869 23.2227Z" fill="#D1D1D1"/>
<path d="M64.2524 16.8189C65.0109 16.8189 65.6257 16.2041 65.6257 15.4456C65.6257 14.6871 65.0109 14.0723 64.2524 14.0723C63.494 14.0723 62.8792 14.6871 62.8792 15.4456C62.8792 16.2041 63.494 16.8189 64.2524 16.8189Z" fill="#D1D1D1"/>
<path d="M55.0869 16.8189C55.8482 16.8189 56.4602 16.2069 56.4602 15.4456C56.4602 14.6843 55.8482 14.0723 55.0869 14.0723C54.3256 14.0723 53.7136 14.6843 53.7136 15.4456C53.7136 16.192 54.3256 16.8189 55.0869 16.8189Z" fill="#D1D1D1"/>
<path d="M50.5039 21.3873C51.2652 21.3873 51.8772 20.7752 51.8772 20.0139C51.8772 19.2526 51.2652 18.6406 50.5039 18.6406C49.7426 18.6406 49.1306 19.2526 49.1306 20.0139C49.1306 20.7752 49.7426 21.3873 50.5039 21.3873Z" fill="#D1D1D1"/>
<path d="M61.043 20.0139C61.043 19.2526 60.431 18.6406 59.6697 18.6406C58.9084 18.6406 58.2964 19.2526 58.2964 20.0139C58.2964 20.7752 58.9084 21.3873 59.6697 21.3873C60.4161 21.3873 61.043 20.7752 61.043 20.0139Z" fill="#D1D1D1"/>
<path d="M50.5039 12.2359C51.2652 12.2359 51.8772 11.6239 51.8772 10.8626C51.8772 10.1013 51.2652 9.48926 50.5039 9.48926C49.7426 9.48926 49.1306 10.1013 49.1306 10.8626C49.1306 11.6089 49.7426 12.2359 50.5039 12.2359Z" fill="#D1D1D1"/>
<path d="M58.2964 10.8626C58.2964 11.6239 58.9084 12.2359 59.6697 12.2359C60.431 12.2359 61.043 11.6239 61.043 10.8626C61.043 10.1013 60.431 9.48926 59.6697 9.48926C58.9084 9.48926 58.2964 10.1013 58.2964 10.8626Z" fill="#D1D1D1"/>
<path d="M45.9216 23.2227C45.1603 23.2227 44.5483 23.8347 44.5483 24.596C44.5483 25.3573 45.1603 25.9693 45.9216 25.9693C46.6829 25.9693 47.295 25.3573 47.295 24.596C47.295 23.8496 46.6829 23.2227 45.9216 23.2227Z" fill="#D1D1D1"/>
<path d="M55.0869 41.5537C54.3256 41.5537 53.7136 42.1657 53.7136 42.927C53.7136 43.6883 54.3256 44.3003 55.0869 44.3003C55.8482 44.3003 56.4602 43.6883 56.4602 42.927C56.4602 42.1657 55.8482 41.5537 55.0869 41.5537Z" fill="#D1D1D1"/>
<path d="M55.0869 32.3887C54.3256 32.3887 53.7136 33.0007 53.7136 33.762C53.7136 34.5233 54.3256 35.1353 55.0869 35.1353C55.8482 35.1353 56.4602 34.5233 56.4602 33.762C56.4602 33.0007 55.8482 32.3887 55.0869 32.3887Z" fill="#D1D1D1"/>
<path d="M51.8772 38.344C51.8772 37.5827 51.2652 36.9707 50.5039 36.9707C49.7426 36.9707 49.1306 37.5827 49.1306 38.344C49.1306 39.1053 49.7426 39.7173 50.5039 39.7173C51.2652 39.7173 51.8772 39.1053 51.8772 38.344Z" fill="#D1D1D1"/>
<path d="M59.6697 36.9707C58.9084 36.9707 58.2964 37.5827 58.2964 38.344C58.2964 39.1053 58.9084 39.7173 59.6697 39.7173C60.431 39.7173 61.043 39.1053 61.043 38.344C61.043 37.5827 60.4161 36.9707 59.6697 36.9707Z" fill="#D1D1D1"/>
<path d="M50.5039 27.8057C49.7426 27.8057 49.1306 28.4177 49.1306 29.179C49.1306 29.9403 49.7426 30.5523 50.5039 30.5523C51.2652 30.5523 51.8772 29.9403 51.8772 29.179C51.8772 28.4177 51.2652 27.8057 50.5039 27.8057Z" fill="#D1D1D1"/>
<path d="M59.6697 27.8057C58.9084 27.8057 58.2964 28.4177 58.2964 29.179C58.2964 29.9403 58.9084 30.5523 59.6697 30.5523C60.431 30.5523 61.043 29.9403 61.043 29.179C61.043 28.4177 60.4161 27.8057 59.6697 27.8057Z" fill="#D1D1D1"/>
<path d="M45.9216 41.5537C45.1603 41.5537 44.5483 42.1657 44.5483 42.927C44.5483 43.6883 45.1603 44.3003 45.9216 44.3003C46.6829 44.3003 47.295 43.6883 47.295 42.927C47.295 42.1657 46.6829 41.5537 45.9216 41.5537Z" fill="#D1D1D1"/>
<path d="M64.2522 53.4654C65.0135 53.4654 65.6255 52.8534 65.6255 52.0921C65.6255 51.3308 65.0135 50.7188 64.2522 50.7188C63.4909 50.7188 62.8789 51.3308 62.8789 52.0921C62.864 52.8534 63.4909 53.4654 64.2522 53.4654Z" fill="#D1D1D1"/>
<path d="M55.0869 53.4654C55.8482 53.4654 56.4602 52.8534 56.4602 52.0921C56.4602 51.3308 55.8482 50.7188 55.0869 50.7188C54.3256 50.7188 53.7136 51.3308 53.7136 52.0921C53.7136 52.8534 54.3256 53.4654 55.0869 53.4654Z" fill="#D1D1D1"/>
<path d="M50.5039 55.3018C49.7426 55.3018 49.1306 55.9138 49.1306 56.6751C49.1306 57.4364 49.7426 58.0484 50.5039 58.0484C51.2652 58.0484 51.8772 57.4364 51.8772 56.6751C51.8772 55.9138 51.2652 55.3018 50.5039 55.3018Z" fill="#D1D1D1"/>
<path d="M61.043 56.6751C61.043 55.9138 60.431 55.3018 59.6697 55.3018C58.9084 55.3018 58.2964 55.9138 58.2964 56.6751C58.2964 57.4364 58.9084 58.0484 59.6697 58.0484C60.4161 58.0484 61.043 57.4364 61.043 56.6751Z" fill="#D1D1D1"/>
<path d="M50.5039 46.1367C49.7426 46.1367 49.1306 46.7487 49.1306 47.51C49.1306 48.2713 49.7426 48.8834 50.5039 48.8834C51.2652 48.8834 51.8772 48.2713 51.8772 47.51C51.8772 46.7487 51.2652 46.1367 50.5039 46.1367Z" fill="#D1D1D1"/>
<path d="M59.6697 46.1367C58.9084 46.1367 58.2964 46.7487 58.2964 47.51C58.2964 48.2713 58.9084 48.8834 59.6697 48.8834C60.431 48.8834 61.043 48.2713 61.043 47.51C61.043 46.7487 60.4161 46.1367 59.6697 46.1367Z" fill="#D1D1D1"/>
<path d="M45.9216 50.7188C45.1603 50.7188 44.5483 51.3308 44.5483 52.0921C44.5483 52.8534 45.1603 53.4654 45.9216 53.4654C46.6829 53.4654 47.295 52.8534 47.295 52.0921C47.295 51.3308 46.6829 50.7188 45.9216 50.7188Z" fill="#D1D1D1"/>
<path d="M64.2524 44.3003C65.0137 44.3003 65.6257 43.6883 65.6257 42.927C65.6257 42.1657 65.0137 41.5537 64.2524 41.5537C63.4911 41.5537 62.8792 42.1657 62.8792 42.927C62.8792 43.6883 63.4911 44.3003 64.2524 44.3003Z" fill="#D1D1D1"/>
<path d="M49.1306 65.8401C49.1306 66.6014 49.7426 67.2134 50.5039 67.2134C51.2652 67.2134 51.8772 66.6014 51.8772 65.8401C51.8772 65.0788 51.2652 64.4668 50.5039 64.4668C49.7426 64.4668 49.1306 65.0788 49.1306 65.8401Z" fill="#D1D1D1"/>
<path d="M58.3262 65.5416C58.8188 65.1982 59.2965 64.84 59.7742 64.4817C59.7443 64.4817 59.6995 64.4668 59.6697 64.4668C59.0129 64.4668 58.4605 64.9295 58.3262 65.5416Z" fill="#D1D1D1"/>
<path d="M45.9216 69.0498C45.1603 69.0498 44.5483 69.6618 44.5483 70.4231C44.5483 70.7963 44.6976 71.1396 44.9514 71.3934C45.7276 71.2292 46.4889 71.0352 47.2353 70.8262C47.28 70.7067 47.295 70.5724 47.295 70.4381C47.295 69.6618 46.6829 69.0498 45.9216 69.0498Z" fill="#D1D1D1"/>
<path d="M64.6257 59.9445C64.5063 59.9146 64.3719 59.8848 64.2376 59.8848C63.4763 59.8848 62.8643 60.4968 62.8643 61.2581C62.8643 61.4074 62.8941 61.5566 62.9389 61.7059C63.536 61.1387 64.0883 60.5565 64.6257 59.9445Z" fill="#D1D1D1"/>
<path d="M55.0869 62.6314C55.8482 62.6314 56.4602 62.0194 56.4602 61.2581C56.4602 60.4968 55.8482 59.8848 55.0869 59.8848C54.3256 59.8848 53.7136 60.4968 53.7136 61.2581C53.7136 62.0194 54.3256 62.6314 55.0869 62.6314Z" fill="#D1D1D1"/>
<path d="M36.756 4.89258C35.9947 4.89258 35.3826 5.5046 35.3826 6.2659C35.3826 7.02719 35.9947 7.63921 36.756 7.63921C37.5173 7.63921 38.1292 7.02719 38.1292 6.2659C38.1292 5.51953 37.5173 4.89258 36.756 4.89258Z" fill="#D1D1D1"/>
<path d="M33.547 1.69754C33.547 0.936239 32.935 0.324219 32.1737 0.324219C31.4124 0.324219 30.8003 0.936239 30.8003 1.69754C30.8003 2.45883 31.4124 3.07085 32.1737 3.07085C32.935 3.07085 33.547 2.44391 33.547 1.69754Z" fill="#D1D1D1"/>
<path d="M42.7123 1.69754C42.7123 0.936239 42.1002 0.324219 41.3389 0.324219C40.5776 0.324219 39.9656 0.936239 39.9656 1.69754C39.9656 2.45883 40.5776 3.07085 41.3389 3.07085C42.1002 3.07085 42.7123 2.44391 42.7123 1.69754Z" fill="#D1D1D1"/>
<path d="M45.9216 16.8189C46.6829 16.8189 47.295 16.2069 47.295 15.4456C47.295 14.6843 46.6829 14.0723 45.9216 14.0723C45.1603 14.0723 44.5483 14.6843 44.5483 15.4456C44.5483 16.192 45.1603 16.8189 45.9216 16.8189Z" fill="#D1D1D1"/>
<path d="M36.756 16.8189C37.5173 16.8189 38.1292 16.2069 38.1292 15.4456C38.1292 14.6843 37.5173 14.0723 36.756 14.0723C35.9947 14.0723 35.3826 14.6843 35.3826 15.4456C35.3826 16.192 35.9947 16.8189 36.756 16.8189Z" fill="#D1D1D1"/>
<path d="M32.1737 21.3873C32.935 21.3873 33.547 20.7752 33.547 20.0139C33.547 19.2526 32.935 18.6406 32.1737 18.6406C31.4124 18.6406 30.8003 19.2526 30.8003 20.0139C30.8003 20.7752 31.4124 21.3873 32.1737 21.3873Z" fill="#D1D1D1"/>
<path d="M41.3389 21.3873C42.1002 21.3873 42.7123 20.7752 42.7123 20.0139C42.7123 19.2526 42.1002 18.6406 41.3389 18.6406C40.5776 18.6406 39.9656 19.2526 39.9656 20.0139C39.9656 20.7752 40.5776 21.3873 41.3389 21.3873Z" fill="#D1D1D1"/>
<path d="M32.1737 12.2359C32.935 12.2359 33.547 11.6239 33.547 10.8626C33.547 10.1013 32.935 9.48926 32.1737 9.48926C31.4124 9.48926 30.8003 10.1013 30.8003 10.8626C30.8003 11.6089 31.4124 12.2359 32.1737 12.2359Z" fill="#D1D1D1"/>
<path d="M41.3389 12.2359C42.1002 12.2359 42.7123 11.6239 42.7123 10.8626C42.7123 10.1013 42.1002 9.48926 41.3389 9.48926C40.5776 9.48926 39.9656 10.1013 39.9656 10.8626C39.9656 11.6089 40.5776 12.2359 41.3389 12.2359Z" fill="#D1D1D1"/>
<path d="M36.756 41.5537C35.9947 41.5537 35.3826 42.1657 35.3826 42.927C35.3826 43.6883 35.9947 44.3003 36.756 44.3003C37.5173 44.3003 38.1292 43.6883 38.1292 42.927C38.1292 42.1657 37.5173 41.5537 36.756 41.5537Z" fill="#D1D1D1"/>
<path d="M45.9216 35.1353C46.6829 35.1353 47.295 34.5233 47.295 33.762C47.295 33.0007 46.6829 32.3887 45.9216 32.3887C45.1603 32.3887 44.5483 33.0007 44.5483 33.762C44.5483 34.5233 45.1603 35.1353 45.9216 35.1353Z" fill="#D1D1D1"/>
<path d="M36.756 32.3887C35.9947 32.3887 35.3826 33.0007 35.3826 33.762C35.3826 34.5233 35.9947 35.1353 36.756 35.1353C37.5173 35.1353 38.1292 34.5233 38.1292 33.762C38.1292 33.0007 37.5173 32.3887 36.756 32.3887Z" fill="#D1D1D1"/>
<path d="M32.1737 36.9707C31.4124 36.9707 30.8003 37.5827 30.8003 38.344C30.8003 39.1053 31.4124 39.7173 32.1737 39.7173C32.935 39.7173 33.547 39.1053 33.547 38.344C33.547 37.5827 32.935 36.9707 32.1737 36.9707Z" fill="#D1D1D1"/>
<path d="M41.3389 36.9707C40.5776 36.9707 39.9656 37.5827 39.9656 38.344C39.9656 39.1053 40.5776 39.7173 41.3389 39.7173C42.1002 39.7173 42.7123 39.1053 42.7123 38.344C42.7123 37.5827 42.1002 36.9707 41.3389 36.9707Z" fill="#D1D1D1"/>
<path d="M32.1737 27.8057C31.4124 27.8057 30.8003 28.4177 30.8003 29.179C30.8003 29.9403 31.4124 30.5523 32.1737 30.5523C32.935 30.5523 33.547 29.9403 33.547 29.179C33.547 28.4177 32.935 27.8057 32.1737 27.8057Z" fill="#D1D1D1"/>
<path d="M41.3389 27.8057C40.5776 27.8057 39.9656 28.4177 39.9656 29.179C39.9656 29.9403 40.5776 30.5523 41.3389 30.5523C42.1002 30.5523 42.7123 29.9403 42.7123 29.179C42.7123 28.4177 42.1002 27.8057 41.3389 27.8057Z" fill="#D1D1D1"/>
<path d="M27.5908 41.5537C26.8295 41.5537 26.2175 42.1657 26.2175 42.927C26.2175 43.6883 26.8295 44.3003 27.5908 44.3003C28.3521 44.3003 28.9641 43.6883 28.9641 42.927C28.9641 42.1657 28.3521 41.5537 27.5908 41.5537Z" fill="#D1D1D1"/>
<path d="M27.5908 32.3887C26.8295 32.3887 26.2175 33.0007 26.2175 33.762C26.2175 34.5233 26.8295 35.1353 27.5908 35.1353C28.3521 35.1353 28.9641 34.5233 28.9641 33.762C28.9641 33.0007 28.3521 32.3887 27.5908 32.3887Z" fill="#D1D1D1"/>
<path d="M36.756 25.9849C37.5173 25.9849 38.1292 25.3729 38.1292 24.6116C38.1292 23.8503 37.5173 23.2383 36.756 23.2383C35.9947 23.2383 35.3826 23.8503 35.3826 24.6116C35.3826 25.358 35.9947 25.9849 36.756 25.9849Z" fill="#D1D1D1"/>
<path d="M36.756 59.8848C35.9947 59.8848 35.3826 60.4968 35.3826 61.2581C35.3826 62.0194 35.9947 62.6314 36.756 62.6314C37.5173 62.6314 38.1292 62.0194 38.1292 61.2581C38.1292 60.4968 37.5173 59.8848 36.756 59.8848Z" fill="#D1D1D1"/>
<path d="M36.756 50.7188C35.9947 50.7188 35.3826 51.3308 35.3826 52.0921C35.3826 52.8534 35.9947 53.4654 36.756 53.4654C37.5173 53.4654 38.1292 52.8534 38.1292 52.0921C38.1292 51.3308 37.5173 50.7188 36.756 50.7188Z" fill="#D1D1D1"/>
<path d="M32.1737 55.3018C31.4124 55.3018 30.8003 55.9138 30.8003 56.6751C30.8003 57.4364 31.4124 58.0484 32.1737 58.0484C32.935 58.0484 33.547 57.4364 33.547 56.6751C33.547 55.9138 32.935 55.3018 32.1737 55.3018Z" fill="#D1D1D1"/>
<path d="M41.3389 55.3018C40.5776 55.3018 39.9656 55.9138 39.9656 56.6751C39.9656 57.4364 40.5776 58.0484 41.3389 58.0484C42.1002 58.0484 42.7123 57.4364 42.7123 56.6751C42.7123 55.9138 42.1002 55.3018 41.3389 55.3018Z" fill="#D1D1D1"/>
<path d="M32.1737 46.1367C31.4124 46.1367 30.8003 46.7487 30.8003 47.51C30.8003 48.2713 31.4124 48.8834 32.1737 48.8834C32.935 48.8834 33.547 48.2713 33.547 47.51C33.547 46.7487 32.935 46.1367 32.1737 46.1367Z" fill="#D1D1D1"/>
<path d="M41.3389 46.1367C40.5776 46.1367 39.9656 46.7487 39.9656 47.51C39.9656 48.2713 40.5776 48.8834 41.3389 48.8834C42.1002 48.8834 42.7123 48.2713 42.7123 47.51C42.7123 46.7487 42.1002 46.1367 41.3389 46.1367Z" fill="#D1D1D1"/>
<path d="M27.5908 50.7188C26.8295 50.7188 26.2175 51.3308 26.2175 52.0921C26.2175 52.8534 26.8295 53.4654 27.5908 53.4654C28.3521 53.4654 28.9641 52.8534 28.9641 52.0921C28.9641 51.3308 28.3521 50.7188 27.5908 50.7188Z" fill="#D1D1D1"/>
<path d="M36.756 69.0498C35.9947 69.0498 35.3826 69.6618 35.3826 70.4231C35.3826 71.1844 35.9947 71.7965 36.756 71.7965C37.5173 71.7965 38.1292 71.1844 38.1292 70.4231C38.1292 69.6618 37.5173 69.0498 36.756 69.0498Z" fill="#D1D1D1"/>
<path d="M30.8003 65.8401C30.8003 66.6014 31.4124 67.2134 32.1737 67.2134C32.935 67.2134 33.547 66.6014 33.547 65.8401C33.547 65.0788 32.935 64.4668 32.1737 64.4668C31.4124 64.4668 30.8003 65.0788 30.8003 65.8401Z" fill="#D1D1D1"/>
<path d="M39.9656 65.8401C39.9656 66.6014 40.5776 67.2134 41.3389 67.2134C42.1002 67.2134 42.7123 66.6014 42.7123 65.8401C42.7123 65.0788 42.1002 64.4668 41.3389 64.4668C40.5776 64.4668 39.9656 65.0788 39.9656 65.8401Z" fill="#D1D1D1"/>
<path d="M27.5908 69.0498C26.8295 69.0498 26.2175 69.6618 26.2175 70.4231C26.2175 70.4679 26.2324 70.4978 26.2324 70.5425C27.0534 70.7963 27.8745 71.0202 28.7253 71.2143C28.8746 70.9904 28.9791 70.7217 28.9791 70.4231C28.9641 69.6618 28.3521 69.0498 27.5908 69.0498Z" fill="#D1D1D1"/>
<path d="M45.9216 62.6314C46.6829 62.6314 47.295 62.0194 47.295 61.2581C47.295 60.4968 46.6829 59.8848 45.9216 59.8848C45.1603 59.8848 44.5483 60.4968 44.5483 61.2581C44.5483 62.0194 45.1603 62.6314 45.9216 62.6314Z" fill="#D1D1D1"/>
<path d="M18.4253 4.89258C17.664 4.89258 17.052 5.5046 17.052 6.2659C17.052 7.02719 17.664 7.63921 18.4253 7.63921C19.1866 7.63921 19.7986 7.02719 19.7986 6.2659C19.7986 5.51953 19.1866 4.89258 18.4253 4.89258Z" fill="#D1D1D1"/>
<path d="M23.008 3.07127C23.7693 3.07127 24.3813 2.45925 24.3813 1.69795C24.3813 1.42926 24.3066 1.19043 24.1723 0.981445C23.3214 1.30985 22.4855 1.65316 21.6794 2.04128C21.8287 2.62345 22.3661 3.07127 23.008 3.07127Z" fill="#D1D1D1"/>
<path d="M27.5908 16.8189C28.3521 16.8189 28.9641 16.2069 28.9641 15.4456C28.9641 14.6843 28.3521 14.0723 27.5908 14.0723C26.8295 14.0723 26.2175 14.6843 26.2175 15.4456C26.2175 16.192 26.8295 16.8189 27.5908 16.8189Z" fill="#D1D1D1"/>
<path d="M18.4253 16.8189C19.1838 16.8189 19.7986 16.2041 19.7986 15.4456C19.7986 14.6871 19.1838 14.0723 18.4253 14.0723C17.6668 14.0723 17.052 14.6871 17.052 15.4456C17.052 16.2041 17.6668 16.8189 18.4253 16.8189Z" fill="#D1D1D1"/>
<path d="M15.2158 20.0139C15.2158 19.2526 14.6038 18.6406 13.8425 18.6406C13.0812 18.6406 12.4692 19.2526 12.4692 20.0139C12.4692 20.7752 13.0812 21.3873 13.8425 21.3873C14.6038 21.3873 15.2158 20.7752 15.2158 20.0139Z" fill="#D1D1D1"/>
<path d="M23.0078 21.3873C23.7691 21.3873 24.3811 20.7752 24.3811 20.0139C24.3811 19.2526 23.7691 18.6406 23.0078 18.6406C22.2465 18.6406 21.6345 19.2526 21.6345 20.0139C21.6345 20.7752 22.2465 21.3873 23.0078 21.3873Z" fill="#D1D1D1"/>
<path d="M12.4692 10.8626C12.4692 11.6239 13.0812 12.2359 13.8425 12.2359C14.6038 12.2359 15.2158 11.6239 15.2158 10.8626C15.2158 10.1013 14.6038 9.48926 13.8425 9.48926C13.0812 9.48926 12.4692 10.1013 12.4692 10.8626Z" fill="#D1D1D1"/>
<path d="M23.0078 12.2359C23.7691 12.2359 24.3811 11.6239 24.3811 10.8626C24.3811 10.1013 23.7691 9.48926 23.0078 9.48926C22.2465 9.48926 21.6345 10.1013 21.6345 10.8626C21.6345 11.6089 22.2465 12.2359 23.0078 12.2359Z" fill="#D1D1D1"/>
<path d="M27.5908 7.65388C28.3521 7.65388 28.9641 7.04186 28.9641 6.28057C28.9641 5.51927 28.3521 4.90723 27.5908 4.90723C26.8295 4.90723 26.2175 5.51927 26.2175 6.28057C26.2175 7.04186 26.8295 7.65388 27.5908 7.65388Z" fill="#D1D1D1"/>
<path d="M18.4253 41.5537C17.664 41.5537 17.052 42.1657 17.052 42.927C17.052 43.6883 17.664 44.3003 18.4253 44.3003C19.1866 44.3003 19.7986 43.6883 19.7986 42.927C19.7986 42.1657 19.1866 41.5537 18.4253 41.5537Z" fill="#D1D1D1"/>
<path d="M18.4253 32.3887C17.664 32.3887 17.052 33.0007 17.052 33.762C17.052 34.5233 17.664 35.1353 18.4253 35.1353C19.1866 35.1353 19.7986 34.5233 19.7986 33.762C19.7986 33.0007 19.1866 32.3887 18.4253 32.3887Z" fill="#D1D1D1"/>
<path d="M13.8425 36.9707C13.0812 36.9707 12.4692 37.5827 12.4692 38.344C12.4692 39.1053 13.0812 39.7173 13.8425 39.7173C14.6038 39.7173 15.2158 39.1053 15.2158 38.344C15.2158 37.5827 14.6038 36.9707 13.8425 36.9707Z" fill="#D1D1D1"/>
<path d="M23.0078 36.9707C22.2465 36.9707 21.6345 37.5827 21.6345 38.344C21.6345 39.1053 22.2465 39.7173 23.0078 39.7173C23.7691 39.7173 24.3811 39.1053 24.3811 38.344C24.3811 37.5827 23.7691 36.9707 23.0078 36.9707Z" fill="#D1D1D1"/>
<path d="M13.8425 27.8057C13.0812 27.8057 12.4692 28.4177 12.4692 29.179C12.4692 29.9403 13.0812 30.5523 13.8425 30.5523C14.6038 30.5523 15.2158 29.9403 15.2158 29.179C15.2158 28.4177 14.6038 27.8057 13.8425 27.8057Z" fill="#D1D1D1"/>
<path d="M23.0078 27.8057C22.2465 27.8057 21.6345 28.4177 21.6345 29.179C21.6345 29.9403 22.2465 30.5523 23.0078 30.5523C23.7691 30.5523 24.3811 29.9403 24.3811 29.179C24.3811 28.4177 23.7691 27.8057 23.0078 27.8057Z" fill="#D1D1D1"/>
<path d="M9.25977 41.5537C8.49847 41.5537 7.88647 42.1657 7.88647 42.927C7.88647 43.6883 8.49847 44.3003 9.25977 44.3003C10.0211 44.3003 10.6332 43.6883 10.6332 42.927C10.6332 42.1657 10.0211 41.5537 9.25977 41.5537Z" fill="#D1D1D1"/>
<path d="M9.25977 32.3887C8.49847 32.3887 7.88647 33.0007 7.88647 33.762C7.88647 34.5233 8.49847 35.1353 9.25977 35.1353C10.0211 35.1353 10.6332 34.5233 10.6332 33.762C10.6332 33.0007 10.0211 32.3887 9.25977 32.3887Z" fill="#D1D1D1"/>
<path d="M27.5908 25.9849C28.3521 25.9849 28.9641 25.3729 28.9641 24.6116C28.9641 23.8503 28.3521 23.2383 27.5908 23.2383C26.8295 23.2383 26.2175 23.8503 26.2175 24.6116C26.2175 25.358 26.8295 25.9849 27.5908 25.9849Z" fill="#D1D1D1"/>
<path d="M18.4253 25.9849C19.1866 25.9849 19.7986 25.3729 19.7986 24.6116C19.7986 23.8503 19.1866 23.2383 18.4253 23.2383C17.664 23.2383 17.052 23.8503 17.052 24.6116C17.052 25.358 17.664 25.9849 18.4253 25.9849Z" fill="#D1D1D1"/>
<path d="M18.4253 50.7188C17.664 50.7188 17.052 51.3308 17.052 52.0921C17.052 52.8534 17.664 53.4654 18.4253 53.4654C19.1866 53.4654 19.7986 52.8534 19.7986 52.0921C19.7986 51.3308 19.1866 50.7188 18.4253 50.7188Z" fill="#D1D1D1"/>
<path d="M13.8425 55.3018C13.0812 55.3018 12.4692 55.9138 12.4692 56.6751C12.4692 57.4364 13.0812 58.0484 13.8425 58.0484C14.6038 58.0484 15.2158 57.4364 15.2158 56.6751C15.2158 55.9138 14.6038 55.3018 13.8425 55.3018Z" fill="#D1D1D1"/>
<path d="M23.0078 55.3018C22.2465 55.3018 21.6345 55.9138 21.6345 56.6751C21.6345 57.4364 22.2465 58.0484 23.0078 58.0484C23.7691 58.0484 24.3811 57.4364 24.3811 56.6751C24.3811 55.9138 23.7691 55.3018 23.0078 55.3018Z" fill="#D1D1D1"/>
<path d="M13.8425 46.1367C13.0812 46.1367 12.4692 46.7487 12.4692 47.51C12.4692 48.2713 13.0812 48.8834 13.8425 48.8834C14.6038 48.8834 15.2158 48.2713 15.2158 47.51C15.2158 46.7487 14.6038 46.1367 13.8425 46.1367Z" fill="#D1D1D1"/>
<path d="M23.0078 46.1367C22.2465 46.1367 21.6345 46.7487 21.6345 47.51C21.6345 48.2713 22.2465 48.8834 23.0078 48.8834C23.7691 48.8834 24.3811 48.2713 24.3811 47.51C24.3811 46.7487 23.7691 46.1367 23.0078 46.1367Z" fill="#D1D1D1"/>
<path d="M10.5438 60.7351C10.4095 60.4216 10.1706 60.1678 9.87207 60.0186C10.0811 60.2723 10.305 60.5112 10.5438 60.7351Z" fill="#D1D1D1"/>
<path d="M10.6332 52.0921C10.6332 51.3308 10.0211 50.7188 9.25977 50.7188C8.49847 50.7188 7.88647 51.3308 7.88647 52.0921C7.88647 52.8534 8.49847 53.4654 9.25977 53.4654C10.0211 53.4654 10.6332 52.8534 10.6332 52.0921Z" fill="#D1D1D1"/>
<path d="M21.6345 65.8401C21.6345 66.6014 22.2465 67.2134 23.0078 67.2134C23.7691 67.2134 24.3811 66.6014 24.3811 65.8401C24.3811 65.0788 23.7691 64.4668 23.0078 64.4668C22.2465 64.4668 21.6345 65.0788 21.6345 65.8401Z" fill="#D1D1D1"/>
<path d="M27.5908 62.6314C28.3521 62.6314 28.9641 62.0194 28.9641 61.2581C28.9641 60.4968 28.3521 59.8848 27.5908 59.8848C26.8295 59.8848 26.2175 60.4968 26.2175 61.2581C26.2175 62.0194 26.8295 62.6314 27.5908 62.6314Z" fill="#D1D1D1"/>
<path d="M18.4253 62.6314C19.1866 62.6314 19.7986 62.0194 19.7986 61.2581C19.7986 60.4968 19.1866 59.8848 18.4253 59.8848C17.664 59.8848 17.052 60.4968 17.052 61.2581C17.052 62.0194 17.664 62.6314 18.4253 62.6314Z" fill="#D1D1D1"/>
<path d="M9.25977 16.8189C10.0211 16.8189 10.6332 16.2069 10.6332 15.4456C10.6332 14.6843 10.0211 14.0723 9.25977 14.0723C8.49847 14.0723 7.88647 14.6843 7.88647 15.4456C7.88647 16.192 8.49847 16.8189 9.25977 16.8189Z" fill="#D1D1D1"/>
<path d="M4.67713 21.3873C5.43843 21.3873 6.05052 20.7752 6.05052 20.0139C6.05052 19.2526 5.43843 18.6406 4.67713 18.6406C4.58757 18.6406 4.51296 18.6555 4.42339 18.6705C4.09499 19.3273 3.76657 19.999 3.46802 20.6708C3.70686 21.1036 4.15467 21.3873 4.67713 21.3873Z" fill="#D1D1D1"/>
<path d="M0.989746 41.8818C1.09424 42.4341 1.19869 42.9865 1.3181 43.5388C1.40767 43.3596 1.46743 43.1507 1.46743 42.9267C1.48236 42.5088 1.28829 42.1356 0.989746 41.8818Z" fill="#D1D1D1"/>
<path d="M1.48273 33.7616C1.48273 33.1495 1.07968 32.642 0.542296 32.4629C0.467659 33.3287 0.422852 34.2094 0.422852 35.0901C1.01995 34.9558 1.48273 34.4184 1.48273 33.7616Z" fill="#D1D1D1"/>
<path d="M4.67701 39.7173C5.4383 39.7173 6.05039 39.1053 6.05039 38.344C6.05039 37.5827 5.4383 36.9707 4.67701 36.9707C3.91571 36.9707 3.30371 37.5827 3.30371 38.344C3.30371 39.1053 3.93064 39.7173 4.67701 39.7173Z" fill="#D1D1D1"/>
<path d="M3.30371 29.179C3.30371 29.9403 3.91571 30.5523 4.67701 30.5523C5.4383 30.5523 6.05039 29.9403 6.05039 29.179C6.05039 28.4177 5.4383 27.8057 4.67701 27.8057C3.93064 27.8057 3.30371 28.4177 3.30371 29.179Z" fill="#D1D1D1"/>
<path d="M9.25977 25.9849C10.0211 25.9849 10.6332 25.3729 10.6332 24.6116C10.6332 23.8503 10.0211 23.2383 9.25977 23.2383C8.49847 23.2383 7.88647 23.8503 7.88647 24.6116C7.88647 25.358 8.49847 25.9849 9.25977 25.9849Z" fill="#D1D1D1"/>
<path d="M3.30371 47.51C3.30371 48.2713 3.91571 48.8834 4.67701 48.8834C5.4383 48.8834 6.05039 48.2713 6.05039 47.51C6.05039 46.7487 5.4383 46.1367 4.67701 46.1367C3.93064 46.1367 3.30371 46.7487 3.30371 47.51Z" fill="#D1D1D1"/>
</svg>
