<svg width="67" height="53" viewBox="0 0 67 53" fill="none" xmlns="http://www.w3.org/2000/svg">
<path d="M13.46 52.5004L0 29.1804L13.46 5.86035H40.39L53.86 29.1804L40.39 52.5004H13.46Z" fill="#EEEEEE"/>
<path d="M66.41 23.3701H66.19H34H33.77H15.26L16.2 25.1201H33.77H34H65.73L66.67 23.3701H66.41Z" fill="#B6B6B6"/>
<path d="M33.9999 30.96H62.6199L63.5499 29.21H33.9999H33.7698H18.3799L19.3199 30.96H33.7698H33.9999Z" fill="#B6B6B6"/>
<path d="M33.7698 19.2803H33.9999H65.5999L64.6599 17.5303H33.9999H33.7698H17.2698L16.3398 19.2803H33.7698Z" fill="#B6B6B6"/>
<path d="M33.77 7.59982H34.0001H59.36L58.42 5.83984H34.0001H33.77H23.5101L22.5701 7.59982H33.77Z" fill="#B6B6B6"/>
<path d="M33.7699 13.4404H33.9999H62.4799L61.5399 11.6904H33.9999H33.7699H20.3899L19.45 13.4404H33.7699Z" fill="#B6B6B6"/>
<path d="M25.6899 1.75H33.7699H33.9999H56.2399L55.2999 0H33.9999H33.7699H26.6299L25.6899 1.75Z" fill="#B6B6B6"/>
<path d="M33.7701 42.6396H34.0001H56.3801L57.3101 40.8896H34.0001H33.7701H24.6201L25.5501 42.6396H33.7701Z" fill="#B6B6B6"/>
<path d="M22.44 36.7998H33.77H34H59.5L60.43 35.0498H34H33.77H21.5L22.44 36.7998Z" fill="#B6B6B6"/>
</svg>
