<svg width="84" height="69" viewBox="0 0 84 69" fill="none" xmlns="http://www.w3.org/2000/svg">
<g clip-path="url(#clip0_466_10372)">
<path d="M39.6028 47.5666L33.9354 56.8899L23.0275 57.1363L17.1288 66.8563C16.8481 67.2815 17.0342 67.8318 17.4309 68.0632C17.8561 68.3439 18.4064 68.1577 18.6378 67.7611L24.0244 58.8629L34.9323 58.6165L40.5996 49.2932L51.5075 49.0468L57.1748 39.7235L68.0827 39.4771L73.9814 29.7571C74.2622 29.3319 74.076 28.7817 73.6793 28.5503C73.2541 28.2695 72.7039 28.4557 72.4725 28.8524L67.0859 37.7505L56.178 37.9969L50.5106 47.3202L39.6028 47.5666Z" fill="#FFF3D7"/>
<path d="M35.8767 40.6096L30.2094 49.9329L19.3015 50.1793L13.4027 59.8993C13.122 60.3245 13.3082 60.8748 13.7049 61.1061C14.13 61.3869 14.6803 61.2007 14.9117 60.804L20.2983 51.9059L31.2062 51.6595L36.8735 42.3362L47.7814 42.0898L53.4488 32.7665L64.3566 32.5201L70.2554 22.8001C70.5361 22.3749 70.3499 21.8246 69.9532 21.5932C69.5281 21.3125 68.9778 21.4987 68.7464 21.8954L63.3598 30.7935L52.4519 31.0399L46.7846 40.3632L35.8767 40.6096Z" fill="#FFF3D7"/>
<path d="M31.9463 33.802L26.2789 43.1253L15.371 43.3717L9.47233 53.0917C9.1916 53.5169 9.37775 54.0671 9.77444 54.2985C10.1996 54.5792 10.7499 54.3931 10.9813 53.9964L16.3679 45.0983L27.2758 44.8519L32.9431 35.5286L43.851 35.2822L49.5183 25.9589L60.4262 25.7125L66.3249 15.9925C66.6057 15.5673 66.4195 15.017 66.0228 14.7856C65.5976 14.5049 65.0474 14.6911 64.816 15.0877L59.4294 23.9859L48.5215 24.2323L42.8542 33.5556L31.9463 33.802Z" fill="#FFF3D7"/>
<path d="M28.0444 27.0432L22.3771 36.3665L11.4692 36.6129L5.57047 46.3329C5.28974 46.7581 5.47589 47.3083 5.87258 47.5397C6.29776 47.8205 6.84803 47.6343 7.07943 47.2376L12.466 38.3395L23.3739 38.0931L29.0413 28.7698L39.9491 28.5234L45.6165 19.2001L56.5244 18.9537L62.4231 9.23367C62.7038 8.8085 62.5177 8.25823 62.121 8.02683C61.6958 7.74611 61.1455 7.93226 60.9141 8.32896L55.5275 17.2271L44.5703 17.502L38.903 26.8253L28.0444 27.0432Z" fill="#FFF3D7"/>
<path d="M43.2151 39.9895L37.5477 49.3128L26.6399 49.5592L20.7411 59.2792C20.4604 59.7044 20.6466 60.2546 21.0433 60.486C21.4684 60.7667 22.0187 60.5806 22.2501 60.1839L27.6367 51.2858L38.5446 51.0394L44.2119 41.7161L55.1198 41.4697L60.7871 32.1464L71.695 31.9L77.5937 22.18C77.8745 21.7548 77.6883 21.2045 77.2916 20.9731C76.8949 20.7417 76.3162 20.8786 76.0848 21.2752L70.6982 30.1734L59.7903 30.4198L54.123 39.7431L43.2151 39.9895Z" fill="#FFEBBD"/>
<path d="M39.2847 33.1819L33.6173 42.5052L22.7094 42.7516L16.8107 52.4716C16.53 52.8967 16.7161 53.447 17.1128 53.6784C17.538 53.9591 18.0883 53.773 18.3197 53.3763L23.7063 44.4782L34.6142 44.2318L40.2815 34.9084L51.1894 34.662L56.8567 25.3387L67.7646 25.0923L73.6633 15.3723C73.944 14.9472 73.7579 14.3969 73.3612 14.1655C72.936 13.8848 72.3858 14.0709 72.1544 14.4676L66.7678 23.3658L55.8599 23.6122L50.1925 32.9355L39.2847 33.1819Z" fill="#FFEBBD"/>
<path d="M35.3542 26.3742L29.6869 35.6976L18.779 35.944L12.8803 45.6639C12.5996 46.0891 12.7857 46.6394 13.1824 46.8708C13.6076 47.1515 14.1579 46.9654 14.3892 46.5687L19.7759 37.6705L30.6837 37.4241L36.3511 28.1008L47.259 27.8544L52.9263 18.5311L63.8342 18.2847L69.7329 8.56473C70.0136 8.13955 69.8275 7.58928 69.4308 7.35789C69.0056 7.07717 68.4553 7.26332 68.2239 7.66001L62.8373 16.5581L51.9294 16.8045L46.2621 26.1278L35.3542 26.3742Z" fill="#FFEBBD"/>
<path d="M31.4238 19.5665L25.7565 28.8899L14.8486 29.1363L8.9499 38.8563C8.66918 39.2814 8.85533 39.8317 9.25203 40.0631C9.6772 40.3438 10.2275 40.1577 10.4589 39.761L15.8455 30.8628L26.7534 30.6164L32.4492 21.3425L43.357 21.0961L49.0244 11.7728L59.9323 11.5264L65.831 1.80637C66.0339 1.36034 65.9256 0.830919 65.5004 0.550197C65.1037 0.318805 64.5249 0.455624 64.2935 0.852317L58.9069 9.75045L47.9991 9.99685L42.3317 19.3202L31.4238 19.5665Z" fill="#FFEBBD"/>
</g>
<defs>
<clipPath id="clip0_466_10372">
<rect width="35.6016" height="75.4184" fill="white" transform="translate(65.3142) rotate(60)"/>
</clipPath>
</defs>
</svg>
