<svg width="67" height="53" viewBox="0 0 67 53" fill="none" xmlns="http://www.w3.org/2000/svg">
<path d="M13.46 52.5004L0 29.1804L13.46 5.86035H40.39L53.86 29.1804L40.39 52.5004H13.46Z" fill="#FEEABC"/>
<path d="M66.4097 23.3701H66.1898H33.9998H33.7697H15.2598L16.1998 25.1201H33.7697H33.9998H65.7297L66.6697 23.3701H66.4097Z" fill="#FFEBBD"/>
<path d="M33.9999 30.96H62.6199L63.5499 29.21H33.9999H33.7698H18.3799L19.3199 30.96H33.7698H33.9999Z" fill="#FFEBBD"/>
<path d="M33.7698 19.2803H33.9999H65.5999L64.6599 17.5303H33.9999H33.7698H17.2698L16.3398 19.2803H33.7698Z" fill="#FFEBBD"/>
<path d="M33.7698 7.59982H33.9998H59.3598L58.4198 5.83984H33.9998H33.7698H23.5098L22.5698 7.59982H33.7698Z" fill="#FFEBBD"/>
<path d="M33.7697 13.4404H33.9997H62.4797L61.5397 11.6904H33.9997H33.7697H20.3896L19.4497 13.4404H33.7697Z" fill="#FFEBBD"/>
<path d="M25.6899 1.75H33.7699H33.9999H56.2399L55.2999 0H33.9999H33.7699H26.6299L25.6899 1.75Z" fill="#FFEBBD"/>
<path d="M33.7696 42.6396H33.9996H56.3796L57.3096 40.8896H33.9996H33.7696H24.6196L25.5496 42.6396H33.7696Z" fill="#FFEBBD"/>
<path d="M22.44 36.7998H33.77H34H59.5L60.43 35.0498H34H33.77H21.5L22.44 36.7998Z" fill="#FFEBBD"/>
</svg>
