<svg width="112" height="109" viewBox="0 0 112 109" fill="none" xmlns="http://www.w3.org/2000/svg">
<path d="M105.586 29.7907C105.586 28.6389 104.66 27.7129 103.509 27.7129C102.357 27.7129 101.431 28.6389 101.431 29.7907C101.431 30.9426 102.357 31.8686 103.509 31.8686C104.638 31.8686 105.586 30.9426 105.586 29.7907Z" fill="#FFDF96"/>
<path d="M96.5749 34.6465C95.423 34.6465 94.4971 35.5725 94.4971 36.7243C94.4971 37.8762 95.423 38.8022 96.5749 38.8022C97.7267 38.8022 98.6527 37.8762 98.6527 36.7243C98.6527 35.5951 97.7041 34.6465 96.5749 34.6465Z" fill="#FFDF96"/>
<path d="M108.341 50.5915C108.341 51.7434 109.267 52.6694 110.419 52.6694C110.758 52.6694 111.052 52.579 111.323 52.4435C111.3 51.1562 111.255 49.8914 111.142 48.6492C110.916 48.5588 110.668 48.5137 110.397 48.5137C109.29 48.5137 108.341 49.4397 108.341 50.5915Z" fill="#FFDF96"/>
<path d="M105.586 57.5251C105.586 56.3733 104.66 55.4473 103.509 55.4473C102.357 55.4473 101.431 56.3733 101.431 57.5251C101.431 58.677 102.357 59.603 103.509 59.603C104.638 59.603 105.586 58.677 105.586 57.5251Z" fill="#FFDF96"/>
<path d="M103.486 41.5801C102.334 41.5801 101.408 42.5061 101.408 43.6579C101.408 44.8098 102.334 45.7358 103.486 45.7358C104.637 45.7358 105.563 44.8098 105.563 43.6579C105.586 42.5061 104.637 41.5801 103.486 41.5801Z" fill="#FFDF96"/>
<path d="M96.5749 48.5137C95.423 48.5137 94.4971 49.4397 94.4971 50.5915C94.4971 51.7434 95.423 52.6694 96.5749 52.6694C97.7267 52.6694 98.6527 51.7434 98.6527 50.5915C98.6527 49.4397 97.7041 48.5137 96.5749 48.5137Z" fill="#FFDF96"/>
<path d="M109.425 38.5534C109.177 37.6048 108.883 36.6788 108.59 35.7754C108.432 36.069 108.341 36.3852 108.341 36.7466C108.341 37.5145 108.793 38.192 109.425 38.5534Z" fill="#FFDF96"/>
<path d="M101.521 84.6726C101.746 84.3338 101.972 83.995 102.221 83.6562C101.882 83.9047 101.633 84.2661 101.521 84.6726Z" fill="#FFDF96"/>
<path d="M101.408 71.3923C101.408 72.5441 102.334 73.4701 103.486 73.4701C104.637 73.4701 105.563 72.5441 105.563 71.3923C105.563 70.2404 104.637 69.3145 103.486 69.3145C102.356 69.3145 101.408 70.2404 101.408 71.3923Z" fill="#FFDF96"/>
<path d="M110.555 62.4035C110.51 62.4035 110.464 62.3809 110.419 62.3809C109.267 62.3809 108.341 63.3069 108.341 64.4587C108.341 65.3621 108.929 66.13 109.719 66.401C110.058 65.0911 110.329 63.7586 110.555 62.4035Z" fill="#FFDF96"/>
<path d="M82.7072 6.91211C81.5554 6.91211 80.6294 7.8381 80.6294 8.98995C80.6294 10.1418 81.5554 11.0678 82.7072 11.0678C83.8591 11.0678 84.785 10.1418 84.785 8.98995C84.785 7.86069 83.8591 6.91211 82.7072 6.91211Z" fill="#FFDF96"/>
<path d="M73.6953 2.07853C73.6953 3.23038 74.6213 4.15637 75.7731 4.15637C76.925 4.15637 77.8509 3.23038 77.8509 2.07853C77.8509 2.05594 77.8509 2.01079 77.8509 1.9882C76.6991 1.49133 75.5247 1.01701 74.3276 0.587891C73.9211 0.971841 73.6953 1.49131 73.6953 2.07853Z" fill="#FFDF96"/>
<path d="M68.84 6.91211C67.6882 6.91211 66.7622 7.8381 66.7622 8.98995C66.7622 10.1418 67.6882 11.0678 68.84 11.0678C69.9919 11.0678 70.918 10.1418 70.918 8.98995C70.918 7.86069 69.9919 6.91211 68.84 6.91211Z" fill="#FFDF96"/>
<path d="M82.7072 34.6465C81.5554 34.6465 80.6294 35.5725 80.6294 36.7243C80.6294 37.8762 81.5554 38.8022 82.7072 38.8022C83.8591 38.8022 84.785 37.8762 84.785 36.7243C84.785 35.5951 83.8591 34.6465 82.7072 34.6465Z" fill="#FFDF96"/>
<path d="M96.5749 24.9565C97.7224 24.9565 98.6527 24.0262 98.6527 22.8787C98.6527 21.7311 97.7224 20.8008 96.5749 20.8008C95.4273 20.8008 94.4971 21.7311 94.4971 22.8787C94.4971 24.0262 95.4273 24.9565 96.5749 24.9565Z" fill="#FFDF96"/>
<path d="M82.7072 24.9565C83.8591 24.9565 84.785 24.0305 84.785 22.8787C84.785 21.7268 83.8591 20.8008 82.7072 20.8008C81.5554 20.8008 80.6294 21.7268 80.6294 22.8787C80.6294 24.0079 81.5554 24.9565 82.7072 24.9565Z" fill="#FFDF96"/>
<path d="M75.7731 31.8686C76.925 31.8686 77.8509 30.9426 77.8509 29.7907C77.8509 28.6389 76.925 27.7129 75.7731 27.7129C74.6213 27.7129 73.6953 28.6389 73.6953 29.7907C73.6953 30.9426 74.6213 31.8686 75.7731 31.8686Z" fill="#FFDF96"/>
<path d="M91.7186 29.7907C91.7186 28.6389 90.7926 27.7129 89.6408 27.7129C88.4889 27.7129 87.563 28.6389 87.563 29.7907C87.563 30.9426 88.4889 31.8686 89.6408 31.8686C90.7701 31.8686 91.7186 30.9426 91.7186 29.7907Z" fill="#FFDF96"/>
<path d="M75.7731 18.0229C76.925 18.0229 77.8509 17.0969 77.8509 15.945C77.8509 14.7932 76.925 13.8672 75.7731 13.8672C74.6213 13.8672 73.6953 14.7932 73.6953 15.945C73.6953 17.0743 74.6213 18.0229 75.7731 18.0229Z" fill="#FFDF96"/>
<path d="M87.563 15.945C87.563 17.0969 88.4889 18.0229 89.6408 18.0229C90.7926 18.0229 91.7186 17.0969 91.7186 15.945C91.7186 14.7932 90.7926 13.8672 89.6408 13.8672C88.4889 13.8672 87.563 14.7932 87.563 15.945Z" fill="#FFDF96"/>
<path d="M68.84 34.6465C67.6882 34.6465 66.7622 35.5725 66.7622 36.7243C66.7622 37.8762 67.6882 38.8022 68.84 38.8022C69.9919 38.8022 70.918 37.8762 70.918 36.7243C70.918 35.5951 69.9919 34.6465 68.84 34.6465Z" fill="#FFDF96"/>
<path d="M82.7072 62.3809C81.5554 62.3809 80.6294 63.3069 80.6294 64.4587C80.6294 65.6106 81.5554 66.5365 82.7072 66.5365C83.8591 66.5365 84.785 65.6106 84.785 64.4587C84.785 63.3069 83.8591 62.3809 82.7072 62.3809Z" fill="#FFDF96"/>
<path d="M82.7072 48.5137C81.5554 48.5137 80.6294 49.4397 80.6294 50.5915C80.6294 51.7434 81.5554 52.6694 82.7072 52.6694C83.8591 52.6694 84.785 51.7434 84.785 50.5915C84.785 49.4397 83.8591 48.5137 82.7072 48.5137Z" fill="#FFDF96"/>
<path d="M77.8509 57.5251C77.8509 56.3733 76.925 55.4473 75.7731 55.4473C74.6213 55.4473 73.6953 56.3733 73.6953 57.5251C73.6953 58.677 74.6213 59.603 75.7731 59.603C76.925 59.603 77.8509 58.677 77.8509 57.5251Z" fill="#FFDF96"/>
<path d="M89.6408 55.4473C88.4889 55.4473 87.563 56.3733 87.563 57.5251C87.563 58.677 88.4889 59.603 89.6408 59.603C90.7926 59.603 91.7186 58.677 91.7186 57.5251C91.7186 56.3733 90.7701 55.4473 89.6408 55.4473Z" fill="#FFDF96"/>
<path d="M75.7731 41.5801C74.6213 41.5801 73.6953 42.5061 73.6953 43.6579C73.6953 44.8098 74.6213 45.7358 75.7731 45.7358C76.925 45.7358 77.8509 44.8098 77.8509 43.6579C77.8509 42.5061 76.925 41.5801 75.7731 41.5801Z" fill="#FFDF96"/>
<path d="M89.6408 41.5801C88.4889 41.5801 87.563 42.5061 87.563 43.6579C87.563 44.8098 88.4889 45.7358 89.6408 45.7358C90.7926 45.7358 91.7186 44.8098 91.7186 43.6579C91.7186 42.5061 90.7701 41.5801 89.6408 41.5801Z" fill="#FFDF96"/>
<path d="M68.84 62.3809C67.6882 62.3809 66.7622 63.3069 66.7622 64.4587C66.7622 65.6106 67.6882 66.5365 68.84 66.5365C69.9919 66.5365 70.918 65.6106 70.918 64.4587C70.918 63.3069 69.9919 62.3809 68.84 62.3809Z" fill="#FFDF96"/>
<path d="M96.5743 80.4037C97.7261 80.4037 98.6521 79.4777 98.6521 78.3259C98.6521 77.174 97.7261 76.248 96.5743 76.248C95.4224 76.248 94.4965 77.174 94.4965 78.3259C94.4739 79.4777 95.4224 80.4037 96.5743 80.4037Z" fill="#FFDF96"/>
<path d="M82.7072 80.4037C83.8591 80.4037 84.785 79.4777 84.785 78.3259C84.785 77.174 83.8591 76.248 82.7072 76.248C81.5554 76.248 80.6294 77.174 80.6294 78.3259C80.6294 79.4777 81.5554 80.4037 82.7072 80.4037Z" fill="#FFDF96"/>
<path d="M75.7731 83.1816C74.6213 83.1816 73.6953 84.1076 73.6953 85.2595C73.6953 86.4113 74.6213 87.3373 75.7731 87.3373C76.925 87.3373 77.8509 86.4113 77.8509 85.2595C77.8509 84.1076 76.925 83.1816 75.7731 83.1816Z" fill="#FFDF96"/>
<path d="M91.7186 85.2595C91.7186 84.1076 90.7926 83.1816 89.6408 83.1816C88.4889 83.1816 87.563 84.1076 87.563 85.2595C87.563 86.4113 88.4889 87.3373 89.6408 87.3373C90.7701 87.3373 91.7186 86.4113 91.7186 85.2595Z" fill="#FFDF96"/>
<path d="M75.7731 69.3145C74.6213 69.3145 73.6953 70.2404 73.6953 71.3923C73.6953 72.5441 74.6213 73.4701 75.7731 73.4701C76.925 73.4701 77.8509 72.5441 77.8509 71.3923C77.8509 70.2404 76.925 69.3145 75.7731 69.3145Z" fill="#FFDF96"/>
<path d="M89.6408 69.3145C88.4889 69.3145 87.563 70.2404 87.563 71.3923C87.563 72.5441 88.4889 73.4701 89.6408 73.4701C90.7926 73.4701 91.7186 72.5441 91.7186 71.3923C91.7186 70.2404 90.7701 69.3145 89.6408 69.3145Z" fill="#FFDF96"/>
<path d="M68.84 76.248C67.6882 76.248 66.7622 77.174 66.7622 78.3259C66.7622 79.4777 67.6882 80.4037 68.84 80.4037C69.9919 80.4037 70.918 79.4777 70.918 78.3259C70.918 77.174 69.9919 76.248 68.84 76.248Z" fill="#FFDF96"/>
<path d="M96.5749 66.5365C97.7267 66.5365 98.6527 65.6106 98.6527 64.4587C98.6527 63.3069 97.7267 62.3809 96.5749 62.3809C95.423 62.3809 94.4971 63.3069 94.4971 64.4587C94.4971 65.6106 95.423 66.5365 96.5749 66.5365Z" fill="#FFDF96"/>
<path d="M73.6953 99.1267C73.6953 100.279 74.6213 101.205 75.7731 101.205C76.925 101.205 77.8509 100.279 77.8509 99.1267C77.8509 97.9748 76.925 97.0488 75.7731 97.0488C74.6213 97.0488 73.6953 97.9748 73.6953 99.1267Z" fill="#FFDF96"/>
<path d="M87.6084 98.675C88.3537 98.1555 89.0765 97.6134 89.7992 97.0714C89.7541 97.0714 89.6863 97.0488 89.6411 97.0488C88.6474 97.0488 87.8117 97.749 87.6084 98.675Z" fill="#FFDF96"/>
<path d="M68.84 103.982C67.6882 103.982 66.7622 104.908 66.7622 106.06C66.7622 106.625 66.9881 107.144 67.3721 107.528C68.5465 107.28 69.6983 106.986 70.8275 106.67C70.8953 106.489 70.918 106.286 70.918 106.083C70.918 104.908 69.9919 103.982 68.84 103.982Z" fill="#FFDF96"/>
<path d="M97.1397 90.2056C96.959 90.1604 96.7557 90.1152 96.5524 90.1152C95.4006 90.1152 94.4746 91.0412 94.4746 92.1931C94.4746 92.4189 94.5198 92.6448 94.5875 92.8706C95.4909 92.0124 96.3266 91.1316 97.1397 90.2056Z" fill="#FFDF96"/>
<path d="M82.7072 94.271C83.8591 94.271 84.785 93.3449 84.785 92.1931C84.785 91.0412 83.8591 90.1152 82.7072 90.1152C81.5554 90.1152 80.6294 91.0412 80.6294 92.1931C80.6294 93.3449 81.5554 94.271 82.7072 94.271Z" fill="#FFDF96"/>
<path d="M54.9725 6.91211C53.8206 6.91211 52.8945 7.8381 52.8945 8.98995C52.8945 10.1418 53.8206 11.0678 54.9725 11.0678C56.1243 11.0678 57.0503 10.1418 57.0503 8.98995C57.0503 7.86069 56.1243 6.91211 54.9725 6.91211Z" fill="#FFDF96"/>
<path d="M50.1172 2.07784C50.1172 0.925994 49.1912 0 48.0394 0C46.8875 0 45.9614 0.925994 45.9614 2.07784C45.9614 3.2297 46.8875 4.15569 48.0394 4.15569C49.1912 4.15569 50.1172 3.20711 50.1172 2.07784Z" fill="#FFDF96"/>
<path d="M63.9844 2.07784C63.9844 0.925994 63.0583 0 61.9064 0C60.7546 0 59.8286 0.925994 59.8286 2.07784C59.8286 3.2297 60.7546 4.15569 61.9064 4.15569C63.0583 4.15569 63.9844 3.20711 63.9844 2.07784Z" fill="#FFDF96"/>
<path d="M68.84 24.9565C69.9919 24.9565 70.918 24.0305 70.918 22.8787C70.918 21.7268 69.9919 20.8008 68.84 20.8008C67.6882 20.8008 66.7622 21.7268 66.7622 22.8787C66.7622 24.0079 67.6882 24.9565 68.84 24.9565Z" fill="#FFDF96"/>
<path d="M54.9725 24.9565C56.1243 24.9565 57.0503 24.0305 57.0503 22.8787C57.0503 21.7268 56.1243 20.8008 54.9725 20.8008C53.8206 20.8008 52.8945 21.7268 52.8945 22.8787C52.8945 24.0079 53.8206 24.9565 54.9725 24.9565Z" fill="#FFDF96"/>
<path d="M48.0394 31.8686C49.1912 31.8686 50.1172 30.9426 50.1172 29.7907C50.1172 28.6389 49.1912 27.7129 48.0394 27.7129C46.8875 27.7129 45.9614 28.6389 45.9614 29.7907C45.9614 30.9426 46.8875 31.8686 48.0394 31.8686Z" fill="#FFDF96"/>
<path d="M61.9064 31.8686C63.0583 31.8686 63.9844 30.9426 63.9844 29.7907C63.9844 28.6389 63.0583 27.7129 61.9064 27.7129C60.7546 27.7129 59.8286 28.6389 59.8286 29.7907C59.8286 30.9426 60.7546 31.8686 61.9064 31.8686Z" fill="#FFDF96"/>
<path d="M48.0394 18.0229C49.1912 18.0229 50.1172 17.0969 50.1172 15.945C50.1172 14.7932 49.1912 13.8672 48.0394 13.8672C46.8875 13.8672 45.9614 14.7932 45.9614 15.945C45.9614 17.0743 46.8875 18.0229 48.0394 18.0229Z" fill="#FFDF96"/>
<path d="M61.9064 18.0229C63.0583 18.0229 63.9844 17.0969 63.9844 15.945C63.9844 14.7932 63.0583 13.8672 61.9064 13.8672C60.7546 13.8672 59.8286 14.7932 59.8286 15.945C59.8286 17.0743 60.7546 18.0229 61.9064 18.0229Z" fill="#FFDF96"/>
<path d="M54.9725 62.3809C53.8206 62.3809 52.8945 63.3069 52.8945 64.4587C52.8945 65.6106 53.8206 66.5365 54.9725 66.5365C56.1243 66.5365 57.0503 65.6106 57.0503 64.4587C57.0503 63.3069 56.1243 62.3809 54.9725 62.3809Z" fill="#FFDF96"/>
<path d="M68.84 52.6694C69.9919 52.6694 70.918 51.7434 70.918 50.5915C70.918 49.4397 69.9919 48.5137 68.84 48.5137C67.6882 48.5137 66.7622 49.4397 66.7622 50.5915C66.7622 51.7434 67.6882 52.6694 68.84 52.6694Z" fill="#FFDF96"/>
<path d="M54.9725 48.5137C53.8206 48.5137 52.8945 49.4397 52.8945 50.5915C52.8945 51.7434 53.8206 52.6694 54.9725 52.6694C56.1243 52.6694 57.0503 51.7434 57.0503 50.5915C57.0503 49.4397 56.1243 48.5137 54.9725 48.5137Z" fill="#FFDF96"/>
<path d="M48.0394 55.4473C46.8875 55.4473 45.9614 56.3733 45.9614 57.5251C45.9614 58.677 46.8875 59.603 48.0394 59.603C49.1912 59.603 50.1172 58.677 50.1172 57.5251C50.1172 56.3733 49.1912 55.4473 48.0394 55.4473Z" fill="#FFDF96"/>
<path d="M61.9064 55.4473C60.7546 55.4473 59.8286 56.3733 59.8286 57.5251C59.8286 58.677 60.7546 59.603 61.9064 59.603C63.0583 59.603 63.9844 58.677 63.9844 57.5251C63.9844 56.3733 63.0583 55.4473 61.9064 55.4473Z" fill="#FFDF96"/>
<path d="M48.0394 41.5801C46.8875 41.5801 45.9614 42.5061 45.9614 43.6579C45.9614 44.8098 46.8875 45.7358 48.0394 45.7358C49.1912 45.7358 50.1172 44.8098 50.1172 43.6579C50.1172 42.5061 49.1912 41.5801 48.0394 41.5801Z" fill="#FFDF96"/>
<path d="M61.9064 41.5801C60.7546 41.5801 59.8286 42.5061 59.8286 43.6579C59.8286 44.8098 60.7546 45.7358 61.9064 45.7358C63.0583 45.7358 63.9844 44.8098 63.9844 43.6579C63.9844 42.5061 63.0583 41.5801 61.9064 41.5801Z" fill="#FFDF96"/>
<path d="M41.1052 62.3809C39.9533 62.3809 39.0273 63.3069 39.0273 64.4587C39.0273 65.6106 39.9533 66.5365 41.1052 66.5365C42.257 66.5365 43.183 65.6106 43.183 64.4587C43.183 63.3069 42.257 62.3809 41.1052 62.3809Z" fill="#FFDF96"/>
<path d="M41.1052 48.5137C39.9533 48.5137 39.0273 49.4397 39.0273 50.5915C39.0273 51.7434 39.9533 52.6694 41.1052 52.6694C42.257 52.6694 43.183 51.7434 43.183 50.5915C43.183 49.4397 42.257 48.5137 41.1052 48.5137Z" fill="#FFDF96"/>
<path d="M54.9725 38.8237C56.1243 38.8237 57.0503 37.8977 57.0503 36.7458C57.0503 35.594 56.1243 34.668 54.9725 34.668C53.8206 34.668 52.8945 35.594 52.8945 36.7458C52.8945 37.8751 53.8206 38.8237 54.9725 38.8237Z" fill="#FFDF96"/>
<path d="M54.9725 90.1152C53.8206 90.1152 52.8945 91.0412 52.8945 92.1931C52.8945 93.3449 53.8206 94.271 54.9725 94.271C56.1243 94.271 57.0503 93.3449 57.0503 92.1931C57.0503 91.0412 56.1243 90.1152 54.9725 90.1152Z" fill="#FFDF96"/>
<path d="M54.9725 76.248C53.8206 76.248 52.8945 77.174 52.8945 78.3259C52.8945 79.4777 53.8206 80.4037 54.9725 80.4037C56.1243 80.4037 57.0503 79.4777 57.0503 78.3259C57.0503 77.174 56.1243 76.248 54.9725 76.248Z" fill="#FFDF96"/>
<path d="M48.0394 83.1816C46.8875 83.1816 45.9614 84.1076 45.9614 85.2595C45.9614 86.4113 46.8875 87.3373 48.0394 87.3373C49.1912 87.3373 50.1172 86.4113 50.1172 85.2595C50.1172 84.1076 49.1912 83.1816 48.0394 83.1816Z" fill="#FFDF96"/>
<path d="M61.9064 83.1816C60.7546 83.1816 59.8286 84.1076 59.8286 85.2595C59.8286 86.4113 60.7546 87.3373 61.9064 87.3373C63.0583 87.3373 63.9844 86.4113 63.9844 85.2595C63.9844 84.1076 63.0583 83.1816 61.9064 83.1816Z" fill="#FFDF96"/>
<path d="M48.0394 69.3145C46.8875 69.3145 45.9614 70.2404 45.9614 71.3923C45.9614 72.5441 46.8875 73.4701 48.0394 73.4701C49.1912 73.4701 50.1172 72.5441 50.1172 71.3923C50.1172 70.2404 49.1912 69.3145 48.0394 69.3145Z" fill="#FFDF96"/>
<path d="M61.9064 69.3145C60.7546 69.3145 59.8286 70.2404 59.8286 71.3923C59.8286 72.5441 60.7546 73.4701 61.9064 73.4701C63.0583 73.4701 63.9844 72.5441 63.9844 71.3923C63.9844 70.2404 63.0583 69.3145 61.9064 69.3145Z" fill="#FFDF96"/>
<path d="M41.1052 76.248C39.9533 76.248 39.0273 77.174 39.0273 78.3259C39.0273 79.4777 39.9533 80.4037 41.1052 80.4037C42.257 80.4037 43.183 79.4777 43.183 78.3259C43.183 77.174 42.257 76.248 41.1052 76.248Z" fill="#FFDF96"/>
<path d="M54.9725 103.982C53.8206 103.982 52.8945 104.908 52.8945 106.06C52.8945 107.212 53.8206 108.138 54.9725 108.138C56.1243 108.138 57.0503 107.212 57.0503 106.06C57.0503 104.908 56.1243 103.982 54.9725 103.982Z" fill="#FFDF96"/>
<path d="M45.9614 99.1267C45.9614 100.279 46.8875 101.205 48.0394 101.205C49.1912 101.205 50.1172 100.279 50.1172 99.1267C50.1172 97.9748 49.1912 97.0488 48.0394 97.0488C46.8875 97.0488 45.9614 97.9748 45.9614 99.1267Z" fill="#FFDF96"/>
<path d="M59.8286 99.1267C59.8286 100.279 60.7546 101.205 61.9064 101.205C63.0583 101.205 63.9844 100.279 63.9844 99.1267C63.9844 97.9748 63.0583 97.0488 61.9064 97.0488C60.7546 97.0488 59.8286 97.9748 59.8286 99.1267Z" fill="#FFDF96"/>
<path d="M41.1052 103.982C39.9533 103.982 39.0273 104.908 39.0273 106.06C39.0273 106.128 39.0498 106.173 39.0498 106.241C40.292 106.625 41.5343 106.964 42.8217 107.257C43.0475 106.919 43.2056 106.512 43.2056 106.06C43.183 104.908 42.257 103.982 41.1052 103.982Z" fill="#FFDF96"/>
<path d="M68.84 94.271C69.9919 94.271 70.918 93.3449 70.918 92.1931C70.918 91.0412 69.9919 90.1152 68.84 90.1152C67.6882 90.1152 66.7622 91.0412 66.7622 92.1931C66.7622 93.3449 67.6882 94.271 68.84 94.271Z" fill="#FFDF96"/>
<path d="M27.238 6.91211C26.0861 6.91211 25.1602 7.8381 25.1602 8.98995C25.1602 10.1418 26.0861 11.0678 27.238 11.0678C28.3898 11.0678 29.3158 10.1418 29.3158 8.98995C29.3158 7.86069 28.3898 6.91211 27.238 6.91211Z" fill="#FFDF96"/>
<path d="M34.1713 4.15607C35.3231 4.15607 36.2491 3.23008 36.2491 2.07823C36.2491 1.67169 36.1361 1.31033 35.9328 0.994141C34.6455 1.49102 33.3807 2.01046 32.1611 2.59768C32.387 3.47851 33.2001 4.15607 34.1713 4.15607Z" fill="#FFDF96"/>
<path d="M41.1052 24.9565C42.257 24.9565 43.183 24.0305 43.183 22.8787C43.183 21.7268 42.257 20.8008 41.1052 20.8008C39.9533 20.8008 39.0273 21.7268 39.0273 22.8787C39.0273 24.0079 39.9533 24.9565 41.1052 24.9565Z" fill="#FFDF96"/>
<path d="M27.238 24.9565C28.3855 24.9565 29.3158 24.0262 29.3158 22.8787C29.3158 21.7311 28.3855 20.8008 27.238 20.8008C26.0904 20.8008 25.1602 21.7311 25.1602 22.8787C25.1602 24.0262 26.0904 24.9565 27.238 24.9565Z" fill="#FFDF96"/>
<path d="M22.3822 29.7907C22.3822 28.6389 21.4562 27.7129 20.3044 27.7129C19.1525 27.7129 18.2266 28.6389 18.2266 29.7907C18.2266 30.9426 19.1525 31.8686 20.3044 31.8686C21.4562 31.8686 22.3822 30.9426 22.3822 29.7907Z" fill="#FFDF96"/>
<path d="M34.1716 31.8686C35.3234 31.8686 36.2494 30.9426 36.2494 29.7907C36.2494 28.6389 35.3234 27.7129 34.1716 27.7129C33.0197 27.7129 32.0938 28.6389 32.0938 29.7907C32.0938 30.9426 33.0197 31.8686 34.1716 31.8686Z" fill="#FFDF96"/>
<path d="M18.2266 15.945C18.2266 17.0969 19.1525 18.0229 20.3044 18.0229C21.4562 18.0229 22.3822 17.0969 22.3822 15.945C22.3822 14.7932 21.4562 13.8672 20.3044 13.8672C19.1525 13.8672 18.2266 14.7932 18.2266 15.945Z" fill="#FFDF96"/>
<path d="M34.1716 18.0229C35.3234 18.0229 36.2494 17.0969 36.2494 15.945C36.2494 14.7932 35.3234 13.8672 34.1716 13.8672C33.0197 13.8672 32.0938 14.7932 32.0938 15.945C32.0938 17.0743 33.0197 18.0229 34.1716 18.0229Z" fill="#FFDF96"/>
<path d="M41.1052 11.0893C42.257 11.0893 43.183 10.1633 43.183 9.01147C43.183 7.85962 42.257 6.93359 41.1052 6.93359C39.9533 6.93359 39.0273 7.85962 39.0273 9.01147C39.0273 10.1633 39.9533 11.0893 41.1052 11.0893Z" fill="#FFDF96"/>
<path d="M27.238 62.3809C26.0861 62.3809 25.1602 63.3069 25.1602 64.4587C25.1602 65.6106 26.0861 66.5365 27.238 66.5365C28.3898 66.5365 29.3158 65.6106 29.3158 64.4587C29.3158 63.3069 28.3898 62.3809 27.238 62.3809Z" fill="#FFDF96"/>
<path d="M27.238 48.5137C26.0861 48.5137 25.1602 49.4397 25.1602 50.5915C25.1602 51.7434 26.0861 52.6694 27.238 52.6694C28.3898 52.6694 29.3158 51.7434 29.3158 50.5915C29.3158 49.4397 28.3898 48.5137 27.238 48.5137Z" fill="#FFDF96"/>
<path d="M20.3044 55.4473C19.1525 55.4473 18.2266 56.3733 18.2266 57.5251C18.2266 58.677 19.1525 59.603 20.3044 59.603C21.4562 59.603 22.3822 58.677 22.3822 57.5251C22.3822 56.3733 21.4562 55.4473 20.3044 55.4473Z" fill="#FFDF96"/>
<path d="M34.1716 55.4473C33.0197 55.4473 32.0938 56.3733 32.0938 57.5251C32.0938 58.677 33.0197 59.603 34.1716 59.603C35.3234 59.603 36.2494 58.677 36.2494 57.5251C36.2494 56.3733 35.3234 55.4473 34.1716 55.4473Z" fill="#FFDF96"/>
<path d="M20.3044 41.5801C19.1525 41.5801 18.2266 42.5061 18.2266 43.6579C18.2266 44.8098 19.1525 45.7358 20.3044 45.7358C21.4562 45.7358 22.3822 44.8098 22.3822 43.6579C22.3822 42.5061 21.4562 41.5801 20.3044 41.5801Z" fill="#FFDF96"/>
<path d="M34.1716 41.5801C33.0197 41.5801 32.0938 42.5061 32.0938 43.6579C32.0938 44.8098 33.0197 45.7358 34.1716 45.7358C35.3234 45.7358 36.2494 44.8098 36.2494 43.6579C36.2494 42.5061 35.3234 41.5801 34.1716 41.5801Z" fill="#FFDF96"/>
<path d="M13.3703 62.3809C12.2184 62.3809 11.2925 63.3069 11.2925 64.4587C11.2925 65.6106 12.2184 66.5365 13.3703 66.5365C14.5221 66.5365 15.4482 65.6106 15.4482 64.4587C15.4482 63.3069 14.5221 62.3809 13.3703 62.3809Z" fill="#FFDF96"/>
<path d="M13.3703 48.5137C12.2184 48.5137 11.2925 49.4397 11.2925 50.5915C11.2925 51.7434 12.2184 52.6694 13.3703 52.6694C14.5221 52.6694 15.4482 51.7434 15.4482 50.5915C15.4482 49.4397 14.5221 48.5137 13.3703 48.5137Z" fill="#FFDF96"/>
<path d="M41.1052 38.8237C42.257 38.8237 43.183 37.8977 43.183 36.7458C43.183 35.594 42.257 34.668 41.1052 34.668C39.9533 34.668 39.0273 35.594 39.0273 36.7458C39.0273 37.8751 39.9533 38.8237 41.1052 38.8237Z" fill="#FFDF96"/>
<path d="M27.238 38.8237C28.3898 38.8237 29.3158 37.8977 29.3158 36.7458C29.3158 35.594 28.3898 34.668 27.238 34.668C26.0861 34.668 25.1602 35.594 25.1602 36.7458C25.1602 37.8751 26.0861 38.8237 27.238 38.8237Z" fill="#FFDF96"/>
<path d="M27.238 76.248C26.0861 76.248 25.1602 77.174 25.1602 78.3259C25.1602 79.4777 26.0861 80.4037 27.238 80.4037C28.3898 80.4037 29.3158 79.4777 29.3158 78.3259C29.3158 77.174 28.3898 76.248 27.238 76.248Z" fill="#FFDF96"/>
<path d="M20.3044 83.1816C19.1525 83.1816 18.2266 84.1076 18.2266 85.2595C18.2266 86.4113 19.1525 87.3373 20.3044 87.3373C21.4562 87.3373 22.3822 86.4113 22.3822 85.2595C22.3822 84.1076 21.4562 83.1816 20.3044 83.1816Z" fill="#FFDF96"/>
<path d="M34.1716 83.1816C33.0197 83.1816 32.0938 84.1076 32.0938 85.2595C32.0938 86.4113 33.0197 87.3373 34.1716 87.3373C35.3234 87.3373 36.2494 86.4113 36.2494 85.2595C36.2494 84.1076 35.3234 83.1816 34.1716 83.1816Z" fill="#FFDF96"/>
<path d="M20.3044 69.3145C19.1525 69.3145 18.2266 70.2404 18.2266 71.3923C18.2266 72.5441 19.1525 73.4701 20.3044 73.4701C21.4562 73.4701 22.3822 72.5441 22.3822 71.3923C22.3822 70.2404 21.4562 69.3145 20.3044 69.3145Z" fill="#FFDF96"/>
<path d="M34.1716 69.3145C33.0197 69.3145 32.0938 70.2404 32.0938 71.3923C32.0938 72.5441 33.0197 73.4701 34.1716 73.4701C35.3234 73.4701 36.2494 72.5441 36.2494 71.3923C36.2494 70.2404 35.3234 69.3145 34.1716 69.3145Z" fill="#FFDF96"/>
<path d="M15.3128 91.4024C15.1095 90.9282 14.7481 90.5442 14.2964 90.3184C14.6126 90.7023 14.9514 91.0637 15.3128 91.4024Z" fill="#FFDF96"/>
<path d="M15.4482 78.3259C15.4482 77.174 14.5221 76.248 13.3703 76.248C12.2184 76.248 11.2925 77.174 11.2925 78.3259C11.2925 79.4777 12.2184 80.4037 13.3703 80.4037C14.5221 80.4037 15.4482 79.4777 15.4482 78.3259Z" fill="#FFDF96"/>
<path d="M32.0938 99.1267C32.0938 100.279 33.0197 101.205 34.1716 101.205C35.3234 101.205 36.2494 100.279 36.2494 99.1267C36.2494 97.9748 35.3234 97.0488 34.1716 97.0488C33.0197 97.0488 32.0938 97.9748 32.0938 99.1267Z" fill="#FFDF96"/>
<path d="M41.1052 94.271C42.257 94.271 43.183 93.3449 43.183 92.1931C43.183 91.0412 42.257 90.1152 41.1052 90.1152C39.9533 90.1152 39.0273 91.0412 39.0273 92.1931C39.0273 93.3449 39.9533 94.271 41.1052 94.271Z" fill="#FFDF96"/>
<path d="M27.238 94.271C28.3898 94.271 29.3158 93.3449 29.3158 92.1931C29.3158 91.0412 28.3898 90.1152 27.238 90.1152C26.0861 90.1152 25.1602 91.0412 25.1602 92.1931C25.1602 93.3449 26.0861 94.271 27.238 94.271Z" fill="#FFDF96"/>
<path d="M13.3703 24.9565C14.5221 24.9565 15.4482 24.0305 15.4482 22.8787C15.4482 21.7268 14.5221 20.8008 13.3703 20.8008C12.2184 20.8008 11.2925 21.7268 11.2925 22.8787C11.2925 24.0079 12.2184 24.9565 13.3703 24.9565Z" fill="#FFDF96"/>
<path d="M6.43683 31.8686C7.58868 31.8686 8.51477 30.9426 8.51477 29.7907C8.51477 28.6389 7.58868 27.7129 6.43683 27.7129C6.30131 27.7129 6.18843 27.7355 6.05291 27.758C5.55604 28.7518 5.05913 29.7682 4.60742 30.7845C4.96879 31.4395 5.64634 31.8686 6.43683 31.8686Z" fill="#FFDF96"/>
<path d="M0.85791 62.877C1.01601 63.7126 1.17404 64.5483 1.35472 65.3839C1.49023 65.1129 1.58066 64.7967 1.58066 64.4579C1.60324 63.8255 1.30962 63.2609 0.85791 62.877Z" fill="#FFDF96"/>
<path d="M1.60361 50.5919C1.60361 49.6659 0.993792 48.898 0.180721 48.627C0.0677945 49.9369 0 51.2694 0 52.602C0.903412 52.3987 1.60361 51.5856 1.60361 50.5919Z" fill="#FFDF96"/>
<path d="M6.43621 59.603C7.58806 59.603 8.51416 58.677 8.51416 57.5251C8.51416 56.3733 7.58806 55.4473 6.43621 55.4473C5.28436 55.4473 4.3584 56.3733 4.3584 57.5251C4.3584 58.677 5.30694 59.603 6.43621 59.603Z" fill="#FFDF96"/>
<path d="M4.3584 43.6579C4.3584 44.8098 5.28436 45.7358 6.43621 45.7358C7.58806 45.7358 8.51416 44.8098 8.51416 43.6579C8.51416 42.5061 7.58806 41.5801 6.43621 41.5801C5.30694 41.5801 4.3584 42.5061 4.3584 43.6579Z" fill="#FFDF96"/>
<path d="M13.3703 38.8237C14.5221 38.8237 15.4482 37.8977 15.4482 36.7458C15.4482 35.594 14.5221 34.668 13.3703 34.668C12.2184 34.668 11.2925 35.594 11.2925 36.7458C11.2925 37.8751 12.2184 38.8237 13.3703 38.8237Z" fill="#FFDF96"/>
<path d="M4.3584 71.3923C4.3584 72.5441 5.28436 73.4701 6.43621 73.4701C7.58806 73.4701 8.51416 72.5441 8.51416 71.3923C8.51416 70.2404 7.58806 69.3145 6.43621 69.3145C5.30694 69.3145 4.3584 70.2404 4.3584 71.3923Z" fill="#FFDF96"/>
</svg>
