<svg width="130" height="135" viewBox="0 0 130 135" fill="none" xmlns="http://www.w3.org/2000/svg">
<g clip-path="url(#clip0_466_10984)">
<path d="M74.8329 21.0614C74.4819 21.3296 74.0131 21.4152 73.5731 21.239C62.115 16.8017 51.8966 16.7267 43.1953 21.0201C27.949 28.548 22.3854 47.1792 22.3299 47.3633C22.1264 48.053 21.4057 48.4511 20.716 48.2476C20.0263 48.0441 19.6335 47.3302 19.8249 46.6389C20.0568 45.8294 25.7411 26.7571 42.017 18.6932C51.4067 14.0592 62.3404 14.1001 74.5149 18.8186C75.1843 19.0812 75.5167 19.8302 75.2542 20.4997C75.1678 20.7292 75.0188 20.9194 74.8329 21.0614Z" fill="#ECECEC"/>
<path d="M88.9875 34.6353C88.6158 34.9193 88.1053 34.9932 87.6565 34.791C73.209 28.1678 60.5624 27.4404 50.0618 32.618C31.6724 41.6971 25.9041 66.1103 25.8473 66.3499C25.6855 67.0514 24.9911 67.4838 24.2949 67.3289C23.5935 67.1671 23.161 66.4727 23.3159 65.7765C23.556 64.7209 29.4006 39.9223 48.901 30.2996C60.1312 24.75 73.5331 25.4671 88.7391 32.4266C89.3915 32.724 89.6774 33.4977 89.38 34.1501C89.2864 34.3415 89.1527 34.5091 88.9875 34.6353Z" fill="#ECECEC"/>
<path d="M103.609 56.0395C103.175 56.3709 102.565 56.4006 102.095 56.0842C86.0569 45.2249 71.9508 42.1022 60.1481 46.8028C39.25 55.1384 32.3398 85.5483 32.268 85.8539C32.1183 86.557 31.417 86.9947 30.7208 86.8398C30.0178 86.6901 29.5732 85.9941 29.735 85.2926C30.0213 83.9836 37.0013 53.2369 59.1857 44.3873C71.8256 39.3414 86.7607 42.5503 103.552 53.9244C104.146 54.3315 104.304 55.1375 103.897 55.732C103.818 55.8574 103.719 55.9554 103.609 56.0395Z" fill="#ECECEC"/>
<path d="M110.759 90.3267C110.559 90.4793 110.311 90.582 110.037 90.5948C109.322 90.6289 108.709 90.0834 108.675 89.3681C108.197 80.2809 102.715 67.385 93.1552 60.3092C86.412 55.3221 78.7351 53.8503 70.3415 55.9352C55.7206 59.5729 51.3213 75.2758 48.1057 86.749C46.1898 93.5877 44.7993 98.5314 41.7078 99.6506C40.364 100.132 38.885 99.8231 37.3124 98.7352C36.7248 98.3228 36.579 97.5184 36.9861 96.924C37.3984 96.3364 38.2028 96.1905 38.7973 96.5976C39.6463 97.1809 40.3291 97.3896 40.8352 97.2101C42.6781 96.5543 44.0966 91.4475 45.6148 86.0574C49.0051 73.971 53.6412 57.4221 69.7317 53.4248C78.7909 51.1693 87.4311 52.8317 94.7185 58.2315C105.392 66.136 110.788 79.8489 111.281 89.2409C111.292 89.6688 111.089 90.0743 110.759 90.3267Z" fill="#ECECEC"/>
<path d="M94.9369 111.17C94.8681 111.223 94.7924 111.281 94.7235 111.333C93.2241 112.424 91.7869 112.727 90.4537 112.252C87.217 111.083 85.8239 105.65 84.2186 99.3538C82.8792 94.1192 81.3673 88.1878 78.9689 86.9894C78.6156 86.8124 78.0352 86.6235 77.0546 87.0238C71.9152 89.1299 70.5078 95.6782 69.154 102.011C67.8915 107.893 66.697 113.45 62.5372 115.625C59.8795 117.013 56.4153 116.759 51.9524 114.871C51.2914 114.591 50.9796 113.826 51.2596 113.165C51.5396 112.504 52.3044 112.192 52.9653 112.472C56.6735 114.044 59.4119 114.317 61.3383 113.314C64.4256 111.718 65.4882 106.731 66.6194 101.462C68.0482 94.7992 69.6648 87.2406 76.0731 84.612C77.525 84.0151 78.894 84.0376 80.1385 84.6675C83.59 86.4023 85.1197 92.3855 86.7391 98.7144C87.9241 103.347 89.3912 109.106 91.3364 109.811C91.5137 109.872 92.056 110.068 93.1991 109.238C93.2473 109.201 93.2955 109.165 93.3437 109.128C100.035 104.015 99.8347 87.2586 92.8943 75.7064C89.7406 70.4516 82.7817 62.4567 71.6421 67.8826C63.2267 71.9794 60.5097 83.6058 58.3216 92.9421C56.5191 100.643 55.0885 106.718 51.0965 108.286C49.0296 109.091 46.6371 108.542 43.7694 106.601C43.175 106.194 43.017 105.388 43.4241 104.793C43.819 104.197 44.6372 104.041 45.2317 104.448C47.3114 105.857 48.9599 106.331 50.1531 105.866C52.8673 104.796 54.2878 98.7497 55.7866 92.3496C58.0964 82.4734 60.9807 70.1957 70.502 65.5484C79.9956 60.9222 88.972 64.1376 95.1244 74.3731C102.163 86.0683 103.562 104.58 94.9369 111.17Z" fill="#ECECEC"/>
<path d="M76.2023 122.323C75.7617 122.659 75.1399 122.688 74.6656 122.352C74.078 121.94 73.9391 121.13 74.3514 120.543C77.2361 116.441 75.8554 106.387 75.0857 102.854C74.9322 102.153 75.3713 101.458 76.0716 101.305C76.772 101.151 77.4673 101.59 77.6208 102.291C77.7436 102.851 80.6107 116.164 76.47 122.031C76.3983 122.151 76.3055 122.244 76.2023 122.323Z" fill="#ECECEC"/>
</g>
<defs>
<clipPath id="clip0_466_10984">
<rect width="81.3382" height="106.245" fill="white" transform="translate(0 50) rotate(-37.3819)"/>
</clipPath>
</defs>
</svg>
