<svg width="97" height="92" viewBox="0 0 97 92" fill="none" xmlns="http://www.w3.org/2000/svg">
<path d="M91.6644 25.2851C91.6644 24.3074 90.8606 23.5215 89.8606 23.5215C88.8606 23.5215 88.0566 24.3074 88.0566 25.2851C88.0566 26.2627 88.8606 27.0487 89.8606 27.0487C90.841 27.0487 91.6644 26.2627 91.6644 25.2851Z" fill="#D1D1D1"/>
<path d="M83.841 29.4062C82.841 29.4062 82.0371 30.1922 82.0371 31.1698C82.0371 32.1475 82.841 32.9334 83.841 32.9334C84.8409 32.9334 85.6448 32.1475 85.6448 31.1698C85.6448 30.2114 84.8213 29.4062 83.841 29.4062Z" fill="#D1D1D1"/>
<path d="M94.0566 42.9394C94.0566 43.917 94.8606 44.703 95.8606 44.703C96.1547 44.703 96.4095 44.6263 96.6448 44.5113C96.6252 43.4186 96.5861 42.3451 96.4881 41.2908C96.292 41.2141 96.0763 41.1758 95.841 41.1758C94.8802 41.1758 94.0566 41.9617 94.0566 42.9394Z" fill="#D1D1D1"/>
<path d="M91.6644 48.8251C91.6644 47.8475 90.8606 47.0615 89.8606 47.0615C88.8606 47.0615 88.0566 47.8475 88.0566 48.8251C88.0566 49.8028 88.8606 50.5887 89.8606 50.5887C90.841 50.5887 91.6644 49.8028 91.6644 48.8251Z" fill="#D1D1D1"/>
<path d="M89.8405 35.291C88.8405 35.291 88.0366 36.077 88.0366 37.0546C88.0366 38.0322 88.8405 38.8182 89.8405 38.8182C90.8404 38.8182 91.6443 38.0322 91.6443 37.0546C91.6639 36.077 90.8404 35.291 89.8405 35.291Z" fill="#D1D1D1"/>
<path d="M83.841 41.1758C82.841 41.1758 82.0371 41.9617 82.0371 42.9394C82.0371 43.917 82.841 44.703 83.841 44.703C84.8409 44.703 85.6448 43.917 85.6448 42.9394C85.6448 41.9617 84.8213 41.1758 83.841 41.1758Z" fill="#D1D1D1"/>
<path d="M94.9979 32.7231C94.7822 31.918 94.5273 31.132 94.2724 30.3652C94.1352 30.6144 94.0566 30.8828 94.0566 31.1895C94.0566 31.8413 94.4489 32.4164 94.9979 32.7231Z" fill="#D1D1D1"/>
<path d="M88.1348 71.8666C88.3308 71.579 88.5269 71.2914 88.7426 71.0039C88.4485 71.2148 88.2328 71.5215 88.1348 71.8666Z" fill="#D1D1D1"/>
<path d="M88.0366 60.5946C88.0366 61.5723 88.8405 62.3582 89.8405 62.3582C90.8404 62.3582 91.6443 61.5723 91.6443 60.5946C91.6443 59.617 90.8404 58.8311 89.8405 58.8311C88.8601 58.8311 88.0366 59.617 88.0366 60.5946Z" fill="#D1D1D1"/>
<path d="M95.9782 52.9655C95.939 52.9655 95.8998 52.9463 95.8606 52.9463C94.8606 52.9463 94.0566 53.7322 94.0566 54.7099C94.0566 55.4767 94.5665 56.1284 95.2528 56.3585C95.5469 55.2466 95.7822 54.1156 95.9782 52.9655Z" fill="#D1D1D1"/>
<path d="M71.8019 5.86621C70.8019 5.86621 69.998 6.65216 69.998 7.6298C69.998 8.60744 70.8019 9.39339 71.8019 9.39339C72.8019 9.39339 73.6057 8.60744 73.6057 7.6298C73.6057 6.67133 72.8019 5.86621 71.8019 5.86621Z" fill="#D1D1D1"/>
<path d="M63.9785 1.76422C63.9785 2.74186 64.7824 3.5278 65.7824 3.5278C66.7823 3.5278 67.5862 2.74186 67.5862 1.76422C67.5862 1.74505 67.5862 1.70672 67.5862 1.68755C66.5862 1.26582 65.5666 0.863243 64.5275 0.499023C64.1745 0.824904 63.9785 1.26581 63.9785 1.76422Z" fill="#D1D1D1"/>
<path d="M59.7633 5.86621C58.7633 5.86621 57.9595 6.65216 57.9595 7.6298C57.9595 8.60744 58.7633 9.39339 59.7633 9.39339C60.7633 9.39339 61.5673 8.60744 61.5673 7.6298C61.5673 6.67133 60.7633 5.86621 59.7633 5.86621Z" fill="#D1D1D1"/>
<path d="M71.8019 29.4062C70.8019 29.4062 69.998 30.1922 69.998 31.1698C69.998 32.1475 70.8019 32.9334 71.8019 32.9334C72.8019 32.9334 73.6057 32.1475 73.6057 31.1698C73.6057 30.2114 72.8019 29.4062 71.8019 29.4062Z" fill="#D1D1D1"/>
<path d="M83.841 21.1825C84.8372 21.1825 85.6448 20.3929 85.6448 19.4189C85.6448 18.4449 84.8372 17.6553 83.841 17.6553C82.8447 17.6553 82.0371 18.4449 82.0371 19.4189C82.0371 20.3929 82.8447 21.1825 83.841 21.1825Z" fill="#D1D1D1"/>
<path d="M71.8019 21.1825C72.8019 21.1825 73.6057 20.3965 73.6057 19.4189C73.6057 18.4412 72.8019 17.6553 71.8019 17.6553C70.8019 17.6553 69.998 18.4412 69.998 19.4189C69.998 20.3774 70.8019 21.1825 71.8019 21.1825Z" fill="#D1D1D1"/>
<path d="M65.7824 27.0487C66.7823 27.0487 67.5862 26.2627 67.5862 25.2851C67.5862 24.3074 66.7823 23.5215 65.7824 23.5215C64.7824 23.5215 63.9785 24.3074 63.9785 25.2851C63.9785 26.2627 64.7824 27.0487 65.7824 27.0487Z" fill="#D1D1D1"/>
<path d="M79.6253 25.2851C79.6253 24.3074 78.8214 23.5215 77.8214 23.5215C76.8214 23.5215 76.0176 24.3074 76.0176 25.2851C76.0176 26.2627 76.8214 27.0487 77.8214 27.0487C78.8018 27.0487 79.6253 26.2627 79.6253 25.2851Z" fill="#D1D1D1"/>
<path d="M65.7824 15.2967C66.7823 15.2967 67.5862 14.5108 67.5862 13.5331C67.5862 12.5555 66.7823 11.7695 65.7824 11.7695C64.7824 11.7695 63.9785 12.5555 63.9785 13.5331C63.9785 14.4916 64.7824 15.2967 65.7824 15.2967Z" fill="#D1D1D1"/>
<path d="M76.0176 13.5331C76.0176 14.5108 76.8214 15.2967 77.8214 15.2967C78.8214 15.2967 79.6253 14.5108 79.6253 13.5331C79.6253 12.5555 78.8214 11.7695 77.8214 11.7695C76.8214 11.7695 76.0176 12.5555 76.0176 13.5331Z" fill="#D1D1D1"/>
<path d="M59.7633 29.4062C58.7633 29.4062 57.9595 30.1922 57.9595 31.1698C57.9595 32.1475 58.7633 32.9334 59.7633 32.9334C60.7633 32.9334 61.5673 32.1475 61.5673 31.1698C61.5673 30.2114 60.7633 29.4062 59.7633 29.4062Z" fill="#D1D1D1"/>
<path d="M71.8019 52.9463C70.8019 52.9463 69.998 53.7322 69.998 54.7099C69.998 55.6875 70.8019 56.4735 71.8019 56.4735C72.8019 56.4735 73.6057 55.6875 73.6057 54.7099C73.6057 53.7322 72.8019 52.9463 71.8019 52.9463Z" fill="#D1D1D1"/>
<path d="M71.8019 41.1758C70.8019 41.1758 69.998 41.9617 69.998 42.9394C69.998 43.917 70.8019 44.703 71.8019 44.703C72.8019 44.703 73.6057 43.917 73.6057 42.9394C73.6057 41.9617 72.8019 41.1758 71.8019 41.1758Z" fill="#D1D1D1"/>
<path d="M67.5862 48.8251C67.5862 47.8475 66.7823 47.0615 65.7824 47.0615C64.7824 47.0615 63.9785 47.8475 63.9785 48.8251C63.9785 49.8028 64.7824 50.5887 65.7824 50.5887C66.7823 50.5887 67.5862 49.8028 67.5862 48.8251Z" fill="#D1D1D1"/>
<path d="M77.8214 47.0615C76.8214 47.0615 76.0176 47.8475 76.0176 48.8251C76.0176 49.8028 76.8214 50.5887 77.8214 50.5887C78.8214 50.5887 79.6253 49.8028 79.6253 48.8251C79.6253 47.8475 78.8018 47.0615 77.8214 47.0615Z" fill="#D1D1D1"/>
<path d="M65.7824 35.291C64.7824 35.291 63.9785 36.077 63.9785 37.0546C63.9785 38.0322 64.7824 38.8182 65.7824 38.8182C66.7823 38.8182 67.5862 38.0322 67.5862 37.0546C67.5862 36.077 66.7823 35.291 65.7824 35.291Z" fill="#D1D1D1"/>
<path d="M77.8214 35.291C76.8214 35.291 76.0176 36.077 76.0176 37.0546C76.0176 38.0322 76.8214 38.8182 77.8214 38.8182C78.8214 38.8182 79.6253 38.0322 79.6253 37.0546C79.6253 36.077 78.8018 35.291 77.8214 35.291Z" fill="#D1D1D1"/>
<path d="M59.7633 52.9463C58.7633 52.9463 57.9595 53.7322 57.9595 54.7099C57.9595 55.6875 58.7633 56.4735 59.7633 56.4735C60.7633 56.4735 61.5673 55.6875 61.5673 54.7099C61.5673 53.7322 60.7633 52.9463 59.7633 52.9463Z" fill="#D1D1D1"/>
<path d="M83.8413 68.244C84.8413 68.244 85.6451 67.458 85.6451 66.4804C85.6451 65.5027 84.8413 64.7168 83.8413 64.7168C82.8413 64.7168 82.0375 65.5027 82.0375 66.4804C82.0178 67.458 82.8413 68.244 83.8413 68.244Z" fill="#D1D1D1"/>
<path d="M71.8019 68.244C72.8019 68.244 73.6057 67.458 73.6057 66.4804C73.6057 65.5027 72.8019 64.7168 71.8019 64.7168C70.8019 64.7168 69.998 65.5027 69.998 66.4804C69.998 67.458 70.8019 68.244 71.8019 68.244Z" fill="#D1D1D1"/>
<path d="M65.7824 70.6016C64.7824 70.6016 63.9785 71.3875 63.9785 72.3652C63.9785 73.3428 64.7824 74.1287 65.7824 74.1287C66.7823 74.1287 67.5862 73.3428 67.5862 72.3652C67.5862 71.3875 66.7823 70.6016 65.7824 70.6016Z" fill="#D1D1D1"/>
<path d="M79.6253 72.3652C79.6253 71.3875 78.8214 70.6016 77.8214 70.6016C76.8214 70.6016 76.0176 71.3875 76.0176 72.3652C76.0176 73.3428 76.8214 74.1287 77.8214 74.1287C78.8018 74.1287 79.6253 73.3428 79.6253 72.3652Z" fill="#D1D1D1"/>
<path d="M65.7824 58.8311C64.7824 58.8311 63.9785 59.617 63.9785 60.5946C63.9785 61.5723 64.7824 62.3582 65.7824 62.3582C66.7823 62.3582 67.5862 61.5723 67.5862 60.5946C67.5862 59.617 66.7823 58.8311 65.7824 58.8311Z" fill="#D1D1D1"/>
<path d="M77.8214 58.8311C76.8214 58.8311 76.0176 59.617 76.0176 60.5946C76.0176 61.5723 76.8214 62.3582 77.8214 62.3582C78.8214 62.3582 79.6253 61.5723 79.6253 60.5946C79.6253 59.617 78.8018 58.8311 77.8214 58.8311Z" fill="#D1D1D1"/>
<path d="M59.7633 64.7158C58.7633 64.7158 57.9595 65.5018 57.9595 66.4794C57.9595 67.4571 58.7633 68.243 59.7633 68.243C60.7633 68.243 61.5673 67.4571 61.5673 66.4794C61.5673 65.5018 60.7633 64.7158 59.7633 64.7158Z" fill="#D1D1D1"/>
<path d="M83.841 56.4735C84.8409 56.4735 85.6448 55.6875 85.6448 54.7099C85.6448 53.7322 84.8409 52.9463 83.841 52.9463C82.841 52.9463 82.0371 53.7322 82.0371 54.7099C82.0371 55.6875 82.841 56.4735 83.841 56.4735Z" fill="#D1D1D1"/>
<path d="M63.9785 84.1347C63.9785 85.1123 64.7824 85.8983 65.7824 85.8983C66.7823 85.8983 67.5862 85.1123 67.5862 84.1347C67.5862 83.157 66.7823 82.3711 65.7824 82.3711C64.7824 82.3711 63.9785 83.157 63.9785 84.1347Z" fill="#D1D1D1"/>
<path d="M76.0566 83.7513C76.7037 83.3104 77.3312 82.8503 77.9586 82.3903C77.9194 82.3903 77.8606 82.3711 77.8214 82.3711C76.9586 82.3711 76.2331 82.9653 76.0566 83.7513Z" fill="#D1D1D1"/>
<path d="M59.7633 88.2568C58.7633 88.2568 57.9595 89.0428 57.9595 90.0204C57.9595 90.4997 58.1556 90.9406 58.4889 91.2665C59.5085 91.0556 60.5084 90.8064 61.4888 90.538C61.5476 90.3847 61.5673 90.2121 61.5673 90.0396C61.5673 89.0428 60.7633 88.2568 59.7633 88.2568Z" fill="#D1D1D1"/>
<path d="M84.3312 76.563C84.1744 76.5247 83.9979 76.4863 83.8214 76.4863C82.8214 76.4863 82.0176 77.2723 82.0176 78.2499C82.0176 78.4416 82.0568 78.6333 82.1156 78.825C82.8999 78.0966 83.6254 77.349 84.3312 76.563Z" fill="#D1D1D1"/>
<path d="M71.8019 80.0135C72.8019 80.0135 73.6057 79.2276 73.6057 78.2499C73.6057 77.2723 72.8019 76.4863 71.8019 76.4863C70.8019 76.4863 69.998 77.2723 69.998 78.2499C69.998 79.2276 70.8019 80.0135 71.8019 80.0135Z" fill="#D1D1D1"/>
<path d="M47.7239 5.86621C46.7239 5.86621 45.9199 6.65216 45.9199 7.6298C45.9199 8.60744 46.7239 9.39339 47.7239 9.39339C48.7239 9.39339 49.5277 8.60744 49.5277 7.6298C49.5277 6.67133 48.7239 5.86621 47.7239 5.86621Z" fill="#D1D1D1"/>
<path d="M43.5087 1.76359C43.5087 0.785945 42.7048 0 41.7048 0C40.7049 0 39.9009 0.785945 39.9009 1.76359C39.9009 2.74123 40.7049 3.52718 41.7048 3.52718C42.7048 3.52718 43.5087 2.72206 43.5087 1.76359Z" fill="#D1D1D1"/>
<path d="M55.5477 1.76359C55.5477 0.785945 54.7438 0 53.7438 0C52.7438 0 51.9399 0.785945 51.9399 1.76359C51.9399 2.74123 52.7438 3.52718 53.7438 3.52718C54.7438 3.52718 55.5477 2.72206 55.5477 1.76359Z" fill="#D1D1D1"/>
<path d="M59.7633 21.1825C60.7633 21.1825 61.5673 20.3965 61.5673 19.4189C61.5673 18.4412 60.7633 17.6553 59.7633 17.6553C58.7633 17.6553 57.9595 18.4412 57.9595 19.4189C57.9595 20.3774 58.7633 21.1825 59.7633 21.1825Z" fill="#D1D1D1"/>
<path d="M47.7239 21.1825C48.7239 21.1825 49.5277 20.3965 49.5277 19.4189C49.5277 18.4412 48.7239 17.6553 47.7239 17.6553C46.7239 17.6553 45.9199 18.4412 45.9199 19.4189C45.9199 20.3774 46.7239 21.1825 47.7239 21.1825Z" fill="#D1D1D1"/>
<path d="M41.7053 27.0487C42.7053 27.0487 43.5092 26.2627 43.5092 25.2851C43.5092 24.3074 42.7053 23.5215 41.7053 23.5215C40.7054 23.5215 39.9014 24.3074 39.9014 25.2851C39.9014 26.2627 40.7054 27.0487 41.7053 27.0487Z" fill="#D1D1D1"/>
<path d="M53.7438 27.0487C54.7438 27.0487 55.5477 26.2627 55.5477 25.2851C55.5477 24.3074 54.7438 23.5215 53.7438 23.5215C52.7438 23.5215 51.9399 24.3074 51.9399 25.2851C51.9399 26.2627 52.7438 27.0487 53.7438 27.0487Z" fill="#D1D1D1"/>
<path d="M41.7053 15.2967C42.7053 15.2967 43.5092 14.5108 43.5092 13.5331C43.5092 12.5555 42.7053 11.7695 41.7053 11.7695C40.7054 11.7695 39.9014 12.5555 39.9014 13.5331C39.9014 14.4916 40.7054 15.2967 41.7053 15.2967Z" fill="#D1D1D1"/>
<path d="M53.7438 15.2967C54.7438 15.2967 55.5477 14.5108 55.5477 13.5331C55.5477 12.5555 54.7438 11.7695 53.7438 11.7695C52.7438 11.7695 51.9399 12.5555 51.9399 13.5331C51.9399 14.4916 52.7438 15.2967 53.7438 15.2967Z" fill="#D1D1D1"/>
<path d="M47.7239 52.9463C46.7239 52.9463 45.9199 53.7322 45.9199 54.7099C45.9199 55.6875 46.7239 56.4735 47.7239 56.4735C48.7239 56.4735 49.5277 55.6875 49.5277 54.7099C49.5277 53.7322 48.7239 52.9463 47.7239 52.9463Z" fill="#D1D1D1"/>
<path d="M59.7633 44.703C60.7633 44.703 61.5673 43.917 61.5673 42.9394C61.5673 41.9617 60.7633 41.1758 59.7633 41.1758C58.7633 41.1758 57.9595 41.9617 57.9595 42.9394C57.9595 43.917 58.7633 44.703 59.7633 44.703Z" fill="#D1D1D1"/>
<path d="M47.7239 41.1758C46.7239 41.1758 45.9199 41.9617 45.9199 42.9394C45.9199 43.917 46.7239 44.703 47.7239 44.703C48.7239 44.703 49.5277 43.917 49.5277 42.9394C49.5277 41.9617 48.7239 41.1758 47.7239 41.1758Z" fill="#D1D1D1"/>
<path d="M41.7053 47.0615C40.7054 47.0615 39.9014 47.8475 39.9014 48.8251C39.9014 49.8028 40.7054 50.5887 41.7053 50.5887C42.7053 50.5887 43.5092 49.8028 43.5092 48.8251C43.5092 47.8475 42.7053 47.0615 41.7053 47.0615Z" fill="#D1D1D1"/>
<path d="M53.7438 47.0615C52.7438 47.0615 51.9399 47.8475 51.9399 48.8251C51.9399 49.8028 52.7438 50.5887 53.7438 50.5887C54.7438 50.5887 55.5477 49.8028 55.5477 48.8251C55.5477 47.8475 54.7438 47.0615 53.7438 47.0615Z" fill="#D1D1D1"/>
<path d="M41.7053 35.291C40.7054 35.291 39.9014 36.077 39.9014 37.0546C39.9014 38.0322 40.7054 38.8182 41.7053 38.8182C42.7053 38.8182 43.5092 38.0322 43.5092 37.0546C43.5092 36.077 42.7053 35.291 41.7053 35.291Z" fill="#D1D1D1"/>
<path d="M53.7438 35.291C52.7438 35.291 51.9399 36.077 51.9399 37.0546C51.9399 38.0322 52.7438 38.8182 53.7438 38.8182C54.7438 38.8182 55.5477 38.0322 55.5477 37.0546C55.5477 36.077 54.7438 35.291 53.7438 35.291Z" fill="#D1D1D1"/>
<path d="M35.6857 52.9463C34.6857 52.9463 33.8818 53.7322 33.8818 54.7099C33.8818 55.6875 34.6857 56.4735 35.6857 56.4735C36.6857 56.4735 37.4895 55.6875 37.4895 54.7099C37.4895 53.7322 36.6857 52.9463 35.6857 52.9463Z" fill="#D1D1D1"/>
<path d="M35.6857 41.1758C34.6857 41.1758 33.8818 41.9617 33.8818 42.9394C33.8818 43.917 34.6857 44.703 35.6857 44.703C36.6857 44.703 37.4895 43.917 37.4895 42.9394C37.4895 41.9617 36.6857 41.1758 35.6857 41.1758Z" fill="#D1D1D1"/>
<path d="M47.7239 32.953C48.7239 32.953 49.5277 32.167 49.5277 31.1894C49.5277 30.2118 48.7239 29.4258 47.7239 29.4258C46.7239 29.4258 45.9199 30.2118 45.9199 31.1894C45.9199 32.1479 46.7239 32.953 47.7239 32.953Z" fill="#D1D1D1"/>
<path d="M47.7239 76.4863C46.7239 76.4863 45.9199 77.2723 45.9199 78.2499C45.9199 79.2276 46.7239 80.0135 47.7239 80.0135C48.7239 80.0135 49.5277 79.2276 49.5277 78.2499C49.5277 77.2723 48.7239 76.4863 47.7239 76.4863Z" fill="#D1D1D1"/>
<path d="M47.7239 64.7168C46.7239 64.7168 45.9199 65.5027 45.9199 66.4804C45.9199 67.458 46.7239 68.244 47.7239 68.244C48.7239 68.244 49.5277 67.458 49.5277 66.4804C49.5277 65.5027 48.7239 64.7168 47.7239 64.7168Z" fill="#D1D1D1"/>
<path d="M41.7053 70.6016C40.7054 70.6016 39.9014 71.3875 39.9014 72.3652C39.9014 73.3428 40.7054 74.1287 41.7053 74.1287C42.7053 74.1287 43.5092 73.3428 43.5092 72.3652C43.5092 71.3875 42.7053 70.6016 41.7053 70.6016Z" fill="#D1D1D1"/>
<path d="M53.7438 70.6016C52.7438 70.6016 51.9399 71.3875 51.9399 72.3652C51.9399 73.3428 52.7438 74.1287 53.7438 74.1287C54.7438 74.1287 55.5477 73.3428 55.5477 72.3652C55.5477 71.3875 54.7438 70.6016 53.7438 70.6016Z" fill="#D1D1D1"/>
<path d="M41.7053 58.8311C40.7054 58.8311 39.9014 59.617 39.9014 60.5946C39.9014 61.5723 40.7054 62.3582 41.7053 62.3582C42.7053 62.3582 43.5092 61.5723 43.5092 60.5946C43.5092 59.617 42.7053 58.8311 41.7053 58.8311Z" fill="#D1D1D1"/>
<path d="M53.7438 58.8311C52.7438 58.8311 51.9399 59.617 51.9399 60.5946C51.9399 61.5723 52.7438 62.3582 53.7438 62.3582C54.7438 62.3582 55.5477 61.5723 55.5477 60.5946C55.5477 59.617 54.7438 58.8311 53.7438 58.8311Z" fill="#D1D1D1"/>
<path d="M35.6857 64.7168C34.6857 64.7168 33.8818 65.5027 33.8818 66.4804C33.8818 67.458 34.6857 68.244 35.6857 68.244C36.6857 68.244 37.4895 67.458 37.4895 66.4804C37.4895 65.5027 36.6857 64.7168 35.6857 64.7168Z" fill="#D1D1D1"/>
<path d="M47.7239 88.2559C46.7239 88.2559 45.9199 89.0418 45.9199 90.0194C45.9199 90.9971 46.7239 91.7831 47.7239 91.7831C48.7239 91.7831 49.5277 90.9971 49.5277 90.0194C49.5277 89.0418 48.7239 88.2559 47.7239 88.2559Z" fill="#D1D1D1"/>
<path d="M39.9014 84.1347C39.9014 85.1123 40.7054 85.8983 41.7053 85.8983C42.7053 85.8983 43.5092 85.1123 43.5092 84.1347C43.5092 83.157 42.7053 82.3711 41.7053 82.3711C40.7054 82.3711 39.9014 83.157 39.9014 84.1347Z" fill="#D1D1D1"/>
<path d="M51.9399 84.1347C51.9399 85.1123 52.7438 85.8983 53.7438 85.8983C54.7438 85.8983 55.5477 85.1123 55.5477 84.1347C55.5477 83.157 54.7438 82.3711 53.7438 82.3711C52.7438 82.3711 51.9399 83.157 51.9399 84.1347Z" fill="#D1D1D1"/>
<path d="M35.6857 88.2559C34.6857 88.2559 33.8818 89.0418 33.8818 90.0194C33.8818 90.077 33.9013 90.1153 33.9013 90.1728C34.9797 90.4987 36.0582 90.7863 37.1759 91.0355C37.3719 90.7479 37.5091 90.4028 37.5091 90.0194C37.4895 89.0418 36.6857 88.2559 35.6857 88.2559Z" fill="#D1D1D1"/>
<path d="M59.7633 80.0135C60.7633 80.0135 61.5673 79.2276 61.5673 78.2499C61.5673 77.2723 60.7633 76.4863 59.7633 76.4863C58.7633 76.4863 57.9595 77.2723 57.9595 78.2499C57.9595 79.2276 58.7633 80.0135 59.7633 80.0135Z" fill="#D1D1D1"/>
<path d="M23.6466 5.86621C22.6466 5.86621 21.8428 6.65216 21.8428 7.6298C21.8428 8.60744 22.6466 9.39339 23.6466 9.39339C24.6466 9.39339 25.4505 8.60744 25.4505 7.6298C25.4505 6.67133 24.6466 5.86621 23.6466 5.86621Z" fill="#D1D1D1"/>
<path d="M29.666 3.52746C30.666 3.52746 31.4698 2.74152 31.4698 1.76388C31.4698 1.41883 31.3718 1.11212 31.1953 0.84375C30.0777 1.26548 28.9797 1.70636 27.9209 2.20477C28.117 2.95238 28.8229 3.52746 29.666 3.52746Z" fill="#D1D1D1"/>
<path d="M35.6857 21.1825C36.6857 21.1825 37.4895 20.3965 37.4895 19.4189C37.4895 18.4412 36.6857 17.6553 35.6857 17.6553C34.6857 17.6553 33.8818 18.4412 33.8818 19.4189C33.8818 20.3774 34.6857 21.1825 35.6857 21.1825Z" fill="#D1D1D1"/>
<path d="M23.6466 21.1825C24.6429 21.1825 25.4505 20.3929 25.4505 19.4189C25.4505 18.4449 24.6429 17.6553 23.6466 17.6553C22.6504 17.6553 21.8428 18.4449 21.8428 19.4189C21.8428 20.3929 22.6504 21.1825 23.6466 21.1825Z" fill="#D1D1D1"/>
<path d="M19.4309 25.2851C19.4309 24.3074 18.6271 23.5215 17.6271 23.5215C16.6271 23.5215 15.8232 24.3074 15.8232 25.2851C15.8232 26.2627 16.6271 27.0487 17.6271 27.0487C18.6271 27.0487 19.4309 26.2627 19.4309 25.2851Z" fill="#D1D1D1"/>
<path d="M29.6657 27.0487C30.6656 27.0487 31.4695 26.2627 31.4695 25.2851C31.4695 24.3074 30.6656 23.5215 29.6657 23.5215C28.6657 23.5215 27.8618 24.3074 27.8618 25.2851C27.8618 26.2627 28.6657 27.0487 29.6657 27.0487Z" fill="#D1D1D1"/>
<path d="M15.8232 13.5331C15.8232 14.5108 16.6271 15.2967 17.6271 15.2967C18.6271 15.2967 19.4309 14.5108 19.4309 13.5331C19.4309 12.5555 18.6271 11.7695 17.6271 11.7695C16.6271 11.7695 15.8232 12.5555 15.8232 13.5331Z" fill="#D1D1D1"/>
<path d="M29.6657 15.2967C30.6656 15.2967 31.4695 14.5108 31.4695 13.5331C31.4695 12.5555 30.6656 11.7695 29.6657 11.7695C28.6657 11.7695 27.8618 12.5555 27.8618 13.5331C27.8618 14.4916 28.6657 15.2967 29.6657 15.2967Z" fill="#D1D1D1"/>
<path d="M35.6857 9.41197C36.6857 9.41197 37.4895 8.62603 37.4895 7.64838C37.4895 6.67074 36.6857 5.88477 35.6857 5.88477C34.6857 5.88477 33.8818 6.67074 33.8818 7.64838C33.8818 8.62603 34.6857 9.41197 35.6857 9.41197Z" fill="#D1D1D1"/>
<path d="M23.6466 52.9463C22.6466 52.9463 21.8428 53.7322 21.8428 54.7099C21.8428 55.6875 22.6466 56.4735 23.6466 56.4735C24.6466 56.4735 25.4505 55.6875 25.4505 54.7099C25.4505 53.7322 24.6466 52.9463 23.6466 52.9463Z" fill="#D1D1D1"/>
<path d="M23.6466 41.1758C22.6466 41.1758 21.8428 41.9617 21.8428 42.9394C21.8428 43.917 22.6466 44.703 23.6466 44.703C24.6466 44.703 25.4505 43.917 25.4505 42.9394C25.4505 41.9617 24.6466 41.1758 23.6466 41.1758Z" fill="#D1D1D1"/>
<path d="M17.6271 47.0615C16.6271 47.0615 15.8232 47.8475 15.8232 48.8251C15.8232 49.8028 16.6271 50.5887 17.6271 50.5887C18.6271 50.5887 19.4309 49.8028 19.4309 48.8251C19.4309 47.8475 18.6271 47.0615 17.6271 47.0615Z" fill="#D1D1D1"/>
<path d="M29.6657 47.0615C28.6657 47.0615 27.8618 47.8475 27.8618 48.8251C27.8618 49.8028 28.6657 50.5887 29.6657 50.5887C30.6656 50.5887 31.4695 49.8028 31.4695 48.8251C31.4695 47.8475 30.6656 47.0615 29.6657 47.0615Z" fill="#D1D1D1"/>
<path d="M17.6271 35.291C16.6271 35.291 15.8232 36.077 15.8232 37.0546C15.8232 38.0322 16.6271 38.8182 17.6271 38.8182C18.6271 38.8182 19.4309 38.0322 19.4309 37.0546C19.4309 36.077 18.6271 35.291 17.6271 35.291Z" fill="#D1D1D1"/>
<path d="M29.6657 35.291C28.6657 35.291 27.8618 36.077 27.8618 37.0546C27.8618 38.0322 28.6657 38.8182 29.6657 38.8182C30.6656 38.8182 31.4695 38.0322 31.4695 37.0546C31.4695 36.077 30.6656 35.291 29.6657 35.291Z" fill="#D1D1D1"/>
<path d="M11.6076 52.9463C10.6076 52.9463 9.80371 53.7322 9.80371 54.7099C9.80371 55.6875 10.6076 56.4735 11.6076 56.4735C12.6075 56.4735 13.4115 55.6875 13.4115 54.7099C13.4115 53.7322 12.6075 52.9463 11.6076 52.9463Z" fill="#D1D1D1"/>
<path d="M11.6076 41.1758C10.6076 41.1758 9.80371 41.9617 9.80371 42.9394C9.80371 43.917 10.6076 44.703 11.6076 44.703C12.6075 44.703 13.4115 43.917 13.4115 42.9394C13.4115 41.9617 12.6075 41.1758 11.6076 41.1758Z" fill="#D1D1D1"/>
<path d="M35.6857 32.953C36.6857 32.953 37.4895 32.167 37.4895 31.1894C37.4895 30.2118 36.6857 29.4258 35.6857 29.4258C34.6857 29.4258 33.8818 30.2118 33.8818 31.1894C33.8818 32.1479 34.6857 32.953 35.6857 32.953Z" fill="#D1D1D1"/>
<path d="M23.6466 32.953C24.6466 32.953 25.4505 32.167 25.4505 31.1894C25.4505 30.2118 24.6466 29.4258 23.6466 29.4258C22.6466 29.4258 21.8428 30.2118 21.8428 31.1894C21.8428 32.1479 22.6466 32.953 23.6466 32.953Z" fill="#D1D1D1"/>
<path d="M23.6466 64.7158C22.6466 64.7158 21.8428 65.5018 21.8428 66.4794C21.8428 67.4571 22.6466 68.243 23.6466 68.243C24.6466 68.243 25.4505 67.4571 25.4505 66.4794C25.4505 65.5018 24.6466 64.7158 23.6466 64.7158Z" fill="#D1D1D1"/>
<path d="M17.6271 70.6016C16.6271 70.6016 15.8232 71.3875 15.8232 72.3652C15.8232 73.3428 16.6271 74.1287 17.6271 74.1287C18.6271 74.1287 19.4309 73.3428 19.4309 72.3652C19.4309 71.3875 18.6271 70.6016 17.6271 70.6016Z" fill="#D1D1D1"/>
<path d="M29.6657 70.6016C28.6657 70.6016 27.8618 71.3875 27.8618 72.3652C27.8618 73.3428 28.6657 74.1287 29.6657 74.1287C30.6656 74.1287 31.4695 73.3428 31.4695 72.3652C31.4695 71.3875 30.6656 70.6016 29.6657 70.6016Z" fill="#D1D1D1"/>
<path d="M17.6271 58.8311C16.6271 58.8311 15.8232 59.617 15.8232 60.5946C15.8232 61.5723 16.6271 62.3582 17.6271 62.3582C18.6271 62.3582 19.4309 61.5723 19.4309 60.5946C19.4309 59.617 18.6271 58.8311 17.6271 58.8311Z" fill="#D1D1D1"/>
<path d="M29.6657 58.8311C28.6657 58.8311 27.8618 59.617 27.8618 60.5946C27.8618 61.5723 28.6657 62.3582 29.6657 62.3582C30.6656 62.3582 31.4695 61.5723 31.4695 60.5946C31.4695 59.617 30.6656 58.8311 29.6657 58.8311Z" fill="#D1D1D1"/>
<path d="M13.294 77.5793C13.1175 77.1767 12.8038 76.8509 12.4116 76.6592C12.6861 76.9851 12.9803 77.2918 13.294 77.5793Z" fill="#D1D1D1"/>
<path d="M13.4115 66.4804C13.4115 65.5027 12.6075 64.7168 11.6076 64.7168C10.6076 64.7168 9.80371 65.5027 9.80371 66.4804C9.80371 67.458 10.6076 68.244 11.6076 68.244C12.6075 68.244 13.4115 67.458 13.4115 66.4804Z" fill="#D1D1D1"/>
<path d="M27.8618 84.1347C27.8618 85.1123 28.6657 85.8983 29.6657 85.8983C30.6656 85.8983 31.4695 85.1123 31.4695 84.1347C31.4695 83.157 30.6656 82.3711 29.6657 82.3711C28.6657 82.3711 27.8618 83.157 27.8618 84.1347Z" fill="#D1D1D1"/>
<path d="M35.6857 80.0135C36.6857 80.0135 37.4895 79.2276 37.4895 78.2499C37.4895 77.2723 36.6857 76.4863 35.6857 76.4863C34.6857 76.4863 33.8818 77.2723 33.8818 78.2499C33.8818 79.2276 34.6857 80.0135 35.6857 80.0135Z" fill="#D1D1D1"/>
<path d="M23.6466 80.0135C24.6466 80.0135 25.4505 79.2276 25.4505 78.2499C25.4505 77.2723 24.6466 76.4863 23.6466 76.4863C22.6466 76.4863 21.8428 77.2723 21.8428 78.2499C21.8428 79.2276 22.6466 80.0135 23.6466 80.0135Z" fill="#D1D1D1"/>
<path d="M11.6076 21.1825C12.6075 21.1825 13.4115 20.3965 13.4115 19.4189C13.4115 18.4412 12.6075 17.6553 11.6076 17.6553C10.6076 17.6553 9.80371 18.4412 9.80371 19.4189C9.80371 20.3774 10.6076 21.1825 11.6076 21.1825Z" fill="#D1D1D1"/>
<path d="M5.58819 27.0487C6.58817 27.0487 7.39215 26.2627 7.39215 25.2851C7.39215 24.3074 6.58817 23.5215 5.58819 23.5215C5.47055 23.5215 5.37254 23.5406 5.2549 23.5598C4.82354 24.4033 4.39215 25.2659 4 26.1285C4.31372 26.6844 4.90193 27.0487 5.58819 27.0487Z" fill="#D1D1D1"/>
<path d="M0.745117 53.3682C0.882369 54.0774 1.01956 54.7867 1.17642 55.496C1.29407 55.2659 1.37257 54.9976 1.37257 54.71C1.39217 54.1733 1.13726 53.694 0.745117 53.3682Z" fill="#D1D1D1"/>
<path d="M1.39216 42.9402C1.39216 42.1542 0.862757 41.5025 0.156892 41.2725C0.0588556 42.3843 0 43.5153 0 44.6463C0.784294 44.4738 1.39216 43.7837 1.39216 42.9402Z" fill="#D1D1D1"/>
<path d="M5.58802 50.5887C6.588 50.5887 7.39198 49.8028 7.39198 48.8251C7.39198 47.8475 6.588 47.0615 5.58802 47.0615C4.58805 47.0615 3.78418 47.8475 3.78418 48.8251C3.78418 49.8028 4.60765 50.5887 5.58802 50.5887Z" fill="#D1D1D1"/>
<path d="M3.78418 37.0546C3.78418 38.0322 4.58805 38.8182 5.58802 38.8182C6.588 38.8182 7.39198 38.0322 7.39198 37.0546C7.39198 36.077 6.588 35.291 5.58802 35.291C4.60765 35.291 3.78418 36.077 3.78418 37.0546Z" fill="#D1D1D1"/>
<path d="M11.6076 32.953C12.6075 32.953 13.4115 32.167 13.4115 31.1894C13.4115 30.2118 12.6075 29.4258 11.6076 29.4258C10.6076 29.4258 9.80371 30.2118 9.80371 31.1894C9.80371 32.1479 10.6076 32.953 11.6076 32.953Z" fill="#D1D1D1"/>
<path d="M3.78418 60.5946C3.78418 61.5723 4.58805 62.3582 5.58802 62.3582C6.588 62.3582 7.39198 61.5723 7.39198 60.5946C7.39198 59.617 6.588 58.8311 5.58802 58.8311C4.60765 58.8311 3.78418 59.617 3.78418 60.5946Z" fill="#D1D1D1"/>
</svg>
