<svg width="105" height="102" viewBox="0 0 105 102" fill="none" xmlns="http://www.w3.org/2000/svg">
<path d="M1.79977 3.59C1.32977 3.59 0.869785 3.4 0.529785 3.06C0.199785 2.73 0.00976562 2.27 0.00976562 1.79C0.00976562 1.32 0.199785 0.860003 0.529785 0.530003C1.18979 -0.139997 2.40976 -0.139999 3.06976 0.520001C3.39976 0.860001 3.58978 1.33 3.58978 1.79C3.58978 2.26 3.39976 2.72 3.06976 3.05C2.73976 3.4 2.27977 3.59 1.79977 3.59Z" fill="#D1D1D1"/>
<path d="M91.3499 1.8C91.3499 0.800003 92.1599 0.0100021 93.1499 0.0100021C94.1499 0.0100021 94.9399 0.810003 94.9399 1.8C94.9399 2.79 94.1399 3.59 93.1499 3.59C92.1599 3.59 91.3499 2.79 91.3499 1.8ZM82.2199 1.8C82.2199 0.800003 83.0299 0.0100021 84.0099 0.0100021C85.0099 0.0100021 85.8099 0.810003 85.8099 1.8C85.8099 2.79 85.0099 3.59 84.0099 3.59C83.0299 3.59 82.2199 2.79 82.2199 1.8ZM73.0799 1.8C73.0799 0.800003 73.8799 0.0100021 74.8699 0.0100021C75.8599 0.0100021 76.6599 0.810003 76.6599 1.8C76.6599 2.79 75.8499 3.59 74.8699 3.59C73.8799 3.59 73.0799 2.79 73.0799 1.8ZM63.9499 1.8C63.9499 0.800003 64.7499 0.0100021 65.7399 0.0100021C66.7299 0.0100021 67.5299 0.810003 67.5299 1.8C67.5299 2.79 66.7199 3.59 65.7399 3.59C64.7499 3.59 63.9499 2.79 63.9499 1.8ZM54.8199 1.8C54.8199 0.800003 55.6199 0.0100021 56.6099 0.0100021C57.5999 0.0100021 58.4099 0.810003 58.4099 1.8C58.4099 2.79 57.5999 3.59 56.6099 3.59C55.6199 3.59 54.8199 2.79 54.8199 1.8ZM45.6799 1.8C45.6799 0.800003 46.4899 2.13645e-06 47.4699 0.0100021C48.4699 0.0100021 49.2599 0.810003 49.2599 1.8C49.2599 2.79 48.4599 3.59 47.4699 3.59C46.4899 3.59 45.6799 2.79 45.6799 1.8ZM36.5499 1.8C36.5499 0.800003 37.3599 2.13645e-06 38.3399 0.0100021C39.3399 0.0100021 40.1399 0.810003 40.1299 1.8C40.1299 2.79 39.3299 3.59 38.3399 3.59C37.3499 3.59 36.5399 2.79 36.5499 1.8ZM27.4099 1.8C27.4099 0.800003 28.2199 0.0100021 29.1999 0.0100021C30.1899 0.0100021 30.9899 0.810003 30.9899 1.8C30.9899 2.79 30.1799 3.59 29.1999 3.59C28.2199 3.59 27.4099 2.79 27.4099 1.8ZM18.2799 1.8C18.2799 0.800003 19.0799 0 20.0699 0C21.0599 0 21.8599 0.800001 21.8699 1.79C21.8699 2.78 21.0599 3.59 20.0699 3.59C19.0799 3.59 18.2799 2.79 18.2799 1.8ZM9.1499 1.8C9.1499 0.800003 9.94988 2.13645e-06 10.9399 0.0100021C11.9299 0.0100021 12.7399 0.810003 12.7299 1.8C12.7299 2.79 11.9299 3.59 10.9399 3.59C9.94988 3.59 9.1499 2.79 9.1499 1.8Z" fill="#D1D1D1"/>
<path d="M102.28 3.58999C101.82 3.58999 101.35 3.39999 101.01 3.05999C100.68 2.72999 100.48 2.25999 100.48 1.78999C100.48 1.31999 100.68 0.859992 101.01 0.519992C101.67 -0.150008 102.89 -0.150007 103.55 0.509993C103.88 0.849993 104.08 1.31999 104.08 1.77999C104.08 2.24999 103.88 2.70999 103.55 3.04999C103.22 3.40999 102.75 3.58999 102.28 3.58999Z" fill="#D1D1D1"/>
<path d="M1.79977 13.4699C1.32977 13.4699 0.869785 13.2699 0.529785 12.9399C0.199785 12.6099 0.00976562 12.1399 0.00976562 11.6799C0.00976562 11.1999 0.199785 10.7399 0.529785 10.3999C1.19979 9.73991 2.39976 9.73991 3.06976 10.3999C3.39976 10.7399 3.58978 11.1999 3.58978 11.6699C3.58978 12.1399 3.39976 12.5999 3.06976 12.9299C2.72976 13.2699 2.27977 13.4699 1.79977 13.4699Z" fill="#D1D1D1"/>
<path d="M91.3499 11.6799C91.3499 10.6799 92.1599 9.88988 93.1499 9.88988C94.1399 9.88988 94.9399 10.6899 94.9399 11.6799C94.9399 12.6699 94.1399 13.4699 93.1499 13.4699C92.1599 13.4699 91.3499 12.6599 91.3499 11.6799ZM82.2199 11.6799C82.2199 10.6799 83.0299 9.88988 84.0099 9.88988C84.9999 9.88988 85.8099 10.6899 85.8099 11.6799C85.8099 12.6699 84.9999 13.4799 84.0099 13.4799C83.0299 13.4699 82.2199 12.6599 82.2199 11.6799ZM73.0799 11.6799C73.0799 10.6799 73.8799 9.88988 74.8699 9.88988C75.8599 9.88988 76.6599 10.6899 76.6699 11.6899C76.6699 12.6699 75.8599 13.4799 74.8799 13.4799C73.8799 13.4699 73.0799 12.6599 73.0799 11.6799ZM63.9599 11.6799C63.9599 10.6799 64.7599 9.87988 65.7499 9.87988C66.7299 9.87988 67.5399 10.6799 67.5399 11.6699C67.5399 12.6599 66.7299 13.4699 65.7499 13.4599C64.7499 13.4699 63.9499 12.6599 63.9599 11.6799ZM54.8199 11.6799C54.8199 10.6799 55.6199 9.88988 56.5999 9.88988C57.5999 9.88988 58.3999 10.6899 58.3999 11.6899C58.3999 12.6699 57.5999 13.4799 56.6099 13.4799C55.6199 13.4699 54.8199 12.6599 54.8199 11.6799ZM45.6799 11.6799C45.6799 10.6799 46.4899 9.87988 47.4699 9.87988C48.4699 9.87988 49.2599 10.6799 49.2599 11.6699C49.2599 12.6599 48.4599 13.4599 47.4599 13.4599C46.4899 13.4699 45.6799 12.6599 45.6799 11.6799ZM36.5399 11.6799C36.5399 10.6799 37.3499 9.88988 38.3299 9.88988C39.3299 9.88988 40.1299 10.6899 40.1299 11.6799C40.1299 12.6699 39.3299 13.4699 38.3299 13.4699C37.3499 13.4699 36.5499 12.6599 36.5399 11.6799ZM27.4099 11.6799C27.4099 10.6799 28.2099 9.88988 29.1999 9.88988C30.1899 9.88988 30.9999 10.6899 30.9899 11.6799C30.9899 12.6599 30.1799 13.4699 29.1999 13.4699C28.2099 13.4699 27.4099 12.6599 27.4099 11.6799ZM18.2799 11.6799C18.2799 10.6799 19.0799 9.87988 20.0799 9.87988C21.0699 9.87988 21.8699 10.6799 21.8699 11.6699C21.8699 12.6599 21.0599 13.4699 20.0799 13.4599C19.0799 13.4699 18.2799 12.6599 18.2799 11.6799ZM9.1499 11.6799C9.1499 10.6799 9.94988 9.87988 10.9399 9.87988C11.9199 9.87988 12.7299 10.6799 12.7299 11.6799C12.7299 12.6599 11.9199 13.4699 10.9399 13.4699C9.94988 13.4699 9.1499 12.6599 9.1499 11.6799Z" fill="#D1D1D1"/>
<path d="M102.28 13.4699C101.82 13.4699 101.35 13.2699 101.01 12.9399C100.68 12.6099 100.48 12.1399 100.48 11.6799C100.48 11.1999 100.68 10.7499 101.01 10.4099C101.68 9.74992 102.88 9.74992 103.55 10.4099C103.88 10.7499 104.08 11.2099 104.08 11.6799C104.08 12.1499 103.88 12.6099 103.55 12.9499C103.22 13.2699 102.75 13.4699 102.28 13.4699Z" fill="#D1D1D1"/>
<path d="M1.81003 23.03C1.33003 23.03 0.870029 22.84 0.530029 22.51C0.200029 22.18 0 21.71 0 21.24C0 20.77 0.200029 20.31 0.530029 19.98C1.20003 19.32 2.40001 19.31 3.07001 19.98C3.40001 20.31 3.59003 20.78 3.59003 21.25C3.59003 21.72 3.40001 22.19 3.07001 22.52C2.73001 22.84 2.28003 23.04 1.81003 23.03Z" fill="#D1D1D1"/>
<path d="M91.3499 21.24C91.3499 20.25 92.1599 19.45 93.1499 19.45C94.1399 19.45 94.9399 20.26 94.9399 21.24C94.9399 22.23 94.1399 23.03 93.1499 23.03C92.1599 23.03 91.3499 22.23 91.3499 21.24ZM82.2199 21.24C82.2199 20.25 83.0299 19.45 84.0099 19.45C84.9999 19.45 85.8099 20.26 85.8099 21.25C85.8099 22.25 84.9999 23.0399 84.0099 23.0499C83.0299 23.0299 82.2199 22.24 82.2199 21.24ZM73.0899 21.24C73.0899 20.25 73.8899 19.45 74.8899 19.45C75.8799 19.45 76.6799 20.26 76.6799 21.24C76.6799 22.24 75.8699 23.04 74.8899 23.03C73.8799 23.04 73.0799 22.23 73.0899 21.24ZM63.9599 21.24C63.9599 20.25 64.7599 19.45 65.7499 19.45C66.7399 19.45 67.5399 20.26 67.5399 21.24C67.5399 22.23 66.7299 23.04 65.7499 23.03C64.7499 23.04 63.9599 22.24 63.9599 21.24ZM54.8099 21.24C54.8099 20.25 55.6199 19.45 56.5999 19.45C57.5999 19.45 58.3899 20.26 58.3899 21.24C58.3899 22.24 57.5899 23.03 56.5999 23.03C55.6199 23.04 54.8099 22.24 54.8099 21.24ZM45.6799 21.24C45.6799 20.25 46.4899 19.45 47.4699 19.45C48.4699 19.45 49.2699 20.26 49.2699 21.25C49.2699 22.25 48.4699 23.04 47.4799 23.04C46.4899 23.03 45.6799 22.24 45.6799 21.24ZM36.5399 21.24C36.5399 20.25 37.3499 19.45 38.3299 19.45C39.3299 19.45 40.1299 20.26 40.1199 21.25C40.1199 22.25 39.3199 23.0499 38.3299 23.0499C37.3499 23.0399 36.5499 22.23 36.5399 21.24ZM27.4099 21.24C27.4099 20.25 28.2199 19.45 29.1999 19.45C30.1899 19.45 30.9999 20.26 30.9999 21.25C30.9999 22.24 30.1899 23.0399 29.2099 23.0499C28.2199 23.0399 27.4099 22.24 27.4099 21.24ZM18.2799 21.24C18.2799 20.25 19.0799 19.45 20.0699 19.45C21.0599 19.45 21.8599 20.26 21.8699 21.24C21.8699 22.23 21.0599 23.04 20.0699 23.04C19.0799 23.04 18.2799 22.24 18.2799 21.24ZM9.1499 21.24C9.1499 20.25 9.94988 19.45 10.9399 19.45C11.9299 19.45 12.7299 20.26 12.7299 21.25C12.7299 22.25 11.9199 23.0399 10.9399 23.0499C9.94988 23.0399 9.1499 22.24 9.1499 21.24Z" fill="#D1D1D1"/>
<path d="M102.28 23.04C101.81 23.04 101.35 22.85 101.01 22.52C100.68 22.18 100.48 21.72 100.48 21.24C100.48 20.77 100.68 20.31 101.01 19.97C101.68 19.31 102.88 19.31 103.55 19.97C103.88 20.3 104.07 20.77 104.07 21.24C104.07 21.72 103.88 22.18 103.55 22.51C103.21 22.84 102.75 23.03 102.28 23.04Z" fill="#D1D1D1"/>
<path d="M1.81003 32.9102C1.33003 32.9102 0.880029 32.7202 0.530029 32.3902C0.200029 32.0502 0 31.5902 0 31.1202C0 30.6402 0.200029 30.1902 0.530029 29.8502C1.20003 29.1802 2.40001 29.1802 3.07001 29.8502C3.40001 30.1902 3.59003 30.6502 3.59003 31.1202C3.59003 31.6002 3.40001 32.0502 3.07001 32.3902C2.73001 32.7202 2.28003 32.9102 1.81003 32.9102Z" fill="#D1D1D1"/>
<path d="M91.3499 31.1199C91.3499 30.1199 92.1599 29.3299 93.1499 29.3299C94.1399 29.3299 94.9399 30.1299 94.9399 31.1199C94.9399 32.1099 94.1399 32.9099 93.1499 32.9099C92.1599 32.9099 91.3499 32.0999 91.3499 31.1199ZM82.2199 31.1099C82.2199 30.1199 83.0199 29.3199 84.0099 29.3199C84.9999 29.3199 85.8099 30.1199 85.8099 31.1099C85.8099 32.0999 84.9999 32.8999 84.0099 32.8999C83.0199 32.9099 82.2199 32.0999 82.2199 31.1099ZM73.0799 31.1199C73.0799 30.1199 73.8799 29.3299 74.8699 29.3299C75.8599 29.3299 76.6599 30.1299 76.6599 31.1199C76.6599 32.1099 75.8499 32.9199 74.8699 32.9099C73.8799 32.9099 73.0799 32.0999 73.0799 31.1199ZM63.9499 31.1199C63.9499 30.1199 64.7499 29.3299 65.7399 29.3299C66.7299 29.3299 67.5299 30.1299 67.5299 31.1199C67.5299 32.1099 66.7199 32.9099 65.7399 32.9099C64.7499 32.9099 63.9599 32.0999 63.9499 31.1199ZM54.8099 31.1199C54.8099 30.1199 55.6199 29.3299 56.5999 29.3299C57.5999 29.3299 58.3999 30.1299 58.3999 31.1199C58.3999 32.1099 57.5899 32.9099 56.5999 32.9099C55.6199 32.9099 54.8099 32.0999 54.8099 31.1199ZM45.6799 31.1099C45.6799 30.1199 46.4899 29.3199 47.4699 29.3199C48.4699 29.3199 49.2599 30.1199 49.2599 31.1099C49.2599 32.0999 48.4599 32.8999 47.4699 32.8999C46.4899 32.9099 45.6799 32.0999 45.6799 31.1099ZM36.5499 31.1199C36.5499 30.1199 37.3599 29.3299 38.3399 29.3299C39.3399 29.3299 40.1399 30.1299 40.1399 31.1299C40.1399 32.1099 39.3399 32.9199 38.3499 32.9199C37.3499 32.9099 36.5499 32.0999 36.5499 31.1199ZM27.4099 31.1199C27.4099 30.1199 28.2099 29.3199 29.1999 29.3199C30.1899 29.3199 30.9999 30.1199 30.9999 31.1099C30.9999 32.0999 30.1899 32.9099 29.1999 32.9099C28.2099 32.9099 27.4099 32.0999 27.4099 31.1199ZM18.2799 31.1099C18.2799 30.1199 19.0799 29.3199 20.0699 29.3199C21.0599 29.3199 21.8599 30.1199 21.8599 31.1099C21.8599 32.0899 21.0499 32.8999 20.0699 32.8999C19.0799 32.9099 18.2799 32.0999 18.2799 31.1099ZM9.1499 31.1199C9.1499 30.1199 9.94988 29.3299 10.9399 29.3299C11.9299 29.3299 12.7299 30.1299 12.7299 31.1199C12.7299 32.1099 11.9199 32.9199 10.9399 32.9099C9.94988 32.9099 9.1499 32.0999 9.1499 31.1199Z" fill="#D1D1D1"/>
<path d="M102.28 32.9099C101.81 32.9099 101.35 32.72 101.01 32.39C100.68 32.05 100.48 31.5799 100.48 31.1199C100.48 30.6399 100.68 30.1899 101.01 29.8499C101.68 29.1799 102.88 29.1799 103.55 29.8399C103.88 30.1799 104.08 30.64 104.08 31.11C104.08 31.58 103.88 32.0399 103.55 32.3799C103.21 32.7199 102.75 32.9099 102.28 32.9099Z" fill="#D1D1D1"/>
<path d="M1.79977 41.87C1.32977 41.87 0.869785 41.68 0.529785 41.35C0.199785 41.01 0.00976562 40.55 0.00976562 40.08C0.00976562 39.61 0.199785 39.15 0.529785 38.82C1.18979 38.16 2.39976 38.15 3.06976 38.82C3.39976 39.15 3.58978 39.62 3.58978 40.08C3.58978 40.56 3.39976 41.01 3.06976 41.36C2.72976 41.68 2.27977 41.87 1.79977 41.87Z" fill="#D1D1D1"/>
<path d="M91.3499 40.08C91.3499 39.09 92.1599 38.29 93.1499 38.29C94.1399 38.29 94.9399 39.1 94.9399 40.08C94.9399 41.08 94.1399 41.88 93.1499 41.87C92.1599 41.87 91.3499 41.08 91.3499 40.08ZM82.2199 40.08C82.2199 39.09 83.0199 38.29 84.0099 38.29C85.0099 38.29 85.8099 39.1 85.8099 40.08C85.8099 41.08 85.0099 41.87 84.0099 41.87C83.0199 41.87 82.2199 41.07 82.2199 40.08ZM73.0799 40.08C73.0799 39.09 73.8799 38.29 74.8699 38.29C75.8599 38.29 76.6699 39.1 76.6599 40.09C76.6599 41.09 75.8499 41.88 74.8699 41.88C73.8799 41.87 73.0899 41.07 73.0799 40.08ZM63.9499 40.08C63.9499 39.09 64.7499 38.29 65.7399 38.29C66.7299 38.29 67.5399 39.1 67.5399 40.09C67.5399 41.08 66.7299 41.88 65.7499 41.88C64.7499 41.87 63.9499 41.07 63.9499 40.08ZM54.8099 40.08C54.8099 39.09 55.6199 38.29 56.6099 38.28C57.5999 38.28 58.3999 39.09 58.3999 40.08C58.3999 41.08 57.5999 41.87 56.6099 41.87C55.6199 41.87 54.8099 41.07 54.8099 40.08ZM45.6799 40.08C45.6799 39.09 46.4899 38.28 47.4799 38.28C48.4799 38.28 49.2699 39.09 49.2799 40.07C49.2799 41.07 48.4799 41.86 47.4799 41.87C46.4899 41.87 45.6799 41.07 45.6799 40.08ZM36.5499 40.08C36.5499 39.09 37.3599 38.29 38.3399 38.29C39.3399 38.29 40.1299 39.1 40.1299 40.08C40.1299 41.08 39.3299 41.87 38.3299 41.87C37.3499 41.87 36.5499 41.07 36.5499 40.08ZM27.4099 40.08C27.4099 39.1 28.2099 38.29 29.1999 38.29C30.1899 38.29 30.9999 39.1 30.9999 40.09C30.9999 41.09 30.1899 41.88 29.2099 41.88C28.2099 41.87 27.4099 41.07 27.4099 40.08ZM18.2799 40.08C18.2799 39.09 19.0799 38.29 20.0699 38.29C21.0599 38.29 21.8599 39.1 21.8599 40.08C21.8599 41.08 21.0499 41.87 20.0699 41.87C19.0799 41.87 18.2799 41.07 18.2799 40.08ZM9.1499 40.08C9.1499 39.09 9.9499 38.29 10.9299 38.28C11.9299 38.28 12.7299 39.09 12.7299 40.07C12.7299 41.07 11.9199 41.87 10.9299 41.86C9.9499 41.87 9.1499 41.07 9.1499 40.08Z" fill="#D1D1D1"/>
<path d="M102.29 41.87C101.81 41.87 101.35 41.68 101.02 41.35C100.69 41.01 100.49 40.55 100.49 40.08C100.49 39.61 100.69 39.15 101.02 38.82C101.69 38.16 102.89 38.15 103.56 38.82C103.89 39.15 104.08 39.62 104.08 40.08C104.08 40.56 103.89 41.01 103.56 41.36C103.21 41.68 102.75 41.87 102.29 41.87Z" fill="#D1D1D1"/>
<path d="M1.80002 51.7498C1.34002 51.7498 0.870029 51.5598 0.530029 51.2198C0.200029 50.8898 0 50.4198 0 49.9598C0 49.4798 0.200029 49.0298 0.530029 48.6998C1.19003 48.0298 2.39001 48.0298 3.07001 48.6898C3.40001 49.0298 3.60001 49.4898 3.60001 49.9598C3.60001 50.4198 3.40001 50.8898 3.07001 51.2198C2.73001 51.5598 2.28002 51.7498 1.80002 51.7498Z" fill="#D1D1D1"/>
<path d="M91.3499 49.96C91.3499 48.96 92.1599 48.16 93.1499 48.17C94.1499 48.17 94.9399 48.97 94.9399 49.96C94.9399 50.95 94.1399 51.75 93.1499 51.75C92.1599 51.75 91.3499 50.94 91.3499 49.96ZM82.2199 49.96C82.2199 48.97 83.0199 48.17 84.0099 48.17C84.9999 48.17 85.8099 48.97 85.8099 49.96C85.8099 50.95 84.9999 51.75 84.0099 51.75C83.0199 51.75 82.2199 50.94 82.2199 49.96ZM73.0799 49.96C73.0799 48.96 73.8799 48.17 74.8699 48.17C75.8599 48.17 76.6599 48.97 76.6599 49.96C76.6599 50.95 75.8499 51.75 74.8699 51.75C73.8799 51.75 73.0799 50.94 73.0799 49.96ZM63.9499 49.96C63.9499 48.96 64.7499 48.16 65.7399 48.17C66.7299 48.17 67.5399 48.97 67.5299 49.96C67.5299 50.95 66.7199 51.75 65.7399 51.75C64.7499 51.75 63.9599 50.94 63.9499 49.96ZM54.8099 49.96C54.8099 48.96 55.6199 48.17 56.5999 48.17C57.5999 48.17 58.3999 48.97 58.3999 49.96C58.3999 50.95 57.5899 51.75 56.5999 51.75C55.6199 51.75 54.8099 50.94 54.8099 49.96ZM45.6799 49.96C45.6799 48.96 46.4899 48.16 47.4699 48.16C48.4599 48.16 49.2599 48.96 49.2599 49.95C49.2599 50.94 48.4599 51.74 47.4599 51.74C46.4899 51.75 45.6799 50.94 45.6799 49.96ZM36.5499 49.96C36.5499 48.96 37.3599 48.17 38.3399 48.17C39.3399 48.17 40.1299 48.97 40.1399 49.96C40.1399 50.95 39.3399 51.75 38.3499 51.75C37.3499 51.75 36.5399 50.94 36.5499 49.96ZM27.4099 49.96C27.4099 48.96 28.2099 48.17 29.2099 48.17C30.1999 48.17 30.9999 48.97 30.9999 49.96C30.9999 50.95 30.1899 51.75 29.1999 51.75C28.2099 51.75 27.4099 50.94 27.4099 49.96ZM18.2799 49.96C18.2799 48.96 19.0799 48.16 20.0799 48.17C21.0599 48.17 21.8699 48.97 21.8699 49.96C21.8699 50.95 21.0599 51.75 20.0799 51.75C19.0799 51.75 18.2799 50.94 18.2799 49.96ZM9.1499 49.96C9.1499 48.97 9.94988 48.17 10.9399 48.17C11.9299 48.17 12.7299 48.97 12.7299 49.96C12.7299 50.95 11.9199 51.75 10.9399 51.75C9.94988 51.75 9.1499 50.94 9.1499 49.96Z" fill="#D1D1D1"/>
<path d="M102.28 51.75C101.82 51.75 101.35 51.56 101.01 51.22C100.68 50.89 100.49 50.43 100.49 49.96C100.49 49.48 100.68 49.03 101.01 48.7C101.68 48.03 102.88 48.03 103.55 48.7C103.88 49.03 104.07 49.49 104.07 49.96C104.07 50.42 103.88 50.89 103.55 51.22C103.22 51.56 102.75 51.75 102.28 51.75Z" fill="#D1D1D1"/>
<path d="M1.80978 61.32C1.32978 61.32 0.869764 61.12 0.539764 60.79C0.209764 60.46 0.00976562 59.99 0.00976562 59.52C0.00976562 59.04 0.209764 58.58 0.539764 58.25C1.20976 57.59 2.39977 57.59 3.07977 58.25C3.40977 58.58 3.59976 59.05 3.59976 59.52C3.59976 59.99 3.40977 60.45 3.07977 60.79C2.72977 61.13 2.27978 61.32 1.80978 61.32Z" fill="#D1D1D1"/>
<path d="M91.3499 59.53C91.3499 58.53 92.1599 57.74 93.1499 57.74C94.1499 57.74 94.9399 58.54 94.9399 59.54C94.9399 60.52 94.1399 61.33 93.1499 61.33C92.1599 61.32 91.3499 60.52 91.3499 59.53ZM82.2199 59.53C82.2199 58.53 83.0299 57.74 84.0099 57.74C84.9999 57.74 85.8099 58.54 85.8099 59.53C85.8099 60.52 84.9999 61.32 84.0099 61.32C83.0299 61.32 82.2199 60.52 82.2199 59.53ZM73.0799 59.53C73.0799 58.53 73.8799 57.74 74.8699 57.74C75.8599 57.74 76.6599 58.54 76.6599 59.53C76.6599 60.52 75.8499 61.33 74.8699 61.32C73.8799 61.32 73.0799 60.51 73.0799 59.53ZM63.9499 59.53C63.9499 58.53 64.7499 57.74 65.7399 57.74C66.7299 57.74 67.5299 58.54 67.5299 59.54C67.5299 60.52 66.7199 61.33 65.7399 61.33C64.7499 61.32 63.9499 60.51 63.9499 59.53ZM54.8099 59.53C54.8099 58.53 55.6199 57.74 56.5999 57.74C57.5999 57.74 58.3999 58.54 58.3899 59.53C58.3899 60.52 57.5999 61.33 56.5999 61.32C55.6199 61.32 54.8099 60.52 54.8099 59.53ZM45.6799 59.53C45.6799 58.53 46.4899 57.74 47.4699 57.74C48.4699 57.74 49.2599 58.54 49.2599 59.53C49.2599 60.52 48.4599 61.33 47.4699 61.32C46.4899 61.32 45.6799 60.52 45.6799 59.53ZM36.5499 59.53C36.5499 58.53 37.3599 57.74 38.3399 57.74C39.3399 57.74 40.1399 58.54 40.1299 59.53C40.1299 60.52 39.3299 61.32 38.3399 61.32C37.3499 61.32 36.5499 60.51 36.5499 59.53ZM27.4099 59.53C27.4099 58.53 28.2099 57.74 29.1999 57.74C30.1899 57.74 30.9999 58.54 30.9999 59.53C30.9999 60.52 30.1899 61.32 29.2099 61.32C28.2099 61.32 27.4099 60.52 27.4099 59.53ZM18.2799 59.53C18.2799 58.53 19.0799 57.74 20.0699 57.74C21.0599 57.74 21.8599 58.54 21.8599 59.53C21.8599 60.52 21.0499 61.32 20.0699 61.32C19.0799 61.32 18.2799 60.52 18.2799 59.53ZM9.1499 59.53C9.1499 58.53 9.94988 57.74 10.9399 57.74C11.9299 57.74 12.7299 58.54 12.7299 59.53C12.7299 60.52 11.9199 61.33 10.9399 61.32C9.94988 61.32 9.1499 60.52 9.1499 59.53Z" fill="#D1D1D1"/>
<path d="M102.28 61.32C101.82 61.32 101.36 61.12 101.01 60.79C100.68 60.46 100.48 59.99 100.48 59.52C100.48 59.05 100.68 58.59 101.01 58.25C101.68 57.59 102.88 57.59 103.55 58.25C103.88 58.59 104.07 59.05 104.07 59.52C104.07 59.99 103.88 60.45 103.55 60.79C103.21 61.13 102.75 61.32 102.28 61.32Z" fill="#D1D1D1"/>
<path d="M1.79977 71.1901C1.32977 71.1901 0.869785 71.0001 0.529785 70.6701C0.199785 70.3401 0.00976562 69.8701 0.00976562 69.4001C0.00976562 68.9201 0.199785 68.4701 0.529785 68.1401C1.19979 67.4701 2.39976 67.4701 3.06976 68.1401C3.39976 68.4701 3.58978 68.9401 3.58978 69.4101C3.58978 69.8801 3.39976 70.3401 3.06976 70.6801C2.73976 71.0001 2.27977 71.1901 1.79977 71.1901Z" fill="#D1D1D1"/>
<path d="M91.3499 69.4001C91.3499 68.4101 92.1599 67.6101 93.1499 67.6001C94.1499 67.6001 94.9399 68.4101 94.9399 69.4001C94.9399 70.3901 94.1399 71.1901 93.1499 71.1901C92.1599 71.1901 91.3499 70.3901 91.3499 69.4001ZM82.2199 69.4001C82.2199 68.4101 83.0299 67.6101 84.0099 67.6101C84.9999 67.6101 85.8099 68.4201 85.8099 69.4001C85.8099 70.4001 84.9999 71.1901 84.0099 71.1901C83.0299 71.1901 82.2199 70.3901 82.2199 69.4001ZM73.0799 69.4001C73.0799 68.4101 73.8799 67.6101 74.8699 67.6101C75.8599 67.6101 76.6699 68.4201 76.6599 69.4001C76.6599 70.3901 75.8499 71.1901 74.8699 71.1901C73.8799 71.1901 73.0799 70.3901 73.0799 69.4001ZM63.9499 69.4001C63.9499 68.4101 64.7499 67.6001 65.7399 67.6101C66.7299 67.6101 67.5399 68.4201 67.5299 69.4001C67.5299 70.3901 66.7299 71.1901 65.7399 71.1901C64.7499 71.1901 63.9499 70.3901 63.9499 69.4001ZM54.8099 69.4001C54.8099 68.4101 55.6199 67.6001 56.6099 67.6001C57.6099 67.6001 58.3999 68.4101 58.3999 69.3901C58.3999 70.3901 57.5999 71.1901 56.5999 71.1801C55.6199 71.1901 54.8099 70.3901 54.8099 69.4001ZM45.6799 69.4001C45.6799 68.4101 46.4899 67.6101 47.4699 67.6101C48.4699 67.6101 49.2699 68.4201 49.2699 69.4101C49.2699 70.4001 48.4699 71.2001 47.4799 71.2001C46.4899 71.1901 45.6799 70.3901 45.6799 69.4001ZM36.5499 69.4001C36.5499 68.4101 37.3599 67.6001 38.3399 67.6001C39.3399 67.6001 40.1399 68.4101 40.1299 69.3901C40.1299 70.3901 39.3299 71.1801 38.3299 71.1801C37.3599 71.1901 36.5499 70.3901 36.5499 69.4001ZM27.4099 69.4001C27.4099 68.4101 28.2199 67.6101 29.1999 67.6101C30.1899 67.6101 30.9999 68.4201 30.9999 69.4101C30.9999 70.4001 30.1899 71.2001 29.2099 71.2001C28.2199 71.1901 27.4099 70.3901 27.4099 69.4001ZM18.2799 69.4001C18.2799 68.4101 19.0799 67.6101 20.0699 67.6101C21.0599 67.6101 21.8599 68.4201 21.8599 69.4001C21.8599 70.4001 21.0499 71.1901 20.0699 71.1901C19.0799 71.1901 18.2799 70.3901 18.2799 69.4001ZM9.1499 69.4001C9.1499 68.4101 9.94988 67.6001 10.9399 67.6101C11.9299 67.6101 12.7299 68.4201 12.7299 69.4001C12.7299 70.3901 11.9199 71.1901 10.9399 71.1901C9.94988 71.1901 9.1499 70.3901 9.1499 69.4001Z" fill="#D1D1D1"/>
<path d="M102.28 71.1901C101.81 71.1901 101.35 71.0001 101.01 70.6701C100.68 70.3301 100.48 69.8701 100.48 69.3901C100.48 68.9301 100.68 68.4601 101.01 68.1301C101.68 67.4601 102.88 67.4701 103.55 68.1301C103.88 68.4601 104.08 68.9301 104.08 69.3901C104.08 69.8601 103.88 70.3201 103.55 70.6601C103.22 71.0001 102.75 71.1901 102.28 71.1901Z" fill="#D1D1D1"/>
<path d="M1.80026 81.7004C1.33026 81.7004 0.870273 81.5103 0.530273 81.1703C0.200273 80.8403 0.0102539 80.3803 0.0102539 79.9103C0.0102539 79.4403 0.200273 78.9804 0.530273 78.6504C1.19027 77.9804 2.41025 77.9703 3.07025 78.6403C3.40025 78.9803 3.59027 79.4503 3.59027 79.9103C3.59027 80.3803 3.40025 80.8403 3.07025 81.1703C2.74025 81.5103 2.28026 81.7004 1.80026 81.7004Z" fill="#D1D1D1"/>
<path d="M91.3504 79.9104C91.3504 78.9104 92.1604 78.1104 93.1504 78.1104C94.1504 78.1104 94.9404 78.9104 94.9404 79.9104C94.9404 80.9004 94.1404 81.7004 93.1504 81.7104C92.1604 81.7004 91.3504 80.8904 91.3504 79.9104ZM82.2204 79.9104C82.2204 78.9104 83.0304 78.1104 84.0104 78.1204C85.0104 78.1204 85.8104 78.9204 85.8104 79.9104C85.8104 80.8904 85.0104 81.7004 84.0104 81.7004C83.0304 81.7004 82.2204 80.8904 82.2204 79.9104ZM73.0804 79.9104C73.0804 78.9104 73.8804 78.1104 74.8704 78.1104C75.8604 78.1104 76.6604 78.9104 76.6704 79.9104C76.6704 80.9004 75.8604 81.7004 74.8704 81.7104C73.8804 81.7004 73.0804 80.8904 73.0804 79.9104ZM63.9604 79.9104C63.9604 78.9104 64.7604 78.1104 65.7504 78.1104C66.7404 78.1104 67.5404 78.9104 67.5404 79.9104C67.5404 80.9004 66.7304 81.7004 65.7504 81.7004C64.7504 81.7004 63.9504 80.8904 63.9604 79.9104ZM54.8204 79.9104C54.8204 78.9104 55.6204 78.1104 56.6004 78.1104C57.6004 78.1104 58.4004 78.9104 58.4004 79.9104C58.4004 80.9004 57.5904 81.7004 56.6004 81.7004C55.6204 81.7004 54.8204 80.8904 54.8204 79.9104ZM45.6804 79.9104C45.6804 78.9104 46.4904 78.1104 47.4704 78.1104C48.4704 78.1104 49.2704 78.9104 49.2704 79.9104C49.2704 80.9004 48.4704 81.7004 47.4804 81.7004C46.4904 81.7004 45.6804 80.8904 45.6804 79.9104ZM36.5504 79.9104C36.5504 78.9104 37.3604 78.1104 38.3404 78.1104C39.3304 78.1104 40.1304 78.9104 40.1304 79.9104C40.1304 80.9004 39.3304 81.7104 38.3304 81.7104C37.3604 81.7004 36.5504 80.8904 36.5504 79.9104ZM27.4104 79.9104C27.4104 78.9104 28.2204 78.1204 29.2004 78.1104C30.1904 78.1104 30.9904 78.9104 31.0004 79.9104C31.0004 80.9004 30.1904 81.7004 29.2104 81.7004C28.2204 81.7004 27.4104 80.8904 27.4104 79.9104ZM18.2804 79.9104C18.2804 78.9104 19.0804 78.1204 20.0704 78.1204C21.0604 78.1204 21.8604 78.9204 21.8604 79.9104C21.8604 80.9004 21.0504 81.7004 20.0704 81.7004C19.0804 81.7004 18.2804 80.8904 18.2804 79.9104ZM9.15039 79.9104C9.15039 78.9104 9.95038 78.1104 10.9504 78.1104C11.9404 78.1104 12.7404 78.9104 12.7404 79.9104C12.7404 80.9004 11.9304 81.7104 10.9404 81.7104C9.95037 81.7004 9.15039 80.8904 9.15039 79.9104Z" fill="#D1D1D1"/>
<path d="M102.28 81.7004C101.81 81.7004 101.35 81.5104 101.01 81.1704C100.68 80.8404 100.48 80.3704 100.48 79.9104C100.48 79.4404 100.68 78.9804 101.01 78.6504C101.67 77.9704 102.89 77.9704 103.55 78.6404C103.88 78.9804 104.08 79.4504 104.08 79.9104C104.08 80.3804 103.88 80.8404 103.55 81.1704C103.22 81.5104 102.75 81.7004 102.28 81.7004Z" fill="#D1D1D1"/>
<path d="M1.80026 91.5804C1.33026 91.5804 0.870273 91.3804 0.530273 91.0504C0.200273 90.7204 0.0102539 90.2504 0.0102539 89.7804C0.0102539 89.3004 0.200273 88.8404 0.530273 88.5104C1.20027 87.8504 2.40025 87.8504 3.07025 88.5104C3.40025 88.8504 3.59027 89.3104 3.59027 89.7804C3.59027 90.2504 3.40025 90.7104 3.07025 91.0504C2.73025 91.3804 2.28026 91.5804 1.80026 91.5804Z" fill="#D1D1D1"/>
<path d="M91.3504 89.7803C91.3504 88.7803 92.1604 87.9903 93.1504 87.9903C94.1404 87.9903 94.9404 88.7903 94.9404 89.7803C94.9404 90.7703 94.1404 91.5803 93.1504 91.5803C92.1604 91.5803 91.3504 90.7703 91.3504 89.7803ZM82.2204 89.7803C82.2204 88.7803 83.0304 87.9803 84.0104 87.9903C85.0004 87.9903 85.8104 88.7903 85.8104 89.7803C85.8104 90.7603 85.0004 91.5703 84.0104 91.5703C83.0304 91.5803 82.2204 90.7703 82.2204 89.7803ZM73.0804 89.7803C73.0804 88.7803 73.8804 87.9903 74.8704 87.9903C75.8604 87.9903 76.6604 88.7903 76.6604 89.7803C76.6604 90.7703 75.8504 91.5803 74.8704 91.5803C73.8804 91.5803 73.0804 90.7703 73.0804 89.7803ZM63.9504 89.7803C63.9504 88.7803 64.7504 87.9903 65.7404 87.9903C66.7304 87.9903 67.5304 88.7903 67.5304 89.7803C67.5304 90.7703 66.7204 91.5803 65.7404 91.5803C64.7504 91.5803 63.9504 90.7703 63.9504 89.7803ZM54.8204 89.7803C54.8204 88.7803 55.6204 87.9903 56.6004 87.9903C57.6004 87.9903 58.4004 88.7903 58.4004 89.7803C58.4004 90.7703 57.6004 91.5803 56.6104 91.5803C55.6204 91.5803 54.8204 90.7703 54.8204 89.7803ZM45.6804 89.7803C45.6804 88.7803 46.4904 87.9903 47.4704 87.9903C48.4704 87.9903 49.2604 88.7903 49.2604 89.7803C49.2604 90.7703 48.4604 91.5803 47.4704 91.5803C46.4904 91.5803 45.6804 90.7703 45.6804 89.7803ZM36.5504 89.7803C36.5504 88.7803 37.3604 87.9903 38.3404 87.9903C39.3404 87.9903 40.1304 88.7903 40.1404 89.7903C40.1404 90.7703 39.3404 91.5803 38.3504 91.5803C37.3504 91.5803 36.5404 90.7703 36.5504 89.7803ZM27.4104 89.7903C27.4104 88.7903 28.2104 87.9903 29.2104 87.9903C30.2004 87.9903 31.0004 88.7903 31.0004 89.7803C31.0004 90.7703 30.1904 91.5803 29.2004 91.5803C28.2104 91.5803 27.4104 90.7703 27.4104 89.7903ZM18.2804 89.7903C18.2804 88.7903 19.0804 87.9903 20.0704 87.9903C21.0604 87.9903 21.8604 88.7903 21.8604 89.7803C21.8604 90.7703 21.0504 91.5803 20.0704 91.5803C19.0804 91.5803 18.2804 90.7703 18.2804 89.7903ZM9.15039 89.7803C9.15039 88.7803 9.95037 87.9903 10.9404 87.9903C11.9304 87.9903 12.7304 88.7903 12.7304 89.7803C12.7304 90.7703 11.9204 91.5803 10.9404 91.5803C9.95037 91.5803 9.15039 90.7703 9.15039 89.7803Z" fill="#D1D1D1"/>
<path d="M102.28 91.5803C101.82 91.5803 101.35 91.3803 101.01 91.0503C100.68 90.7203 100.48 90.2503 100.48 89.7803C100.48 89.3003 100.68 88.8504 101.01 88.5104C101.68 87.8404 102.88 87.8504 103.55 88.5104C103.88 88.8504 104.08 89.3103 104.08 89.7803C104.08 90.2503 103.88 90.7103 103.55 91.0503C103.22 91.3803 102.75 91.5803 102.28 91.5803Z" fill="#D1D1D1"/>
<path d="M1.81027 101.14C1.33027 101.14 0.880253 100.95 0.540253 100.62C0.210253 100.29 0.0102539 99.8203 0.0102539 99.3503C0.0102539 98.8803 0.210253 98.4203 0.540253 98.0803C1.21025 97.4203 2.41026 97.4203 3.08026 98.0803C3.41026 98.4103 3.60025 98.8803 3.60025 99.3403C3.60025 99.8203 3.41026 100.28 3.08026 100.61C2.73026 100.95 2.28027 101.14 1.81027 101.14Z" fill="#D1D1D1"/>
<path d="M91.3504 99.3503C91.3504 98.3603 92.1604 97.5603 93.1504 97.5603C94.1404 97.5603 94.9404 98.3703 94.9404 99.3503C94.9404 100.35 94.1404 101.14 93.1504 101.14C92.1604 101.14 91.3504 100.34 91.3504 99.3503ZM82.2204 99.3503C82.2204 98.3603 83.0304 97.5603 84.0104 97.5603C85.0004 97.5603 85.8104 98.3703 85.8104 99.3503C85.8104 100.34 85.0004 101.15 84.0104 101.15C83.0304 101.14 82.2204 100.34 82.2204 99.3503ZM73.0804 99.3503C73.0804 98.3603 73.8804 97.5603 74.8704 97.5603C75.8604 97.5603 76.6604 98.3703 76.6704 99.3503C76.6704 100.34 75.8604 101.14 74.8704 101.15C73.8804 101.14 73.0904 100.34 73.0804 99.3503ZM63.9604 99.3503C63.9604 98.3603 64.7604 97.5603 65.7504 97.5603C66.7404 97.5603 67.5404 98.3703 67.5404 99.3503C67.5404 100.35 66.7304 101.14 65.7504 101.14C64.7504 101.14 63.9504 100.34 63.9604 99.3503ZM54.8104 99.3503C54.8104 98.3603 55.6204 97.5603 56.6004 97.5603C57.6004 97.5603 58.4004 98.3703 58.4004 99.3503C58.4004 100.35 57.6004 101.14 56.6104 101.14C55.6204 101.14 54.8104 100.34 54.8104 99.3503ZM45.6804 99.3503C45.6804 98.3603 46.4904 97.5603 47.4704 97.5603C48.4704 97.5603 49.2604 98.3703 49.2604 99.3603C49.2604 100.35 48.4604 101.15 47.4704 101.15C46.4904 101.14 45.6804 100.34 45.6804 99.3503ZM36.5504 99.3503C36.5504 98.3603 37.3604 97.5603 38.3404 97.5603C39.3404 97.5603 40.1404 98.3703 40.1404 99.3503C40.1404 100.35 39.3404 101.14 38.3504 101.14C37.3504 101.14 36.5504 100.34 36.5504 99.3503ZM27.4104 99.3503C27.4104 98.3603 28.2204 97.5603 29.2004 97.5603C30.1904 97.5603 31.0004 98.3703 30.9904 99.3503C30.9904 100.34 30.1804 101.15 29.2004 101.14C28.2204 101.14 27.4104 100.34 27.4104 99.3503ZM18.2804 99.3503C18.2804 98.3603 19.0804 97.5603 20.0804 97.5603C21.0704 97.5603 21.8704 98.3703 21.8704 99.3503C21.8704 100.35 21.0604 101.15 20.0704 101.15C19.0804 101.14 18.2804 100.34 18.2804 99.3503ZM9.15039 99.3503C9.15039 98.3603 9.95037 97.5603 10.9404 97.5603C11.9304 97.5603 12.7304 98.3703 12.7304 99.3503C12.7304 100.34 11.9204 101.14 10.9404 101.15C9.95037 101.14 9.15039 100.34 9.15039 99.3503Z" fill="#D1D1D1"/>
<path d="M102.28 101.14C101.82 101.14 101.34 100.95 101.01 100.62C100.68 100.28 100.48 99.8203 100.48 99.3503C100.48 98.8803 100.68 98.4203 101.01 98.0803C101.68 97.4103 102.88 97.4203 103.55 98.0803C103.88 98.4103 104.07 98.8803 104.07 99.3503C104.07 99.8303 103.88 100.29 103.55 100.62C103.21 100.95 102.75 101.14 102.28 101.14Z" fill="#D1D1D1"/>
</svg>
