<svg width="47" height="56" viewBox="0 0 47 56" fill="none" xmlns="http://www.w3.org/2000/svg">
<path d="M38.7064 30.2289C38.6431 23.2727 44.4618 19.8885 44.7279 19.731C41.4325 14.9762 36.3248 14.3266 34.5299 14.2748C30.2401 13.828 26.0789 16.8151 23.8936 16.8151C21.6648 16.8151 18.2996 14.3179 14.6728 14.3913C10.0056 14.4626 5.63945 17.1367 3.24481 21.2893C-1.69712 29.7563 1.98861 42.1989 6.72336 49.0429C9.09183 52.3969 11.8594 56.1372 15.4819 56.0055C19.0259 55.8631 20.3497 53.7717 24.6264 53.7717C28.8639 53.7717 30.107 56.0055 33.8015 55.9214C37.605 55.8631 39.9996 52.5544 42.2852 49.1724C45.0223 45.3327 46.1215 41.5471 46.1651 41.3528C46.0778 41.3226 38.7805 38.5643 38.7064 30.2289ZM31.7275 9.77256C33.6336 7.41354 34.9378 4.20414 34.5757 0.947266C31.8169 1.06813 28.3667 2.83578 26.3799 5.143C24.6221 7.17613 23.0518 10.5085 23.4575 13.6424C26.5565 13.8712 29.7385 12.0949 31.7275 9.77256Z" fill="#ACB3B6"/>
</svg>
