<svg width="105" height="102" viewBox="0 0 105 102" fill="none" xmlns="http://www.w3.org/2000/svg">
<path d="M1.79977 3.58915C1.32977 3.58915 0.869785 3.39915 0.529785 3.05915C0.199785 2.72915 0.00976562 2.26915 0.00976562 1.78915C0.00976562 1.31915 0.199785 0.859149 0.529785 0.529149C1.18979 -0.140851 2.40976 -0.140853 3.06976 0.519147C3.39976 0.859147 3.58978 1.32915 3.58978 1.78915C3.58978 2.25915 3.39976 2.71915 3.06976 3.04915C2.73976 3.39915 2.27977 3.58915 1.79977 3.58915Z" fill="#EDDBFF"/>
<path d="M91.3499 1.8C91.3499 0.800003 92.1599 0.0100021 93.1499 0.0100021C94.1499 0.0100021 94.9399 0.810003 94.9399 1.8C94.9399 2.79 94.1399 3.59 93.1499 3.59C92.1599 3.59 91.3499 2.79 91.3499 1.8ZM82.2199 1.8C82.2199 0.800003 83.0299 0.0100021 84.0099 0.0100021C85.0099 0.0100021 85.8099 0.810003 85.8099 1.8C85.8099 2.79 85.0099 3.59 84.0099 3.59C83.0299 3.59 82.2199 2.79 82.2199 1.8ZM73.0799 1.8C73.0799 0.800003 73.8799 0.0100021 74.8699 0.0100021C75.8599 0.0100021 76.6599 0.810003 76.6599 1.8C76.6599 2.79 75.8499 3.59 74.8699 3.59C73.8799 3.59 73.0799 2.79 73.0799 1.8ZM63.9499 1.8C63.9499 0.800003 64.7499 0.0100021 65.7399 0.0100021C66.7299 0.0100021 67.5299 0.810003 67.5299 1.8C67.5299 2.79 66.7199 3.59 65.7399 3.59C64.7499 3.59 63.9499 2.79 63.9499 1.8ZM54.8199 1.8C54.8199 0.800003 55.6199 0.0100021 56.6099 0.0100021C57.5999 0.0100021 58.4099 0.810003 58.4099 1.8C58.4099 2.79 57.5999 3.59 56.6099 3.59C55.6199 3.59 54.8199 2.79 54.8199 1.8ZM45.6799 1.8C45.6799 0.800003 46.4899 2.13645e-06 47.4699 0.0100021C48.4699 0.0100021 49.2599 0.810003 49.2599 1.8C49.2599 2.79 48.4599 3.59 47.4699 3.59C46.4899 3.59 45.6799 2.79 45.6799 1.8ZM36.5499 1.8C36.5499 0.800003 37.3599 2.13645e-06 38.3399 0.0100021C39.3399 0.0100021 40.1399 0.810003 40.1299 1.8C40.1299 2.79 39.3299 3.59 38.3399 3.59C37.3499 3.59 36.5399 2.79 36.5499 1.8ZM27.4099 1.8C27.4099 0.800003 28.2199 0.0100021 29.1999 0.0100021C30.1899 0.0100021 30.9899 0.810003 30.9899 1.8C30.9899 2.79 30.1799 3.59 29.1999 3.59C28.2199 3.59 27.4099 2.79 27.4099 1.8ZM18.2799 1.8C18.2799 0.800003 19.0799 0 20.0699 0C21.0599 0 21.8599 0.800001 21.8699 1.79C21.8699 2.78 21.0599 3.59 20.0699 3.59C19.0799 3.59 18.2799 2.79 18.2799 1.8ZM9.1499 1.8C9.1499 0.800003 9.94988 2.13645e-06 10.9399 0.0100021C11.9299 0.0100021 12.7399 0.810003 12.7299 1.8C12.7299 2.79 11.9299 3.59 10.9399 3.59C9.94988 3.59 9.1499 2.79 9.1499 1.8Z" fill="#EDDBFF"/>
<path d="M102.28 3.58938C101.82 3.58938 101.35 3.39938 101.01 3.05938C100.68 2.72938 100.48 2.25938 100.48 1.78938C100.48 1.31938 100.68 0.859381 101.01 0.519381C101.67 -0.150619 102.89 -0.150617 103.55 0.509383C103.88 0.849383 104.08 1.31938 104.08 1.77938C104.08 2.24938 103.88 2.70938 103.55 3.04938C103.22 3.40938 102.75 3.58938 102.28 3.58938Z" fill="#EDDBFF"/>
<path d="M1.79977 13.4693C1.32977 13.4693 0.869785 13.2693 0.529785 12.9393C0.199785 12.6093 0.00976562 12.1393 0.00976562 11.6793C0.00976562 11.1993 0.199785 10.7393 0.529785 10.3993C1.19979 9.7393 2.39976 9.7393 3.06976 10.3993C3.39976 10.7393 3.58978 11.1993 3.58978 11.6693C3.58978 12.1393 3.39976 12.5993 3.06976 12.9293C2.72976 13.2693 2.27977 13.4693 1.79977 13.4693Z" fill="#EDDBFF"/>
<path d="M91.3499 11.6789C91.3499 10.6789 92.1599 9.88891 93.1499 9.88891C94.1399 9.88891 94.9399 10.6889 94.9399 11.6789C94.9399 12.6689 94.1399 13.4689 93.1499 13.4689C92.1599 13.4689 91.3499 12.6589 91.3499 11.6789ZM82.2199 11.6789C82.2199 10.6789 83.0299 9.88891 84.0099 9.88891C84.9999 9.88891 85.8099 10.6889 85.8099 11.6789C85.8099 12.6689 84.9999 13.4789 84.0099 13.4789C83.0299 13.4689 82.2199 12.6589 82.2199 11.6789ZM73.0799 11.6789C73.0799 10.6789 73.8799 9.88891 74.8699 9.88891C75.8599 9.88891 76.6599 10.6889 76.6699 11.6889C76.6699 12.6689 75.8599 13.4789 74.8799 13.4789C73.8799 13.4689 73.0799 12.6589 73.0799 11.6789ZM63.9599 11.6789C63.9599 10.6789 64.7599 9.87891 65.7499 9.87891C66.7299 9.87891 67.5399 10.6789 67.5399 11.6689C67.5399 12.6589 66.7299 13.4689 65.7499 13.4589C64.7499 13.4689 63.9499 12.6589 63.9599 11.6789ZM54.8199 11.6789C54.8199 10.6789 55.6199 9.88891 56.5999 9.88891C57.5999 9.88891 58.3999 10.6889 58.3999 11.6889C58.3999 12.6689 57.5999 13.4789 56.6099 13.4789C55.6199 13.4689 54.8199 12.6589 54.8199 11.6789ZM45.6799 11.6789C45.6799 10.6789 46.4899 9.87891 47.4699 9.87891C48.4699 9.87891 49.2599 10.6789 49.2599 11.6689C49.2599 12.6589 48.4599 13.4589 47.4599 13.4589C46.4899 13.4689 45.6799 12.6589 45.6799 11.6789ZM36.5399 11.6789C36.5399 10.6789 37.3499 9.88891 38.3299 9.88891C39.3299 9.88891 40.1299 10.6889 40.1299 11.6789C40.1299 12.6689 39.3299 13.4689 38.3299 13.4689C37.3499 13.4689 36.5499 12.6589 36.5399 11.6789ZM27.4099 11.6789C27.4099 10.6789 28.2099 9.88891 29.1999 9.88891C30.1899 9.88891 30.9999 10.6889 30.9899 11.6789C30.9899 12.6589 30.1799 13.4689 29.1999 13.4689C28.2099 13.4689 27.4099 12.6589 27.4099 11.6789ZM18.2799 11.6789C18.2799 10.6789 19.0799 9.87891 20.0799 9.87891C21.0699 9.87891 21.8699 10.6789 21.8699 11.6689C21.8699 12.6589 21.0599 13.4689 20.0799 13.4589C19.0799 13.4689 18.2799 12.6589 18.2799 11.6789ZM9.1499 11.6789C9.1499 10.6789 9.94988 9.87891 10.9399 9.87891C11.9199 9.87891 12.7299 10.6789 12.7299 11.6789C12.7299 12.6589 11.9199 13.4689 10.9399 13.4689C9.94988 13.4689 9.1499 12.6589 9.1499 11.6789Z" fill="#EDDBFF"/>
<path d="M102.28 13.4691C101.82 13.4691 101.35 13.2691 101.01 12.9391C100.68 12.6091 100.48 12.1391 100.48 11.6791C100.48 11.1991 100.68 10.7491 101.01 10.4091C101.68 9.74906 102.88 9.74906 103.55 10.4091C103.88 10.7491 104.08 11.2091 104.08 11.6791C104.08 12.1491 103.88 12.6091 103.55 12.9491C103.22 13.2691 102.75 13.4691 102.28 13.4691Z" fill="#EDDBFF"/>
<path d="M1.81003 23.0292C1.33003 23.0292 0.870029 22.8392 0.530029 22.5092C0.200029 22.1792 0 21.7092 0 21.2392C0 20.7692 0.200029 20.3092 0.530029 19.9792C1.20003 19.3192 2.40001 19.3092 3.07001 19.9792C3.40001 20.3092 3.59003 20.7792 3.59003 21.2492C3.59003 21.7192 3.40001 22.1892 3.07001 22.5192C2.73001 22.8392 2.28003 23.0392 1.81003 23.0292Z" fill="#EDDBFF"/>
<path d="M91.3499 21.2392C91.3499 20.2492 92.1599 19.4492 93.1499 19.4492C94.1399 19.4492 94.9399 20.2592 94.9399 21.2392C94.9399 22.2292 94.1399 23.0292 93.1499 23.0292C92.1599 23.0292 91.3499 22.2292 91.3499 21.2392ZM82.2199 21.2392C82.2199 20.2492 83.0299 19.4492 84.0099 19.4492C84.9999 19.4492 85.8099 20.2592 85.8099 21.2492C85.8099 22.2492 84.9999 23.0392 84.0099 23.0492C83.0299 23.0292 82.2199 22.2392 82.2199 21.2392ZM73.0899 21.2392C73.0899 20.2492 73.8899 19.4492 74.8899 19.4492C75.8799 19.4492 76.6799 20.2592 76.6799 21.2392C76.6799 22.2392 75.8699 23.0392 74.8899 23.0292C73.8799 23.0392 73.0799 22.2292 73.0899 21.2392ZM63.9599 21.2392C63.9599 20.2492 64.7599 19.4492 65.7499 19.4492C66.7399 19.4492 67.5399 20.2592 67.5399 21.2392C67.5399 22.2292 66.7299 23.0392 65.7499 23.0292C64.7499 23.0392 63.9599 22.2392 63.9599 21.2392ZM54.8099 21.2392C54.8099 20.2492 55.6199 19.4492 56.5999 19.4492C57.5999 19.4492 58.3899 20.2592 58.3899 21.2392C58.3899 22.2392 57.5899 23.0292 56.5999 23.0292C55.6199 23.0392 54.8099 22.2392 54.8099 21.2392ZM45.6799 21.2392C45.6799 20.2492 46.4899 19.4492 47.4699 19.4492C48.4699 19.4492 49.2699 20.2592 49.2699 21.2492C49.2699 22.2492 48.4699 23.0392 47.4799 23.0392C46.4899 23.0292 45.6799 22.2392 45.6799 21.2392ZM36.5399 21.2392C36.5399 20.2492 37.3499 19.4492 38.3299 19.4492C39.3299 19.4492 40.1299 20.2592 40.1199 21.2492C40.1199 22.2492 39.3199 23.0492 38.3299 23.0492C37.3499 23.0392 36.5499 22.2292 36.5399 21.2392ZM27.4099 21.2392C27.4099 20.2492 28.2199 19.4492 29.1999 19.4492C30.1899 19.4492 30.9999 20.2592 30.9999 21.2492C30.9999 22.2392 30.1899 23.0392 29.2099 23.0492C28.2199 23.0392 27.4099 22.2392 27.4099 21.2392ZM18.2799 21.2392C18.2799 20.2492 19.0799 19.4492 20.0699 19.4492C21.0599 19.4492 21.8599 20.2592 21.8699 21.2392C21.8699 22.2292 21.0599 23.0392 20.0699 23.0392C19.0799 23.0392 18.2799 22.2392 18.2799 21.2392ZM9.1499 21.2392C9.1499 20.2492 9.94988 19.4492 10.9399 19.4492C11.9299 19.4492 12.7299 20.2592 12.7299 21.2492C12.7299 22.2492 11.9199 23.0392 10.9399 23.0492C9.94988 23.0392 9.1499 22.2392 9.1499 21.2392Z" fill="#EDDBFF"/>
<path d="M102.28 23.0396C101.81 23.0396 101.35 22.8496 101.01 22.5196C100.68 22.1796 100.48 21.7196 100.48 21.2396C100.48 20.7696 100.68 20.3096 101.01 19.9696C101.68 19.3096 102.88 19.3096 103.55 19.9696C103.88 20.2996 104.07 20.7696 104.07 21.2396C104.07 21.7196 103.88 22.1796 103.55 22.5096C103.21 22.8396 102.75 23.0296 102.28 23.0396Z" fill="#EDDBFF"/>
<path d="M1.81003 32.9102C1.33003 32.9102 0.880029 32.7202 0.530029 32.3902C0.200029 32.0502 0 31.5902 0 31.1202C0 30.6402 0.200029 30.1902 0.530029 29.8502C1.20003 29.1802 2.40001 29.1802 3.07001 29.8502C3.40001 30.1902 3.59003 30.6502 3.59003 31.1202C3.59003 31.6002 3.40001 32.0502 3.07001 32.3902C2.73001 32.7202 2.28003 32.9102 1.81003 32.9102Z" fill="#EDDBFF"/>
<path d="M91.3499 31.1203C91.3499 30.1203 92.1599 29.3303 93.1499 29.3303C94.1399 29.3303 94.9399 30.1303 94.9399 31.1203C94.9399 32.1103 94.1399 32.9103 93.1499 32.9103C92.1599 32.9103 91.3499 32.1003 91.3499 31.1203ZM82.2199 31.1103C82.2199 30.1203 83.0199 29.3203 84.0099 29.3203C84.9999 29.3203 85.8099 30.1203 85.8099 31.1103C85.8099 32.1003 84.9999 32.9003 84.0099 32.9003C83.0199 32.9103 82.2199 32.1003 82.2199 31.1103ZM73.0799 31.1203C73.0799 30.1203 73.8799 29.3303 74.8699 29.3303C75.8599 29.3303 76.6599 30.1303 76.6599 31.1203C76.6599 32.1103 75.8499 32.9203 74.8699 32.9103C73.8799 32.9103 73.0799 32.1003 73.0799 31.1203ZM63.9499 31.1203C63.9499 30.1203 64.7499 29.3303 65.7399 29.3303C66.7299 29.3303 67.5299 30.1303 67.5299 31.1203C67.5299 32.1103 66.7199 32.9103 65.7399 32.9103C64.7499 32.9103 63.9599 32.1003 63.9499 31.1203ZM54.8099 31.1203C54.8099 30.1203 55.6199 29.3303 56.5999 29.3303C57.5999 29.3303 58.3999 30.1303 58.3999 31.1203C58.3999 32.1103 57.5899 32.9103 56.5999 32.9103C55.6199 32.9103 54.8099 32.1003 54.8099 31.1203ZM45.6799 31.1103C45.6799 30.1203 46.4899 29.3203 47.4699 29.3203C48.4699 29.3203 49.2599 30.1203 49.2599 31.1103C49.2599 32.1003 48.4599 32.9003 47.4699 32.9003C46.4899 32.9103 45.6799 32.1003 45.6799 31.1103ZM36.5499 31.1203C36.5499 30.1203 37.3599 29.3303 38.3399 29.3303C39.3399 29.3303 40.1399 30.1303 40.1399 31.1303C40.1399 32.1103 39.3399 32.9203 38.3499 32.9203C37.3499 32.9103 36.5499 32.1003 36.5499 31.1203ZM27.4099 31.1203C27.4099 30.1203 28.2099 29.3203 29.1999 29.3203C30.1899 29.3203 30.9999 30.1203 30.9999 31.1103C30.9999 32.1003 30.1899 32.9103 29.1999 32.9103C28.2099 32.9103 27.4099 32.1003 27.4099 31.1203ZM18.2799 31.1103C18.2799 30.1203 19.0799 29.3203 20.0699 29.3203C21.0599 29.3203 21.8599 30.1203 21.8599 31.1103C21.8599 32.0903 21.0499 32.9003 20.0699 32.9003C19.0799 32.9103 18.2799 32.1003 18.2799 31.1103ZM9.1499 31.1203C9.1499 30.1203 9.94988 29.3303 10.9399 29.3303C11.9299 29.3303 12.7299 30.1303 12.7299 31.1203C12.7299 32.1103 11.9199 32.9203 10.9399 32.9103C9.94988 32.9103 9.1499 32.1003 9.1499 31.1203Z" fill="#EDDBFF"/>
<path d="M102.28 32.9095C101.81 32.9095 101.35 32.7195 101.01 32.3895C100.68 32.0495 100.48 31.5795 100.48 31.1195C100.48 30.6395 100.68 30.1895 101.01 29.8495C101.68 29.1795 102.88 29.1795 103.55 29.8395C103.88 30.1795 104.08 30.6395 104.08 31.1095C104.08 31.5795 103.88 32.0395 103.55 32.3795C103.21 32.7195 102.75 32.9095 102.28 32.9095Z" fill="#EDDBFF"/>
<path d="M1.79977 41.8691C1.32977 41.8691 0.869785 41.6791 0.529785 41.3491C0.199785 41.0091 0.00976562 40.5491 0.00976562 40.0791C0.00976562 39.6091 0.199785 39.1491 0.529785 38.8191C1.18979 38.1591 2.39976 38.1491 3.06976 38.8191C3.39976 39.1491 3.58978 39.6191 3.58978 40.0791C3.58978 40.5591 3.39976 41.0091 3.06976 41.3591C2.72976 41.6791 2.27977 41.8691 1.79977 41.8691Z" fill="#EDDBFF"/>
<path d="M91.3499 40.0793C91.3499 39.0893 92.1599 38.2893 93.1499 38.2893C94.1399 38.2893 94.9399 39.0993 94.9399 40.0793C94.9399 41.0793 94.1399 41.8793 93.1499 41.8693C92.1599 41.8693 91.3499 41.0793 91.3499 40.0793ZM82.2199 40.0793C82.2199 39.0893 83.0199 38.2893 84.0099 38.2893C85.0099 38.2893 85.8099 39.0993 85.8099 40.0793C85.8099 41.0793 85.0099 41.8693 84.0099 41.8693C83.0199 41.8693 82.2199 41.0693 82.2199 40.0793ZM73.0799 40.0793C73.0799 39.0893 73.8799 38.2893 74.8699 38.2893C75.8599 38.2893 76.6699 39.0993 76.6599 40.0893C76.6599 41.0893 75.8499 41.8793 74.8699 41.8793C73.8799 41.8693 73.0899 41.0693 73.0799 40.0793ZM63.9499 40.0793C63.9499 39.0893 64.7499 38.2893 65.7399 38.2893C66.7299 38.2893 67.5399 39.0993 67.5399 40.0893C67.5399 41.0793 66.7299 41.8793 65.7499 41.8793C64.7499 41.8693 63.9499 41.0693 63.9499 40.0793ZM54.8099 40.0793C54.8099 39.0893 55.6199 38.2893 56.6099 38.2793C57.5999 38.2793 58.3999 39.0893 58.3999 40.0793C58.3999 41.0793 57.5999 41.8693 56.6099 41.8693C55.6199 41.8693 54.8099 41.0693 54.8099 40.0793ZM45.6799 40.0793C45.6799 39.0893 46.4899 38.2793 47.4799 38.2793C48.4799 38.2793 49.2699 39.0893 49.2799 40.0693C49.2799 41.0693 48.4799 41.8593 47.4799 41.8693C46.4899 41.8693 45.6799 41.0693 45.6799 40.0793ZM36.5499 40.0793C36.5499 39.0893 37.3599 38.2893 38.3399 38.2893C39.3399 38.2893 40.1299 39.0993 40.1299 40.0793C40.1299 41.0793 39.3299 41.8693 38.3299 41.8693C37.3499 41.8693 36.5499 41.0693 36.5499 40.0793ZM27.4099 40.0793C27.4099 39.0993 28.2099 38.2893 29.1999 38.2893C30.1899 38.2893 30.9999 39.0993 30.9999 40.0893C30.9999 41.0893 30.1899 41.8793 29.2099 41.8793C28.2099 41.8693 27.4099 41.0693 27.4099 40.0793ZM18.2799 40.0793C18.2799 39.0893 19.0799 38.2893 20.0699 38.2893C21.0599 38.2893 21.8599 39.0993 21.8599 40.0793C21.8599 41.0793 21.0499 41.8693 20.0699 41.8693C19.0799 41.8693 18.2799 41.0693 18.2799 40.0793ZM9.1499 40.0793C9.1499 39.0893 9.9499 38.2893 10.9299 38.2793C11.9299 38.2793 12.7299 39.0893 12.7299 40.0693C12.7299 41.0693 11.9199 41.8693 10.9299 41.8593C9.9499 41.8693 9.1499 41.0693 9.1499 40.0793Z" fill="#EDDBFF"/>
<path d="M102.29 41.8691C101.81 41.8691 101.35 41.6791 101.02 41.3491C100.69 41.0091 100.49 40.5491 100.49 40.0791C100.49 39.6091 100.69 39.1491 101.02 38.8191C101.69 38.1591 102.89 38.1491 103.56 38.8191C103.89 39.1491 104.08 39.6191 104.08 40.0791C104.08 40.5591 103.89 41.0091 103.56 41.3591C103.21 41.6791 102.75 41.8691 102.29 41.8691Z" fill="#EDDBFF"/>
<path d="M1.80002 51.7491C1.34002 51.7491 0.870029 51.5591 0.530029 51.2191C0.200029 50.8891 0 50.4191 0 49.9591C0 49.4791 0.200029 49.0291 0.530029 48.6991C1.19003 48.0291 2.39001 48.0291 3.07001 48.6891C3.40001 49.0291 3.60001 49.4891 3.60001 49.9591C3.60001 50.4191 3.40001 50.8891 3.07001 51.2191C2.73001 51.5591 2.28002 51.7491 1.80002 51.7491Z" fill="#EDDBFF"/>
<path d="M91.3499 49.9602C91.3499 48.9602 92.1599 48.1602 93.1499 48.1702C94.1499 48.1702 94.9399 48.9702 94.9399 49.9602C94.9399 50.9502 94.1399 51.7502 93.1499 51.7502C92.1599 51.7502 91.3499 50.9402 91.3499 49.9602ZM82.2199 49.9602C82.2199 48.9702 83.0199 48.1702 84.0099 48.1702C84.9999 48.1702 85.8099 48.9702 85.8099 49.9602C85.8099 50.9502 84.9999 51.7502 84.0099 51.7502C83.0199 51.7502 82.2199 50.9402 82.2199 49.9602ZM73.0799 49.9602C73.0799 48.9602 73.8799 48.1702 74.8699 48.1702C75.8599 48.1702 76.6599 48.9702 76.6599 49.9602C76.6599 50.9502 75.8499 51.7502 74.8699 51.7502C73.8799 51.7502 73.0799 50.9402 73.0799 49.9602ZM63.9499 49.9602C63.9499 48.9602 64.7499 48.1602 65.7399 48.1702C66.7299 48.1702 67.5399 48.9702 67.5299 49.9602C67.5299 50.9502 66.7199 51.7502 65.7399 51.7502C64.7499 51.7502 63.9599 50.9402 63.9499 49.9602ZM54.8099 49.9602C54.8099 48.9602 55.6199 48.1702 56.5999 48.1702C57.5999 48.1702 58.3999 48.9702 58.3999 49.9602C58.3999 50.9502 57.5899 51.7502 56.5999 51.7502C55.6199 51.7502 54.8099 50.9402 54.8099 49.9602ZM45.6799 49.9602C45.6799 48.9602 46.4899 48.1602 47.4699 48.1602C48.4599 48.1602 49.2599 48.9602 49.2599 49.9502C49.2599 50.9402 48.4599 51.7402 47.4599 51.7402C46.4899 51.7502 45.6799 50.9402 45.6799 49.9602ZM36.5499 49.9602C36.5499 48.9602 37.3599 48.1702 38.3399 48.1702C39.3399 48.1702 40.1299 48.9702 40.1399 49.9602C40.1399 50.9502 39.3399 51.7502 38.3499 51.7502C37.3499 51.7502 36.5399 50.9402 36.5499 49.9602ZM27.4099 49.9602C27.4099 48.9602 28.2099 48.1702 29.2099 48.1702C30.1999 48.1702 30.9999 48.9702 30.9999 49.9602C30.9999 50.9502 30.1899 51.7502 29.1999 51.7502C28.2099 51.7502 27.4099 50.9402 27.4099 49.9602ZM18.2799 49.9602C18.2799 48.9602 19.0799 48.1602 20.0799 48.1702C21.0599 48.1702 21.8699 48.9702 21.8699 49.9602C21.8699 50.9502 21.0599 51.7502 20.0799 51.7502C19.0799 51.7502 18.2799 50.9402 18.2799 49.9602ZM9.1499 49.9602C9.1499 48.9702 9.94988 48.1702 10.9399 48.1702C11.9299 48.1702 12.7299 48.9702 12.7299 49.9602C12.7299 50.9502 11.9199 51.7502 10.9399 51.7502C9.94988 51.7502 9.1499 50.9402 9.1499 49.9602Z" fill="#EDDBFF"/>
<path d="M102.28 51.7498C101.82 51.7498 101.35 51.5598 101.01 51.2198C100.68 50.8898 100.49 50.4298 100.49 49.9598C100.49 49.4798 100.68 49.0298 101.01 48.6998C101.68 48.0298 102.88 48.0298 103.55 48.6998C103.88 49.0298 104.07 49.4898 104.07 49.9598C104.07 50.4198 103.88 50.8898 103.55 51.2198C103.22 51.5598 102.75 51.7498 102.28 51.7498Z" fill="#EDDBFF"/>
<path d="M1.80978 61.3209C1.32978 61.3209 0.869764 61.1209 0.539764 60.7909C0.209764 60.4609 0.00976562 59.9909 0.00976562 59.5209C0.00976562 59.0409 0.209764 58.5809 0.539764 58.2509C1.20976 57.5909 2.39977 57.5909 3.07977 58.2509C3.40977 58.5809 3.59976 59.0509 3.59976 59.5209C3.59976 59.9909 3.40977 60.4509 3.07977 60.7909C2.72977 61.1309 2.27978 61.3209 1.80978 61.3209Z" fill="#EDDBFF"/>
<path d="M91.3499 59.5302C91.3499 58.5302 92.1599 57.7402 93.1499 57.7402C94.1499 57.7402 94.9399 58.5402 94.9399 59.5402C94.9399 60.5202 94.1399 61.3302 93.1499 61.3302C92.1599 61.3202 91.3499 60.5202 91.3499 59.5302ZM82.2199 59.5302C82.2199 58.5302 83.0299 57.7402 84.0099 57.7402C84.9999 57.7402 85.8099 58.5402 85.8099 59.5302C85.8099 60.5202 84.9999 61.3202 84.0099 61.3202C83.0299 61.3202 82.2199 60.5202 82.2199 59.5302ZM73.0799 59.5302C73.0799 58.5302 73.8799 57.7402 74.8699 57.7402C75.8599 57.7402 76.6599 58.5402 76.6599 59.5302C76.6599 60.5202 75.8499 61.3302 74.8699 61.3202C73.8799 61.3202 73.0799 60.5102 73.0799 59.5302ZM63.9499 59.5302C63.9499 58.5302 64.7499 57.7402 65.7399 57.7402C66.7299 57.7402 67.5299 58.5402 67.5299 59.5402C67.5299 60.5202 66.7199 61.3302 65.7399 61.3302C64.7499 61.3202 63.9499 60.5102 63.9499 59.5302ZM54.8099 59.5302C54.8099 58.5302 55.6199 57.7402 56.5999 57.7402C57.5999 57.7402 58.3999 58.5402 58.3899 59.5302C58.3899 60.5202 57.5999 61.3302 56.5999 61.3202C55.6199 61.3202 54.8099 60.5202 54.8099 59.5302ZM45.6799 59.5302C45.6799 58.5302 46.4899 57.7402 47.4699 57.7402C48.4699 57.7402 49.2599 58.5402 49.2599 59.5302C49.2599 60.5202 48.4599 61.3302 47.4699 61.3202C46.4899 61.3202 45.6799 60.5202 45.6799 59.5302ZM36.5499 59.5302C36.5499 58.5302 37.3599 57.7402 38.3399 57.7402C39.3399 57.7402 40.1399 58.5402 40.1299 59.5302C40.1299 60.5202 39.3299 61.3202 38.3399 61.3202C37.3499 61.3202 36.5499 60.5102 36.5499 59.5302ZM27.4099 59.5302C27.4099 58.5302 28.2099 57.7402 29.1999 57.7402C30.1899 57.7402 30.9999 58.5402 30.9999 59.5302C30.9999 60.5202 30.1899 61.3202 29.2099 61.3202C28.2099 61.3202 27.4099 60.5202 27.4099 59.5302ZM18.2799 59.5302C18.2799 58.5302 19.0799 57.7402 20.0699 57.7402C21.0599 57.7402 21.8599 58.5402 21.8599 59.5302C21.8599 60.5202 21.0499 61.3202 20.0699 61.3202C19.0799 61.3202 18.2799 60.5202 18.2799 59.5302ZM9.1499 59.5302C9.1499 58.5302 9.94988 57.7402 10.9399 57.7402C11.9299 57.7402 12.7299 58.5402 12.7299 59.5302C12.7299 60.5202 11.9199 61.3302 10.9399 61.3202C9.94988 61.3202 9.1499 60.5202 9.1499 59.5302Z" fill="#EDDBFF"/>
<path d="M102.28 61.3209C101.82 61.3209 101.36 61.1209 101.01 60.7909C100.68 60.4609 100.48 59.9909 100.48 59.5209C100.48 59.0509 100.68 58.5909 101.01 58.2509C101.68 57.5909 102.88 57.5909 103.55 58.2509C103.88 58.5909 104.07 59.0509 104.07 59.5209C104.07 59.9909 103.88 60.4509 103.55 60.7909C103.21 61.1309 102.75 61.3209 102.28 61.3209Z" fill="#EDDBFF"/>
<path d="M1.79977 71.1892C1.32977 71.1892 0.869785 70.9992 0.529785 70.6692C0.199785 70.3392 0.00976562 69.8692 0.00976562 69.3992C0.00976562 68.9192 0.199785 68.4692 0.529785 68.1392C1.19979 67.4692 2.39976 67.4692 3.06976 68.1392C3.39976 68.4692 3.58978 68.9392 3.58978 69.4092C3.58978 69.8792 3.39976 70.3392 3.06976 70.6792C2.73976 70.9992 2.27977 71.1892 1.79977 71.1892Z" fill="#EDDBFF"/>
<path d="M91.3499 69.3996C91.3499 68.4096 92.1599 67.6096 93.1499 67.5996C94.1499 67.5996 94.9399 68.4096 94.9399 69.3996C94.9399 70.3896 94.1399 71.1896 93.1499 71.1896C92.1599 71.1896 91.3499 70.3896 91.3499 69.3996ZM82.2199 69.3996C82.2199 68.4096 83.0299 67.6096 84.0099 67.6096C84.9999 67.6096 85.8099 68.4196 85.8099 69.3996C85.8099 70.3996 84.9999 71.1896 84.0099 71.1896C83.0299 71.1896 82.2199 70.3896 82.2199 69.3996ZM73.0799 69.3996C73.0799 68.4096 73.8799 67.6096 74.8699 67.6096C75.8599 67.6096 76.6699 68.4196 76.6599 69.3996C76.6599 70.3896 75.8499 71.1896 74.8699 71.1896C73.8799 71.1896 73.0799 70.3896 73.0799 69.3996ZM63.9499 69.3996C63.9499 68.4096 64.7499 67.5996 65.7399 67.6096C66.7299 67.6096 67.5399 68.4196 67.5299 69.3996C67.5299 70.3896 66.7299 71.1896 65.7399 71.1896C64.7499 71.1896 63.9499 70.3896 63.9499 69.3996ZM54.8099 69.3996C54.8099 68.4096 55.6199 67.5996 56.6099 67.5996C57.6099 67.5996 58.3999 68.4096 58.3999 69.3896C58.3999 70.3896 57.5999 71.1896 56.5999 71.1796C55.6199 71.1896 54.8099 70.3896 54.8099 69.3996ZM45.6799 69.3996C45.6799 68.4096 46.4899 67.6096 47.4699 67.6096C48.4699 67.6096 49.2699 68.4196 49.2699 69.4096C49.2699 70.3996 48.4699 71.1996 47.4799 71.1996C46.4899 71.1896 45.6799 70.3896 45.6799 69.3996ZM36.5499 69.3996C36.5499 68.4096 37.3599 67.5996 38.3399 67.5996C39.3399 67.5996 40.1399 68.4096 40.1299 69.3896C40.1299 70.3896 39.3299 71.1796 38.3299 71.1796C37.3599 71.1896 36.5499 70.3896 36.5499 69.3996ZM27.4099 69.3996C27.4099 68.4096 28.2199 67.6096 29.1999 67.6096C30.1899 67.6096 30.9999 68.4196 30.9999 69.4096C30.9999 70.3996 30.1899 71.1996 29.2099 71.1996C28.2199 71.1896 27.4099 70.3896 27.4099 69.3996ZM18.2799 69.3996C18.2799 68.4096 19.0799 67.6096 20.0699 67.6096C21.0599 67.6096 21.8599 68.4196 21.8599 69.3996C21.8599 70.3996 21.0499 71.1896 20.0699 71.1896C19.0799 71.1896 18.2799 70.3896 18.2799 69.3996ZM9.1499 69.3996C9.1499 68.4096 9.94988 67.5996 10.9399 67.6096C11.9299 67.6096 12.7299 68.4196 12.7299 69.3996C12.7299 70.3896 11.9199 71.1896 10.9399 71.1896C9.94988 71.1896 9.1499 70.3896 9.1499 69.3996Z" fill="#EDDBFF"/>
<path d="M102.28 71.1896C101.81 71.1896 101.35 70.9996 101.01 70.6696C100.68 70.3296 100.48 69.8696 100.48 69.3896C100.48 68.9296 100.68 68.4596 101.01 68.1296C101.68 67.4596 102.88 67.4696 103.55 68.1296C103.88 68.4596 104.08 68.9296 104.08 69.3896C104.08 69.8596 103.88 70.3196 103.55 70.6596C103.22 70.9996 102.75 71.1896 102.28 71.1896Z" fill="#EDDBFF"/>
<path d="M1.80026 81.7001C1.33026 81.7001 0.870273 81.5101 0.530273 81.1701C0.200273 80.8401 0.0102539 80.3801 0.0102539 79.9101C0.0102539 79.4401 0.200273 78.9801 0.530273 78.6501C1.19027 77.9801 2.41025 77.9701 3.07025 78.6401C3.40025 78.9801 3.59027 79.4501 3.59027 79.9101C3.59027 80.3801 3.40025 80.8401 3.07025 81.1701C2.74025 81.5101 2.28026 81.7001 1.80026 81.7001Z" fill="#EDDBFF"/>
<path d="M91.3504 79.9094C91.3504 78.9094 92.1604 78.1094 93.1504 78.1094C94.1504 78.1094 94.9404 78.9094 94.9404 79.9094C94.9404 80.8994 94.1404 81.6994 93.1504 81.7094C92.1604 81.6994 91.3504 80.8894 91.3504 79.9094ZM82.2204 79.9094C82.2204 78.9094 83.0304 78.1094 84.0104 78.1194C85.0104 78.1194 85.8104 78.9194 85.8104 79.9094C85.8104 80.8894 85.0104 81.6994 84.0104 81.6994C83.0304 81.6994 82.2204 80.8894 82.2204 79.9094ZM73.0804 79.9094C73.0804 78.9094 73.8804 78.1094 74.8704 78.1094C75.8604 78.1094 76.6604 78.9094 76.6704 79.9094C76.6704 80.8994 75.8604 81.6994 74.8704 81.7094C73.8804 81.6994 73.0804 80.8894 73.0804 79.9094ZM63.9604 79.9094C63.9604 78.9094 64.7604 78.1094 65.7504 78.1094C66.7404 78.1094 67.5404 78.9094 67.5404 79.9094C67.5404 80.8994 66.7304 81.6994 65.7504 81.6994C64.7504 81.6994 63.9504 80.8894 63.9604 79.9094ZM54.8204 79.9094C54.8204 78.9094 55.6204 78.1094 56.6004 78.1094C57.6004 78.1094 58.4004 78.9094 58.4004 79.9094C58.4004 80.8994 57.5904 81.6994 56.6004 81.6994C55.6204 81.6994 54.8204 80.8894 54.8204 79.9094ZM45.6804 79.9094C45.6804 78.9094 46.4904 78.1094 47.4704 78.1094C48.4704 78.1094 49.2704 78.9094 49.2704 79.9094C49.2704 80.8994 48.4704 81.6994 47.4804 81.6994C46.4904 81.6994 45.6804 80.8894 45.6804 79.9094ZM36.5504 79.9094C36.5504 78.9094 37.3604 78.1094 38.3404 78.1094C39.3304 78.1094 40.1304 78.9094 40.1304 79.9094C40.1304 80.8994 39.3304 81.7094 38.3304 81.7094C37.3604 81.6994 36.5504 80.8894 36.5504 79.9094ZM27.4104 79.9094C27.4104 78.9094 28.2204 78.1194 29.2004 78.1094C30.1904 78.1094 30.9904 78.9094 31.0004 79.9094C31.0004 80.8994 30.1904 81.6994 29.2104 81.6994C28.2204 81.6994 27.4104 80.8894 27.4104 79.9094ZM18.2804 79.9094C18.2804 78.9094 19.0804 78.1194 20.0704 78.1194C21.0604 78.1194 21.8604 78.9194 21.8604 79.9094C21.8604 80.8994 21.0504 81.6994 20.0704 81.6994C19.0804 81.6994 18.2804 80.8894 18.2804 79.9094ZM9.15039 79.9094C9.15039 78.9094 9.95038 78.1094 10.9504 78.1094C11.9404 78.1094 12.7404 78.9094 12.7404 79.9094C12.7404 80.8994 11.9304 81.7094 10.9404 81.7094C9.95037 81.6994 9.15039 80.8894 9.15039 79.9094Z" fill="#EDDBFF"/>
<path d="M102.28 81.6999C101.81 81.6999 101.35 81.5099 101.01 81.1699C100.68 80.8399 100.48 80.3699 100.48 79.9099C100.48 79.4399 100.68 78.9799 101.01 78.6499C101.67 77.9699 102.89 77.9699 103.55 78.6399C103.88 78.9799 104.08 79.4499 104.08 79.9099C104.08 80.3799 103.88 80.8399 103.55 81.1699C103.22 81.5099 102.75 81.6999 102.28 81.6999Z" fill="#EDDBFF"/>
<path d="M1.80026 91.5806C1.33026 91.5806 0.870273 91.3806 0.530273 91.0506C0.200273 90.7206 0.0102539 90.2506 0.0102539 89.7806C0.0102539 89.3006 0.200273 88.8406 0.530273 88.5106C1.20027 87.8506 2.40025 87.8506 3.07025 88.5106C3.40025 88.8506 3.59027 89.3106 3.59027 89.7806C3.59027 90.2506 3.40025 90.7106 3.07025 91.0506C2.73025 91.3806 2.28026 91.5806 1.80026 91.5806Z" fill="#EDDBFF"/>
<path d="M91.3504 89.7803C91.3504 88.7803 92.1604 87.9903 93.1504 87.9903C94.1404 87.9903 94.9404 88.7903 94.9404 89.7803C94.9404 90.7703 94.1404 91.5803 93.1504 91.5803C92.1604 91.5803 91.3504 90.7703 91.3504 89.7803ZM82.2204 89.7803C82.2204 88.7803 83.0304 87.9803 84.0104 87.9903C85.0004 87.9903 85.8104 88.7903 85.8104 89.7803C85.8104 90.7603 85.0004 91.5703 84.0104 91.5703C83.0304 91.5803 82.2204 90.7703 82.2204 89.7803ZM73.0804 89.7803C73.0804 88.7803 73.8804 87.9903 74.8704 87.9903C75.8604 87.9903 76.6604 88.7903 76.6604 89.7803C76.6604 90.7703 75.8504 91.5803 74.8704 91.5803C73.8804 91.5803 73.0804 90.7703 73.0804 89.7803ZM63.9504 89.7803C63.9504 88.7803 64.7504 87.9903 65.7404 87.9903C66.7304 87.9903 67.5304 88.7903 67.5304 89.7803C67.5304 90.7703 66.7204 91.5803 65.7404 91.5803C64.7504 91.5803 63.9504 90.7703 63.9504 89.7803ZM54.8204 89.7803C54.8204 88.7803 55.6204 87.9903 56.6004 87.9903C57.6004 87.9903 58.4004 88.7903 58.4004 89.7803C58.4004 90.7703 57.6004 91.5803 56.6104 91.5803C55.6204 91.5803 54.8204 90.7703 54.8204 89.7803ZM45.6804 89.7803C45.6804 88.7803 46.4904 87.9903 47.4704 87.9903C48.4704 87.9903 49.2604 88.7903 49.2604 89.7803C49.2604 90.7703 48.4604 91.5803 47.4704 91.5803C46.4904 91.5803 45.6804 90.7703 45.6804 89.7803ZM36.5504 89.7803C36.5504 88.7803 37.3604 87.9903 38.3404 87.9903C39.3404 87.9903 40.1304 88.7903 40.1404 89.7903C40.1404 90.7703 39.3404 91.5803 38.3504 91.5803C37.3504 91.5803 36.5404 90.7703 36.5504 89.7803ZM27.4104 89.7903C27.4104 88.7903 28.2104 87.9903 29.2104 87.9903C30.2004 87.9903 31.0004 88.7903 31.0004 89.7803C31.0004 90.7703 30.1904 91.5803 29.2004 91.5803C28.2104 91.5803 27.4104 90.7703 27.4104 89.7903ZM18.2804 89.7903C18.2804 88.7903 19.0804 87.9903 20.0704 87.9903C21.0604 87.9903 21.8604 88.7903 21.8604 89.7803C21.8604 90.7703 21.0504 91.5803 20.0704 91.5803C19.0804 91.5803 18.2804 90.7703 18.2804 89.7903ZM9.15039 89.7803C9.15039 88.7803 9.95037 87.9903 10.9404 87.9903C11.9304 87.9903 12.7304 88.7903 12.7304 89.7803C12.7304 90.7703 11.9204 91.5803 10.9404 91.5803C9.95037 91.5803 9.15039 90.7703 9.15039 89.7803Z" fill="#EDDBFF"/>
<path d="M102.28 91.5805C101.82 91.5805 101.35 91.3805 101.01 91.0505C100.68 90.7205 100.48 90.2505 100.48 89.7805C100.48 89.3005 100.68 88.8505 101.01 88.5105C101.68 87.8405 102.88 87.8505 103.55 88.5105C103.88 88.8505 104.08 89.3105 104.08 89.7805C104.08 90.2505 103.88 90.7105 103.55 91.0505C103.22 91.3805 102.75 91.5805 102.28 91.5805Z" fill="#EDDBFF"/>
<path d="M1.81027 101.139C1.33027 101.139 0.880253 100.949 0.540253 100.619C0.210253 100.289 0.0102539 99.819 0.0102539 99.349C0.0102539 98.879 0.210253 98.419 0.540253 98.079C1.21025 97.419 2.41026 97.419 3.08026 98.079C3.41026 98.409 3.60025 98.879 3.60025 99.339C3.60025 99.819 3.41026 100.279 3.08026 100.609C2.73026 100.949 2.28027 101.139 1.81027 101.139Z" fill="#EDDBFF"/>
<path d="M91.3504 99.3486C91.3504 98.3586 92.1604 97.5586 93.1504 97.5586C94.1404 97.5586 94.9404 98.3686 94.9404 99.3486C94.9404 100.349 94.1404 101.139 93.1504 101.139C92.1604 101.139 91.3504 100.339 91.3504 99.3486ZM82.2204 99.3486C82.2204 98.3586 83.0304 97.5586 84.0104 97.5586C85.0004 97.5586 85.8104 98.3686 85.8104 99.3486C85.8104 100.339 85.0004 101.149 84.0104 101.149C83.0304 101.139 82.2204 100.339 82.2204 99.3486ZM73.0804 99.3486C73.0804 98.3586 73.8804 97.5586 74.8704 97.5586C75.8604 97.5586 76.6604 98.3686 76.6704 99.3486C76.6704 100.339 75.8604 101.139 74.8704 101.149C73.8804 101.139 73.0904 100.339 73.0804 99.3486ZM63.9604 99.3486C63.9604 98.3586 64.7604 97.5586 65.7504 97.5586C66.7404 97.5586 67.5404 98.3686 67.5404 99.3486C67.5404 100.349 66.7304 101.139 65.7504 101.139C64.7504 101.139 63.9504 100.339 63.9604 99.3486ZM54.8104 99.3486C54.8104 98.3586 55.6204 97.5586 56.6004 97.5586C57.6004 97.5586 58.4004 98.3686 58.4004 99.3486C58.4004 100.349 57.6004 101.139 56.6104 101.139C55.6204 101.139 54.8104 100.339 54.8104 99.3486ZM45.6804 99.3486C45.6804 98.3586 46.4904 97.5586 47.4704 97.5586C48.4704 97.5586 49.2604 98.3686 49.2604 99.3586C49.2604 100.349 48.4604 101.149 47.4704 101.149C46.4904 101.139 45.6804 100.339 45.6804 99.3486ZM36.5504 99.3486C36.5504 98.3586 37.3604 97.5586 38.3404 97.5586C39.3404 97.5586 40.1404 98.3686 40.1404 99.3486C40.1404 100.349 39.3404 101.139 38.3504 101.139C37.3504 101.139 36.5504 100.339 36.5504 99.3486ZM27.4104 99.3486C27.4104 98.3586 28.2204 97.5586 29.2004 97.5586C30.1904 97.5586 31.0004 98.3686 30.9904 99.3486C30.9904 100.339 30.1804 101.149 29.2004 101.139C28.2204 101.139 27.4104 100.339 27.4104 99.3486ZM18.2804 99.3486C18.2804 98.3586 19.0804 97.5586 20.0804 97.5586C21.0704 97.5586 21.8704 98.3686 21.8704 99.3486C21.8704 100.349 21.0604 101.149 20.0704 101.149C19.0804 101.139 18.2804 100.339 18.2804 99.3486ZM9.15039 99.3486C9.15039 98.3586 9.95037 97.5586 10.9404 97.5586C11.9304 97.5586 12.7304 98.3686 12.7304 99.3486C12.7304 100.339 11.9204 101.139 10.9404 101.149C9.95037 101.139 9.15039 100.339 9.15039 99.3486Z" fill="#EDDBFF"/>
<path d="M102.28 101.139C101.82 101.139 101.34 100.949 101.01 100.619C100.68 100.279 100.48 99.8188 100.48 99.3488C100.48 98.8788 100.68 98.4188 101.01 98.0788C101.68 97.4088 102.88 97.4188 103.55 98.0788C103.88 98.4088 104.07 98.8788 104.07 99.3488C104.07 99.8288 103.88 100.289 103.55 100.619C103.21 100.949 102.75 101.139 102.28 101.139Z" fill="#EDDBFF"/>
</svg>
