<svg width="113" height="113" viewBox="0 0 113 113" fill="none" xmlns="http://www.w3.org/2000/svg">
<path d="M108.898 87.9703C110.818 87.9703 112.36 89.528 112.36 91.4318C112.36 93.3514 110.818 94.8934 108.898 94.8934C106.995 94.8934 105.437 93.3514 105.437 91.4318C105.437 89.528 106.995 87.9703 108.898 87.9703ZM108.898 70.3793C110.818 70.3793 112.36 71.937 112.36 73.8251C112.36 75.7447 110.818 77.2867 108.898 77.2867C106.995 77.2867 105.437 75.7447 105.437 73.8251C105.437 71.937 106.995 70.3793 108.898 70.3793ZM108.898 52.7884C110.818 52.7884 112.36 54.3147 112.36 56.25C112.36 58.1538 110.818 59.7115 108.898 59.7115C106.995 59.7115 105.437 58.1538 105.437 56.25C105.437 54.3304 106.995 52.7884 108.898 52.7884ZM108.898 35.1975C110.818 35.1975 112.36 36.7395 112.36 38.6591C112.36 40.5629 110.818 42.1206 108.898 42.1206C106.995 42.1206 105.437 40.5629 105.437 38.6591C105.437 36.7395 106.995 35.1975 108.898 35.1975ZM108.898 17.6066C110.818 17.6066 112.36 19.1486 112.36 21.0525C112.36 22.972 110.818 24.5297 108.898 24.5297C106.995 24.5297 105.437 22.9878 105.437 21.0525C105.437 19.1486 106.995 17.6066 108.898 17.6066ZM108.898 0C110.818 0 112.36 1.55766 112.36 3.46151C112.36 5.36536 110.818 6.90732 108.898 6.90732C106.995 6.90732 105.437 5.36536 105.437 3.46151C105.437 1.55766 106.995 0 108.898 0Z" fill="#D1D1D1"/>
<path d="M105.437 109.022C105.437 108.125 105.799 107.228 106.46 106.583C107.089 105.938 107.986 105.561 108.899 105.561C109.795 105.561 110.692 105.938 111.337 106.583C112.628 107.858 112.628 110.186 111.353 111.477C110.692 112.106 109.795 112.499 108.899 112.499C108.002 112.499 107.105 112.122 106.46 111.477C105.799 110.832 105.437 109.935 105.437 109.022Z" fill="#D1D1D1"/>
<path d="M34.9474 87.9703C36.867 87.9703 38.409 89.528 38.409 91.4318C38.409 93.3514 36.867 94.8934 34.9474 94.8934C33.0436 94.8934 31.4858 93.3514 31.4858 91.4318C31.4858 89.528 33.0436 87.9703 34.9474 87.9703ZM34.9474 70.3793C36.867 70.3793 38.409 71.937 38.409 73.8251C38.409 75.7447 36.867 77.2867 34.9474 77.2867C33.0436 77.2867 31.4858 75.7447 31.4858 73.8251C31.4858 71.937 33.0436 70.3793 34.9474 70.3793ZM34.9474 52.7884C36.867 52.7884 38.409 54.3147 38.409 56.25C38.409 58.1538 36.867 59.7115 34.9474 59.7115C33.0436 59.7115 31.4858 58.1538 31.4858 56.25C31.4858 54.3304 33.0436 52.7884 34.9474 52.7884ZM34.9474 35.1975C36.867 35.1975 38.409 36.7395 38.409 38.6591C38.409 40.5629 36.867 42.1206 34.9474 42.1206C33.0436 42.1206 31.4858 40.5629 31.4858 38.6591C31.4858 36.7395 33.0436 35.1975 34.9474 35.1975ZM34.9474 17.6066C36.867 17.6066 38.409 19.1486 38.409 21.0525C38.409 22.972 36.867 24.5297 34.9474 24.5297C33.0436 24.5297 31.4858 22.9878 31.4858 21.0525C31.4858 19.1486 33.0436 17.6066 34.9474 17.6066ZM34.9474 0C36.867 0 38.409 1.55766 38.409 3.46151C38.409 5.36536 36.867 6.90732 34.9474 6.90732C33.0436 6.90732 31.4858 5.36536 31.4858 3.46151C31.4858 1.55766 33.0436 0 34.9474 0Z" fill="#D1D1D1"/>
<path d="M31.4858 109.022C31.4858 108.125 31.8478 107.228 32.5086 106.583C33.138 105.938 34.0348 105.561 34.9474 105.561C35.8443 105.561 36.7411 105.938 37.3862 106.583C38.6764 107.858 38.6764 110.186 37.4019 111.477C36.7411 112.106 35.8443 112.499 34.9474 112.499C34.0505 112.499 33.1537 112.122 32.5086 111.477C31.8478 110.832 31.4858 109.935 31.4858 109.022Z" fill="#D1D1D1"/>
<path d="M89.876 87.9703C91.7956 87.9703 93.3374 89.528 93.3374 91.4318C93.3374 93.3514 91.7956 94.8934 89.876 94.8934C87.9721 94.8934 86.4144 93.3514 86.4144 91.4318C86.4144 89.528 87.9721 87.9703 89.876 87.9703ZM89.876 70.3793C91.7956 70.3793 93.3374 71.937 93.3374 73.8251C93.3374 75.729 91.7956 77.2867 89.876 77.2867C87.9721 77.2867 86.4144 75.729 86.4144 73.8251C86.4144 71.937 87.9721 70.3793 89.876 70.3793ZM89.876 52.7884C91.7956 52.7884 93.3374 54.3147 93.3374 56.25C93.3374 58.1538 91.7956 59.7115 89.876 59.7115C87.9721 59.7115 86.4144 58.1538 86.4144 56.25C86.4144 54.3304 87.9721 52.7884 89.876 52.7884ZM89.876 35.1975C91.7956 35.1975 93.3374 36.7395 93.3374 38.6591C93.3374 40.5629 91.7956 42.1206 89.876 42.1206C87.9721 42.1206 86.4144 40.5629 86.4144 38.6591C86.4144 36.7395 87.9721 35.1975 89.876 35.1975ZM89.876 17.6066C91.7956 17.6066 93.3374 19.1486 93.3374 21.0525C93.3374 22.972 91.7956 24.514 89.876 24.514C87.9721 24.514 86.4144 22.9878 86.4144 21.0525C86.4144 19.1486 87.9721 17.6066 89.876 17.6066ZM89.876 0C91.7956 0 93.3374 1.55766 93.3374 3.46151C93.3374 5.36536 91.7956 6.90732 89.876 6.90732C87.9721 6.90732 86.4144 5.36536 86.4144 3.46151C86.4144 1.55766 87.9721 0 89.876 0Z" fill="#D1D1D1"/>
<path d="M86.4146 109.022C86.4146 108.125 86.7921 107.228 87.4372 106.583C88.0823 105.938 88.9793 105.561 89.8761 105.561C90.7887 105.561 91.6698 105.954 92.3306 106.583C93.6051 107.889 93.6051 110.171 92.3306 111.477C91.6698 112.106 90.7887 112.484 89.8761 112.484C88.9793 112.484 88.0823 112.106 87.4372 111.477C86.7921 110.832 86.4146 109.935 86.4146 109.022Z" fill="#D1D1D1"/>
<path d="M15.9249 87.9703C17.8445 87.9703 19.3864 89.528 19.3864 91.4318C19.3864 93.3514 17.8445 94.8934 15.9249 94.8934C14.0211 94.8934 12.4634 93.3514 12.4634 91.4318C12.4634 89.528 14.0211 87.9703 15.9249 87.9703ZM15.9249 70.3793C17.8445 70.3793 19.3864 71.937 19.3864 73.8251C19.3864 75.729 17.8445 77.2867 15.9249 77.2867C14.0211 77.2867 12.4634 75.729 12.4634 73.8251C12.4634 71.937 14.0211 70.3793 15.9249 70.3793ZM15.9249 52.7884C17.8445 52.7884 19.3864 54.3147 19.3864 56.25C19.3864 58.1538 17.8445 59.7115 15.9249 59.7115C14.0211 59.7115 12.4634 58.1538 12.4634 56.25C12.4634 54.3304 14.0211 52.7884 15.9249 52.7884ZM15.9249 35.1975C17.8445 35.1975 19.3864 36.7395 19.3864 38.6591C19.3864 40.5629 17.8445 42.1206 15.9249 42.1206C14.0211 42.1206 12.4634 40.5629 12.4634 38.6591C12.4634 36.7395 14.0211 35.1975 15.9249 35.1975ZM15.9249 17.6066C17.8445 17.6066 19.3864 19.1486 19.3864 21.0525C19.3864 22.972 17.8445 24.514 15.9249 24.514C14.0211 24.514 12.4634 22.9878 12.4634 21.0525C12.4634 19.1486 14.0211 17.6066 15.9249 17.6066ZM15.9249 0C17.8445 0 19.3864 1.55766 19.3864 3.46151C19.3864 5.36536 17.8445 6.90732 15.9249 6.90732C14.0211 6.90732 12.4634 5.36536 12.4634 3.46151C12.4634 1.55766 14.0211 0 15.9249 0Z" fill="#D1D1D1"/>
<path d="M12.4634 109.022C12.4634 108.125 12.8409 107.228 13.486 106.583C14.1312 105.938 15.0281 105.561 15.9249 105.561C16.8375 105.561 17.7186 105.954 18.3795 106.583C19.654 107.889 19.654 110.171 18.3795 111.477C17.7186 112.106 16.8375 112.484 15.9249 112.484C15.0281 112.484 14.1312 112.106 13.486 111.477C12.8409 110.832 12.4634 109.935 12.4634 109.022Z" fill="#D1D1D1"/>
<path d="M71.4512 87.9703C73.3551 87.9703 74.9128 89.528 74.9128 91.4318C74.9128 93.3514 73.3551 94.8934 71.4512 94.8934C69.5317 94.8934 67.9897 93.3514 67.9897 91.4318C67.9897 89.528 69.5317 87.9703 71.4512 87.9703ZM71.4512 70.3793C73.3551 70.3793 74.9128 71.937 74.9128 73.8251C74.9128 75.729 73.3551 77.2867 71.4512 77.2867C69.5317 77.2867 67.9897 75.729 67.9897 73.8251C67.9897 71.937 69.5317 70.3793 71.4512 70.3793ZM71.4512 52.7884C73.3551 52.7884 74.9128 54.3147 74.9128 56.25C74.9128 58.1538 73.3551 59.7115 71.4512 59.7115C69.5317 59.7115 67.9897 58.1538 67.9897 56.25C67.9897 54.3304 69.5317 52.7884 71.4512 52.7884ZM71.4512 35.1975C73.3551 35.1975 74.9128 36.7395 74.9128 38.6591C74.9128 40.5629 73.3551 42.1206 71.4512 42.1206C69.5317 42.1206 67.9897 40.5629 67.9897 38.6591C67.9897 36.7395 69.5317 35.1975 71.4512 35.1975ZM71.4512 17.5909C73.3551 17.5909 74.9128 19.1486 74.9128 21.0525C74.9128 22.972 73.3551 24.514 71.4512 24.514C69.5317 24.514 67.9897 22.9878 67.9897 21.0525C67.9897 19.1486 69.5317 17.5909 71.4512 17.5909ZM71.4512 0C73.3551 0 74.9128 1.55766 74.9128 3.46151C74.9128 5.36536 73.3551 6.90732 71.4512 6.90732C69.5317 6.90732 67.9897 5.36536 67.9897 3.46151C67.9897 1.55766 69.5317 0 71.4512 0Z" fill="#D1D1D1"/>
<path d="M67.9896 109.022C67.9896 108.125 68.3515 107.228 68.9966 106.583C69.6574 105.938 70.5385 105.561 71.4511 105.561C72.348 105.561 73.2448 105.954 73.8899 106.583C75.1644 107.889 75.1644 110.171 73.8899 111.477C73.2448 112.106 72.348 112.468 71.4511 112.468C70.5385 112.468 69.6417 112.106 68.9966 111.477C68.3515 110.816 67.9896 109.935 67.9896 109.022Z" fill="#D1D1D1"/>
<path d="M-2.49981 87.9703C-0.595961 87.9703 0.961751 89.528 0.961751 91.4318C0.961751 93.3514 -0.595961 94.8934 -2.49981 94.8934C-4.41939 94.8934 -5.96136 93.3514 -5.96136 91.4318C-5.96136 89.528 -4.41939 87.9703 -2.49981 87.9703ZM-2.49981 70.3793C-0.595961 70.3793 0.961751 71.937 0.961751 73.8251C0.961751 75.729 -0.595961 77.2867 -2.49981 77.2867C-4.41939 77.2867 -5.96136 75.729 -5.96136 73.8251C-5.96136 71.937 -4.41939 70.3793 -2.49981 70.3793ZM-2.49981 52.7884C-0.595961 52.7884 0.961751 54.3147 0.961751 56.25C0.961751 58.1538 -0.595961 59.7115 -2.49981 59.7115C-4.41939 59.7115 -5.96136 58.1538 -5.96136 56.25C-5.96136 54.3304 -4.41939 52.7884 -2.49981 52.7884ZM-2.49981 35.1975C-0.595961 35.1975 0.961751 36.7395 0.961751 38.6591C0.961751 40.5629 -0.595961 42.1206 -2.49981 42.1206C-4.41939 42.1206 -5.96136 40.5629 -5.96136 38.6591C-5.96136 36.7395 -4.41939 35.1975 -2.49981 35.1975ZM-2.49981 17.5909C-0.595961 17.5909 0.961751 19.1486 0.961751 21.0525C0.961751 22.972 -0.595961 24.514 -2.49981 24.514C-4.41939 24.514 -5.96136 22.9878 -5.96136 21.0525C-5.96136 19.1486 -4.41939 17.5909 -2.49981 17.5909ZM-2.49981 0C-0.595961 0 0.961751 1.55766 0.961751 3.46151C0.961751 5.36536 -0.595961 6.90732 -2.49981 6.90732C-4.41939 6.90732 -5.96136 5.36536 -5.96136 3.46151C-5.96136 1.55766 -4.41939 0 -2.49981 0Z" fill="#D1D1D1"/>
<path d="M-5.96136 109.022C-5.96136 108.125 -5.59945 107.228 -4.95435 106.583C-4.29351 105.938 -3.41239 105.561 -2.49981 105.561C-1.60295 105.561 -0.70612 105.954 -0.0610151 106.583C1.21346 107.889 1.21346 110.171 -0.0610151 111.477C-0.70612 112.106 -1.60295 112.468 -2.49981 112.468C-3.41239 112.468 -4.30924 112.106 -4.95435 111.477C-5.59945 110.816 -5.96136 109.935 -5.96136 109.022Z" fill="#D1D1D1"/>
<path d="M52.4125 87.9703C54.3321 87.9703 55.8741 89.528 55.8741 91.4318C55.8741 93.3514 54.3478 94.8934 52.4125 94.8934C50.5087 94.8934 48.951 93.3514 48.951 91.4318C48.9668 89.528 50.5244 87.9703 52.4125 87.9703ZM52.4125 70.3793C54.3321 70.3793 55.8741 71.9213 55.8741 73.8251C55.8741 75.729 54.3478 77.2867 52.4125 77.2867C50.5087 77.2867 48.951 75.729 48.951 73.8251C48.9668 71.9213 50.5244 70.3793 52.4125 70.3793ZM52.4125 52.7884C54.3321 52.7884 55.8741 54.3147 55.8741 56.25C55.8741 58.1538 54.3478 59.7115 52.4125 59.7115C50.5087 59.7115 48.951 58.1538 48.951 56.25C48.9668 54.3304 50.5244 52.7884 52.4125 52.7884ZM52.4125 35.1975C54.3321 35.1975 55.8741 36.7395 55.8741 38.6591C55.8741 40.5629 54.3478 42.1206 52.4125 42.1206C50.5087 42.1206 48.951 40.5629 48.951 38.6591C48.9668 36.7395 50.5244 35.1975 52.4125 35.1975ZM52.4125 17.5909C54.3321 17.5909 55.8741 19.1486 55.8741 21.0525C55.8741 22.972 54.3478 24.5297 52.4125 24.5297C50.5087 24.5297 48.951 22.9878 48.951 21.0525C48.9668 19.1486 50.5244 17.5909 52.4125 17.5909ZM52.4125 0C54.3321 0 55.8741 1.55766 55.8741 3.46151C55.8741 5.36536 54.3478 6.90732 52.4125 6.90732C50.5087 6.90732 48.951 5.36536 48.951 3.46151C48.9668 1.55766 50.5244 0 52.4125 0Z" fill="#D1D1D1"/>
<path d="M48.9669 109.022C48.9669 108.125 49.3287 107.228 49.9738 106.583C50.6347 105.938 51.5315 105.561 52.4284 105.561C53.341 105.561 54.2222 105.954 54.8673 106.583C56.1732 107.889 56.1731 110.171 54.8829 111.477C54.2221 112.106 53.3252 112.484 52.4284 112.484C51.5315 112.484 50.6347 112.106 49.9896 111.477C49.3287 110.816 48.9669 109.935 48.9669 109.022Z" fill="#D1D1D1"/>
</svg>
