<svg width="118" height="113" viewBox="0 0 118 113" fill="none" xmlns="http://www.w3.org/2000/svg">
<path d="M59.9474 87.9703C61.867 87.9703 63.409 89.528 63.409 91.4318C63.409 93.3514 61.867 94.8934 59.9474 94.8934C58.0436 94.8934 56.4858 93.3514 56.4858 91.4318C56.4858 89.528 58.0436 87.9703 59.9474 87.9703ZM59.9474 70.3793C61.867 70.3793 63.409 71.937 63.409 73.8251C63.409 75.7447 61.867 77.2867 59.9474 77.2867C58.0436 77.2867 56.4858 75.7447 56.4858 73.8251C56.4858 71.937 58.0436 70.3793 59.9474 70.3793ZM59.9474 52.7884C61.867 52.7884 63.409 54.3147 63.409 56.25C63.409 58.1538 61.867 59.7115 59.9474 59.7115C58.0436 59.7115 56.4858 58.1538 56.4858 56.25C56.4858 54.3304 58.0436 52.7884 59.9474 52.7884ZM59.9474 35.1975C61.867 35.1975 63.409 36.7395 63.409 38.6591C63.409 40.5629 61.867 42.1206 59.9474 42.1206C58.0436 42.1206 56.4858 40.5629 56.4858 38.6591C56.4858 36.7395 58.0436 35.1975 59.9474 35.1975ZM59.9474 17.6066C61.867 17.6066 63.409 19.1486 63.409 21.0525C63.409 22.972 61.867 24.5297 59.9474 24.5297C58.0436 24.5297 56.4858 22.9878 56.4858 21.0525C56.4858 19.1486 58.0436 17.6066 59.9474 17.6066ZM59.9474 0C61.867 0 63.409 1.55766 63.409 3.46151C63.409 5.36536 61.867 6.90732 59.9474 6.90732C58.0436 6.90732 56.4858 5.36536 56.4858 3.46151C56.4858 1.55766 58.0436 0 59.9474 0Z" fill="#D1D1D1"/>
<path d="M56.4858 109.022C56.4858 108.125 56.8478 107.228 57.5086 106.583C58.138 105.938 59.0348 105.561 59.9474 105.561C60.8443 105.561 61.7411 105.938 62.3862 106.583C63.6764 107.858 63.6764 110.186 62.4019 111.477C61.7411 112.106 60.8443 112.499 59.9474 112.499C59.0505 112.499 58.1537 112.122 57.5086 111.477C56.8478 110.832 56.4858 109.935 56.4858 109.022Z" fill="#D1D1D1"/>
<path d="M114.876 87.9703C116.796 87.9703 118.337 89.528 118.337 91.4318C118.337 93.3514 116.796 94.8934 114.876 94.8934C112.972 94.8934 111.414 93.3514 111.414 91.4318C111.414 89.528 112.972 87.9703 114.876 87.9703ZM114.876 70.3793C116.796 70.3793 118.337 71.937 118.337 73.8251C118.337 75.729 116.796 77.2867 114.876 77.2867C112.972 77.2867 111.414 75.729 111.414 73.8251C111.414 71.937 112.972 70.3793 114.876 70.3793ZM114.876 52.7884C116.796 52.7884 118.337 54.3147 118.337 56.25C118.337 58.1538 116.796 59.7115 114.876 59.7115C112.972 59.7115 111.414 58.1538 111.414 56.25C111.414 54.3304 112.972 52.7884 114.876 52.7884ZM114.876 35.1975C116.796 35.1975 118.337 36.7395 118.337 38.6591C118.337 40.5629 116.796 42.1206 114.876 42.1206C112.972 42.1206 111.414 40.5629 111.414 38.6591C111.414 36.7395 112.972 35.1975 114.876 35.1975ZM114.876 17.6066C116.796 17.6066 118.337 19.1486 118.337 21.0525C118.337 22.972 116.796 24.514 114.876 24.514C112.972 24.514 111.414 22.9878 111.414 21.0525C111.414 19.1486 112.972 17.6066 114.876 17.6066ZM114.876 0C116.796 0 118.337 1.55766 118.337 3.46151C118.337 5.36536 116.796 6.90732 114.876 6.90732C112.972 6.90732 111.414 5.36536 111.414 3.46151C111.414 1.55766 112.972 0 114.876 0Z" fill="#D1D1D1"/>
<path d="M111.415 109.022C111.415 108.125 111.792 107.228 112.437 106.583C113.082 105.938 113.979 105.561 114.876 105.561C115.789 105.561 116.67 105.954 117.331 106.583C118.605 107.889 118.605 110.171 117.331 111.477C116.67 112.106 115.789 112.484 114.876 112.484C113.979 112.484 113.082 112.106 112.437 111.477C111.792 110.832 111.415 109.935 111.415 109.022Z" fill="#D1D1D1"/>
<path d="M40.9249 87.9703C42.8445 87.9703 44.3864 89.528 44.3864 91.4318C44.3864 93.3514 42.8445 94.8934 40.9249 94.8934C39.0211 94.8934 37.4634 93.3514 37.4634 91.4318C37.4634 89.528 39.0211 87.9703 40.9249 87.9703ZM40.9249 70.3793C42.8445 70.3793 44.3864 71.937 44.3864 73.8251C44.3864 75.729 42.8445 77.2867 40.9249 77.2867C39.0211 77.2867 37.4634 75.729 37.4634 73.8251C37.4634 71.937 39.0211 70.3793 40.9249 70.3793ZM40.9249 52.7884C42.8445 52.7884 44.3864 54.3147 44.3864 56.25C44.3864 58.1538 42.8445 59.7115 40.9249 59.7115C39.0211 59.7115 37.4634 58.1538 37.4634 56.25C37.4634 54.3304 39.0211 52.7884 40.9249 52.7884ZM40.9249 35.1975C42.8445 35.1975 44.3864 36.7395 44.3864 38.6591C44.3864 40.5629 42.8445 42.1206 40.9249 42.1206C39.0211 42.1206 37.4634 40.5629 37.4634 38.6591C37.4634 36.7395 39.0211 35.1975 40.9249 35.1975ZM40.9249 17.6066C42.8445 17.6066 44.3864 19.1486 44.3864 21.0525C44.3864 22.972 42.8445 24.514 40.9249 24.514C39.0211 24.514 37.4634 22.9878 37.4634 21.0525C37.4634 19.1486 39.0211 17.6066 40.9249 17.6066ZM40.9249 0C42.8445 0 44.3864 1.55766 44.3864 3.46151C44.3864 5.36536 42.8445 6.90732 40.9249 6.90732C39.0211 6.90732 37.4634 5.36536 37.4634 3.46151C37.4634 1.55766 39.0211 0 40.9249 0Z" fill="#D1D1D1"/>
<path d="M37.4634 109.022C37.4634 108.125 37.8409 107.228 38.486 106.583C39.1312 105.938 40.0281 105.561 40.9249 105.561C41.8375 105.561 42.7186 105.954 43.3795 106.583C44.654 107.889 44.654 110.171 43.3795 111.477C42.7186 112.106 41.8375 112.484 40.9249 112.484C40.0281 112.484 39.1312 112.106 38.486 111.477C37.8409 110.832 37.4634 109.935 37.4634 109.022Z" fill="#D1D1D1"/>
<path d="M96.4512 87.9703C98.3551 87.9703 99.9128 89.528 99.9128 91.4318C99.9128 93.3514 98.3551 94.8934 96.4512 94.8934C94.5317 94.8934 92.9897 93.3514 92.9897 91.4318C92.9897 89.528 94.5317 87.9703 96.4512 87.9703ZM96.4512 70.3793C98.3551 70.3793 99.9128 71.937 99.9128 73.8251C99.9128 75.729 98.3551 77.2867 96.4512 77.2867C94.5317 77.2867 92.9897 75.729 92.9897 73.8251C92.9897 71.937 94.5317 70.3793 96.4512 70.3793ZM96.4512 52.7884C98.3551 52.7884 99.9128 54.3147 99.9128 56.25C99.9128 58.1538 98.3551 59.7115 96.4512 59.7115C94.5317 59.7115 92.9897 58.1538 92.9897 56.25C92.9897 54.3304 94.5317 52.7884 96.4512 52.7884ZM96.4512 35.1975C98.3551 35.1975 99.9128 36.7395 99.9128 38.6591C99.9128 40.5629 98.3551 42.1206 96.4512 42.1206C94.5317 42.1206 92.9897 40.5629 92.9897 38.6591C92.9897 36.7395 94.5317 35.1975 96.4512 35.1975ZM96.4512 17.5909C98.3551 17.5909 99.9128 19.1486 99.9128 21.0525C99.9128 22.972 98.3551 24.514 96.4512 24.514C94.5317 24.514 92.9897 22.9878 92.9897 21.0525C92.9897 19.1486 94.5317 17.5909 96.4512 17.5909ZM96.4512 0C98.3551 0 99.9128 1.55766 99.9128 3.46151C99.9128 5.36536 98.3551 6.90732 96.4512 6.90732C94.5317 6.90732 92.9897 5.36536 92.9897 3.46151C92.9897 1.55766 94.5317 0 96.4512 0Z" fill="#D1D1D1"/>
<path d="M92.9896 109.022C92.9896 108.125 93.3515 107.228 93.9966 106.583C94.6574 105.938 95.5385 105.561 96.4511 105.561C97.348 105.561 98.2448 105.954 98.8899 106.583C100.164 107.889 100.164 110.171 98.8899 111.477C98.2448 112.106 97.348 112.468 96.4511 112.468C95.5385 112.468 94.6417 112.106 93.9966 111.477C93.3515 110.816 92.9896 109.935 92.9896 109.022Z" fill="#D1D1D1"/>
<path d="M22.5002 87.9703C24.404 87.9703 25.9618 89.528 25.9618 91.4318C25.9618 93.3514 24.404 94.8934 22.5002 94.8934C20.5806 94.8934 19.0386 93.3514 19.0386 91.4318C19.0386 89.528 20.5806 87.9703 22.5002 87.9703ZM22.5002 70.3793C24.404 70.3793 25.9618 71.937 25.9618 73.8251C25.9618 75.729 24.404 77.2867 22.5002 77.2867C20.5806 77.2867 19.0386 75.729 19.0386 73.8251C19.0386 71.937 20.5806 70.3793 22.5002 70.3793ZM22.5002 52.7884C24.404 52.7884 25.9618 54.3147 25.9618 56.25C25.9618 58.1538 24.404 59.7115 22.5002 59.7115C20.5806 59.7115 19.0386 58.1538 19.0386 56.25C19.0386 54.3304 20.5806 52.7884 22.5002 52.7884ZM22.5002 35.1975C24.404 35.1975 25.9618 36.7395 25.9618 38.6591C25.9618 40.5629 24.404 42.1206 22.5002 42.1206C20.5806 42.1206 19.0386 40.5629 19.0386 38.6591C19.0386 36.7395 20.5806 35.1975 22.5002 35.1975ZM22.5002 17.5909C24.404 17.5909 25.9618 19.1486 25.9618 21.0525C25.9618 22.972 24.404 24.514 22.5002 24.514C20.5806 24.514 19.0386 22.9878 19.0386 21.0525C19.0386 19.1486 20.5806 17.5909 22.5002 17.5909ZM22.5002 0C24.404 0 25.9618 1.55766 25.9618 3.46151C25.9618 5.36536 24.404 6.90732 22.5002 6.90732C20.5806 6.90732 19.0386 5.36536 19.0386 3.46151C19.0386 1.55766 20.5806 0 22.5002 0Z" fill="#D1D1D1"/>
<path d="M19.0386 109.022C19.0386 108.125 19.4005 107.228 20.0457 106.583C20.7065 105.938 21.5876 105.561 22.5002 105.561C23.397 105.561 24.2939 105.954 24.939 106.583C26.2135 107.889 26.2135 110.171 24.939 111.477C24.2939 112.106 23.397 112.468 22.5002 112.468C21.5876 112.468 20.6908 112.106 20.0457 111.477C19.4005 110.816 19.0386 109.935 19.0386 109.022Z" fill="#D1D1D1"/>
<path d="M77.4125 87.9703C79.3321 87.9703 80.8741 89.528 80.8741 91.4318C80.8741 93.3514 79.3478 94.8934 77.4125 94.8934C75.5087 94.8934 73.951 93.3514 73.951 91.4318C73.9668 89.528 75.5244 87.9703 77.4125 87.9703ZM77.4125 70.3793C79.3321 70.3793 80.8741 71.9213 80.8741 73.8251C80.8741 75.729 79.3478 77.2867 77.4125 77.2867C75.5087 77.2867 73.951 75.729 73.951 73.8251C73.9668 71.9213 75.5244 70.3793 77.4125 70.3793ZM77.4125 52.7884C79.3321 52.7884 80.8741 54.3147 80.8741 56.25C80.8741 58.1538 79.3478 59.7115 77.4125 59.7115C75.5087 59.7115 73.951 58.1538 73.951 56.25C73.9668 54.3304 75.5244 52.7884 77.4125 52.7884ZM77.4125 35.1975C79.3321 35.1975 80.8741 36.7395 80.8741 38.6591C80.8741 40.5629 79.3478 42.1206 77.4125 42.1206C75.5087 42.1206 73.951 40.5629 73.951 38.6591C73.9668 36.7395 75.5244 35.1975 77.4125 35.1975ZM77.4125 17.5909C79.3321 17.5909 80.8741 19.1486 80.8741 21.0525C80.8741 22.972 79.3478 24.5297 77.4125 24.5297C75.5087 24.5297 73.951 22.9878 73.951 21.0525C73.9668 19.1486 75.5244 17.5909 77.4125 17.5909ZM77.4125 0C79.3321 0 80.8741 1.55766 80.8741 3.46151C80.8741 5.36536 79.3478 6.90732 77.4125 6.90732C75.5087 6.90732 73.951 5.36536 73.951 3.46151C73.9668 1.55766 75.5244 0 77.4125 0Z" fill="#D1D1D1"/>
<path d="M73.9669 109.022C73.9669 108.125 74.3287 107.228 74.9738 106.583C75.6347 105.938 76.5315 105.561 77.4284 105.561C78.341 105.561 79.2222 105.954 79.8673 106.583C81.1732 107.889 81.1731 110.171 79.8829 111.477C79.2221 112.106 78.3252 112.484 77.4284 112.484C76.5315 112.484 75.6347 112.106 74.9896 111.477C74.3287 110.816 73.9669 109.935 73.9669 109.022Z" fill="#D1D1D1"/>
<path d="M3.46146 87.9703C5.38104 87.9703 6.92302 89.528 6.92302 91.4318C6.92302 93.3514 5.39678 94.8934 3.46146 94.8934C1.55762 94.8934 0 93.3514 0 91.4318C0.0157343 89.528 1.57335 87.9703 3.46146 87.9703ZM3.46146 70.3793C5.38104 70.3793 6.92302 71.9213 6.92302 73.8251C6.92302 75.729 5.39678 77.2867 3.46146 77.2867C1.55762 77.2867 0 75.729 0 73.8251C0.0157343 71.9213 1.57335 70.3793 3.46146 70.3793ZM3.46146 52.7884C5.38104 52.7884 6.92302 54.3147 6.92302 56.25C6.92302 58.1538 5.39678 59.7115 3.46146 59.7115C1.55762 59.7115 0 58.1538 0 56.25C0.0157343 54.3304 1.57335 52.7884 3.46146 52.7884ZM3.46146 35.1975C5.38104 35.1975 6.92302 36.7395 6.92302 38.6591C6.92302 40.5629 5.39678 42.1206 3.46146 42.1206C1.55762 42.1206 0 40.5629 0 38.6591C0.0157343 36.7395 1.57335 35.1975 3.46146 35.1975ZM3.46146 17.5909C5.38104 17.5909 6.92302 19.1486 6.92302 21.0525C6.92302 22.972 5.39678 24.5297 3.46146 24.5297C1.55762 24.5297 0 22.9878 0 21.0525C0.0157343 19.1486 1.57335 17.5909 3.46146 17.5909ZM3.46146 0C5.38104 0 6.92302 1.55766 6.92302 3.46151C6.92302 5.36536 5.39678 6.90732 3.46146 6.90732C1.55762 6.90732 0 5.36536 0 3.46151C0.0157343 1.55766 1.57335 0 3.46146 0Z" fill="#D1D1D1"/>
<path d="M0.0157471 109.022C0.0157471 108.125 0.377562 107.228 1.02267 106.583C1.68351 105.938 2.58036 105.561 3.47721 105.561C4.3898 105.561 5.27099 105.954 5.9161 106.583C7.22204 107.889 7.22196 110.171 5.93175 111.477C5.27091 112.106 4.37406 112.484 3.47721 112.484C2.58036 112.484 1.68352 112.106 1.03842 111.477C0.377578 110.816 0.0157471 109.935 0.0157471 109.022Z" fill="#D1D1D1"/>
</svg>
