<svg width="82" height="79" viewBox="0 0 82 79" fill="none" xmlns="http://www.w3.org/2000/svg">
<path d="M47.1607 50.1293C47.6936 50.7672 47.6098 51.7002 46.9719 52.233C46.334 52.7659 45.3911 52.6904 44.8583 52.0525C44.3338 51.4245 44.4192 50.4734 45.0571 49.9405C45.685 49.416 46.6362 49.5014 47.1607 50.1293ZM53.0116 45.2424C53.5445 45.8803 53.4507 46.8216 52.8228 47.3461C52.1849 47.8789 51.2519 47.7952 50.7191 47.1572C50.1946 46.5293 50.2701 45.5864 50.908 45.0536C51.5459 44.5208 52.4871 44.6144 53.0116 45.2424Z" fill="#B6B6B6"/>
<path d="M36.0231 48.686C36.5559 49.3239 36.4722 50.2568 35.8326 50.8079C35.2047 51.3324 34.2534 51.2471 33.7206 50.6092C33.1961 49.9812 33.2815 49.03 33.9095 48.5055C34.5474 47.9726 35.4986 48.0581 36.0231 48.686ZM41.8741 43.799C42.4069 44.4369 42.3314 45.3798 41.6935 45.9127C41.0556 46.4455 40.1143 46.3518 39.5815 45.7139C39.057 45.0859 39.1324 44.143 39.7703 43.6102C40.3983 43.0857 41.3496 43.1711 41.8741 43.799ZM47.725 38.9121C48.2578 39.55 48.1723 40.5012 47.5361 41.0157C46.8981 41.5485 45.9652 41.4648 45.4324 40.8269C44.9079 40.199 44.9833 39.256 45.6212 38.7232C46.2492 38.1987 47.2005 38.2841 47.725 38.9121ZM53.5858 34.0168C54.1187 34.6547 54.0249 35.5959 53.4053 36.1304C52.7673 36.6632 51.8261 36.5696 51.2933 35.9316C50.7688 35.3037 50.8442 34.3607 51.4821 33.8279C52.1101 33.3034 53.0613 33.3888 53.5858 34.0168Z" fill="#B6B6B6"/>
<path d="M25.042 47.4523C25.5665 48.0802 25.491 49.0232 24.8531 49.556C24.2252 50.0805 23.2739 49.9951 22.7494 49.3671C22.2166 48.7292 22.302 47.778 22.9383 47.2635C23.5762 46.7307 24.5092 46.8144 25.042 47.4523ZM30.9028 42.557C31.4273 43.185 31.3519 44.1279 30.714 44.6607C30.086 45.1852 29.1348 45.0998 28.6103 44.4718C28.0775 43.8339 28.1712 42.8927 28.7992 42.3682C29.4271 41.8437 30.37 41.9191 30.9028 42.557ZM36.7537 37.67C37.2782 38.298 37.1928 39.2492 36.5649 39.7737C35.927 40.3066 34.9857 40.2128 34.4612 39.5849C33.9284 38.947 34.0122 38.0141 34.6501 37.4812C35.278 36.9567 36.2293 37.0421 36.7537 37.67ZM42.613 32.793C43.1375 33.421 43.0521 34.3723 42.4241 34.8968C41.7862 35.4296 40.8449 35.3359 40.3204 34.7079C39.7876 34.07 39.8714 33.1371 40.5093 32.6043C41.1389 32.0615 42.0718 32.1452 42.613 32.793ZM48.4739 27.8978C48.9984 28.5257 48.913 29.477 48.285 30.0015C47.6471 30.5343 46.6959 30.4489 46.1714 29.8209C45.6386 29.183 45.7223 28.2501 46.3702 27.709C46.9898 27.1745 47.9327 27.2499 48.4739 27.8978ZM54.3164 23.0008C54.8409 23.6288 54.7555 24.58 54.1276 25.1045C53.4996 25.629 52.5484 25.5436 52.0239 24.9157C51.491 24.2778 51.5848 23.3365 52.2044 22.8021C52.8407 22.2875 53.7836 22.3629 54.3164 23.0008Z" fill="#B6B6B6"/>
<path d="M13.9047 46.0108C14.4375 46.6487 14.3621 47.5915 13.7242 48.1243C13.0963 48.6488 12.1534 48.5735 11.6122 47.9256C11.0877 47.2976 11.1731 46.3464 11.8011 45.8219C12.439 45.289 13.3802 45.3828 13.9047 46.0108ZM19.7557 41.1238C20.2885 41.7617 20.213 42.7046 19.5751 43.2374C18.9472 43.7619 18.0043 43.6865 17.4631 43.0386C16.9386 42.4107 17.024 41.4594 17.652 40.9349C18.2899 40.4021 19.2312 40.4958 19.7557 41.1238ZM25.6165 36.2285C26.1493 36.8664 26.0739 37.8093 25.436 38.3421C24.808 38.8666 23.8651 38.7912 23.324 38.1433C22.7995 37.5154 22.8849 36.5641 23.5128 36.0396C24.1408 35.5151 25.092 35.6006 25.6165 36.2285ZM31.4675 31.3415C32.0003 31.9794 31.9148 32.9306 31.2869 33.4551C30.649 33.988 29.7061 33.9125 29.165 33.2647C28.6405 32.6367 28.7258 31.6855 29.3637 31.1527C29.9917 30.6282 30.943 30.7136 31.4675 31.3415ZM37.3283 26.4463C37.8611 27.0842 37.7757 28.0354 37.1378 28.5682C36.4999 29.101 35.5669 29.0173 35.0258 28.3694C34.5013 27.7415 34.5767 26.7985 35.2146 26.2657C35.8426 25.7412 36.7938 25.8266 37.3283 26.4463ZM43.1792 21.5593C43.7121 22.1972 43.6266 23.1484 42.9987 23.6729C42.3607 24.2057 41.4179 24.1303 40.8768 23.4824C40.3523 22.8545 40.4376 21.9032 41.0655 21.3787C41.7035 20.8459 42.6547 20.9313 43.1792 21.5593ZM49.0385 16.6823C49.5713 17.3202 49.4875 18.2531 48.8496 18.7859C48.2116 19.3188 47.2787 19.2351 46.7376 18.5872C46.2131 17.9592 46.2985 17.0079 46.9264 16.4835C47.5643 15.9506 48.5056 16.0444 49.0385 16.6823ZM54.881 11.7853C55.4139 12.4233 55.3384 13.3662 54.7005 13.899C54.0725 14.4235 53.1297 14.348 52.5885 13.7002C52.064 13.0722 52.1494 12.121 52.7773 11.5965C53.4152 11.0637 54.3565 11.1574 54.881 11.7853Z" fill="#B6B6B6"/>
<path d="M3.25822 45.1554C3.78272 45.7834 3.69738 46.7346 3.06943 47.2591C2.43151 47.7919 1.49021 47.6982 0.965715 47.0703C0.432894 46.4323 0.508365 45.4895 1.14628 44.9566C1.78256 44.4421 2.7254 44.5175 3.25822 45.1554ZM9.10912 40.2685C9.63361 40.8964 9.55825 41.8393 8.92033 42.3722C8.28241 42.905 7.34111 42.8113 6.81661 42.1833C6.28379 41.5454 6.35926 40.6025 6.99718 40.0697C7.64343 39.5468 8.5763 39.6306 9.10912 40.2685ZM14.9601 35.3815C15.4846 36.0094 15.4091 36.9524 14.7712 37.4852C14.1433 38.0097 13.192 37.9243 12.6675 37.2963C12.1347 36.6584 12.2201 35.7072 12.8481 35.1827C13.4943 34.6599 14.4273 34.7436 14.9601 35.3815ZM20.8209 30.4862C21.3454 31.1142 21.27 32.0571 20.6321 32.5899C20.0042 33.1144 19.0529 33.029 18.5284 32.4011C17.9956 31.7631 18.081 30.8119 18.709 30.2874C19.3452 29.7729 20.2881 29.8483 20.8209 30.4862ZM26.6719 25.5992C27.1964 26.2272 27.1109 27.1785 26.473 27.7113C25.8351 28.2441 24.8939 28.1503 24.3694 27.5224C23.8366 26.8845 23.912 25.9416 24.5499 25.4088C25.1961 24.8859 26.139 24.9613 26.6719 25.5992ZM32.5228 20.7123C33.0472 21.3402 32.9619 22.2915 32.3339 22.816C31.696 23.3488 30.7547 23.2551 30.2302 22.6271C29.6974 21.9892 29.7728 21.0463 30.4108 20.5135C31.047 19.999 31.9899 20.0744 32.5228 20.7123ZM38.3836 15.817C38.9081 16.4449 38.8227 17.3962 38.1948 17.9207C37.5569 18.4535 36.6156 18.3598 36.0911 17.7319C35.5582 17.0939 35.6337 16.151 36.2816 15.6099C36.9079 15.1037 37.8508 15.1791 38.3836 15.817ZM44.2345 10.93C44.759 11.558 44.6836 12.5009 44.0457 13.0337C43.4177 13.5582 42.4665 13.4728 41.942 12.8449C41.4091 12.207 41.4946 11.2558 42.1225 10.7313C42.7688 10.2084 43.7017 10.2921 44.2345 10.93ZM50.0854 6.04307C50.6099 6.67102 50.5345 7.61397 49.8966 8.14679C49.2686 8.67128 48.3174 8.58584 47.7929 7.95789C47.2601 7.31997 47.3455 6.3688 47.9734 5.8443C48.6197 5.32145 49.5526 5.40515 50.0854 6.04307ZM55.9363 1.15612C56.4608 1.78407 56.3854 2.72701 55.7475 3.25983C55.1096 3.79265 54.1583 3.70721 53.6338 3.07926C53.101 2.44134 53.1864 1.49017 53.8243 0.957347C54.4706 0.434492 55.4035 0.518198 55.9363 1.15612Z" fill="#B6B6B6"/>
<path d="M54.5182 53.0028C55.051 53.6407 54.9656 54.5919 54.3376 55.1164C53.6997 55.6492 52.7568 55.5739 52.2256 54.9176C51.7011 54.2897 51.7766 53.3468 52.4145 52.8139C53.0524 52.2811 53.9937 52.3748 54.5182 53.0028Z" fill="#B6B6B6"/>
</svg>
