<svg width="56" height="56" viewBox="0 0 56 56" fill="none" xmlns="http://www.w3.org/2000/svg">
<path d="M31.5 40.25C33.8198 40.2527 36.0442 41.1751 37.6846 42.8154C39.3249 44.4558 40.2473 46.6802 40.25 49V52.5H36.75V49C36.7485 47.6081 36.1952 46.2733 35.2109 45.2891C34.2267 44.3048 32.8919 43.7515 31.5 43.75H24.5C23.1081 43.7515 21.7733 44.3048 20.7891 45.2891C19.8048 46.2733 19.2515 47.6081 19.25 49V52.5H15.75V49C15.7527 46.6802 16.6751 44.4558 18.3154 42.8154C19.9558 41.1751 22.1802 40.2527 24.5 40.25H31.5ZM14 28H10.5C9.10808 28.0015 7.7733 28.5548 6.78906 29.5391C5.80483 30.5233 5.25153 31.8581 5.25 33.25V40.25H1.75V33.25C1.75273 30.9302 2.67508 28.7058 4.31543 27.0654C5.95578 25.4251 8.18019 24.5027 10.5 24.5H14V28ZM45.5 24.5C47.8198 24.5027 50.0442 25.4251 51.6846 27.0654C53.3249 28.7058 54.2473 30.9302 54.25 33.25V40.25H50.75V33.25C50.7485 31.8581 50.1952 30.5233 49.2109 29.5391C48.2267 28.5548 46.8919 28.0015 45.5 28H42V24.5H45.5ZM28 19.25C30.3206 19.25 32.5466 20.1716 34.1875 21.8125C35.8284 23.4534 36.75 25.6794 36.75 28C36.75 29.7306 36.2369 31.4224 35.2754 32.8613C34.314 34.3002 32.9474 35.4217 31.3486 36.084C29.7498 36.7462 27.9903 36.9196 26.293 36.582C24.5956 36.2444 23.0362 35.4112 21.8125 34.1875C20.5888 32.9638 19.7556 31.4044 19.418 29.707C19.0804 28.0097 19.2538 26.2502 19.916 24.6514C20.5783 23.0526 21.6998 21.686 23.1387 20.7246C24.5776 19.7631 26.2694 19.25 28 19.25ZM28 22.75C26.6076 22.75 25.2727 23.3035 24.2881 24.2881C23.3035 25.2727 22.75 26.6076 22.75 28C22.75 29.0384 23.0579 30.0536 23.6348 30.917C24.2116 31.7803 25.032 32.4533 25.9912 32.8506C26.9504 33.2478 28.0061 33.352 29.0244 33.1494C30.0428 32.9468 30.9777 32.4461 31.7119 31.7119C32.4461 30.9777 32.9468 30.0428 33.1494 29.0244C33.352 28.0061 33.2478 26.9504 32.8506 25.9912C32.4533 25.032 31.7803 24.2116 30.917 23.6348C30.0536 23.0579 29.0384 22.75 28 22.75ZM14 3.5C16.3206 3.5 18.5466 4.42156 20.1875 6.0625C21.8284 7.70344 22.75 9.92936 22.75 12.25C22.75 13.9806 22.2369 15.6724 21.2754 17.1113C20.314 18.5502 18.9474 19.6717 17.3486 20.334C15.7498 20.9962 13.9903 21.1696 12.293 20.832C10.5956 20.4944 9.03621 19.6612 7.8125 18.4375C6.58879 17.2138 5.75559 15.6544 5.41797 13.957C5.08036 12.2597 5.25375 10.5002 5.91602 8.90137C6.57828 7.30258 7.6998 5.93605 9.13867 4.97461C10.5776 4.01315 12.2694 3.5 14 3.5ZM42 3.5C44.3206 3.5 46.5466 4.42156 48.1875 6.0625C49.8284 7.70344 50.75 9.92936 50.75 12.25C50.75 13.9806 50.2369 15.6724 49.2754 17.1113C48.314 18.5502 46.9474 19.6717 45.3486 20.334C43.7498 20.9962 41.9903 21.1696 40.293 20.832C38.5956 20.4944 37.0362 19.6612 35.8125 18.4375C34.5888 17.2138 33.7556 15.6544 33.418 13.957C33.0804 12.2597 33.2538 10.5002 33.916 8.90137C34.5783 7.30258 35.6998 5.93605 37.1387 4.97461C38.5776 4.01315 40.2694 3.5 42 3.5ZM14 7C12.6076 7 11.2727 7.55352 10.2881 8.53809C9.30352 9.52265 8.75 10.8576 8.75 12.25C8.75 13.2884 9.05789 14.3036 9.63477 15.167C10.2116 16.0303 11.032 16.7033 11.9912 17.1006C12.9504 17.4978 14.0061 17.602 15.0244 17.3994C16.0428 17.1968 16.9777 16.6961 17.7119 15.9619C18.4461 15.2277 18.9468 14.2928 19.1494 13.2744C19.352 12.2561 19.2478 11.2004 18.8506 10.2412C18.4533 9.28196 17.7803 8.46164 16.917 7.88477C16.0536 7.30789 15.0383 7 14 7ZM42 7C40.6076 7 39.2727 7.55352 38.2881 8.53809C37.3035 9.52265 36.75 10.8576 36.75 12.25C36.75 13.2884 37.0579 14.3036 37.6348 15.167C38.2116 16.0303 39.032 16.7033 39.9912 17.1006C40.9504 17.4978 42.0061 17.602 43.0244 17.3994C44.0428 17.1968 44.9777 16.6961 45.7119 15.9619C46.4461 15.2277 46.9468 14.2928 47.1494 13.2744C47.352 12.2561 47.2478 11.2004 46.8506 10.2412C46.4533 9.28196 45.7803 8.46164 44.917 7.88477C44.0536 7.30789 43.0384 7 42 7Z" fill="white"/>
</svg>
