<svg width="50" height="50" viewBox="0 0 50 50" fill="none" xmlns="http://www.w3.org/2000/svg">
<rect width="50" height="50" fill="#FDF6F4"/>
<g clip-path="url(#clip0_466_10307)">
<path fill-rule="evenodd" clip-rule="evenodd" d="M16.5904 37.3611L16.9567 38.0084C16.9569 38.0088 16.9572 38.0092 16.9575 38.0096C17.2821 38.5871 17.0762 39.3241 16.502 39.6484L15.1656 40.4058C15.1651 40.4061 15.1646 40.4064 15.1641 40.4067C14.5866 40.7314 13.8497 40.5254 13.5252 39.951L9.59551 33.0073C9.26785 32.4292 9.47378 31.6916 10.0488 31.3668L11.3866 30.6094L11.3871 30.6091C11.9618 30.2846 12.6989 30.4886 13.0262 31.0632L13.0268 31.0644L13.3216 31.5851L16.7963 29.5734C17.8556 28.9607 18.9384 28.5628 20.1019 28.9406C21.2261 29.3052 23.0614 30.0912 24.9345 30.4296C24.9566 30.4336 24.9785 30.4391 24.9999 30.4461C25.9603 30.757 26.5436 31.7285 26.2814 32.7038C26.2471 32.8316 26.2033 32.9519 26.1504 33.0637C26.3312 33.0073 26.5085 32.9291 26.6831 32.8273L31.4481 30.0522C33.1839 29.041 34.3416 29.1548 34.9967 29.5943C35.5638 29.9749 35.8272 30.6243 35.8102 31.262C35.7931 31.9066 35.4851 32.5219 34.9796 32.8333L26.3335 38.1566C25.417 38.7222 24.4132 38.8551 23.3733 38.5776L23.3727 38.5775L17.3017 36.9504L16.5904 37.3611ZM16.0824 38.5018L12.1537 31.5599C12.0991 31.4642 11.9766 31.4292 11.8808 31.4832L10.5433 32.2405L10.5429 32.2407C10.4478 32.2944 10.4147 32.4166 10.4689 32.5122L10.469 32.5125L14.3989 39.4565L14.3991 39.4568C14.4531 39.5524 14.5758 39.5855 14.6718 39.5317L16.0069 38.775L16.0076 38.7746C16.1032 38.7206 16.1363 38.5979 16.0824 38.5018ZM16.096 36.4874L16.9797 35.9771C17.0951 35.9105 17.2321 35.8924 17.3607 35.9269L23.6321 37.6077C24.3958 37.8113 25.1333 37.7176 25.8061 37.3023L25.8066 37.302L34.4532 31.9784C34.6873 31.8343 34.7987 31.5338 34.8066 31.2353C34.816 30.8819 34.6686 30.5074 34.2948 30.352C33.8033 30.1474 33.049 30.2814 31.9534 30.9197L27.1886 33.6947C26.4186 34.1435 25.6116 34.2677 24.7321 34.1277C24.7316 34.1276 24.731 34.1275 24.7304 34.1275L24.1398 34.0313C24.1395 34.0313 22.0444 33.4815 20.9372 33.184C20.6696 33.112 20.5108 32.8365 20.5827 32.5689C20.6546 32.3014 20.9302 32.1425 21.1977 32.2144C22.2777 32.5046 23.2512 32.8229 24.2995 33.0397C24.8148 33.0963 25.1933 32.8849 25.3118 32.4433L25.3119 32.4431C25.4319 31.9971 25.152 31.5655 24.7191 31.4108C22.8087 31.0598 20.9389 30.2674 19.792 29.8955L19.7918 29.8955C18.9095 29.609 18.1022 29.9778 17.2989 30.4424L13.8161 32.4589L16.096 36.4874ZM11.677 32.2761C11.9803 32.2309 12.2619 32.4404 12.307 32.7437C12.3504 33.047 12.1409 33.3304 11.8376 33.3737C11.5344 33.4189 11.2527 33.2076 11.2076 32.9044C11.1643 32.6011 11.3737 32.3194 11.677 32.2761ZM14.6918 15.9432C17.5931 15.9432 19.9444 18.2945 19.9444 21.1958C19.9444 24.097 17.5931 26.4484 14.6918 26.4484C11.7906 26.4484 9.43921 24.097 9.43921 21.1958C9.43921 18.2945 11.7906 15.9432 14.6918 15.9432ZM18.2337 23.5433C18.6803 22.8707 18.9404 22.0637 18.9404 21.1958C18.9404 18.8491 17.0385 16.9471 14.6918 16.9471C12.3451 16.9471 10.4431 18.8491 10.4431 21.1958C10.4431 22.0637 10.7033 22.8707 11.1498 23.5433C11.5186 22.6299 12.23 21.8917 13.1247 21.4881C12.7459 21.0955 12.5121 20.5622 12.5121 19.9767C12.5121 18.7775 13.4926 17.797 14.6918 17.797C15.891 17.797 16.8715 18.7775 16.8715 19.9767C16.8715 20.5622 16.6378 21.0955 16.2589 21.4881C17.1536 21.8917 17.8651 22.6299 18.2337 23.5433ZM11.9304 24.425C12.673 25.0606 13.6375 25.4445 14.6918 25.4445C15.7461 25.4445 16.7106 25.0606 17.4532 24.425C17.1988 23.1319 16.0588 22.1564 14.6918 22.1564C13.3248 22.1564 12.1848 23.1319 11.9304 24.425ZM14.6918 21.1525C15.3387 21.1525 15.8676 20.6236 15.8676 19.9767C15.8676 19.3298 15.3387 18.801 14.6918 18.801C14.0449 18.801 13.5161 19.3298 13.5161 19.9767C13.5161 20.6236 14.0449 21.1525 14.6918 21.1525ZM26.3232 10.3115C26.6136 10.3991 26.8945 10.5154 27.1619 10.6592L27.7003 10.4198C27.8901 10.3354 28.1123 10.3766 28.2592 10.5235L29.1677 11.432C29.3144 11.5787 29.3558 11.8006 29.2717 11.9903C29.2717 11.9903 29.0332 12.5288 29.0331 12.5288C29.1771 12.7968 29.2936 13.0781 29.3812 13.3696L29.9301 13.5808C30.1239 13.6554 30.2518 13.8416 30.2518 14.0493V15.3344C30.2518 15.5421 30.1239 15.7283 29.9301 15.8029L29.3809 16.0143C29.2931 16.3047 29.1764 16.5856 29.0329 16.8531L29.2717 17.3921C29.3558 17.5819 29.3144 17.8037 29.1677 17.9504L28.2592 18.8589C28.1125 19.0056 27.8907 19.047 27.7009 18.963C27.7009 18.963 27.1626 18.7245 27.1626 18.7245C26.8953 18.8683 26.6139 18.9847 26.323 19.0723L26.1117 19.6213C26.0371 19.8151 25.8509 19.943 25.6432 19.943H24.358C24.1504 19.943 23.9642 19.8151 23.8896 19.6213L23.6783 19.0723C23.387 18.9846 23.1058 18.8677 22.8381 18.7242L22.2991 18.963C22.1093 19.047 21.8875 19.0056 21.7408 18.8589L20.8323 17.9504C20.6854 17.8035 20.6442 17.5813 20.7286 17.3915L20.9678 16.8535C20.8241 16.5863 20.7077 16.3051 20.6196 16.0144L20.0699 15.8029C19.8761 15.7283 19.7482 15.5421 19.7482 15.3344V14.0493C19.7482 13.8416 19.8761 13.6554 20.0699 13.5808C20.0699 13.5808 20.6194 13.3693 20.6194 13.3694C20.7075 13.0781 20.8241 12.7969 20.9679 12.5293L20.7286 11.9909C20.6442 11.8011 20.6854 11.5789 20.8323 11.432L21.7408 10.5235C21.8877 10.3766 22.1099 10.3354 22.2997 10.4198C22.2997 10.4198 22.838 10.6592 22.838 10.6592C23.1057 10.5153 23.3866 10.399 23.6773 10.3114L23.8898 9.76071C23.9644 9.56714 24.1505 9.43945 24.358 9.43945H25.6432C25.851 9.43945 26.0373 9.56745 26.1118 9.7614L26.3232 10.3115ZM25.4775 10.9096L25.2983 10.4434H24.7024L24.5222 10.9103C24.4626 11.0646 24.3309 11.1797 24.17 11.218C23.8027 11.3052 23.4524 11.4504 23.1304 11.6488C22.9894 11.7357 22.8146 11.7474 22.6632 11.6801L22.2069 11.4772L21.7859 11.8981L21.9889 12.3544C22.0562 12.5058 22.0444 12.6806 21.9575 12.8217C21.7589 13.144 21.6137 13.4947 21.5252 13.8635C21.4866 14.0242 21.3715 14.1556 21.2174 14.2149L20.7521 14.3939V14.9898L21.2174 15.1688C21.3714 15.2281 21.4865 15.3593 21.5251 15.5198C21.6136 15.8873 21.7586 16.2391 21.9571 16.5601C22.0444 16.7013 22.0562 16.8764 21.9889 17.028L21.7859 17.4843L22.2073 17.9056L22.6638 17.7034C22.8146 17.6365 22.9887 17.6481 23.1294 17.7343C23.4516 17.9318 23.8021 18.0783 24.1709 18.1657C24.3321 18.2039 24.4641 18.3192 24.5237 18.4738L24.7027 18.9391H25.2985L25.4776 18.4738C25.5371 18.3193 25.6689 18.2041 25.83 18.1658C26.197 18.0786 26.5483 17.9336 26.8689 17.7354C27.0098 17.6483 27.1847 17.6363 27.3362 17.7034L27.7927 17.9056L28.2144 17.4839L28.0121 17.0274C27.9453 16.8766 27.9569 16.7025 28.0431 16.5618C28.2406 16.2396 28.3872 15.889 28.4746 15.5212C28.5128 15.3601 28.6281 15.2283 28.7826 15.1688L29.2478 14.9898V14.3939L28.7826 14.2149C28.628 14.1554 28.5127 14.0234 28.4744 13.8622C28.3872 13.4938 28.2421 13.1435 28.0438 12.8217C27.957 12.6808 27.9452 12.5063 28.0121 12.355L28.2144 11.8985L27.7931 11.4772L27.3368 11.6801C27.1854 11.7474 27.0106 11.7357 26.8695 11.6488C26.5476 11.4504 26.1973 11.3052 25.83 11.218C25.6689 11.1796 25.5369 11.0643 25.4775 10.9096ZM25 11.9477C26.5159 11.9477 27.7448 13.1754 27.7448 14.6912C27.7448 16.207 26.5158 17.4361 25 17.4361C23.4841 17.4361 22.2565 16.2071 22.2565 14.6912C22.2565 13.1753 23.4841 11.9477 25 11.9477ZM25 12.9516C24.0388 12.9516 23.2604 13.73 23.2604 14.6912C23.2604 15.6525 24.0387 16.4321 25 16.4321C25.9614 16.4321 26.7409 15.6526 26.7409 14.6912C26.7409 13.7299 25.9613 12.9516 25 12.9516ZM35.309 26.4484C32.4165 26.4484 30.0572 24.0891 30.0572 21.1966C30.0572 18.3041 32.4165 15.9449 35.309 15.9449C38.2015 15.9449 40.5608 18.3041 40.5608 21.1966C40.5608 24.0891 38.2015 26.4484 35.309 26.4484ZM35.309 25.4445C37.6486 25.4445 39.5569 23.5362 39.5569 21.1966C39.5569 18.8571 37.6486 16.9488 35.309 16.9488C32.9694 16.9488 31.0612 18.8571 31.0612 21.1966C31.0612 23.5362 32.9694 25.4445 35.309 25.4445ZM34.8071 18.4228V18.1919C34.8071 17.9149 35.032 17.6899 35.309 17.6899C35.586 17.6899 35.811 17.9149 35.811 18.1919V18.4171C36.3786 18.548 36.9005 18.9155 37.1711 19.5603C37.2783 19.8158 37.1579 20.1102 36.9025 20.2174C36.6471 20.3246 36.3526 20.2043 36.2454 19.9488C36.0049 19.3757 35.3617 19.2618 34.9007 19.4432C34.6418 19.5451 34.431 19.7511 34.446 20.0549L34.4461 20.0561C34.4571 20.2903 34.6119 20.4219 34.7929 20.5102C34.978 20.6006 35.1923 20.6508 35.3945 20.6838L35.3953 20.6839C36.2577 20.8259 37.1991 21.2234 37.3224 22.2486C37.4428 23.2428 36.652 23.8247 35.811 23.9862V24.2029C35.811 24.48 35.586 24.7049 35.309 24.7049C35.032 24.7049 34.8071 24.48 34.8071 24.2029V23.9788C34.0968 23.8265 33.4876 23.3544 33.2989 22.5965C33.232 22.3277 33.396 22.0551 33.6648 21.9882C33.9336 21.9213 34.2062 22.0852 34.2732 22.354C34.3934 22.8375 34.8857 23.0402 35.3585 23.0285H35.3596C35.6167 23.0226 35.9033 22.9598 36.1142 22.8144C36.2545 22.7177 36.3505 22.5731 36.3257 22.3691L36.3257 22.3686C36.2933 22.099 36.1073 21.953 35.8939 21.8561C35.687 21.7621 35.4521 21.7106 35.2331 21.6746C34.3875 21.5369 33.4907 21.1062 33.4433 20.1035C33.4056 19.334 33.8772 18.767 34.5331 18.509C34.6216 18.4742 34.7132 18.4454 34.8071 18.4228ZM25.502 25.1426C25.502 25.4196 25.277 25.6446 25 25.6446C24.723 25.6446 24.498 25.4196 24.498 25.1426V21.7283C24.498 21.4512 24.723 21.2263 25 21.2263C25.277 21.2263 25.502 21.4512 25.502 21.7283V25.1426ZM26.8242 27.0107C26.607 27.1826 26.291 27.1457 26.1192 26.9285C25.9473 26.7112 25.9841 26.3952 26.2014 26.2233L29.1353 23.902C29.3526 23.7301 29.6685 23.7669 29.8404 23.9842C30.0123 24.2014 29.9755 24.5174 29.7582 24.6893L26.8242 27.0107ZM23.7986 26.2233C24.0159 26.3952 24.0527 26.7112 23.8808 26.9285C23.7089 27.1457 23.393 27.1826 23.1757 27.0107L20.2418 24.6893C20.0245 24.5174 19.9877 24.2014 20.1596 23.9842C20.3314 23.7669 20.6474 23.7301 20.8647 23.902L23.7986 26.2233Z" fill="#111111"/>
</g>
<defs>
<clipPath id="clip0_466_10307">
<rect width="32" height="32" fill="white" transform="translate(9 9)"/>
</clipPath>
</defs>
</svg>
