<svg width="50" height="50" viewBox="0 0 50 50" fill="none" xmlns="http://www.w3.org/2000/svg">
<rect width="50" height="50" fill="#F7F3FF"/>
<g clip-path="url(#clip0_466_10315)">
<path d="M9.78753 29.5781L11.9913 30.6146C12.1818 30.7044 12.3897 30.7509 12.6003 30.7509C12.7979 30.7507 12.9934 30.71 13.1746 30.6312C13.3559 30.5524 13.519 30.4373 13.654 30.2929L14.5077 30.9062C14.7367 31.1706 14.8786 31.6379 15.0285 32.1316C15.1693 32.5954 15.3143 33.0718 15.5582 33.4846L15.2849 33.9513C15.1099 34.2496 15.0279 34.5934 15.0492 34.9385C15.0706 35.2837 15.1943 35.6147 15.4047 35.8892C15.615 36.1638 15.9024 36.3693 16.2302 36.4797C16.5579 36.5901 16.9111 36.6003 17.2447 36.5089C17.3389 36.884 17.5553 37.2169 17.8599 37.4551C18.1644 37.6934 18.5396 37.8234 18.9263 37.8246C19.0768 37.8245 19.2266 37.805 19.3722 37.7668C19.3771 37.7654 19.382 37.7638 19.3869 37.7625C19.4804 38.138 19.6968 38.4715 20.0018 38.7097C20.3067 38.948 20.6826 39.0774 21.0696 39.0773C21.4512 39.0771 21.8224 38.9527 22.127 38.7228C22.2774 38.9905 22.4964 39.2133 22.7614 39.3683C23.0265 39.5233 23.328 39.6048 23.6351 39.6046C24.0383 39.6043 24.4291 39.4655 24.7422 39.2114L26.1497 40.0471C26.4382 40.2191 26.7679 40.31 27.1038 40.31C27.2631 40.3099 27.4218 40.2898 27.5761 40.2501C27.9778 40.1484 28.3345 39.9166 28.5907 39.5909C28.8469 39.2652 28.9881 38.8639 28.9924 38.4495C29.2985 38.5423 29.6232 38.5554 29.9357 38.4875C30.2483 38.4197 30.5383 38.2731 30.7784 38.0618C31.0185 37.8505 31.2006 37.5814 31.3075 37.28C31.4145 36.9786 31.4427 36.6548 31.3895 36.3394C31.6595 36.3232 31.9227 36.2488 32.1612 36.1214C32.3997 35.994 32.6079 35.8165 32.7714 35.6012C32.935 35.3858 33.0501 35.1377 33.1089 34.8738C33.1677 34.6098 33.1688 34.3363 33.112 34.0719C33.1942 34.062 33.2756 34.0468 33.3558 34.0264C33.5954 33.9656 33.8206 33.8581 34.0186 33.7101C34.2165 33.5621 34.3833 33.3764 34.5094 33.1638C34.6354 32.9512 34.7182 32.7158 34.7531 32.4711C34.788 32.2264 34.7742 31.9772 34.7125 31.7378C34.686 31.6341 34.6508 31.5327 34.6074 31.4348C35.3812 31.2116 36.0303 30.8982 36.571 30.4879C36.8135 30.6592 37.103 30.7512 37.3998 30.7514C37.6105 30.7513 37.8186 30.7045 38.0092 30.6145L40.2125 29.5781C40.2724 29.5505 40.3261 29.5112 40.3707 29.4627C40.4153 29.4141 40.4499 29.3573 40.4724 29.2953C40.495 29.2334 40.505 29.1676 40.502 29.1017C40.4991 29.0359 40.4831 28.9713 40.455 28.9116C40.427 28.8519 40.3874 28.7984 40.3386 28.7541C40.2898 28.7098 40.2327 28.6756 40.1706 28.6534C40.1085 28.6313 40.0427 28.6216 39.9769 28.625C39.911 28.6284 39.8465 28.6448 39.787 28.6732L37.5833 29.7095C37.4783 29.7584 37.3581 29.7638 37.2491 29.7245C37.1401 29.6851 37.051 29.6043 37.0014 29.4996L33.5895 22.2449C33.5402 22.14 33.5345 22.0199 33.5735 21.9108C33.6126 21.8017 33.6933 21.7125 33.7979 21.6628L36.0017 20.6263C36.1209 20.5694 36.2127 20.4676 36.2571 20.3432C36.3015 20.2188 36.2949 20.0819 36.2387 19.9624C36.1825 19.8429 36.0813 19.7505 35.9571 19.7053C35.833 19.6601 35.6961 19.6659 35.5762 19.7214L33.3719 20.758C33.1237 20.8754 32.9144 21.0614 32.7685 21.294C32.6226 21.5265 32.5462 21.796 32.5485 22.0705C31.9589 22.2838 31.3387 22.4691 30.711 22.5286C30.0756 22.5906 29.2177 22.4793 28.3095 22.3616C26.6633 22.1483 24.9612 21.9276 23.8216 22.5991L23.1958 22.9674C22.1487 22.2112 21.158 22.3299 20.1145 22.4559C19.4403 22.5372 18.743 22.6214 17.9145 22.4983C17.7505 22.4739 17.5837 22.4405 17.4117 22.3978C17.4892 22.076 17.4536 21.7374 17.3108 21.4388C17.168 21.1402 16.9267 20.8998 16.6275 20.7582L14.4238 19.7214C14.304 19.6659 14.167 19.6601 14.0429 19.7053C13.9188 19.7505 13.8176 19.8429 13.7614 19.9624C13.7052 20.0819 13.6986 20.2188 13.743 20.3432C13.7874 20.4676 13.8792 20.5694 13.9983 20.6263L16.2017 21.6625C16.3064 21.7122 16.3872 21.8013 16.4263 21.9104C16.4655 22.0195 16.4599 22.1397 16.4107 22.2446L12.9985 29.4996C12.9491 29.6045 12.8601 29.6855 12.751 29.7249C12.6419 29.7643 12.5216 29.7588 12.4166 29.7096L10.2125 28.6732C10.093 28.6202 9.95749 28.6161 9.83499 28.6618C9.71249 28.7075 9.61277 28.7993 9.55719 28.9177C9.50161 29.036 9.4946 29.1714 9.53765 29.2949C9.58071 29.4183 9.67041 29.52 9.78753 29.5781ZM16.4141 35.4703C16.2448 35.3706 16.1218 35.2079 16.0721 35.0177C16.0223 34.8276 16.0499 34.6255 16.1487 34.4556L16.571 33.7341C16.5784 33.7225 16.5855 33.7108 16.5918 33.6986L17.3994 32.3191C17.4993 32.151 17.6617 32.0291 17.851 31.9801C18.0404 31.9312 18.2415 31.959 18.4104 32.0576C18.5794 32.1562 18.7025 32.3176 18.753 32.5065C18.8035 32.6955 18.7772 32.8968 18.68 33.0665L17.4294 35.2046C17.3296 35.3741 17.1667 35.4972 16.9764 35.547C16.7862 35.5968 16.5839 35.5692 16.4138 35.4703H16.4141ZM18.5578 36.7228C18.3885 36.6235 18.2655 36.4611 18.2157 36.2711C18.166 36.0812 18.1936 35.8794 18.2925 35.7098L19.5433 33.5713C19.6427 33.4018 19.8054 33.2786 19.9955 33.229C20.0897 33.2044 20.1878 33.1986 20.2842 33.212C20.3806 33.2253 20.4734 33.2575 20.5573 33.3067C20.6413 33.3559 20.7147 33.4212 20.7735 33.4987C20.8322 33.5763 20.8751 33.6647 20.8997 33.7589C20.9242 33.8531 20.93 33.9511 20.9167 34.0475C20.9034 34.1439 20.8712 34.2367 20.822 34.3207L19.5707 36.4582C19.4711 36.6271 19.3086 36.7498 19.1189 36.7994C18.9291 36.849 18.7274 36.8215 18.5578 36.7229V36.7228ZM20.6997 37.9771C20.5303 37.8773 20.4074 37.7146 20.3577 37.5245C20.3079 37.3344 20.3354 37.1323 20.4342 36.9624L21.685 34.8259C21.7845 34.6562 21.9473 34.5329 22.1376 34.4831C22.328 34.4333 22.5303 34.4611 22.7002 34.5603C22.8687 34.6604 22.9909 34.8228 23.0406 35.0124C23.0903 35.202 23.0633 35.4035 22.9655 35.5733L22.3393 36.6439L22.1387 36.9845C22.1293 37.0004 22.1207 37.0166 22.1119 37.0327L21.7152 37.7108C21.6153 37.8803 21.4524 38.0034 21.2621 38.0533C21.0718 38.1032 20.8695 38.0758 20.6993 37.9771H20.6997ZM23.2677 38.5056C23.1835 38.4561 23.11 38.3906 23.0513 38.3126C22.9926 38.2347 22.9499 38.1459 22.9257 38.0514C22.8772 37.8711 22.8996 37.6791 22.9882 37.5147L23.2007 37.1514L23.831 36.0816C23.9048 35.9544 24.0147 35.8522 24.1469 35.7878C24.279 35.7234 24.4273 35.6998 24.5729 35.7201C24.7185 35.7403 24.8548 35.8034 24.9644 35.9014C25.0739 35.9994 25.1518 36.1278 25.1882 36.2703C25.213 36.3638 25.219 36.4613 25.2058 36.5571C25.1925 36.6529 25.1604 36.7452 25.1112 36.8284L24.2825 38.2379C24.1826 38.4072 24.02 38.5302 23.8299 38.5804C23.6399 38.6306 23.4377 38.6038 23.2673 38.5058L23.2677 38.5056ZM24.3294 23.4604C25.1732 22.9633 26.7714 23.1704 28.1813 23.3531C29.1475 23.4781 30.06 23.5969 30.807 23.5239C31.525 23.4558 32.2087 23.2551 32.8513 23.0243L35.9813 29.6801C35.4361 30.0974 34.7397 30.3979 33.8665 30.5926C33.8612 30.5894 33.8561 30.5859 33.8508 30.5828L30.91 28.8371C30.822 28.7849 30.7201 28.7609 30.618 28.7683C28.5337 28.9227 26.3326 28.7183 24.357 26.2C24.2918 26.1169 24.202 26.0566 24.1004 26.0277C23.9989 25.9988 23.8907 26.0029 23.7916 26.0392L22.5978 26.4767C22.5057 26.5105 22.4255 26.5706 22.3673 26.6496L21.5575 27.7489C21.1037 28.3498 20.4847 28.5467 19.9016 28.2756C19.8205 28.2376 19.7488 28.1823 19.6914 28.1136C19.634 28.045 19.5924 27.9645 19.5694 27.878C19.5465 27.7915 19.5427 27.701 19.5585 27.6129C19.5743 27.5248 19.6092 27.4412 19.6608 27.3681L21.042 25.3949L23.4045 24.0046L23.4053 24.0041L24.3294 23.4604ZM20.2345 23.4484C21.0294 23.3524 21.6233 23.281 22.2131 23.5457L20.4418 24.5883C20.38 24.6246 20.3267 24.6737 20.2855 24.7324L18.843 26.7926C18.7073 26.9854 18.6155 27.2057 18.5741 27.4378C18.5327 27.6699 18.5427 27.9083 18.6034 28.1362C18.6641 28.364 18.7741 28.5758 18.9255 28.7565C19.0769 28.9372 19.2662 29.0826 19.4798 29.1823C20.4907 29.6523 21.6194 29.326 22.3591 28.3469L23.083 27.3643L23.8009 27.1013C25.9627 29.6638 28.3998 29.9158 30.534 29.777L33.341 31.4426C33.5391 31.5639 33.6815 31.7582 33.7374 31.9837C33.7932 32.2091 33.758 32.4475 33.6394 32.6472C33.5208 32.8469 33.3283 32.9919 33.1036 33.0507C32.8789 33.1095 32.6401 33.0774 32.4388 32.9614L30.1677 31.6149C30.1112 31.581 30.0485 31.5585 29.9833 31.5488C29.9181 31.5391 29.8516 31.5425 29.7876 31.5586C29.7237 31.5747 29.6636 31.6033 29.6108 31.6428C29.5579 31.6822 29.5134 31.7317 29.4798 31.7884C29.4462 31.8451 29.4241 31.9079 29.4149 31.9732C29.4056 32.0385 29.4094 32.105 29.4259 32.1688C29.4424 32.2326 29.4714 32.2925 29.5112 32.3451C29.551 32.3977 29.6008 32.4419 29.6577 32.4751L31.7043 33.6884C31.7105 33.6926 31.7168 33.6972 31.7235 33.7009C31.9236 33.8218 32.068 34.0164 32.1258 34.2428C32.1835 34.4693 32.1498 34.7093 32.032 34.9111C31.9121 35.1122 31.7175 35.2576 31.4906 35.3155C31.2638 35.3734 31.0233 35.3391 30.8217 35.2201L28.5625 33.8794C28.506 33.8451 28.4433 33.8223 28.378 33.8123C28.3126 33.8024 28.2459 33.8055 28.1818 33.8215C28.1176 33.8375 28.0573 33.866 28.0043 33.9055C27.9512 33.945 27.9065 33.9945 27.8728 34.0514C27.839 34.1082 27.8169 34.1712 27.8076 34.2367C27.7984 34.3021 27.8022 34.3688 27.8189 34.4327C27.8355 34.4967 27.8647 34.5567 27.9048 34.6093C27.9448 34.662 27.9948 34.7061 28.052 34.7393L29.979 35.8833C29.9812 35.8846 29.9831 35.8862 29.9852 35.8875C30.1853 36.0083 30.3298 36.203 30.3875 36.4294C30.4452 36.6559 30.4116 36.8959 30.2938 37.0978C30.1739 37.2988 29.9792 37.4442 29.7524 37.5021C29.5255 37.56 29.285 37.5256 29.0834 37.4066L28.0742 36.8075L28.0723 36.8063L27.1438 36.2551C27.0297 36.1874 26.8935 36.1678 26.765 36.2005C26.6365 36.2333 26.5263 36.3158 26.4586 36.4298C26.3909 36.5439 26.3713 36.6801 26.4041 36.8086C26.4368 36.9371 26.5193 37.0473 26.6333 37.115L27.5621 37.6663C27.7608 37.7884 27.904 37.9831 27.9616 38.2091C28.0191 38.4351 27.9864 38.6747 27.8703 38.8769C27.7502 39.0777 27.5556 39.2229 27.329 39.281C27.1024 39.3391 26.862 39.3053 26.6602 39.1871L25.3438 38.4058L25.9725 37.3363C26.1484 37.038 26.2311 36.6939 26.2101 36.3483C26.1891 36.0026 26.0653 35.6711 25.8547 35.3963C25.644 35.1214 25.3561 34.9157 25.0277 34.8056C24.6994 34.6955 24.3457 34.686 24.0119 34.7783C24.0103 34.772 24.0091 34.7658 24.0074 34.7591C23.9496 34.5366 23.8482 34.3277 23.709 34.1446C23.5698 33.9616 23.3957 33.808 23.1967 33.6928C22.9976 33.5776 22.7777 33.5031 22.5497 33.4736C22.3216 33.4441 22.09 33.4602 21.8682 33.521C21.8668 33.5156 21.8658 33.5102 21.8643 33.5048C21.8065 33.2824 21.7052 33.0737 21.5661 32.8908C21.4271 32.7079 21.2531 32.5544 21.0542 32.4392C20.8554 32.3241 20.6357 32.2495 20.4078 32.2199C20.18 32.1903 19.9485 32.2062 19.7268 32.2667C19.6423 31.9315 19.4599 31.6291 19.2029 31.398C18.9458 31.1668 18.6258 31.0175 18.2835 30.9689C17.9413 30.9204 17.5923 30.9748 17.2812 31.1254C16.97 31.2759 16.7107 31.5157 16.5363 31.8141L16.175 32.4308C16.1068 32.2404 16.0455 32.0395 15.9853 31.8411C15.8023 31.2386 15.6132 30.6156 15.2041 30.1858L15.1718 30.1518L14.1438 29.4137L17.0075 23.3252C17.2574 23.3942 17.5112 23.4483 17.7675 23.4871C18.7289 23.63 19.5286 23.5335 20.2342 23.4484H20.2345ZM24.811 20.7433C24.9321 20.7928 25.0679 20.7928 25.1891 20.7433C27.5037 19.7978 29.9766 16.9229 29.9766 11.69C29.9766 11.5583 29.9247 11.432 29.832 11.3383C29.7394 11.2447 29.6136 11.1914 29.482 11.19C27.8132 11.172 26.4497 10.7175 25.314 9.80045C25.225 9.72863 25.1142 9.68945 24.9998 9.68945C24.8855 9.68945 24.7747 9.72863 24.6857 9.80045C23.55 10.7173 22.1867 11.1718 20.5178 11.1898C20.3862 11.1912 20.2604 11.2445 20.1678 11.3382C20.0751 11.4318 20.0232 11.5581 20.0232 11.6898C20.0232 16.9226 22.4964 19.7975 24.811 20.7433ZM25 10.8177C26.1197 11.6223 27.4513 12.0764 28.9692 12.1715C28.8333 16.4588 26.8875 18.8641 25 19.7351C23.1125 18.8641 21.1667 16.4588 21.0308 12.1715C22.5487 12.0764 23.8803 11.6223 25 10.8177ZM24.276 16.6172L23.4292 15.8023C23.3343 15.7102 23.2798 15.5842 23.2776 15.452C23.2753 15.3198 23.3255 15.1921 23.4172 15.0969C23.5089 15.0016 23.6345 14.9465 23.7667 14.9437C23.8989 14.9408 24.0268 14.9905 24.1225 15.0817L24.5993 15.5406L25.8548 14.1643C25.899 14.1158 25.9524 14.0765 26.0119 14.0486C26.0713 14.0207 26.1357 14.0048 26.2013 14.0017C26.2669 13.9987 26.3324 14.0087 26.3942 14.031C26.456 14.0533 26.5127 14.0875 26.5612 14.1318C26.6098 14.176 26.6491 14.2294 26.677 14.2889C26.7049 14.3483 26.7208 14.4127 26.7238 14.4783C26.7268 14.5439 26.7169 14.6094 26.6946 14.6712C26.6723 14.733 26.638 14.7897 26.5938 14.8383L24.9923 16.5939C24.9473 16.6432 24.8928 16.6829 24.8322 16.7108C24.7715 16.7388 24.7059 16.7542 24.6392 16.7564C24.6338 16.7564 24.6283 16.7564 24.6229 16.7564C24.4936 16.7566 24.3693 16.7067 24.276 16.6172Z" fill="#111111"/>
</g>
<defs>
<clipPath id="clip0_466_10315">
<rect width="32" height="32" fill="white" transform="translate(9 9)"/>
</clipPath>
</defs>
</svg>
