<svg width="693" height="583" viewBox="0 0 693 583" fill="none" xmlns="http://www.w3.org/2000/svg">
<path fill-rule="evenodd" clip-rule="evenodd" d="M271.489 94.6763C315.848 81.0976 357.375 59.2278 404.396 61.4957C454.146 63.8952 507.044 76.018 540.733 107.662C573.647 138.578 562.257 187.116 579.788 226.242C600.025 271.408 667.029 308.052 651.336 354.51C635.726 400.723 557.296 401.1 511.438 428.588C470.994 452.831 447.169 501.93 398.137 506.282C349.108 510.634 314.377 466.105 268.686 450.137C218.907 432.74 153.565 443.479 118.375 408.511C82.8635 373.223 88.2268 319.99 90.799 273.369C93.3082 227.892 98.2335 178.912 132.937 144.593C166.489 111.411 223.341 109.415 271.489 94.6763Z" stroke="#8A76F9"/>
<path fill-rule="evenodd" clip-rule="evenodd" d="M275.98 106.48C317.683 93.7144 356.724 73.1541 400.929 75.2862C447.7 77.542 497.431 88.939 529.103 118.688C560.046 147.754 549.338 193.385 565.819 230.168C584.845 272.63 647.837 307.08 633.084 350.756C618.408 394.202 544.674 394.557 501.562 420.399C463.54 443.19 441.142 489.349 395.045 493.441C348.952 497.533 316.3 455.669 273.345 440.657C226.547 424.302 165.116 434.398 132.034 401.524C98.6486 368.348 103.691 318.303 106.109 274.474C108.468 231.719 113.098 185.672 145.724 153.408C177.267 122.212 230.715 120.336 275.98 106.48Z" stroke="#8A76F9"/>
<path fill-rule="evenodd" clip-rule="evenodd" d="M280.811 119.176C319.657 107.285 356.023 88.1334 397.2 90.1193C440.767 92.2206 487.091 102.837 516.594 130.548C545.417 157.622 535.442 200.128 550.795 234.391C568.517 273.944 627.194 306.034 613.451 346.719C599.781 387.188 531.098 387.518 490.939 411.591C455.522 432.82 434.658 475.817 391.719 479.629C348.784 483.44 318.368 444.444 278.356 430.461C234.764 415.226 177.541 424.63 146.726 394.008C115.627 363.106 120.324 316.489 122.576 275.662C124.774 235.836 129.087 192.944 159.477 162.889C188.86 133.831 238.646 132.083 280.811 119.176Z" stroke="#8A76F9"/>
<path fill-rule="evenodd" clip-rule="evenodd" d="M284.744 129.513C321.264 118.334 355.453 100.329 394.165 102.196C435.123 104.171 478.674 114.152 506.41 140.204C533.507 165.657 524.13 205.618 538.563 237.83C555.224 275.014 610.387 305.183 597.468 343.431C584.616 381.478 520.046 381.788 482.291 404.419C448.994 424.378 429.38 464.8 389.012 468.384C348.647 471.967 320.053 435.306 282.437 422.159C241.454 407.837 187.658 416.678 158.688 387.89C129.451 358.837 133.867 315.011 135.984 276.629C138.05 239.188 142.105 198.864 170.676 170.609C198.299 143.29 245.104 141.647 284.744 129.513Z" stroke="#8A76F9"/>
<path fill-rule="evenodd" clip-rule="evenodd" d="M289.724 142.603C323.299 132.325 354.73 115.772 390.32 117.489C427.975 119.305 468.014 128.481 493.512 152.432C518.425 175.832 509.804 212.57 523.073 242.184C538.39 276.37 589.105 304.105 577.227 339.269C565.412 374.247 506.049 374.532 471.339 395.338C440.728 413.687 422.695 450.85 385.583 454.144C348.473 457.438 322.186 423.734 287.603 411.648C249.925 398.48 200.468 406.608 173.834 380.142C146.955 353.432 151.014 313.141 152.961 277.854C154.86 243.433 158.588 206.36 184.855 180.384C210.251 155.269 253.281 153.759 289.724 142.603Z" stroke="#8A76F9"/>
<path fill-rule="evenodd" clip-rule="evenodd" d="M294.822 155.998C325.382 146.643 353.993 131.576 386.387 133.139C420.662 134.792 457.106 143.144 480.316 164.945C502.992 186.244 495.144 219.684 507.222 246.64C521.164 277.756 567.326 303.002 556.515 335.009C545.76 366.847 491.727 367.107 460.133 386.045C432.269 402.747 415.856 436.573 382.075 439.572C348.297 442.57 324.369 411.891 292.891 400.89C258.596 388.905 213.578 396.303 189.335 372.213C164.869 347.901 168.565 311.227 170.337 279.108C172.065 247.776 175.459 214.032 199.367 190.388C222.483 167.527 261.651 166.153 294.822 155.998Z" stroke="#8A76F9"/>
<path fill-rule="evenodd" clip-rule="evenodd" d="M299.375 167.965C327.243 159.434 353.332 145.695 382.872 147.119C414.127 148.627 447.36 156.243 468.525 176.123C489.203 195.546 482.047 226.039 493.061 250.62C505.774 278.995 547.869 302.017 538.01 331.203C528.203 360.236 478.93 360.473 450.12 377.742C424.712 392.973 409.744 423.819 378.94 426.553C348.138 429.287 326.319 401.312 297.614 391.28C266.341 380.351 225.29 387.097 203.182 365.129C180.872 342.959 184.242 309.516 185.858 280.227C187.434 251.657 190.528 220.885 212.33 199.324C233.41 178.478 269.126 177.224 299.375 167.965Z" stroke="#8A76F9"/>
<path fill-rule="evenodd" clip-rule="evenodd" d="M303.605 179.084C328.971 171.319 352.718 158.813 379.607 160.11C408.056 161.482 438.306 168.414 457.57 186.51C476.392 204.189 469.879 231.945 479.903 254.319C491.476 280.146 529.792 301.101 520.818 327.668C511.891 354.094 467.042 354.31 440.818 370.029C417.691 383.892 404.067 411.969 376.028 414.458C347.991 416.946 328.13 391.482 302.002 382.351C273.537 372.403 236.171 378.544 216.048 358.548C195.741 338.369 198.808 307.928 200.279 281.268C201.714 255.262 204.53 227.253 224.375 207.628C243.562 188.653 276.072 187.512 303.605 179.084Z" stroke="#8A76F9"/>
</svg>
