<svg width="48" height="55" viewBox="0 0 48 55" fill="none" xmlns="http://www.w3.org/2000/svg">
<path fill-rule="evenodd" clip-rule="evenodd" d="M9.165 25.4519H18C18.7956 25.4519 19.5587 25.8095 20.1213 26.4459C20.6839 27.0823 21 27.9455 21 28.8456V39.0264C21 39.9265 20.6839 40.7896 20.1213 41.4261C19.5587 42.0625 18.7956 42.42 18 42.42H9C8.20435 42.42 7.44129 42.0625 6.87868 41.4261C6.31607 40.7896 6 39.9265 6 39.0264V27.7426C6.00091 24.6703 6.67223 21.6458 7.9544 18.9374C9.23656 16.229 11.0899 13.9206 13.35 12.2168L16.035 10.1807L17.685 12.9974L15 15.0335C13.4405 16.2157 12.1161 17.7529 11.1114 19.5468C10.1067 21.3407 9.44378 23.3519 9.165 25.4519ZM30.165 25.4519H39C39.7957 25.4519 40.5587 25.8095 41.1213 26.4459C41.6839 27.0823 42 27.9455 42 28.8456V39.0264C42 39.9265 41.6839 40.7896 41.1213 41.4261C40.5587 42.0625 39.7957 42.42 39 42.42H30C29.2044 42.42 28.4413 42.0625 27.8787 41.4261C27.3161 40.7896 27 39.9265 27 39.0264V27.7426C27.0009 24.6703 27.6722 21.6458 28.9544 18.9374C30.2366 16.229 32.0899 13.9206 34.35 12.2168L37.05 10.1807L38.685 12.9974L36 15.0335C34.4405 16.2157 33.1161 17.7529 32.1114 19.5468C31.1067 21.3407 30.4438 23.3519 30.165 25.4519Z" fill="#553CDF"/>
</svg>
