<svg width="98" height="212" viewBox="0 0 98 212" fill="none" xmlns="http://www.w3.org/2000/svg">
<path d="M-0.248993 182.587C-33.0977 182.587 -62.0524 157.272 -69.1238 122.387C-73.1851 102.389 -69.8166 81.8732 -59.6634 64.6251C-49.5101 47.3769 -33.7667 35.4459 -15.3475 31.0625C-10.3306 29.8694 -5.19422 29.2471 -0.105659 29.2471C32.7431 29.2471 61.7217 54.5615 68.7931 89.4469C72.8544 109.444 69.4859 129.961 59.3326 147.209C49.1794 164.457 33.4358 176.388 15.0167 180.771C9.99977 181.99 4.86346 182.587 -0.248993 182.587ZM-0.105659 38.1694C-4.59697 38.1694 -9.1361 38.7141 -13.5796 39.7775C-29.8487 43.6681 -43.7526 54.1985 -52.7353 69.4495C-61.7179 84.7005 -64.6803 102.83 -61.0968 120.494C-54.8615 151.333 -29.2514 173.716 -0.225075 173.716C4.29013 173.716 8.82921 173.172 13.2727 172.108C29.5418 168.218 43.4457 157.687 52.4284 142.436C61.411 127.185 64.3734 109.055 60.7899 91.3921C54.5307 60.553 28.9207 38.1694 -0.105659 38.1694Z" fill="#DED8FF"/>
<path d="M-0.210949 148.143C-18.302 148.143 -34.2485 134.201 -38.143 114.988C-40.3797 103.975 -38.5246 92.6757 -32.9328 83.1764C-27.341 73.6772 -18.6704 67.1063 -8.52628 64.6922C-5.76328 64.0351 -2.93448 63.6924 -0.132011 63.6924C17.9591 63.6924 33.9187 77.634 37.8132 96.8468C40.0499 107.86 38.1948 119.159 32.603 128.658C27.0112 138.158 18.3406 144.729 8.19644 147.143C5.43344 147.814 2.60468 148.143 -0.210949 148.143ZM-0.132011 68.6063C-2.60555 68.6063 -5.10543 68.9062 -7.55266 69.4919C-16.5127 71.6346 -24.1701 77.4341 -29.1172 85.8334C-34.0643 94.2327 -35.6958 104.218 -33.7222 113.945C-30.2882 130.93 -16.1837 143.257 -0.197781 143.257C2.28892 143.257 4.78876 142.957 7.236 142.372C16.196 140.229 23.8534 134.429 28.8005 126.03C33.7476 117.631 35.3791 107.646 33.4055 97.9181C29.9584 80.9338 15.8539 68.6063 -0.132011 68.6063Z" fill="#DED8FF"/>
<path d="M-0.392593 211.532C-45.6402 211.532 -85.5365 176.673 -95.2597 128.611C-100.85 101.066 -96.2153 72.8209 -82.2158 49.0366C-68.2162 25.2783 -46.5481 8.86006 -21.1769 2.7908C-14.2727 1.13082 -7.20125 0.300781 -0.177589 0.300781C45.07 0.300781 84.9663 35.1603 94.7134 83.2216C100.304 110.767 95.6689 139.012 81.6694 162.796C67.6699 186.555 46.0017 202.973 20.6306 209.042C13.7025 210.702 6.63106 211.532 -0.392593 211.532ZM-0.201508 7.66697C-6.72347 7.66697 -13.3171 8.44512 -19.7435 9.97541C-43.3468 15.6037 -63.5099 30.9065 -76.5299 53.0049C-89.55 75.1032 -93.8741 101.429 -88.6661 127.055C-79.6118 171.771 -42.4867 204.218 -0.368683 204.218C6.17718 204.218 12.7469 203.44 19.1733 201.91C42.7766 196.281 62.9636 180.978 75.9836 158.88C89.0036 136.782 93.3039 110.455 88.1198 84.8297C79.0415 40.1142 41.8926 7.66697 -0.201508 7.66697Z" fill="#DED8FF"/>
</svg>
