<svg width="102" height="96" viewBox="0 0 102 96" fill="none" xmlns="http://www.w3.org/2000/svg">
<path d="M50.5651 96C27.0226 96 6.27095 80.1654 1.2029 58.3442C-1.70781 45.8355 0.706405 33.0023 7.98317 22.2134C15.2599 11.4245 26.5432 3.96143 39.7441 1.21958C43.3397 0.47328 47.0209 0.0839844 50.6678 0.0839844C74.2103 0.0839844 94.9791 15.9185 100.047 37.7397C102.958 50.2484 100.544 63.0816 93.2669 73.8705C85.9901 84.6594 74.7068 92.1225 61.5059 94.8643C57.9103 95.6268 54.2292 96 50.5651 96ZM50.6678 5.66503C47.4489 5.66503 44.1958 6.00572 41.0111 6.67091C29.3512 9.1045 19.3863 15.6914 12.9485 25.2311C6.51069 34.7708 4.38758 46.1113 6.95585 57.1598C11.4246 76.4501 29.7792 90.4513 50.5822 90.4513C53.8183 90.4513 57.0714 90.1106 60.256 89.4455C71.916 87.0119 81.8809 80.4249 88.3187 70.8852C94.7565 61.3456 96.8796 50.005 94.3113 38.9565C89.8254 19.6662 71.4708 5.66503 50.6678 5.66503Z" fill="#EEEEEE" fill-opacity="0.8"/>
<path d="M50.5923 74.4546C37.6266 74.4546 26.1978 65.7338 23.4066 53.716C21.8036 46.827 23.1332 39.7593 27.1408 33.8174C31.1484 27.8755 37.3625 23.7653 44.6328 22.2553C46.613 21.8443 48.6404 21.6299 50.6489 21.6299C63.6147 21.6299 75.0528 30.3506 77.844 42.3684C79.4471 49.2574 78.1175 56.3251 74.1099 62.267C70.1023 68.2089 63.8881 72.3191 56.6178 73.8291C54.6376 74.2491 52.6103 74.4546 50.5923 74.4546ZM50.6489 24.7036C48.8761 24.7036 47.0845 24.8912 45.3306 25.2576C38.909 26.5978 33.4209 30.2255 29.8754 35.4794C26.3298 40.7333 25.1606 46.9789 26.575 53.0638C29.0361 63.6877 39.1447 71.3987 50.6018 71.3987C52.384 71.3987 54.1756 71.2111 55.9295 70.8447C62.3511 69.5045 67.8391 65.8768 71.3847 60.6229C74.9302 55.369 76.0995 49.1234 74.6851 43.0385C72.2145 32.4146 62.1059 24.7036 50.6489 24.7036Z" fill="#EEEEEE" fill-opacity="0.8"/>
</svg>
