<svg width="151" height="147" viewBox="0 0 151 147" fill="none" xmlns="http://www.w3.org/2000/svg">
<path d="M142.671 40.753C142.671 39.1965 141.42 37.9453 139.864 37.9453C138.307 37.9453 137.056 39.1965 137.056 40.753C137.056 42.3094 138.307 43.5606 139.864 43.5606C141.39 43.5606 142.671 42.3094 142.671 40.753Z" fill="#FFDF96"/>
<path d="M130.495 47.3145C128.938 47.3145 127.687 48.5657 127.687 50.1221C127.687 51.6785 128.938 52.9297 130.495 52.9297C132.051 52.9297 133.302 51.6785 133.302 50.1221C133.302 48.5962 132.021 47.3145 130.495 47.3145Z" fill="#FFDF96"/>
<path d="M146.395 68.8604C146.395 70.4168 147.646 71.668 149.202 71.668C149.66 71.668 150.057 71.546 150.423 71.3629C150.392 69.6234 150.332 67.9143 150.179 66.2358C149.874 66.1138 149.538 66.0527 149.172 66.0527C147.676 66.0527 146.395 67.304 146.395 68.8604Z" fill="#FFDF96"/>
<path d="M142.671 78.2295C142.671 76.6731 141.42 75.4219 139.864 75.4219C138.307 75.4219 137.056 76.6731 137.056 78.2295C137.056 79.7859 138.307 81.0372 139.864 81.0372C141.39 81.0372 142.671 79.7859 142.671 78.2295Z" fill="#FFDF96"/>
<path d="M139.833 56.6836C138.276 56.6836 137.025 57.9348 137.025 59.4912C137.025 61.0477 138.276 62.2989 139.833 62.2989C141.389 62.2989 142.64 61.0477 142.64 59.4912C142.671 57.9348 141.389 56.6836 139.833 56.6836Z" fill="#FFDF96"/>
<path d="M130.495 66.0527C128.938 66.0527 127.687 67.304 127.687 68.8604C127.687 70.4168 128.938 71.668 130.495 71.668C132.051 71.668 133.302 70.4168 133.302 68.8604C133.302 67.304 132.021 66.0527 130.495 66.0527Z" fill="#FFDF96"/>
<path d="M147.86 52.5945C147.524 51.3128 147.127 50.0615 146.73 48.8408C146.517 49.2376 146.395 49.6648 146.395 50.1531C146.395 51.1907 147.005 52.1062 147.86 52.5945Z" fill="#FFDF96"/>
<path d="M137.178 114.912C137.483 114.455 137.788 113.997 138.124 113.539C137.666 113.875 137.331 114.363 137.178 114.912Z" fill="#FFDF96"/>
<path d="M137.025 96.9668C137.025 98.5232 138.276 99.7745 139.833 99.7745C141.389 99.7745 142.64 98.5232 142.64 96.9668C142.64 95.4104 141.389 94.1592 139.833 94.1592C138.307 94.1592 137.025 95.4104 137.025 96.9668Z" fill="#FFDF96"/>
<path d="M149.385 84.8216C149.324 84.8216 149.263 84.791 149.202 84.791C147.646 84.791 146.395 86.0422 146.395 87.5987C146.395 88.8194 147.188 89.857 148.256 90.2232C148.714 88.4532 149.08 86.6526 149.385 84.8216Z" fill="#FFDF96"/>
<path d="M111.757 9.83887C110.2 9.83887 108.949 11.0901 108.949 12.6465C108.949 14.2029 110.2 15.4542 111.757 15.4542C113.313 15.4542 114.564 14.2029 114.564 12.6465C114.564 11.1206 113.313 9.83887 111.757 9.83887Z" fill="#FFDF96"/>
<path d="M99.5796 3.30814C99.5796 4.86456 100.831 6.11579 102.387 6.11579C103.944 6.11579 105.195 4.86456 105.195 3.30814C105.195 3.27762 105.195 3.21661 105.195 3.18609C103.638 2.5147 102.051 1.87379 100.434 1.29395C99.8847 1.81275 99.5796 2.51467 99.5796 3.30814Z" fill="#FFDF96"/>
<path d="M93.0188 9.83887C91.4624 9.83887 90.2112 11.0901 90.2112 12.6465C90.2112 14.2029 91.4624 15.4542 93.0188 15.4542C94.5752 15.4542 95.8266 14.2029 95.8266 12.6465C95.8266 11.1206 94.5752 9.83887 93.0188 9.83887Z" fill="#FFDF96"/>
<path d="M111.757 47.3145C110.2 47.3145 108.949 48.5657 108.949 50.1221C108.949 51.6785 110.2 52.9297 111.757 52.9297C113.313 52.9297 114.564 51.6785 114.564 50.1221C114.564 48.5962 113.313 47.3145 111.757 47.3145Z" fill="#FFDF96"/>
<path d="M130.495 34.2228C132.045 34.2228 133.302 32.9657 133.302 31.4151C133.302 29.8645 132.045 28.6074 130.495 28.6074C128.944 28.6074 127.687 29.8645 127.687 31.4151C127.687 32.9657 128.944 34.2228 130.495 34.2228Z" fill="#FFDF96"/>
<path d="M111.757 34.2228C113.313 34.2228 114.564 32.9715 114.564 31.4151C114.564 29.8587 113.313 28.6074 111.757 28.6074C110.2 28.6074 108.949 29.8587 108.949 31.4151C108.949 32.941 110.2 34.2228 111.757 34.2228Z" fill="#FFDF96"/>
<path d="M102.387 43.5606C103.944 43.5606 105.195 42.3094 105.195 40.753C105.195 39.1965 103.944 37.9453 102.387 37.9453C100.831 37.9453 99.5796 39.1965 99.5796 40.753C99.5796 42.3094 100.831 43.5606 102.387 43.5606Z" fill="#FFDF96"/>
<path d="M123.933 40.753C123.933 39.1965 122.682 37.9453 121.126 37.9453C119.569 37.9453 118.318 39.1965 118.318 40.753C118.318 42.3094 119.569 43.5606 121.126 43.5606C122.652 43.5606 123.933 42.3094 123.933 40.753Z" fill="#FFDF96"/>
<path d="M102.387 24.8536C103.944 24.8536 105.195 23.6023 105.195 22.0459C105.195 20.4895 103.944 19.2383 102.387 19.2383C100.831 19.2383 99.5796 20.4895 99.5796 22.0459C99.5796 23.5718 100.831 24.8536 102.387 24.8536Z" fill="#FFDF96"/>
<path d="M118.318 22.0459C118.318 23.6023 119.569 24.8536 121.126 24.8536C122.682 24.8536 123.933 23.6023 123.933 22.0459C123.933 20.4895 122.682 19.2383 121.126 19.2383C119.569 19.2383 118.318 20.4895 118.318 22.0459Z" fill="#FFDF96"/>
<path d="M93.0188 47.3145C91.4624 47.3145 90.2112 48.5657 90.2112 50.1221C90.2112 51.6785 91.4624 52.9297 93.0188 52.9297C94.5752 52.9297 95.8266 51.6785 95.8266 50.1221C95.8266 48.5962 94.5752 47.3145 93.0188 47.3145Z" fill="#FFDF96"/>
<path d="M111.757 84.791C110.2 84.791 108.949 86.0422 108.949 87.5987C108.949 89.1551 110.2 90.4063 111.757 90.4063C113.313 90.4063 114.564 89.1551 114.564 87.5987C114.564 86.0422 113.313 84.791 111.757 84.791Z" fill="#FFDF96"/>
<path d="M111.757 66.0527C110.2 66.0527 108.949 67.304 108.949 68.8604C108.949 70.4168 110.2 71.668 111.757 71.668C113.313 71.668 114.564 70.4168 114.564 68.8604C114.564 67.304 113.313 66.0527 111.757 66.0527Z" fill="#FFDF96"/>
<path d="M105.195 78.2295C105.195 76.6731 103.944 75.4219 102.387 75.4219C100.831 75.4219 99.5796 76.6731 99.5796 78.2295C99.5796 79.7859 100.831 81.0372 102.387 81.0372C103.944 81.0372 105.195 79.7859 105.195 78.2295Z" fill="#FFDF96"/>
<path d="M121.126 75.4219C119.569 75.4219 118.318 76.6731 118.318 78.2295C118.318 79.7859 119.569 81.0372 121.126 81.0372C122.682 81.0372 123.933 79.7859 123.933 78.2295C123.933 76.6731 122.652 75.4219 121.126 75.4219Z" fill="#FFDF96"/>
<path d="M102.387 56.6836C100.831 56.6836 99.5796 57.9348 99.5796 59.4912C99.5796 61.0477 100.831 62.2989 102.387 62.2989C103.944 62.2989 105.195 61.0477 105.195 59.4912C105.195 57.9348 103.944 56.6836 102.387 56.6836Z" fill="#FFDF96"/>
<path d="M121.126 56.6836C119.569 56.6836 118.318 57.9348 118.318 59.4912C118.318 61.0477 119.569 62.2989 121.126 62.2989C122.682 62.2989 123.933 61.0477 123.933 59.4912C123.933 57.9348 122.652 56.6836 121.126 56.6836Z" fill="#FFDF96"/>
<path d="M93.0188 84.791C91.4624 84.791 90.2112 86.0422 90.2112 87.5987C90.2112 89.1551 91.4624 90.4063 93.0188 90.4063C94.5752 90.4063 95.8266 89.1551 95.8266 87.5987C95.8266 86.0422 94.5752 84.791 93.0188 84.791Z" fill="#FFDF96"/>
<path d="M130.495 109.144C132.051 109.144 133.302 107.892 133.302 106.336C133.302 104.78 132.051 103.528 130.495 103.528C128.938 103.528 127.687 104.78 127.687 106.336C127.657 107.892 128.938 109.144 130.495 109.144Z" fill="#FFDF96"/>
<path d="M111.757 109.144C113.313 109.144 114.564 107.892 114.564 106.336C114.564 104.78 113.313 103.528 111.757 103.528C110.2 103.528 108.949 104.78 108.949 106.336C108.949 107.892 110.2 109.144 111.757 109.144Z" fill="#FFDF96"/>
<path d="M102.387 112.898C100.831 112.898 99.5796 114.15 99.5796 115.706C99.5796 117.262 100.831 118.514 102.387 118.514C103.944 118.514 105.195 117.262 105.195 115.706C105.195 114.15 103.944 112.898 102.387 112.898Z" fill="#FFDF96"/>
<path d="M123.933 115.706C123.933 114.15 122.682 112.898 121.126 112.898C119.569 112.898 118.318 114.15 118.318 115.706C118.318 117.262 119.569 118.514 121.126 118.514C122.652 118.514 123.933 117.262 123.933 115.706Z" fill="#FFDF96"/>
<path d="M102.387 94.1592C100.831 94.1592 99.5796 95.4104 99.5796 96.9668C99.5796 98.5232 100.831 99.7745 102.387 99.7745C103.944 99.7745 105.195 98.5232 105.195 96.9668C105.195 95.4104 103.944 94.1592 102.387 94.1592Z" fill="#FFDF96"/>
<path d="M121.126 94.1592C119.569 94.1592 118.318 95.4104 118.318 96.9668C118.318 98.5232 119.569 99.7745 121.126 99.7745C122.682 99.7745 123.933 98.5232 123.933 96.9668C123.933 95.4104 122.652 94.1592 121.126 94.1592Z" fill="#FFDF96"/>
<path d="M93.0188 103.528C91.4624 103.528 90.2112 104.78 90.2112 106.336C90.2112 107.892 91.4624 109.144 93.0188 109.144C94.5752 109.144 95.8266 107.892 95.8266 106.336C95.8266 104.78 94.5752 103.528 93.0188 103.528Z" fill="#FFDF96"/>
<path d="M130.495 90.4063C132.051 90.4063 133.302 89.1551 133.302 87.5987C133.302 86.0422 132.051 84.791 130.495 84.791C128.938 84.791 127.687 86.0422 127.687 87.5987C127.687 89.1551 128.938 90.4063 130.495 90.4063Z" fill="#FFDF96"/>
<path d="M99.5796 134.443C99.5796 136 100.831 137.251 102.387 137.251C103.944 137.251 105.195 136 105.195 134.443C105.195 132.887 103.944 131.636 102.387 131.636C100.831 131.636 99.5796 132.887 99.5796 134.443Z" fill="#FFDF96"/>
<path d="M118.379 133.833C119.386 133.131 120.363 132.399 121.339 131.666C121.278 131.666 121.187 131.636 121.126 131.636C119.783 131.636 118.654 132.582 118.379 133.833Z" fill="#FFDF96"/>
<path d="M93.0188 141.005C91.4624 141.005 90.2112 142.256 90.2112 143.813C90.2112 144.575 90.5164 145.277 91.0352 145.796C92.6222 145.461 94.1785 145.064 95.7044 144.637C95.7959 144.392 95.8266 144.118 95.8266 143.843C95.8266 142.256 94.5752 141.005 93.0188 141.005Z" fill="#FFDF96"/>
<path d="M131.258 122.389C131.014 122.328 130.739 122.267 130.464 122.267C128.908 122.267 127.657 123.518 127.657 125.074C127.657 125.379 127.718 125.685 127.809 125.99C129.03 124.83 130.159 123.64 131.258 122.389Z" fill="#FFDF96"/>
<path d="M111.757 127.882C113.313 127.882 114.564 126.631 114.564 125.074C114.564 123.518 113.313 122.267 111.757 122.267C110.2 122.267 108.949 123.518 108.949 125.074C108.949 126.631 110.2 127.882 111.757 127.882Z" fill="#FFDF96"/>
<path d="M74.2804 9.83887C72.724 9.83887 71.4727 11.0901 71.4727 12.6465C71.4727 14.2029 72.724 15.4542 74.2804 15.4542C75.8369 15.4542 77.088 14.2029 77.088 12.6465C77.088 11.1206 75.8369 9.83887 74.2804 9.83887Z" fill="#FFDF96"/>
<path d="M67.7196 3.30765C67.7196 1.75123 66.4685 0.5 64.912 0.5C63.3556 0.5 62.1042 1.75123 62.1042 3.30765C62.1042 4.86406 63.3556 6.11529 64.912 6.11529C66.4685 6.11529 67.7196 4.83354 67.7196 3.30765Z" fill="#FFDF96"/>
<path d="M86.4574 3.30765C86.4574 1.75123 85.2061 0.5 83.6496 0.5C82.0932 0.5 80.842 1.75123 80.842 3.30765C80.842 4.86406 82.0932 6.11529 83.6496 6.11529C85.2061 6.11529 86.4574 4.83354 86.4574 3.30765Z" fill="#FFDF96"/>
<path d="M93.0188 34.2228C94.5752 34.2228 95.8266 32.9715 95.8266 31.4151C95.8266 29.8587 94.5752 28.6074 93.0188 28.6074C91.4624 28.6074 90.2112 29.8587 90.2112 31.4151C90.2112 32.941 91.4624 34.2228 93.0188 34.2228Z" fill="#FFDF96"/>
<path d="M74.2804 34.2228C75.8369 34.2228 77.088 32.9715 77.088 31.4151C77.088 29.8587 75.8369 28.6074 74.2804 28.6074C72.724 28.6074 71.4727 29.8587 71.4727 31.4151C71.4727 32.941 72.724 34.2228 74.2804 34.2228Z" fill="#FFDF96"/>
<path d="M64.912 43.5606C66.4685 43.5606 67.7196 42.3094 67.7196 40.753C67.7196 39.1965 66.4685 37.9453 64.912 37.9453C63.3556 37.9453 62.1042 39.1965 62.1042 40.753C62.1042 42.3094 63.3556 43.5606 64.912 43.5606Z" fill="#FFDF96"/>
<path d="M83.6496 43.5606C85.2061 43.5606 86.4574 42.3094 86.4574 40.753C86.4574 39.1965 85.2061 37.9453 83.6496 37.9453C82.0932 37.9453 80.842 39.1965 80.842 40.753C80.842 42.3094 82.0932 43.5606 83.6496 43.5606Z" fill="#FFDF96"/>
<path d="M64.912 24.8536C66.4685 24.8536 67.7196 23.6023 67.7196 22.0459C67.7196 20.4895 66.4685 19.2383 64.912 19.2383C63.3556 19.2383 62.1042 20.4895 62.1042 22.0459C62.1042 23.5718 63.3556 24.8536 64.912 24.8536Z" fill="#FFDF96"/>
<path d="M83.6496 24.8536C85.2061 24.8536 86.4574 23.6023 86.4574 22.0459C86.4574 20.4895 85.2061 19.2383 83.6496 19.2383C82.0932 19.2383 80.842 20.4895 80.842 22.0459C80.842 23.5718 82.0932 24.8536 83.6496 24.8536Z" fill="#FFDF96"/>
<path d="M74.2804 84.791C72.724 84.791 71.4727 86.0422 71.4727 87.5987C71.4727 89.1551 72.724 90.4063 74.2804 90.4063C75.8369 90.4063 77.088 89.1551 77.088 87.5987C77.088 86.0422 75.8369 84.791 74.2804 84.791Z" fill="#FFDF96"/>
<path d="M93.0188 71.668C94.5752 71.668 95.8266 70.4168 95.8266 68.8604C95.8266 67.304 94.5752 66.0527 93.0188 66.0527C91.4624 66.0527 90.2112 67.304 90.2112 68.8604C90.2112 70.4168 91.4624 71.668 93.0188 71.668Z" fill="#FFDF96"/>
<path d="M74.2804 66.0527C72.724 66.0527 71.4727 67.304 71.4727 68.8604C71.4727 70.4168 72.724 71.668 74.2804 71.668C75.8369 71.668 77.088 70.4168 77.088 68.8604C77.088 67.304 75.8369 66.0527 74.2804 66.0527Z" fill="#FFDF96"/>
<path d="M64.912 75.4219C63.3556 75.4219 62.1042 76.6731 62.1042 78.2295C62.1042 79.7859 63.3556 81.0372 64.912 81.0372C66.4685 81.0372 67.7196 79.7859 67.7196 78.2295C67.7196 76.6731 66.4685 75.4219 64.912 75.4219Z" fill="#FFDF96"/>
<path d="M83.6496 75.4219C82.0932 75.4219 80.842 76.6731 80.842 78.2295C80.842 79.7859 82.0932 81.0372 83.6496 81.0372C85.2061 81.0372 86.4574 79.7859 86.4574 78.2295C86.4574 76.6731 85.2061 75.4219 83.6496 75.4219Z" fill="#FFDF96"/>
<path d="M64.912 56.6836C63.3556 56.6836 62.1042 57.9348 62.1042 59.4912C62.1042 61.0477 63.3556 62.2989 64.912 62.2989C66.4685 62.2989 67.7196 61.0477 67.7196 59.4912C67.7196 57.9348 66.4685 56.6836 64.912 56.6836Z" fill="#FFDF96"/>
<path d="M83.6496 56.6836C82.0932 56.6836 80.842 57.9348 80.842 59.4912C80.842 61.0477 82.0932 62.2989 83.6496 62.2989C85.2061 62.2989 86.4574 61.0477 86.4574 59.4912C86.4574 57.9348 85.2061 56.6836 83.6496 56.6836Z" fill="#FFDF96"/>
<path d="M55.5427 84.791C53.9863 84.791 52.7351 86.0422 52.7351 87.5987C52.7351 89.1551 53.9863 90.4063 55.5427 90.4063C57.0991 90.4063 58.3503 89.1551 58.3503 87.5987C58.3503 86.0422 57.0991 84.791 55.5427 84.791Z" fill="#FFDF96"/>
<path d="M55.5427 66.0527C53.9863 66.0527 52.7351 67.304 52.7351 68.8604C52.7351 70.4168 53.9863 71.668 55.5427 71.668C57.0991 71.668 58.3503 70.4168 58.3503 68.8604C58.3503 67.304 57.0991 66.0527 55.5427 66.0527Z" fill="#FFDF96"/>
<path d="M74.2804 52.961C75.8369 52.961 77.088 51.7098 77.088 50.1534C77.088 48.597 75.8369 47.3457 74.2804 47.3457C72.724 47.3457 71.4727 48.597 71.4727 50.1534C71.4727 51.6793 72.724 52.961 74.2804 52.961Z" fill="#FFDF96"/>
<path d="M74.2804 122.267C72.724 122.267 71.4727 123.518 71.4727 125.074C71.4727 126.631 72.724 127.882 74.2804 127.882C75.8369 127.882 77.088 126.631 77.088 125.074C77.088 123.518 75.8369 122.267 74.2804 122.267Z" fill="#FFDF96"/>
<path d="M74.2804 103.528C72.724 103.528 71.4727 104.78 71.4727 106.336C71.4727 107.892 72.724 109.144 74.2804 109.144C75.8369 109.144 77.088 107.892 77.088 106.336C77.088 104.78 75.8369 103.528 74.2804 103.528Z" fill="#FFDF96"/>
<path d="M64.912 112.898C63.3556 112.898 62.1042 114.15 62.1042 115.706C62.1042 117.262 63.3556 118.514 64.912 118.514C66.4685 118.514 67.7196 117.262 67.7196 115.706C67.7196 114.15 66.4685 112.898 64.912 112.898Z" fill="#FFDF96"/>
<path d="M83.6496 112.898C82.0932 112.898 80.842 114.15 80.842 115.706C80.842 117.262 82.0932 118.514 83.6496 118.514C85.2061 118.514 86.4574 117.262 86.4574 115.706C86.4574 114.15 85.2061 112.898 83.6496 112.898Z" fill="#FFDF96"/>
<path d="M64.912 94.1592C63.3556 94.1592 62.1042 95.4104 62.1042 96.9668C62.1042 98.5232 63.3556 99.7745 64.912 99.7745C66.4685 99.7745 67.7196 98.5232 67.7196 96.9668C67.7196 95.4104 66.4685 94.1592 64.912 94.1592Z" fill="#FFDF96"/>
<path d="M83.6496 94.1592C82.0932 94.1592 80.842 95.4104 80.842 96.9668C80.842 98.5232 82.0932 99.7745 83.6496 99.7745C85.2061 99.7745 86.4574 98.5232 86.4574 96.9668C86.4574 95.4104 85.2061 94.1592 83.6496 94.1592Z" fill="#FFDF96"/>
<path d="M55.5427 103.528C53.9863 103.528 52.7351 104.78 52.7351 106.336C52.7351 107.892 53.9863 109.144 55.5427 109.144C57.0991 109.144 58.3503 107.892 58.3503 106.336C58.3503 104.78 57.0991 103.528 55.5427 103.528Z" fill="#FFDF96"/>
<path d="M74.2804 141.005C72.724 141.005 71.4727 142.256 71.4727 143.813C71.4727 145.369 72.724 146.62 74.2804 146.62C75.8369 146.62 77.088 145.369 77.088 143.813C77.088 142.256 75.8369 141.005 74.2804 141.005Z" fill="#FFDF96"/>
<path d="M62.1042 134.443C62.1042 136 63.3556 137.251 64.912 137.251C66.4685 137.251 67.7196 136 67.7196 134.443C67.7196 132.887 66.4685 131.636 64.912 131.636C63.3556 131.636 62.1042 132.887 62.1042 134.443Z" fill="#FFDF96"/>
<path d="M80.842 134.443C80.842 136 82.0932 137.251 83.6496 137.251C85.2061 137.251 86.4574 136 86.4574 134.443C86.4574 132.887 85.2061 131.636 83.6496 131.636C82.0932 131.636 80.842 132.887 80.842 134.443Z" fill="#FFDF96"/>
<path d="M55.5427 141.005C53.9863 141.005 52.7351 142.256 52.7351 143.813C52.7351 143.904 52.7655 143.965 52.7655 144.057C54.444 144.575 56.1226 145.033 57.8621 145.43C58.1673 144.972 58.3809 144.423 58.3809 143.813C58.3503 142.256 57.0991 141.005 55.5427 141.005Z" fill="#FFDF96"/>
<path d="M93.0188 127.882C94.5752 127.882 95.8266 126.631 95.8266 125.074C95.8266 123.518 94.5752 122.267 93.0188 122.267C91.4624 122.267 90.2112 123.518 90.2112 125.074C90.2112 126.631 91.4624 127.882 93.0188 127.882Z" fill="#FFDF96"/>
<path d="M36.8049 9.83887C35.2485 9.83887 33.9973 11.0901 33.9973 12.6465C33.9973 14.2029 35.2485 15.4542 36.8049 15.4542C38.3613 15.4542 39.6125 14.2029 39.6125 12.6465C39.6125 11.1206 38.3613 9.83887 36.8049 9.83887Z" fill="#FFDF96"/>
<path d="M46.1737 6.11527C47.7301 6.11527 48.9813 4.86404 48.9813 3.30762C48.9813 2.7583 48.8286 2.27002 48.554 1.84277C46.8144 2.51417 45.1055 3.21606 43.4575 4.00952C43.7627 5.19972 44.8614 6.11527 46.1737 6.11527Z" fill="#FFDF96"/>
<path d="M55.5427 34.2228C57.0991 34.2228 58.3503 32.9715 58.3503 31.4151C58.3503 29.8587 57.0991 28.6074 55.5427 28.6074C53.9863 28.6074 52.7351 29.8587 52.7351 31.4151C52.7351 32.941 53.9863 34.2228 55.5427 34.2228Z" fill="#FFDF96"/>
<path d="M36.8049 34.2228C38.3555 34.2228 39.6125 32.9657 39.6125 31.4151C39.6125 29.8645 38.3555 28.6074 36.8049 28.6074C35.2543 28.6074 33.9973 29.8645 33.9973 31.4151C33.9973 32.9657 35.2543 34.2228 36.8049 34.2228Z" fill="#FFDF96"/>
<path d="M30.2434 40.753C30.2434 39.1965 28.9922 37.9453 27.4358 37.9453C25.8794 37.9453 24.6282 39.1965 24.6282 40.753C24.6282 42.3094 25.8794 43.5606 27.4358 43.5606C28.9922 43.5606 30.2434 42.3094 30.2434 40.753Z" fill="#FFDF96"/>
<path d="M46.1733 43.5606C47.7297 43.5606 48.9809 42.3094 48.9809 40.753C48.9809 39.1965 47.7297 37.9453 46.1733 37.9453C44.6169 37.9453 43.3657 39.1965 43.3657 40.753C43.3657 42.3094 44.6169 43.5606 46.1733 43.5606Z" fill="#FFDF96"/>
<path d="M24.6282 22.0459C24.6282 23.6023 25.8794 24.8536 27.4358 24.8536C28.9922 24.8536 30.2434 23.6023 30.2434 22.0459C30.2434 20.4895 28.9922 19.2383 27.4358 19.2383C25.8794 19.2383 24.6282 20.4895 24.6282 22.0459Z" fill="#FFDF96"/>
<path d="M46.1733 24.8536C47.7297 24.8536 48.9809 23.6023 48.9809 22.0459C48.9809 20.4895 47.7297 19.2383 46.1733 19.2383C44.6169 19.2383 43.3657 20.4895 43.3657 22.0459C43.3657 23.5718 44.6169 24.8536 46.1733 24.8536Z" fill="#FFDF96"/>
<path d="M55.5427 15.4845C57.0991 15.4845 58.3503 14.2332 58.3503 12.6768C58.3503 11.1204 57.0991 9.86914 55.5427 9.86914C53.9863 9.86914 52.7351 11.1204 52.7351 12.6768C52.7351 14.2332 53.9863 15.4845 55.5427 15.4845Z" fill="#FFDF96"/>
<path d="M36.8049 84.791C35.2485 84.791 33.9973 86.0422 33.9973 87.5987C33.9973 89.1551 35.2485 90.4063 36.8049 90.4063C38.3613 90.4063 39.6125 89.1551 39.6125 87.5987C39.6125 86.0422 38.3613 84.791 36.8049 84.791Z" fill="#FFDF96"/>
<path d="M36.8049 66.0527C35.2485 66.0527 33.9973 67.304 33.9973 68.8604C33.9973 70.4168 35.2485 71.668 36.8049 71.668C38.3613 71.668 39.6125 70.4168 39.6125 68.8604C39.6125 67.304 38.3613 66.0527 36.8049 66.0527Z" fill="#FFDF96"/>
<path d="M27.4358 75.4219C25.8794 75.4219 24.6282 76.6731 24.6282 78.2295C24.6282 79.7859 25.8794 81.0372 27.4358 81.0372C28.9922 81.0372 30.2434 79.7859 30.2434 78.2295C30.2434 76.6731 28.9922 75.4219 27.4358 75.4219Z" fill="#FFDF96"/>
<path d="M46.1733 75.4219C44.6169 75.4219 43.3657 76.6731 43.3657 78.2295C43.3657 79.7859 44.6169 81.0372 46.1733 81.0372C47.7297 81.0372 48.9809 79.7859 48.9809 78.2295C48.9809 76.6731 47.7297 75.4219 46.1733 75.4219Z" fill="#FFDF96"/>
<path d="M27.4358 56.6836C25.8794 56.6836 24.6282 57.9348 24.6282 59.4912C24.6282 61.0477 25.8794 62.2989 27.4358 62.2989C28.9922 62.2989 30.2434 61.0477 30.2434 59.4912C30.2434 57.9348 28.9922 56.6836 27.4358 56.6836Z" fill="#FFDF96"/>
<path d="M46.1733 56.6836C44.6169 56.6836 43.3657 57.9348 43.3657 59.4912C43.3657 61.0477 44.6169 62.2989 46.1733 62.2989C47.7297 62.2989 48.9809 61.0477 48.9809 59.4912C48.9809 57.9348 47.7297 56.6836 46.1733 56.6836Z" fill="#FFDF96"/>
<path d="M18.0664 84.791C16.51 84.791 15.2588 86.0422 15.2588 87.5987C15.2588 89.1551 16.51 90.4063 18.0664 90.4063C19.6228 90.4063 20.8742 89.1551 20.8742 87.5987C20.8742 86.0422 19.6228 84.791 18.0664 84.791Z" fill="#FFDF96"/>
<path d="M18.0664 66.0527C16.51 66.0527 15.2588 67.304 15.2588 68.8604C15.2588 70.4168 16.51 71.668 18.0664 71.668C19.6228 71.668 20.8742 70.4168 20.8742 68.8604C20.8742 67.304 19.6228 66.0527 18.0664 66.0527Z" fill="#FFDF96"/>
<path d="M55.5427 52.961C57.0991 52.961 58.3503 51.7098 58.3503 50.1534C58.3503 48.597 57.0991 47.3457 55.5427 47.3457C53.9863 47.3457 52.7351 48.597 52.7351 50.1534C52.7351 51.6793 53.9863 52.961 55.5427 52.961Z" fill="#FFDF96"/>
<path d="M36.8049 52.961C38.3613 52.961 39.6125 51.7098 39.6125 50.1534C39.6125 48.597 38.3613 47.3457 36.8049 47.3457C35.2485 47.3457 33.9973 48.597 33.9973 50.1534C33.9973 51.6793 35.2485 52.961 36.8049 52.961Z" fill="#FFDF96"/>
<path d="M36.8049 103.528C35.2485 103.528 33.9973 104.78 33.9973 106.336C33.9973 107.892 35.2485 109.144 36.8049 109.144C38.3613 109.144 39.6125 107.892 39.6125 106.336C39.6125 104.78 38.3613 103.528 36.8049 103.528Z" fill="#FFDF96"/>
<path d="M27.4358 112.898C25.8794 112.898 24.6282 114.15 24.6282 115.706C24.6282 117.262 25.8794 118.514 27.4358 118.514C28.9922 118.514 30.2434 117.262 30.2434 115.706C30.2434 114.15 28.9922 112.898 27.4358 112.898Z" fill="#FFDF96"/>
<path d="M46.1733 112.898C44.6169 112.898 43.3657 114.15 43.3657 115.706C43.3657 117.262 44.6169 118.514 46.1733 118.514C47.7297 118.514 48.9809 117.262 48.9809 115.706C48.9809 114.15 47.7297 112.898 46.1733 112.898Z" fill="#FFDF96"/>
<path d="M27.4358 94.1592C25.8794 94.1592 24.6282 95.4104 24.6282 96.9668C24.6282 98.5232 25.8794 99.7745 27.4358 99.7745C28.9922 99.7745 30.2434 98.5232 30.2434 96.9668C30.2434 95.4104 28.9922 94.1592 27.4358 94.1592Z" fill="#FFDF96"/>
<path d="M46.1733 94.1592C44.6169 94.1592 43.3657 95.4104 43.3657 96.9668C43.3657 98.5232 44.6169 99.7745 46.1733 99.7745C47.7297 99.7745 48.9809 98.5232 48.9809 96.9668C48.9809 95.4104 47.7297 94.1592 46.1733 94.1592Z" fill="#FFDF96"/>
<path d="M20.6915 124.006C20.4168 123.365 19.9285 122.846 19.3181 122.541C19.7454 123.06 20.2032 123.548 20.6915 124.006Z" fill="#FFDF96"/>
<path d="M20.8742 106.336C20.8742 104.78 19.6228 103.528 18.0664 103.528C16.51 103.528 15.2588 104.78 15.2588 106.336C15.2588 107.892 16.51 109.144 18.0664 109.144C19.6228 109.144 20.8742 107.892 20.8742 106.336Z" fill="#FFDF96"/>
<path d="M43.3657 134.443C43.3657 136 44.6169 137.251 46.1733 137.251C47.7297 137.251 48.9809 136 48.9809 134.443C48.9809 132.887 47.7297 131.636 46.1733 131.636C44.6169 131.636 43.3657 132.887 43.3657 134.443Z" fill="#FFDF96"/>
<path d="M55.5427 127.882C57.0991 127.882 58.3503 126.631 58.3503 125.074C58.3503 123.518 57.0991 122.267 55.5427 122.267C53.9863 122.267 52.7351 123.518 52.7351 125.074C52.7351 126.631 53.9863 127.882 55.5427 127.882Z" fill="#FFDF96"/>
<path d="M36.8049 127.882C38.3613 127.882 39.6125 126.631 39.6125 125.074C39.6125 123.518 38.3613 122.267 36.8049 122.267C35.2485 122.267 33.9973 123.518 33.9973 125.074C33.9973 126.631 35.2485 127.882 36.8049 127.882Z" fill="#FFDF96"/>
<path d="M18.0664 34.2228C19.6228 34.2228 20.8742 32.9715 20.8742 31.4151C20.8742 29.8587 19.6228 28.6074 18.0664 28.6074C16.51 28.6074 15.2588 29.8587 15.2588 31.4151C15.2588 32.941 16.51 34.2228 18.0664 34.2228Z" fill="#FFDF96"/>
<path d="M8.69753 43.5606C10.2539 43.5606 11.5053 42.3094 11.5053 40.753C11.5053 39.1965 10.2539 37.9453 8.69753 37.9453C8.51443 37.9453 8.36189 37.9758 8.17878 38.0063C7.50738 39.3491 6.83595 40.7224 6.22559 42.0958C6.71387 42.9808 7.6294 43.5606 8.69753 43.5606Z" fill="#FFDF96"/>
<path d="M1.15918 85.4619C1.37281 86.5911 1.58634 87.7202 1.83049 88.8494C2.01359 88.4832 2.13578 88.0559 2.13578 87.5982C2.16629 86.7437 1.76954 85.9807 1.15918 85.4619Z" fill="#FFDF96"/>
<path d="M2.16684 68.8601C2.16684 67.6089 1.34284 66.5713 0.244196 66.2051C0.091606 67.9751 0 69.7757 0 71.5762C1.22072 71.3016 2.16684 70.2029 2.16684 68.8601Z" fill="#FFDF96"/>
<path d="M8.69725 81.0372C10.2537 81.0372 11.505 79.7859 11.505 78.2295C11.505 76.6731 10.2537 75.4219 8.69725 75.4219C7.14083 75.4219 5.88965 76.6731 5.88965 78.2295C5.88965 79.7859 7.17135 81.0372 8.69725 81.0372Z" fill="#FFDF96"/>
<path d="M5.88965 59.4912C5.88965 61.0477 7.14083 62.2989 8.69725 62.2989C10.2537 62.2989 11.505 61.0477 11.505 59.4912C11.505 57.9348 10.2537 56.6836 8.69725 56.6836C7.17135 56.6836 5.88965 57.9348 5.88965 59.4912Z" fill="#FFDF96"/>
<path d="M18.0664 52.961C19.6228 52.961 20.8742 51.7098 20.8742 50.1534C20.8742 48.597 19.6228 47.3457 18.0664 47.3457C16.51 47.3457 15.2588 48.597 15.2588 50.1534C15.2588 51.6793 16.51 52.961 18.0664 52.961Z" fill="#FFDF96"/>
<path d="M5.88965 96.9668C5.88965 98.5232 7.14083 99.7745 8.69725 99.7745C10.2537 99.7745 11.505 98.5232 11.505 96.9668C11.505 95.4104 10.2537 94.1592 8.69725 94.1592C7.17135 94.1592 5.88965 95.4104 5.88965 96.9668Z" fill="#FFDF96"/>
</svg>
