<svg width="89" height="86" viewBox="0 0 89 86" fill="none" xmlns="http://www.w3.org/2000/svg">
<path d="M51.1868 54.7876C51.7652 55.48 51.6742 56.4926 50.9819 57.0709C50.2895 57.6492 49.2661 57.5673 48.6878 56.8749C48.1185 56.1934 48.2112 55.161 48.9036 54.5827C49.5851 54.0134 50.6176 54.106 51.1868 54.7876ZM57.5372 49.4834C58.1156 50.1758 58.0138 51.1975 57.3323 51.7668C56.6399 52.3451 55.6273 52.2542 55.049 51.5618C54.4797 50.8802 54.5616 49.8568 55.254 49.2785C55.9464 48.7002 56.968 48.8019 57.5372 49.4834Z" fill="#FFE7AF"/>
<path d="M39.0983 53.2232C39.6766 53.9156 39.5857 54.9281 38.8915 55.5263C38.21 56.0956 37.1775 56.0029 36.5992 55.3105C36.03 54.629 36.1226 53.5965 36.8042 53.0272C37.4966 52.4489 38.529 52.5417 39.0983 53.2232ZM45.4487 47.919C46.027 48.6114 45.9451 49.6348 45.2528 50.2131C44.5604 50.7914 43.5388 50.6897 42.9605 49.9973C42.3912 49.3158 42.4731 48.2923 43.1654 47.714C43.847 47.1448 44.8795 47.2374 45.4487 47.919ZM51.7991 42.6148C52.3774 43.3072 52.2847 44.3396 51.5941 44.8981C50.9017 45.4764 49.8892 45.3856 49.3109 44.6932C48.7416 44.0116 48.8235 42.9882 49.5158 42.4099C50.1974 41.8406 51.2299 41.9333 51.7991 42.6148ZM58.1604 37.3016C58.7387 37.994 58.6369 39.0156 57.9644 39.5957C57.272 40.174 56.2504 40.0723 55.6721 39.38C55.1028 38.6984 55.1847 37.675 55.8771 37.0967C56.5586 36.5274 57.5911 36.6201 58.1604 37.3016Z" fill="#FFE7AF"/>
<path d="M27.1798 51.8816C27.749 52.5632 27.6672 53.5867 26.9748 54.165C26.2932 54.7342 25.2607 54.6415 24.6915 53.96C24.1132 53.2676 24.2059 52.2352 24.8965 51.6767C25.5889 51.0984 26.6014 51.1893 27.1798 51.8816ZM33.5409 46.5685C34.1102 47.2501 34.0284 48.2734 33.336 48.8517C32.6544 49.421 31.622 49.3283 31.0527 48.6468C30.4744 47.9544 30.5762 46.9328 31.2577 46.3635C31.9393 45.7943 32.9626 45.8761 33.5409 46.5685ZM39.8914 41.2643C40.4607 41.9458 40.368 42.9783 39.6864 43.5476C38.994 44.1259 37.9724 44.0242 37.4031 43.3426C36.8248 42.6502 36.9157 41.6377 37.6081 41.0594C38.2897 40.4901 39.3221 40.5827 39.8914 41.2643ZM46.2508 35.9709C46.8201 36.6525 46.7274 37.685 46.0459 38.2543C45.3535 38.8326 44.3318 38.7308 43.7625 38.0493C43.1842 37.3569 43.2752 36.3443 43.9676 35.766C44.6509 35.1769 45.6635 35.2677 46.2508 35.9709ZM52.6121 30.6577C53.1813 31.3393 53.0886 32.3718 52.4071 32.941C51.7147 33.5193 50.6823 33.4266 50.113 32.7451C49.5347 32.0527 49.6256 31.0402 50.3288 30.4528C51.0013 29.8727 52.0247 29.9545 52.6121 30.6577ZM58.9534 25.3427C59.5227 26.0243 59.43 27.0568 58.7484 27.626C58.0669 28.1953 57.0344 28.1026 56.4651 27.4211C55.8868 26.7287 55.9886 25.7071 56.6611 25.127C57.3517 24.5685 58.3751 24.6504 58.9534 25.3427Z" fill="#FFE7AF"/>
<path d="M15.0918 50.3163C15.6702 51.0086 15.5883 52.032 14.8959 52.6103C14.2144 53.1795 13.191 53.0977 12.6036 52.3945C12.0344 51.713 12.127 50.6805 12.8086 50.1112C13.501 49.5329 14.5226 49.6347 15.0918 50.3163ZM21.4423 45.012C22.0206 45.7044 21.9387 46.7278 21.2463 47.3061C20.5648 47.8754 19.5414 47.7936 18.954 47.0904C18.3847 46.4088 18.4774 45.3763 19.159 44.8071C19.8514 44.2287 20.873 44.3305 21.4423 45.012ZM27.8035 39.6989C28.3818 40.3913 28.2999 41.4146 27.6076 41.9929C26.926 42.5622 25.9026 42.4804 25.3152 41.7772C24.746 41.0956 24.8387 40.0631 25.5202 39.4938C26.2018 38.9246 27.2342 39.0173 27.8035 39.6989ZM34.1539 34.3947C34.7322 35.087 34.6395 36.1195 33.9579 36.6887C33.2656 37.267 32.2422 37.1852 31.6549 36.482C31.0856 35.8004 31.1782 34.768 31.8706 34.1897C32.5522 33.6204 33.5847 33.7131 34.1539 34.3947ZM40.5151 29.0815C41.0934 29.7739 41.0007 30.8063 40.3083 31.3846C39.616 31.9629 38.6034 31.872 38.016 31.1688C37.4468 30.4873 37.5286 29.4638 38.221 28.8855C38.9026 28.3162 39.935 28.409 40.5151 29.0815ZM46.8656 23.7773C47.4439 24.4697 47.3511 25.5021 46.6696 26.0714C45.9772 26.6497 44.9539 26.5678 44.3665 25.8646C43.7972 25.1831 43.8899 24.1506 44.5714 23.5814C45.2638 23.0031 46.2963 23.0957 46.8656 23.7773ZM53.225 18.484C53.8033 19.1763 53.7124 20.1889 53.02 20.7672C52.3276 21.3455 51.315 21.2547 50.7277 20.5515C50.1584 19.8699 50.2511 18.8374 50.9326 18.2681C51.625 17.6898 52.6467 17.7916 53.225 18.484ZM59.5664 13.169C60.1447 13.8613 60.0628 14.8847 59.3704 15.463C58.6888 16.0323 57.6655 15.9504 57.0781 15.2472C56.5089 14.5657 56.6015 13.5333 57.283 12.964C57.9754 12.3857 58.9971 12.4874 59.5664 13.169Z" fill="#FFE7AF"/>
<path d="M3.53638 49.3895C4.10565 50.0711 4.01303 51.1035 3.33147 51.6728C2.63909 52.2511 1.61743 52.1494 1.04816 51.4678C0.469851 50.7754 0.551765 49.752 1.24414 49.1737C1.93474 48.6153 2.95807 48.6971 3.53638 49.3895ZM9.88678 44.0853C10.456 44.7669 10.3742 45.7903 9.68187 46.3686C8.98949 46.9469 7.96783 46.8452 7.39856 46.1636C6.82025 45.4713 6.90216 44.4479 7.59454 43.8696C8.29596 43.3021 9.30847 43.393 9.88678 44.0853ZM16.2372 38.7811C16.8065 39.4627 16.7246 40.4861 16.0323 41.0644C15.3507 41.6337 14.3182 41.541 13.749 40.8595C13.1706 40.1671 13.2634 39.1347 13.9449 38.5654C14.6464 37.9979 15.6589 38.0888 16.2372 38.7811ZM22.5984 33.468C23.1677 34.1495 23.0859 35.1729 22.3935 35.7512C21.7119 36.3205 20.6795 36.2278 20.1102 35.5463C19.5319 34.8539 19.6246 33.8215 20.3062 33.2522C20.9968 32.6937 22.0201 32.7756 22.5984 33.468ZM28.9489 28.1638C29.5181 28.8453 29.4254 29.8778 28.7331 30.4561C28.0407 31.0344 27.0191 30.9326 26.4498 30.2511C25.8715 29.5587 25.9534 28.5354 26.6457 27.9571C27.3472 27.3896 28.3706 27.4714 28.9489 28.1638ZM35.2993 22.8596C35.8685 23.5412 35.7759 24.5736 35.0943 25.1429C34.4019 25.7212 33.3803 25.6195 32.811 24.9379C32.2327 24.2456 32.3146 23.2222 33.007 22.6439C33.6976 22.0854 34.721 22.1672 35.2993 22.8596ZM41.6605 17.5464C42.2298 18.2279 42.1371 19.2604 41.4555 19.8297C40.7631 20.408 39.7415 20.3063 39.1722 19.6247C38.5939 18.9323 38.6758 17.9089 39.379 17.3216C40.0588 16.7722 41.0822 16.854 41.6605 17.5464ZM48.0109 12.2422C48.5802 12.9238 48.4983 13.9472 47.8059 14.5255C47.1244 15.0948 46.0919 15.0021 45.5226 14.3206C44.9443 13.6282 45.037 12.5958 45.7186 12.0265C46.42 11.459 47.4326 11.5498 48.0109 12.2422ZM54.3613 6.93806C54.9306 7.61962 54.8487 8.64306 54.1563 9.22137C53.4748 9.79064 52.4423 9.6979 51.8731 9.01634C51.2948 8.32397 51.3874 7.29159 52.069 6.72232C52.7704 6.15483 53.783 6.24568 54.3613 6.93806ZM60.7117 1.6339C61.281 2.31545 61.1991 3.3389 60.5067 3.91721C59.8143 4.49552 58.7819 4.40278 58.2126 3.72122C57.6343 3.02884 57.727 1.99647 58.4194 1.41816C59.1208 0.850666 60.1334 0.941517 60.7117 1.6339Z" fill="#FFE7AF"/>
<path d="M59.1726 57.9059C59.7509 58.5983 59.6582 59.6307 58.9766 60.2C58.2843 60.7783 57.2609 60.6965 56.6843 59.9842C56.1151 59.3027 56.1969 58.2792 56.8893 57.7009C57.5817 57.1226 58.6034 57.2244 59.1726 57.9059Z" fill="#FFE7AF"/>
</svg>
