<svg width="105" height="102" viewBox="0 0 105 102" fill="none" xmlns="http://www.w3.org/2000/svg">
<path d="M1.80002 3.58915C1.33002 3.58915 0.870029 3.39915 0.530029 3.05915C0.200029 2.72915 0.0100098 2.26915 0.0100098 1.78915C0.0100098 1.31915 0.200029 0.859149 0.530029 0.529149C1.19003 -0.140851 2.41001 -0.140853 3.07001 0.519147C3.40001 0.859147 3.59003 1.32915 3.59003 1.78915C3.59003 2.25915 3.40001 2.71915 3.07001 3.04915C2.74001 3.39915 2.28002 3.58915 1.80002 3.58915Z" fill="#D1D1D1"/>
<path d="M91.35 1.8C91.35 0.800003 92.16 0.0100021 93.15 0.0100021C94.15 0.0100021 94.94 0.810003 94.94 1.8C94.94 2.79 94.14 3.59 93.15 3.59C92.16 3.59 91.35 2.79 91.35 1.8ZM82.22 1.8C82.22 0.800003 83.03 0.0100021 84.01 0.0100021C85.01 0.0100021 85.81 0.810003 85.81 1.8C85.81 2.79 85.01 3.59 84.01 3.59C83.03 3.59 82.22 2.79 82.22 1.8ZM73.08 1.8C73.08 0.800003 73.88 0.0100021 74.87 0.0100021C75.86 0.0100021 76.66 0.810003 76.66 1.8C76.66 2.79 75.85 3.59 74.87 3.59C73.88 3.59 73.08 2.79 73.08 1.8ZM63.95 1.8C63.95 0.800003 64.75 0.0100021 65.74 0.0100021C66.73 0.0100021 67.53 0.810003 67.53 1.8C67.53 2.79 66.72 3.59 65.74 3.59C64.75 3.59 63.95 2.79 63.95 1.8ZM54.82 1.8C54.82 0.800003 55.62 0.0100021 56.61 0.0100021C57.6 0.0100021 58.41 0.810003 58.41 1.8C58.41 2.79 57.6 3.59 56.61 3.59C55.62 3.59 54.82 2.79 54.82 1.8ZM45.68 1.8C45.68 0.800003 46.49 2.13645e-06 47.47 0.0100021C48.47 0.0100021 49.26 0.810003 49.26 1.8C49.26 2.79 48.46 3.59 47.47 3.59C46.49 3.59 45.68 2.79 45.68 1.8ZM36.55 1.8C36.55 0.800003 37.36 2.13645e-06 38.34 0.0100021C39.34 0.0100021 40.14 0.810003 40.13 1.8C40.13 2.79 39.33 3.59 38.34 3.59C37.35 3.59 36.54 2.79 36.55 1.8ZM27.41 1.8C27.41 0.800003 28.22 0.0100021 29.2 0.0100021C30.19 0.0100021 30.99 0.810003 30.99 1.8C30.99 2.79 30.18 3.59 29.2 3.59C28.22 3.59 27.41 2.79 27.41 1.8ZM18.28 1.8C18.28 0.800003 19.08 0 20.07 0C21.06 0 21.86 0.800001 21.87 1.79C21.87 2.78 21.06 3.59 20.07 3.59C19.08 3.59 18.28 2.79 18.28 1.8ZM9.15002 1.8C9.15002 0.800003 9.95 2.13645e-06 10.94 0.0100021C11.93 0.0100021 12.74 0.810003 12.73 1.8C12.73 2.79 11.93 3.59 10.94 3.59C9.95 3.59 9.15002 2.79 9.15002 1.8Z" fill="#D1D1D1"/>
<path d="M102.28 3.58938C101.82 3.58938 101.35 3.39938 101.01 3.05938C100.68 2.72938 100.48 2.25938 100.48 1.78938C100.48 1.31938 100.68 0.859381 101.01 0.519381C101.67 -0.150619 102.89 -0.150617 103.55 0.509383C103.88 0.849383 104.08 1.31938 104.08 1.77938C104.08 2.24938 103.88 2.70938 103.55 3.04938C103.22 3.40938 102.75 3.58938 102.28 3.58938Z" fill="#D1D1D1"/>
<path d="M1.80002 13.4713C1.33002 13.4713 0.870029 13.2712 0.530029 12.9412C0.200029 12.6112 0.0100098 12.1413 0.0100098 11.6813C0.0100098 11.2013 0.200029 10.7413 0.530029 10.4013C1.20003 9.74125 2.40001 9.74125 3.07001 10.4013C3.40001 10.7413 3.59003 11.2013 3.59003 11.6713C3.59003 12.1413 3.40001 12.6013 3.07001 12.9313C2.73001 13.2713 2.28002 13.4713 1.80002 13.4713Z" fill="#D1D1D1"/>
<path d="M91.35 11.6809C91.35 10.6809 92.16 9.89086 93.15 9.89086C94.14 9.89086 94.94 10.6909 94.94 11.6809C94.94 12.6709 94.14 13.4709 93.15 13.4709C92.16 13.4709 91.35 12.6609 91.35 11.6809ZM82.22 11.6809C82.22 10.6809 83.03 9.89086 84.01 9.89086C85 9.89086 85.81 10.6909 85.81 11.6809C85.81 12.6709 85 13.4809 84.01 13.4809C83.03 13.4709 82.22 12.6609 82.22 11.6809ZM73.08 11.6809C73.08 10.6809 73.88 9.89086 74.87 9.89086C75.86 9.89086 76.66 10.6909 76.67 11.6909C76.67 12.6709 75.86 13.4809 74.88 13.4809C73.88 13.4709 73.08 12.6609 73.08 11.6809ZM63.96 11.6809C63.96 10.6809 64.76 9.88086 65.75 9.88086C66.73 9.88086 67.54 10.6809 67.54 11.6709C67.54 12.6609 66.73 13.4709 65.75 13.4609C64.75 13.4709 63.95 12.6609 63.96 11.6809ZM54.82 11.6809C54.82 10.6809 55.62 9.89086 56.6 9.89086C57.6 9.89086 58.4 10.6909 58.4 11.6909C58.4 12.6709 57.6 13.4809 56.61 13.4809C55.62 13.4709 54.82 12.6609 54.82 11.6809ZM45.68 11.6809C45.68 10.6809 46.49 9.88086 47.47 9.88086C48.47 9.88086 49.26 10.6809 49.26 11.6709C49.26 12.6609 48.46 13.4609 47.46 13.4609C46.49 13.4709 45.68 12.6609 45.68 11.6809ZM36.54 11.6809C36.54 10.6809 37.35 9.89086 38.33 9.89086C39.33 9.89086 40.13 10.6909 40.13 11.6809C40.13 12.6709 39.33 13.4709 38.33 13.4709C37.35 13.4709 36.55 12.6609 36.54 11.6809ZM27.41 11.6809C27.41 10.6809 28.21 9.89086 29.2 9.89086C30.19 9.89086 31 10.6909 30.99 11.6809C30.99 12.6609 30.18 13.4709 29.2 13.4709C28.21 13.4709 27.41 12.6609 27.41 11.6809ZM18.28 11.6809C18.28 10.6809 19.08 9.88086 20.08 9.88086C21.07 9.88086 21.87 10.6809 21.87 11.6709C21.87 12.6609 21.06 13.4709 20.08 13.4609C19.08 13.4709 18.28 12.6609 18.28 11.6809ZM9.15002 11.6809C9.15002 10.6809 9.95 9.88086 10.94 9.88086C11.92 9.88086 12.73 10.6809 12.73 11.6809C12.73 12.6609 11.92 13.4709 10.94 13.4709C9.95 13.4709 9.15002 12.6609 9.15002 11.6809Z" fill="#D1D1D1"/>
<path d="M102.28 13.471C101.82 13.471 101.35 13.271 101.01 12.941C100.68 12.611 100.48 12.141 100.48 11.681C100.48 11.201 100.68 10.751 101.01 10.411C101.68 9.75102 102.88 9.75102 103.55 10.411C103.88 10.751 104.08 11.211 104.08 11.681C104.08 12.151 103.88 12.611 103.55 12.951C103.22 13.271 102.75 13.471 102.28 13.471Z" fill="#D1D1D1"/>
<path d="M1.81003 23.0292C1.33003 23.0292 0.870029 22.8392 0.530029 22.5092C0.200029 22.1792 0 21.7092 0 21.2392C0 20.7692 0.200029 20.3092 0.530029 19.9792C1.20003 19.3192 2.40001 19.3092 3.07001 19.9792C3.40001 20.3092 3.59003 20.7792 3.59003 21.2492C3.59003 21.7192 3.40001 22.1892 3.07001 22.5192C2.73001 22.8392 2.28003 23.0392 1.81003 23.0292Z" fill="#D1D1D1"/>
<path d="M91.35 21.2392C91.35 20.2492 92.16 19.4492 93.15 19.4492C94.14 19.4492 94.94 20.2592 94.94 21.2392C94.94 22.2292 94.14 23.0292 93.15 23.0292C92.16 23.0292 91.35 22.2292 91.35 21.2392ZM82.22 21.2392C82.22 20.2492 83.03 19.4492 84.01 19.4492C85 19.4492 85.81 20.2592 85.81 21.2492C85.81 22.2492 85 23.0392 84.01 23.0492C83.03 23.0292 82.22 22.2392 82.22 21.2392ZM73.09 21.2392C73.09 20.2492 73.89 19.4492 74.89 19.4492C75.88 19.4492 76.68 20.2592 76.68 21.2392C76.68 22.2392 75.87 23.0392 74.89 23.0292C73.88 23.0392 73.08 22.2292 73.09 21.2392ZM63.96 21.2392C63.96 20.2492 64.76 19.4492 65.75 19.4492C66.74 19.4492 67.54 20.2592 67.54 21.2392C67.54 22.2292 66.73 23.0392 65.75 23.0292C64.75 23.0392 63.96 22.2392 63.96 21.2392ZM54.81 21.2392C54.81 20.2492 55.62 19.4492 56.6 19.4492C57.6 19.4492 58.39 20.2592 58.39 21.2392C58.39 22.2392 57.59 23.0292 56.6 23.0292C55.62 23.0392 54.81 22.2392 54.81 21.2392ZM45.68 21.2392C45.68 20.2492 46.49 19.4492 47.47 19.4492C48.47 19.4492 49.27 20.2592 49.27 21.2492C49.27 22.2492 48.47 23.0392 47.48 23.0392C46.49 23.0292 45.68 22.2392 45.68 21.2392ZM36.54 21.2392C36.54 20.2492 37.35 19.4492 38.33 19.4492C39.33 19.4492 40.13 20.2592 40.12 21.2492C40.12 22.2492 39.32 23.0492 38.33 23.0492C37.35 23.0392 36.55 22.2292 36.54 21.2392ZM27.41 21.2392C27.41 20.2492 28.22 19.4492 29.2 19.4492C30.19 19.4492 31 20.2592 31 21.2492C31 22.2392 30.19 23.0392 29.21 23.0492C28.22 23.0392 27.41 22.2392 27.41 21.2392ZM18.28 21.2392C18.28 20.2492 19.08 19.4492 20.07 19.4492C21.06 19.4492 21.86 20.2592 21.87 21.2392C21.87 22.2292 21.06 23.0392 20.07 23.0392C19.08 23.0392 18.28 22.2392 18.28 21.2392ZM9.15002 21.2392C9.15002 20.2492 9.95 19.4492 10.94 19.4492C11.93 19.4492 12.73 20.2592 12.73 21.2492C12.73 22.2492 11.92 23.0392 10.94 23.0492C9.95 23.0392 9.15002 22.2392 9.15002 21.2392Z" fill="#D1D1D1"/>
<path d="M102.28 23.0396C101.81 23.0396 101.35 22.8496 101.01 22.5196C100.68 22.1796 100.48 21.7196 100.48 21.2396C100.48 20.7696 100.68 20.3096 101.01 19.9696C101.68 19.3096 102.88 19.3096 103.55 19.9696C103.88 20.2996 104.07 20.7696 104.07 21.2396C104.07 21.7196 103.88 22.1796 103.55 22.5096C103.21 22.8396 102.75 23.0296 102.28 23.0396Z" fill="#D1D1D1"/>
<path d="M1.81003 32.9102C1.33003 32.9102 0.880029 32.7202 0.530029 32.3902C0.200029 32.0502 0 31.5902 0 31.1202C0 30.6402 0.200029 30.1902 0.530029 29.8502C1.20003 29.1802 2.40001 29.1802 3.07001 29.8502C3.40001 30.1902 3.59003 30.6502 3.59003 31.1202C3.59003 31.6002 3.40001 32.0502 3.07001 32.3902C2.73001 32.7202 2.28003 32.9102 1.81003 32.9102Z" fill="#D1D1D1"/>
<path d="M91.35 31.1203C91.35 30.1203 92.16 29.3303 93.15 29.3303C94.14 29.3303 94.94 30.1303 94.94 31.1203C94.94 32.1103 94.14 32.9103 93.15 32.9103C92.16 32.9103 91.35 32.1003 91.35 31.1203ZM82.22 31.1103C82.22 30.1203 83.02 29.3203 84.01 29.3203C85 29.3203 85.81 30.1203 85.81 31.1103C85.81 32.1003 85 32.9003 84.01 32.9003C83.02 32.9103 82.22 32.1003 82.22 31.1103ZM73.08 31.1203C73.08 30.1203 73.88 29.3303 74.87 29.3303C75.86 29.3303 76.66 30.1303 76.66 31.1203C76.66 32.1103 75.85 32.9203 74.87 32.9103C73.88 32.9103 73.08 32.1003 73.08 31.1203ZM63.95 31.1203C63.95 30.1203 64.75 29.3303 65.74 29.3303C66.73 29.3303 67.53 30.1303 67.53 31.1203C67.53 32.1103 66.72 32.9103 65.74 32.9103C64.75 32.9103 63.96 32.1003 63.95 31.1203ZM54.81 31.1203C54.81 30.1203 55.62 29.3303 56.6 29.3303C57.6 29.3303 58.4 30.1303 58.4 31.1203C58.4 32.1103 57.59 32.9103 56.6 32.9103C55.62 32.9103 54.81 32.1003 54.81 31.1203ZM45.68 31.1103C45.68 30.1203 46.49 29.3203 47.47 29.3203C48.47 29.3203 49.26 30.1203 49.26 31.1103C49.26 32.1003 48.46 32.9003 47.47 32.9003C46.49 32.9103 45.68 32.1003 45.68 31.1103ZM36.55 31.1203C36.55 30.1203 37.36 29.3303 38.34 29.3303C39.34 29.3303 40.14 30.1303 40.14 31.1303C40.14 32.1103 39.34 32.9203 38.35 32.9203C37.35 32.9103 36.55 32.1003 36.55 31.1203ZM27.41 31.1203C27.41 30.1203 28.21 29.3203 29.2 29.3203C30.19 29.3203 31 30.1203 31 31.1103C31 32.1003 30.19 32.9103 29.2 32.9103C28.21 32.9103 27.41 32.1003 27.41 31.1203ZM18.28 31.1103C18.28 30.1203 19.08 29.3203 20.07 29.3203C21.06 29.3203 21.86 30.1203 21.86 31.1103C21.86 32.0903 21.05 32.9003 20.07 32.9003C19.08 32.9103 18.28 32.1003 18.28 31.1103ZM9.15002 31.1203C9.15002 30.1203 9.95 29.3303 10.94 29.3303C11.93 29.3303 12.73 30.1303 12.73 31.1203C12.73 32.1103 11.92 32.9203 10.94 32.9103C9.95 32.9103 9.15002 32.1003 9.15002 31.1203Z" fill="#D1D1D1"/>
<path d="M102.28 32.9095C101.81 32.9095 101.35 32.7195 101.01 32.3895C100.68 32.0495 100.48 31.5795 100.48 31.1195C100.48 30.6395 100.68 30.1895 101.01 29.8495C101.68 29.1795 102.88 29.1795 103.55 29.8395C103.88 30.1795 104.08 30.6395 104.08 31.1095C104.08 31.5795 103.88 32.0395 103.55 32.3795C103.21 32.7195 102.75 32.9095 102.28 32.9095Z" fill="#D1D1D1"/>
<path d="M1.80002 41.8691C1.33002 41.8691 0.870029 41.6791 0.530029 41.3491C0.200029 41.0091 0.0100098 40.5491 0.0100098 40.0791C0.0100098 39.6091 0.200029 39.1491 0.530029 38.8191C1.19003 38.1591 2.40001 38.1491 3.07001 38.8191C3.40001 39.1491 3.59003 39.6191 3.59003 40.0791C3.59003 40.5591 3.40001 41.0091 3.07001 41.3591C2.73001 41.6791 2.28002 41.8691 1.80002 41.8691Z" fill="#D1D1D1"/>
<path d="M91.35 40.0793C91.35 39.0893 92.16 38.2893 93.15 38.2893C94.14 38.2893 94.94 39.0993 94.94 40.0793C94.94 41.0793 94.14 41.8793 93.15 41.8693C92.16 41.8693 91.35 41.0793 91.35 40.0793ZM82.22 40.0793C82.22 39.0893 83.02 38.2893 84.01 38.2893C85.01 38.2893 85.81 39.0993 85.81 40.0793C85.81 41.0793 85.01 41.8693 84.01 41.8693C83.02 41.8693 82.22 41.0693 82.22 40.0793ZM73.08 40.0793C73.08 39.0893 73.88 38.2893 74.87 38.2893C75.86 38.2893 76.67 39.0993 76.66 40.0893C76.66 41.0893 75.85 41.8793 74.87 41.8793C73.88 41.8693 73.09 41.0693 73.08 40.0793ZM63.95 40.0793C63.95 39.0893 64.75 38.2893 65.74 38.2893C66.73 38.2893 67.54 39.0993 67.54 40.0893C67.54 41.0793 66.73 41.8793 65.75 41.8793C64.75 41.8693 63.95 41.0693 63.95 40.0793ZM54.81 40.0793C54.81 39.0893 55.62 38.2893 56.61 38.2793C57.6 38.2793 58.4 39.0893 58.4 40.0793C58.4 41.0793 57.6 41.8693 56.61 41.8693C55.62 41.8693 54.81 41.0693 54.81 40.0793ZM45.68 40.0793C45.68 39.0893 46.49 38.2793 47.48 38.2793C48.48 38.2793 49.27 39.0893 49.28 40.0693C49.28 41.0693 48.48 41.8593 47.48 41.8693C46.49 41.8693 45.68 41.0693 45.68 40.0793ZM36.55 40.0793C36.55 39.0893 37.36 38.2893 38.34 38.2893C39.34 38.2893 40.13 39.0993 40.13 40.0793C40.13 41.0793 39.33 41.8693 38.33 41.8693C37.35 41.8693 36.55 41.0693 36.55 40.0793ZM27.41 40.0793C27.41 39.0993 28.21 38.2893 29.2 38.2893C30.19 38.2893 31 39.0993 31 40.0893C31 41.0893 30.19 41.8793 29.21 41.8793C28.21 41.8693 27.41 41.0693 27.41 40.0793ZM18.28 40.0793C18.28 39.0893 19.08 38.2893 20.07 38.2893C21.06 38.2893 21.86 39.0993 21.86 40.0793C21.86 41.0793 21.05 41.8693 20.07 41.8693C19.08 41.8693 18.28 41.0693 18.28 40.0793ZM9.15002 40.0793C9.15002 39.0893 9.95002 38.2893 10.93 38.2793C11.93 38.2793 12.73 39.0893 12.73 40.0693C12.73 41.0693 11.92 41.8693 10.93 41.8593C9.95002 41.8693 9.15002 41.0693 9.15002 40.0793Z" fill="#D1D1D1"/>
<path d="M102.29 41.8691C101.81 41.8691 101.35 41.6791 101.02 41.3491C100.69 41.0091 100.49 40.5491 100.49 40.0791C100.49 39.6091 100.69 39.1491 101.02 38.8191C101.69 38.1591 102.89 38.1491 103.56 38.8191C103.89 39.1491 104.08 39.6191 104.08 40.0791C104.08 40.5591 103.89 41.0091 103.56 41.3591C103.21 41.6791 102.75 41.8691 102.29 41.8691Z" fill="#D1D1D1"/>
<path d="M1.80002 51.751C1.34002 51.751 0.870029 51.561 0.530029 51.221C0.200029 50.891 0 50.421 0 49.961C0 49.481 0.200029 49.031 0.530029 48.701C1.19003 48.031 2.39001 48.031 3.07001 48.691C3.40001 49.031 3.60001 49.491 3.60001 49.961C3.60001 50.421 3.40001 50.891 3.07001 51.221C2.73001 51.561 2.28002 51.751 1.80002 51.751Z" fill="#D1D1D1"/>
<path d="M91.35 49.9602C91.35 48.9602 92.16 48.1602 93.15 48.1702C94.15 48.1702 94.94 48.9702 94.94 49.9602C94.94 50.9502 94.14 51.7502 93.15 51.7502C92.16 51.7502 91.35 50.9402 91.35 49.9602ZM82.22 49.9602C82.22 48.9702 83.02 48.1702 84.01 48.1702C85 48.1702 85.81 48.9702 85.81 49.9602C85.81 50.9502 85 51.7502 84.01 51.7502C83.02 51.7502 82.22 50.9402 82.22 49.9602ZM73.08 49.9602C73.08 48.9602 73.88 48.1702 74.87 48.1702C75.86 48.1702 76.66 48.9702 76.66 49.9602C76.66 50.9502 75.85 51.7502 74.87 51.7502C73.88 51.7502 73.08 50.9402 73.08 49.9602ZM63.95 49.9602C63.95 48.9602 64.75 48.1602 65.74 48.1702C66.73 48.1702 67.54 48.9702 67.53 49.9602C67.53 50.9502 66.72 51.7502 65.74 51.7502C64.75 51.7502 63.96 50.9402 63.95 49.9602ZM54.81 49.9602C54.81 48.9602 55.62 48.1702 56.6 48.1702C57.6 48.1702 58.4 48.9702 58.4 49.9602C58.4 50.9502 57.59 51.7502 56.6 51.7502C55.62 51.7502 54.81 50.9402 54.81 49.9602ZM45.68 49.9602C45.68 48.9602 46.49 48.1602 47.47 48.1602C48.46 48.1602 49.26 48.9602 49.26 49.9502C49.26 50.9402 48.46 51.7402 47.46 51.7402C46.49 51.7502 45.68 50.9402 45.68 49.9602ZM36.55 49.9602C36.55 48.9602 37.36 48.1702 38.34 48.1702C39.34 48.1702 40.13 48.9702 40.14 49.9602C40.14 50.9502 39.34 51.7502 38.35 51.7502C37.35 51.7502 36.54 50.9402 36.55 49.9602ZM27.41 49.9602C27.41 48.9602 28.21 48.1702 29.21 48.1702C30.2 48.1702 31 48.9702 31 49.9602C31 50.9502 30.19 51.7502 29.2 51.7502C28.21 51.7502 27.41 50.9402 27.41 49.9602ZM18.28 49.9602C18.28 48.9602 19.08 48.1602 20.08 48.1702C21.06 48.1702 21.87 48.9702 21.87 49.9602C21.87 50.9502 21.06 51.7502 20.08 51.7502C19.08 51.7502 18.28 50.9402 18.28 49.9602ZM9.15002 49.9602C9.15002 48.9702 9.95 48.1702 10.94 48.1702C11.93 48.1702 12.73 48.9702 12.73 49.9602C12.73 50.9502 11.92 51.7502 10.94 51.7502C9.95 51.7502 9.15002 50.9402 9.15002 49.9602Z" fill="#D1D1D1"/>
<path d="M102.28 51.7498C101.82 51.7498 101.35 51.5598 101.01 51.2198C100.68 50.8898 100.49 50.4298 100.49 49.9598C100.49 49.4798 100.68 49.0298 101.01 48.6998C101.68 48.0298 102.88 48.0298 103.55 48.6998C103.88 49.0298 104.07 49.4898 104.07 49.9598C104.07 50.4198 103.88 50.8898 103.55 51.2198C103.22 51.5598 102.75 51.7498 102.28 51.7498Z" fill="#D1D1D1"/>
<path d="M1.81003 61.3209C1.33003 61.3209 0.870009 61.1209 0.540009 60.7909C0.210009 60.4609 0.0100098 59.9909 0.0100098 59.5209C0.0100098 59.0409 0.210009 58.5809 0.540009 58.2509C1.21001 57.5909 2.40002 57.5909 3.08002 58.2509C3.41002 58.5809 3.60001 59.0509 3.60001 59.5209C3.60001 59.9909 3.41002 60.4509 3.08002 60.7909C2.73002 61.1309 2.28003 61.3209 1.81003 61.3209Z" fill="#D1D1D1"/>
<path d="M91.35 59.5302C91.35 58.5302 92.16 57.7402 93.15 57.7402C94.15 57.7402 94.94 58.5402 94.94 59.5402C94.94 60.5202 94.14 61.3302 93.15 61.3302C92.16 61.3202 91.35 60.5202 91.35 59.5302ZM82.22 59.5302C82.22 58.5302 83.03 57.7402 84.01 57.7402C85 57.7402 85.81 58.5402 85.81 59.5302C85.81 60.5202 85 61.3202 84.01 61.3202C83.03 61.3202 82.22 60.5202 82.22 59.5302ZM73.08 59.5302C73.08 58.5302 73.88 57.7402 74.87 57.7402C75.86 57.7402 76.66 58.5402 76.66 59.5302C76.66 60.5202 75.85 61.3302 74.87 61.3202C73.88 61.3202 73.08 60.5102 73.08 59.5302ZM63.95 59.5302C63.95 58.5302 64.75 57.7402 65.74 57.7402C66.73 57.7402 67.53 58.5402 67.53 59.5402C67.53 60.5202 66.72 61.3302 65.74 61.3302C64.75 61.3202 63.95 60.5102 63.95 59.5302ZM54.81 59.5302C54.81 58.5302 55.62 57.7402 56.6 57.7402C57.6 57.7402 58.4 58.5402 58.39 59.5302C58.39 60.5202 57.6 61.3302 56.6 61.3202C55.62 61.3202 54.81 60.5202 54.81 59.5302ZM45.68 59.5302C45.68 58.5302 46.49 57.7402 47.47 57.7402C48.47 57.7402 49.26 58.5402 49.26 59.5302C49.26 60.5202 48.46 61.3302 47.47 61.3202C46.49 61.3202 45.68 60.5202 45.68 59.5302ZM36.55 59.5302C36.55 58.5302 37.36 57.7402 38.34 57.7402C39.34 57.7402 40.14 58.5402 40.13 59.5302C40.13 60.5202 39.33 61.3202 38.34 61.3202C37.35 61.3202 36.55 60.5102 36.55 59.5302ZM27.41 59.5302C27.41 58.5302 28.21 57.7402 29.2 57.7402C30.19 57.7402 31 58.5402 31 59.5302C31 60.5202 30.19 61.3202 29.21 61.3202C28.21 61.3202 27.41 60.5202 27.41 59.5302ZM18.28 59.5302C18.28 58.5302 19.08 57.7402 20.07 57.7402C21.06 57.7402 21.86 58.5402 21.86 59.5302C21.86 60.5202 21.05 61.3202 20.07 61.3202C19.08 61.3202 18.28 60.5202 18.28 59.5302ZM9.15002 59.5302C9.15002 58.5302 9.95 57.7402 10.94 57.7402C11.93 57.7402 12.73 58.5402 12.73 59.5302C12.73 60.5202 11.92 61.3302 10.94 61.3202C9.95 61.3202 9.15002 60.5202 9.15002 59.5302Z" fill="#D1D1D1"/>
<path d="M102.28 61.3209C101.82 61.3209 101.36 61.1209 101.01 60.7909C100.68 60.4609 100.48 59.9909 100.48 59.5209C100.48 59.0509 100.68 58.5909 101.01 58.2509C101.68 57.5909 102.88 57.5909 103.55 58.2509C103.88 58.5909 104.07 59.0509 104.07 59.5209C104.07 59.9909 103.88 60.4509 103.55 60.7909C103.21 61.1309 102.75 61.3209 102.28 61.3209Z" fill="#D1D1D1"/>
<path d="M1.80002 71.1892C1.33002 71.1892 0.870029 70.9992 0.530029 70.6692C0.200029 70.3392 0.0100098 69.8692 0.0100098 69.3992C0.0100098 68.9192 0.200029 68.4692 0.530029 68.1392C1.20003 67.4692 2.40001 67.4692 3.07001 68.1392C3.40001 68.4692 3.59003 68.9392 3.59003 69.4092C3.59003 69.8792 3.40001 70.3392 3.07001 70.6792C2.74001 70.9992 2.28002 71.1892 1.80002 71.1892Z" fill="#D1D1D1"/>
<path d="M91.35 69.3996C91.35 68.4096 92.16 67.6096 93.15 67.5996C94.15 67.5996 94.94 68.4096 94.94 69.3996C94.94 70.3896 94.14 71.1896 93.15 71.1896C92.16 71.1896 91.35 70.3896 91.35 69.3996ZM82.22 69.3996C82.22 68.4096 83.03 67.6096 84.01 67.6096C85 67.6096 85.81 68.4196 85.81 69.3996C85.81 70.3996 85 71.1896 84.01 71.1896C83.03 71.1896 82.22 70.3896 82.22 69.3996ZM73.08 69.3996C73.08 68.4096 73.88 67.6096 74.87 67.6096C75.86 67.6096 76.67 68.4196 76.66 69.3996C76.66 70.3896 75.85 71.1896 74.87 71.1896C73.88 71.1896 73.08 70.3896 73.08 69.3996ZM63.95 69.3996C63.95 68.4096 64.75 67.5996 65.74 67.6096C66.73 67.6096 67.54 68.4196 67.53 69.3996C67.53 70.3896 66.73 71.1896 65.74 71.1896C64.75 71.1896 63.95 70.3896 63.95 69.3996ZM54.81 69.3996C54.81 68.4096 55.62 67.5996 56.61 67.5996C57.61 67.5996 58.4 68.4096 58.4 69.3896C58.4 70.3896 57.6 71.1896 56.6 71.1796C55.62 71.1896 54.81 70.3896 54.81 69.3996ZM45.68 69.3996C45.68 68.4096 46.49 67.6096 47.47 67.6096C48.47 67.6096 49.27 68.4196 49.27 69.4096C49.27 70.3996 48.47 71.1996 47.48 71.1996C46.49 71.1896 45.68 70.3896 45.68 69.3996ZM36.55 69.3996C36.55 68.4096 37.36 67.5996 38.34 67.5996C39.34 67.5996 40.14 68.4096 40.13 69.3896C40.13 70.3896 39.33 71.1796 38.33 71.1796C37.36 71.1896 36.55 70.3896 36.55 69.3996ZM27.41 69.3996C27.41 68.4096 28.22 67.6096 29.2 67.6096C30.19 67.6096 31 68.4196 31 69.4096C31 70.3996 30.19 71.1996 29.21 71.1996C28.22 71.1896 27.41 70.3896 27.41 69.3996ZM18.28 69.3996C18.28 68.4096 19.08 67.6096 20.07 67.6096C21.06 67.6096 21.86 68.4196 21.86 69.3996C21.86 70.3996 21.05 71.1896 20.07 71.1896C19.08 71.1896 18.28 70.3896 18.28 69.3996ZM9.15002 69.3996C9.15002 68.4096 9.95 67.5996 10.94 67.6096C11.93 67.6096 12.73 68.4196 12.73 69.3996C12.73 70.3896 11.92 71.1896 10.94 71.1896C9.95 71.1896 9.15002 70.3896 9.15002 69.3996Z" fill="#D1D1D1"/>
<path d="M102.28 71.1896C101.81 71.1896 101.35 70.9996 101.01 70.6696C100.68 70.3296 100.48 69.8696 100.48 69.3896C100.48 68.9296 100.68 68.4596 101.01 68.1296C101.68 67.4596 102.88 67.4696 103.55 68.1296C103.88 68.4596 104.08 68.9296 104.08 69.3896C104.08 69.8596 103.88 70.3196 103.55 70.6596C103.22 70.9996 102.75 71.1896 102.28 71.1896Z" fill="#D1D1D1"/>
<path d="M1.80026 81.7001C1.33026 81.7001 0.870273 81.5101 0.530273 81.1701C0.200273 80.8401 0.0102539 80.3801 0.0102539 79.9101C0.0102539 79.4401 0.200273 78.9801 0.530273 78.6501C1.19027 77.9801 2.41025 77.9701 3.07025 78.6401C3.40025 78.9801 3.59027 79.4501 3.59027 79.9101C3.59027 80.3801 3.40025 80.8401 3.07025 81.1701C2.74025 81.5101 2.28026 81.7001 1.80026 81.7001Z" fill="#D1D1D1"/>
<path d="M91.3503 79.9094C91.3503 78.9094 92.1603 78.1094 93.1503 78.1094C94.1503 78.1094 94.9402 78.9094 94.9402 79.9094C94.9402 80.8994 94.1403 81.6994 93.1503 81.7094C92.1603 81.6994 91.3503 80.8894 91.3503 79.9094ZM82.2202 79.9094C82.2202 78.9094 83.0303 78.1094 84.0103 78.1194C85.0103 78.1194 85.8103 78.9194 85.8103 79.9094C85.8103 80.8894 85.0103 81.6994 84.0103 81.6994C83.0303 81.6994 82.2202 80.8894 82.2202 79.9094ZM73.0803 79.9094C73.0803 78.9094 73.8803 78.1094 74.8703 78.1094C75.8603 78.1094 76.6603 78.9094 76.6703 79.9094C76.6703 80.8994 75.8603 81.6994 74.8703 81.7094C73.8803 81.6994 73.0803 80.8894 73.0803 79.9094ZM63.9603 79.9094C63.9603 78.9094 64.7602 78.1094 65.7502 78.1094C66.7402 78.1094 67.5403 78.9094 67.5403 79.9094C67.5403 80.8994 66.7302 81.6994 65.7502 81.6994C64.7502 81.6994 63.9503 80.8894 63.9603 79.9094ZM54.8203 79.9094C54.8203 78.9094 55.6203 78.1094 56.6003 78.1094C57.6003 78.1094 58.4003 78.9094 58.4003 79.9094C58.4003 80.8994 57.5903 81.6994 56.6003 81.6994C55.6203 81.6994 54.8203 80.8894 54.8203 79.9094ZM45.6803 79.9094C45.6803 78.9094 46.4902 78.1094 47.4702 78.1094C48.4702 78.1094 49.2703 78.9094 49.2703 79.9094C49.2703 80.8994 48.4703 81.6994 47.4803 81.6994C46.4903 81.6994 45.6803 80.8894 45.6803 79.9094ZM36.5503 79.9094C36.5503 78.9094 37.3603 78.1094 38.3403 78.1094C39.3303 78.1094 40.1302 78.9094 40.1302 79.9094C40.1302 80.8994 39.3303 81.7094 38.3303 81.7094C37.3603 81.6994 36.5503 80.8894 36.5503 79.9094ZM27.4102 79.9094C27.4102 78.9094 28.2203 78.1194 29.2003 78.1094C30.1903 78.1094 30.9902 78.9094 31.0002 79.9094C31.0002 80.8994 30.1903 81.6994 29.2103 81.6994C28.2203 81.6994 27.4102 80.8894 27.4102 79.9094ZM18.2803 79.9094C18.2803 78.9094 19.0803 78.1194 20.0703 78.1194C21.0603 78.1194 21.8603 78.9194 21.8603 79.9094C21.8603 80.8994 21.0503 81.6994 20.0703 81.6994C19.0803 81.6994 18.2803 80.8894 18.2803 79.9094ZM9.15027 79.9094C9.15027 78.9094 9.95026 78.1094 10.9503 78.1094C11.9403 78.1094 12.7403 78.9094 12.7403 79.9094C12.7403 80.8994 11.9302 81.7094 10.9402 81.7094C9.95025 81.6994 9.15027 80.8894 9.15027 79.9094Z" fill="#D1D1D1"/>
<path d="M102.28 81.6999C101.81 81.6999 101.35 81.5099 101.01 81.1699C100.68 80.8399 100.48 80.3699 100.48 79.9099C100.48 79.4399 100.68 78.9799 101.01 78.6499C101.67 77.9699 102.89 77.9699 103.55 78.6399C103.88 78.9799 104.08 79.4499 104.08 79.9099C104.08 80.3799 103.88 80.8399 103.55 81.1699C103.22 81.5099 102.75 81.6999 102.28 81.6999Z" fill="#D1D1D1"/>
<path d="M1.80026 91.5806C1.33026 91.5806 0.870273 91.3806 0.530273 91.0506C0.200273 90.7206 0.0102539 90.2506 0.0102539 89.7806C0.0102539 89.3006 0.200273 88.8406 0.530273 88.5106C1.20027 87.8506 2.40025 87.8506 3.07025 88.5106C3.40025 88.8506 3.59027 89.3106 3.59027 89.7806C3.59027 90.2506 3.40025 90.7106 3.07025 91.0506C2.73025 91.3806 2.28026 91.5806 1.80026 91.5806Z" fill="#D1D1D1"/>
<path d="M91.3503 89.7803C91.3503 88.7803 92.1603 87.9903 93.1503 87.9903C94.1403 87.9903 94.9402 88.7903 94.9402 89.7803C94.9402 90.7703 94.1403 91.5803 93.1503 91.5803C92.1603 91.5803 91.3503 90.7703 91.3503 89.7803ZM82.2202 89.7803C82.2202 88.7803 83.0303 87.9803 84.0103 87.9903C85.0003 87.9903 85.8103 88.7903 85.8103 89.7803C85.8103 90.7603 85.0003 91.5703 84.0103 91.5703C83.0303 91.5803 82.2202 90.7703 82.2202 89.7803ZM73.0803 89.7803C73.0803 88.7803 73.8803 87.9903 74.8703 87.9903C75.8603 87.9903 76.6602 88.7903 76.6602 89.7803C76.6602 90.7703 75.8503 91.5803 74.8703 91.5803C73.8803 91.5803 73.0803 90.7703 73.0803 89.7803ZM63.9503 89.7803C63.9503 88.7803 64.7503 87.9903 65.7403 87.9903C66.7303 87.9903 67.5303 88.7903 67.5303 89.7803C67.5303 90.7703 66.7203 91.5803 65.7403 91.5803C64.7503 91.5803 63.9503 90.7703 63.9503 89.7803ZM54.8203 89.7803C54.8203 88.7803 55.6203 87.9903 56.6003 87.9903C57.6003 87.9903 58.4003 88.7903 58.4003 89.7803C58.4003 90.7703 57.6003 91.5803 56.6103 91.5803C55.6203 91.5803 54.8203 90.7703 54.8203 89.7803ZM45.6803 89.7803C45.6803 88.7803 46.4902 87.9903 47.4702 87.9903C48.4702 87.9903 49.2603 88.7903 49.2603 89.7803C49.2603 90.7703 48.4602 91.5803 47.4702 91.5803C46.4902 91.5803 45.6803 90.7703 45.6803 89.7803ZM36.5503 89.7803C36.5503 88.7803 37.3603 87.9903 38.3403 87.9903C39.3403 87.9903 40.1303 88.7903 40.1403 89.7903C40.1403 90.7703 39.3403 91.5803 38.3503 91.5803C37.3503 91.5803 36.5403 90.7703 36.5503 89.7803ZM27.4102 89.7903C27.4102 88.7903 28.2103 87.9903 29.2103 87.9903C30.2003 87.9903 31.0002 88.7903 31.0002 89.7803C31.0002 90.7703 30.1903 91.5803 29.2003 91.5803C28.2103 91.5803 27.4102 90.7703 27.4102 89.7903ZM18.2803 89.7903C18.2803 88.7903 19.0803 87.9903 20.0703 87.9903C21.0603 87.9903 21.8603 88.7903 21.8603 89.7803C21.8603 90.7703 21.0503 91.5803 20.0703 91.5803C19.0803 91.5803 18.2803 90.7703 18.2803 89.7903ZM9.15027 89.7803C9.15027 88.7803 9.95025 87.9903 10.9402 87.9903C11.9302 87.9903 12.7303 88.7903 12.7303 89.7803C12.7303 90.7703 11.9202 91.5803 10.9402 91.5803C9.95025 91.5803 9.15027 90.7703 9.15027 89.7803Z" fill="#D1D1D1"/>
<path d="M102.28 91.5805C101.82 91.5805 101.35 91.3805 101.01 91.0505C100.68 90.7205 100.48 90.2505 100.48 89.7805C100.48 89.3005 100.68 88.8505 101.01 88.5105C101.68 87.8405 102.88 87.8505 103.55 88.5105C103.88 88.8505 104.08 89.3105 104.08 89.7805C104.08 90.2505 103.88 90.7105 103.55 91.0505C103.22 91.3805 102.75 91.5805 102.28 91.5805Z" fill="#D1D1D1"/>
<path d="M1.81027 101.139C1.33027 101.139 0.880253 100.949 0.540253 100.619C0.210253 100.289 0.0102539 99.819 0.0102539 99.349C0.0102539 98.879 0.210253 98.419 0.540253 98.079C1.21025 97.419 2.41026 97.419 3.08026 98.079C3.41026 98.409 3.60025 98.879 3.60025 99.339C3.60025 99.819 3.41026 100.279 3.08026 100.609C2.73026 100.949 2.28027 101.139 1.81027 101.139Z" fill="#D1D1D1"/>
<path d="M91.3503 99.3486C91.3503 98.3586 92.1603 97.5586 93.1503 97.5586C94.1403 97.5586 94.9402 98.3686 94.9402 99.3486C94.9402 100.349 94.1403 101.139 93.1503 101.139C92.1603 101.139 91.3503 100.339 91.3503 99.3486ZM82.2202 99.3486C82.2202 98.3586 83.0303 97.5586 84.0103 97.5586C85.0003 97.5586 85.8103 98.3686 85.8103 99.3486C85.8103 100.339 85.0003 101.149 84.0103 101.149C83.0303 101.139 82.2202 100.339 82.2202 99.3486ZM73.0803 99.3486C73.0803 98.3586 73.8803 97.5586 74.8703 97.5586C75.8603 97.5586 76.6603 98.3686 76.6703 99.3486C76.6703 100.339 75.8603 101.139 74.8703 101.149C73.8803 101.139 73.0903 100.339 73.0803 99.3486ZM63.9603 99.3486C63.9603 98.3586 64.7602 97.5586 65.7502 97.5586C66.7402 97.5586 67.5403 98.3686 67.5403 99.3486C67.5403 100.349 66.7302 101.139 65.7502 101.139C64.7502 101.139 63.9503 100.339 63.9603 99.3486ZM54.8103 99.3486C54.8103 98.3586 55.6203 97.5586 56.6003 97.5586C57.6003 97.5586 58.4003 98.3686 58.4003 99.3486C58.4003 100.349 57.6003 101.139 56.6103 101.139C55.6203 101.139 54.8103 100.339 54.8103 99.3486ZM45.6803 99.3486C45.6803 98.3586 46.4902 97.5586 47.4702 97.5586C48.4702 97.5586 49.2603 98.3686 49.2603 99.3586C49.2603 100.349 48.4602 101.149 47.4702 101.149C46.4902 101.139 45.6803 100.339 45.6803 99.3486ZM36.5503 99.3486C36.5503 98.3586 37.3603 97.5586 38.3403 97.5586C39.3403 97.5586 40.1403 98.3686 40.1403 99.3486C40.1403 100.349 39.3403 101.139 38.3503 101.139C37.3503 101.139 36.5503 100.339 36.5503 99.3486ZM27.4102 99.3486C27.4102 98.3586 28.2203 97.5586 29.2003 97.5586C30.1903 97.5586 31.0003 98.3686 30.9903 99.3486C30.9903 100.339 30.1803 101.149 29.2003 101.139C28.2203 101.139 27.4102 100.339 27.4102 99.3486ZM18.2803 99.3486C18.2803 98.3586 19.0803 97.5586 20.0803 97.5586C21.0703 97.5586 21.8703 98.3686 21.8703 99.3486C21.8703 100.349 21.0603 101.149 20.0703 101.149C19.0803 101.139 18.2803 100.339 18.2803 99.3486ZM9.15027 99.3486C9.15027 98.3586 9.95025 97.5586 10.9402 97.5586C11.9302 97.5586 12.7303 98.3686 12.7303 99.3486C12.7303 100.339 11.9202 101.139 10.9402 101.149C9.95025 101.139 9.15027 100.339 9.15027 99.3486Z" fill="#D1D1D1"/>
<path d="M102.28 101.139C101.82 101.139 101.34 100.949 101.01 100.619C100.68 100.279 100.48 99.8188 100.48 99.3488C100.48 98.8788 100.68 98.4188 101.01 98.0788C101.68 97.4088 102.88 97.4188 103.55 98.0788C103.88 98.4088 104.07 98.8788 104.07 99.3488C104.07 99.8288 103.88 100.289 103.55 100.619C103.21 100.949 102.75 101.139 102.28 101.139Z" fill="#D1D1D1"/>
</svg>
