<svg width="71" height="82" viewBox="0 0 71 82" fill="none" xmlns="http://www.w3.org/2000/svg">
<path d="M49.1633 42.322L58.8287 48.1701L59.0606 59.4646L69.1372 65.5514C69.578 65.8412 70.1496 65.6472 70.3906 65.2359C70.6829 64.795 70.4909 64.2256 70.0796 63.9869L60.855 58.4286L60.6231 47.1341L50.9577 41.286L50.7258 29.9915L41.0604 24.1434L40.8285 12.8489L30.7519 6.76204C30.3112 6.47228 29.7396 6.66625 29.4985 7.07752C29.2062 7.5184 29.3982 8.0878 29.8095 8.32654L39.0341 13.8849L39.266 25.1794L48.9314 31.0275L49.1633 42.322Z" fill="#D1D1D1"/>
<path d="M42.0882 46.406L51.7536 52.2541L51.9855 63.5485L62.0622 69.6354C62.5029 69.9251 63.0745 69.7312 63.3155 69.3199C63.6079 68.879 63.4158 68.3096 63.0046 68.0709L53.7799 62.5125L53.548 51.2181L43.8827 45.37L43.6507 34.0755L33.9854 28.2274L33.7534 16.9329L23.6768 10.846C23.2361 10.5563 22.6645 10.7502 22.4234 11.1615C22.1311 11.6024 22.3231 12.1718 22.7344 12.4105L31.959 17.9689L32.191 29.2634L41.8563 35.1115L42.0882 46.406Z" fill="#D1D1D1"/>
<path d="M35.0132 50.4919L44.6785 56.34L44.9104 67.6345L54.9871 73.7213C55.4278 74.0111 55.9994 73.8171 56.2404 73.4058C56.5328 72.965 56.3407 72.3956 55.9295 72.1568L46.7048 66.5985L46.4729 55.304L36.8076 49.4559L36.5756 38.1614L26.9103 32.3133L26.6784 21.0188L16.6017 14.932C16.161 14.6422 15.5894 14.8362 15.3483 15.2474C15.056 15.6883 15.248 16.2577 15.6593 16.4965L24.884 22.0548L25.1159 33.3493L34.7812 39.1974L35.0132 50.4919Z" fill="#D1D1D1"/>
<path d="M27.9894 54.5466L37.6547 60.3947L37.8866 71.6892L47.9633 77.776C48.404 78.0658 48.9756 77.8718 49.2166 77.4605C49.509 77.0197 49.3169 76.4502 48.9057 76.2115L39.681 70.6532L39.4491 59.3587L29.7838 53.5106L29.5518 42.2161L19.8865 36.368L19.6546 25.0735L9.57792 18.9867C9.1372 18.6969 8.5656 18.8909 8.32454 19.3021C8.03222 19.743 8.22424 20.3124 8.63551 20.5511L17.8602 26.1095L18.1215 37.455L27.7869 43.3031L27.9894 54.5466Z" fill="#D1D1D1"/>
<path d="M41.4617 38.8102L51.127 44.6583L51.3589 55.9528L61.4356 62.0397C61.8763 62.3294 62.4479 62.1355 62.6889 61.7242C62.9813 61.2833 62.7892 60.7139 62.378 60.4752L53.1533 54.9168L52.9214 43.6223L43.2561 37.7742L43.0241 26.4798L33.3588 20.6317L33.1269 9.33716L23.0502 3.25032C22.6095 2.96057 22.0379 3.15453 21.7968 3.5658C21.5558 3.97708 21.6965 4.57608 22.1078 4.81482L31.3325 10.3732L31.5644 21.6677L41.2297 27.5158L41.4617 38.8102Z" fill="white"/>
<path d="M34.3866 42.8942L44.0519 48.7423L44.2839 60.0368L54.3605 66.1237C54.8012 66.4134 55.3728 66.2195 55.6139 65.8082C55.9062 65.3673 55.7142 64.7979 55.3029 64.5592L46.0783 59.0008L45.8463 47.7063L36.181 41.8582L35.9491 30.5637L26.2837 24.7156L26.0518 13.4211L15.9751 7.33431C15.5344 7.04455 14.9628 7.23851 14.7218 7.64979C14.4294 8.09067 14.6215 8.66006 15.0327 8.8988L24.2574 14.4571L24.4893 25.7516L34.1547 31.5997L34.3866 42.8942Z" fill="white"/>
<path d="M27.3115 46.9802L36.9769 52.8283L37.2088 64.1228L47.2854 70.2096C47.7261 70.4994 48.2977 70.3054 48.5388 69.8941C48.8311 69.4532 48.6391 68.8838 48.2278 68.6451L39.0032 63.0868L38.7713 51.7923L29.1059 45.9442L28.874 34.6497L19.2086 28.8016L18.9767 17.5071L8.90007 11.4202C8.45934 11.1305 7.88774 11.3244 7.64669 11.7357C7.35436 12.1766 7.54639 12.746 7.95766 12.9847L17.1823 18.5431L17.4142 29.8376L27.0796 35.6857L27.3115 46.9802Z" fill="white"/>
<path d="M20.2364 51.0633L29.9018 56.9114L30.1337 68.2059L40.2103 74.2927C40.6511 74.5825 41.2227 74.3885 41.4637 73.9772C41.756 73.5364 41.564 72.967 41.1527 72.7282L31.9281 67.1699L31.6962 55.8754L22.0821 49.9977L21.8502 38.7032L12.1848 32.8551L11.9529 21.5606L1.87626 15.4738C1.41372 15.2646 0.863935 15.378 0.57161 15.8188C0.330554 16.2301 0.47131 16.8291 0.882578 17.0679L10.1072 22.6262L10.3391 33.9207L20.0045 39.7688L20.2364 51.0633Z" fill="white"/>
</svg>
