<svg width="97" height="94" viewBox="0 0 97 94" fill="none" xmlns="http://www.w3.org/2000/svg">
<path d="M91.6643 25.8625C91.6643 24.8625 90.8605 24.0586 89.8605 24.0586C88.8605 24.0586 88.0565 24.8625 88.0565 25.8625C88.0565 26.8624 88.8605 27.6663 89.8605 27.6663C90.8408 27.6663 91.6643 26.8624 91.6643 25.8625Z" fill="#D1D1D1"/>
<path d="M83.8411 30.0781C82.8411 30.0781 82.0372 30.882 82.0372 31.882C82.0372 32.882 82.8411 33.6859 83.8411 33.6859C84.841 33.6859 85.6449 32.882 85.6449 31.882C85.6449 30.9016 84.8214 30.0781 83.8411 30.0781Z" fill="#D1D1D1"/>
<path d="M94.0564 43.9211C94.0564 44.921 94.8604 45.7249 95.8604 45.7249C96.1545 45.7249 96.4093 45.6465 96.6446 45.5289C96.625 44.4113 96.5858 43.3132 96.4878 42.2348C96.2917 42.1564 96.076 42.1172 95.8407 42.1172C94.88 42.1172 94.0564 42.9211 94.0564 43.9211Z" fill="#D1D1D1"/>
<path d="M91.6643 49.9406C91.6643 48.9406 90.8605 48.1367 89.8605 48.1367C88.8605 48.1367 88.0565 48.9406 88.0565 49.9406C88.0565 50.9406 88.8605 51.7445 89.8605 51.7445C90.8408 51.7445 91.6643 50.9406 91.6643 49.9406Z" fill="#D1D1D1"/>
<path d="M89.8406 36.0977C88.8406 36.0977 88.0367 36.9016 88.0367 37.9015C88.0367 38.9015 88.8406 39.7054 89.8406 39.7054C90.8406 39.7054 91.6444 38.9015 91.6444 37.9015C91.664 36.9016 90.8406 36.0977 89.8406 36.0977Z" fill="#D1D1D1"/>
<path d="M83.8411 42.1172C82.8411 42.1172 82.0372 42.9211 82.0372 43.9211C82.0372 44.921 82.8411 45.7249 83.8411 45.7249C84.841 45.7249 85.6449 44.921 85.6449 43.9211C85.6449 42.9211 84.8214 42.1172 83.8411 42.1172Z" fill="#D1D1D1"/>
<path d="M94.9976 33.4703C94.7819 32.6468 94.5271 31.8429 94.2722 31.0586C94.1349 31.3135 94.0564 31.588 94.0564 31.9017C94.0564 32.5684 94.4486 33.1566 94.9976 33.4703Z" fill="#D1D1D1"/>
<path d="M88.1349 73.5074C88.331 73.2132 88.527 72.9191 88.7427 72.625C88.4486 72.8407 88.2329 73.1544 88.1349 73.5074Z" fill="#D1D1D1"/>
<path d="M88.0367 61.9797C88.0367 62.9796 88.8406 63.7835 89.8406 63.7835C90.8406 63.7835 91.6444 62.9796 91.6444 61.9797C91.6444 60.9797 90.8406 60.1758 89.8406 60.1758C88.8602 60.1758 88.0367 60.9797 88.0367 61.9797Z" fill="#D1D1D1"/>
<path d="M95.978 54.1759C95.9388 54.1759 95.8996 54.1562 95.8604 54.1562C94.8604 54.1562 94.0564 54.9601 94.0564 55.9601C94.0564 56.7444 94.5663 57.4111 95.2525 57.6464C95.5466 56.5091 95.7819 55.3523 95.978 54.1759Z" fill="#D1D1D1"/>
<path d="M71.802 6C70.802 6 69.9982 6.8039 69.9982 7.80387C69.9982 8.80385 70.802 9.60775 71.802 9.60775C72.802 9.60775 73.6059 8.80385 73.6059 7.80387C73.6059 6.82351 72.802 6 71.802 6Z" fill="#D1D1D1"/>
<path d="M63.9785 1.80386C63.9785 2.80383 64.7824 3.60773 65.7824 3.60773C66.7823 3.60773 67.5862 2.80383 67.5862 1.80386C67.5862 1.78425 67.5862 1.74505 67.5862 1.72544C66.5862 1.29408 65.5666 0.882305 64.5275 0.509766C64.1745 0.843091 63.9785 1.29407 63.9785 1.80386Z" fill="#D1D1D1"/>
<path d="M59.7633 6C58.7633 6 57.9595 6.8039 57.9595 7.80387C57.9595 8.80385 58.7633 9.60775 59.7633 9.60775C60.7633 9.60775 61.5673 8.80385 61.5673 7.80387C61.5673 6.82351 60.7633 6 59.7633 6Z" fill="#D1D1D1"/>
<path d="M71.802 30.0781C70.802 30.0781 69.9982 30.882 69.9982 31.882C69.9982 32.882 70.802 33.6859 71.802 33.6859C72.802 33.6859 73.6059 32.882 73.6059 31.882C73.6059 30.9016 72.802 30.0781 71.802 30.0781Z" fill="#D1D1D1"/>
<path d="M83.8411 21.6664C84.8373 21.6664 85.6449 20.8587 85.6449 19.8625C85.6449 18.8662 84.8373 18.0586 83.8411 18.0586C82.8448 18.0586 82.0372 18.8662 82.0372 19.8625C82.0372 20.8587 82.8448 21.6664 83.8411 21.6664Z" fill="#D1D1D1"/>
<path d="M71.802 21.6664C72.802 21.6664 73.6059 20.8625 73.6059 19.8625C73.6059 18.8625 72.802 18.0586 71.802 18.0586C70.802 18.0586 69.9982 18.8625 69.9982 19.8625C69.9982 20.8429 70.802 21.6664 71.802 21.6664Z" fill="#D1D1D1"/>
<path d="M65.7824 27.6663C66.7823 27.6663 67.5862 26.8624 67.5862 25.8625C67.5862 24.8625 66.7823 24.0586 65.7824 24.0586C64.7824 24.0586 63.9785 24.8625 63.9785 25.8625C63.9785 26.8624 64.7824 27.6663 65.7824 27.6663Z" fill="#D1D1D1"/>
<path d="M79.6254 25.8625C79.6254 24.8625 78.8215 24.0586 77.8215 24.0586C76.8216 24.0586 76.0177 24.8625 76.0177 25.8625C76.0177 26.8624 76.8216 27.6663 77.8215 27.6663C78.8019 27.6663 79.6254 26.8624 79.6254 25.8625Z" fill="#D1D1D1"/>
<path d="M65.7824 15.6468C66.7823 15.6468 67.5862 14.8429 67.5862 13.8429C67.5862 12.843 66.7823 12.0391 65.7824 12.0391C64.7824 12.0391 63.9785 12.843 63.9785 13.8429C63.9785 14.8233 64.7824 15.6468 65.7824 15.6468Z" fill="#D1D1D1"/>
<path d="M76.0177 13.8429C76.0177 14.8429 76.8216 15.6468 77.8215 15.6468C78.8215 15.6468 79.6254 14.8429 79.6254 13.8429C79.6254 12.843 78.8215 12.0391 77.8215 12.0391C76.8216 12.0391 76.0177 12.843 76.0177 13.8429Z" fill="#D1D1D1"/>
<path d="M59.7633 30.0781C58.7633 30.0781 57.9595 30.882 57.9595 31.882C57.9595 32.882 58.7633 33.6859 59.7633 33.6859C60.7633 33.6859 61.5673 32.882 61.5673 31.882C61.5673 30.9016 60.7633 30.0781 59.7633 30.0781Z" fill="#D1D1D1"/>
<path d="M71.802 54.1562C70.802 54.1562 69.9982 54.9601 69.9982 55.9601C69.9982 56.9601 70.802 57.764 71.802 57.764C72.802 57.764 73.6059 56.9601 73.6059 55.9601C73.6059 54.9601 72.802 54.1562 71.802 54.1562Z" fill="#D1D1D1"/>
<path d="M71.802 42.1172C70.802 42.1172 69.9982 42.9211 69.9982 43.9211C69.9982 44.921 70.802 45.7249 71.802 45.7249C72.802 45.7249 73.6059 44.921 73.6059 43.9211C73.6059 42.9211 72.802 42.1172 71.802 42.1172Z" fill="#D1D1D1"/>
<path d="M67.5862 49.9406C67.5862 48.9406 66.7823 48.1367 65.7824 48.1367C64.7824 48.1367 63.9785 48.9406 63.9785 49.9406C63.9785 50.9406 64.7824 51.7445 65.7824 51.7445C66.7823 51.7445 67.5862 50.9406 67.5862 49.9406Z" fill="#D1D1D1"/>
<path d="M77.8215 48.1367C76.8216 48.1367 76.0177 48.9406 76.0177 49.9406C76.0177 50.9406 76.8216 51.7445 77.8215 51.7445C78.8215 51.7445 79.6254 50.9406 79.6254 49.9406C79.6254 48.9406 78.8019 48.1367 77.8215 48.1367Z" fill="#D1D1D1"/>
<path d="M65.7824 36.0977C64.7824 36.0977 63.9785 36.9016 63.9785 37.9015C63.9785 38.9015 64.7824 39.7054 65.7824 39.7054C66.7823 39.7054 67.5862 38.9015 67.5862 37.9015C67.5862 36.9016 66.7823 36.0977 65.7824 36.0977Z" fill="#D1D1D1"/>
<path d="M77.8215 36.0977C76.8216 36.0977 76.0177 36.9016 76.0177 37.9015C76.0177 38.9015 76.8216 39.7054 77.8215 39.7054C78.8215 39.7054 79.6254 38.9015 79.6254 37.9015C79.6254 36.9016 78.8019 36.0977 77.8215 36.0977Z" fill="#D1D1D1"/>
<path d="M59.7633 54.1562C58.7633 54.1562 57.9595 54.9601 57.9595 55.9601C57.9595 56.9601 58.7633 57.764 59.7633 57.764C60.7633 57.764 61.5673 56.9601 61.5673 55.9601C61.5673 54.9601 60.7633 54.1562 59.7633 54.1562Z" fill="#D1D1D1"/>
<path d="M83.8409 69.8031C84.8409 69.8031 85.6448 68.9992 85.6448 67.9992C85.6448 66.9992 84.8409 66.1953 83.8409 66.1953C82.841 66.1953 82.0371 66.9992 82.0371 67.9992C82.0175 68.9992 82.841 69.8031 83.8409 69.8031Z" fill="#D1D1D1"/>
<path d="M71.802 69.8031C72.802 69.8031 73.6059 68.9992 73.6059 67.9992C73.6059 66.9992 72.802 66.1953 71.802 66.1953C70.802 66.1953 69.9982 66.9992 69.9982 67.9992C69.9982 68.9992 70.802 69.8031 71.802 69.8031Z" fill="#D1D1D1"/>
<path d="M65.7824 72.2148C64.7824 72.2148 63.9785 73.0187 63.9785 74.0187C63.9785 75.0187 64.7824 75.8226 65.7824 75.8226C66.7823 75.8226 67.5862 75.0187 67.5862 74.0187C67.5862 73.0187 66.7823 72.2148 65.7824 72.2148Z" fill="#D1D1D1"/>
<path d="M79.6254 74.0187C79.6254 73.0187 78.8215 72.2148 77.8215 72.2148C76.8216 72.2148 76.0177 73.0187 76.0177 74.0187C76.0177 75.0187 76.8216 75.8226 77.8215 75.8226C78.8019 75.8226 79.6254 75.0187 79.6254 74.0187Z" fill="#D1D1D1"/>
<path d="M65.7824 60.1758C64.7824 60.1758 63.9785 60.9797 63.9785 61.9797C63.9785 62.9796 64.7824 63.7835 65.7824 63.7835C66.7823 63.7835 67.5862 62.9796 67.5862 61.9797C67.5862 60.9797 66.7823 60.1758 65.7824 60.1758Z" fill="#D1D1D1"/>
<path d="M77.8215 60.1758C76.8216 60.1758 76.0177 60.9797 76.0177 61.9797C76.0177 62.9796 76.8216 63.7835 77.8215 63.7835C78.8215 63.7835 79.6254 62.9796 79.6254 61.9797C79.6254 60.9797 78.8019 60.1758 77.8215 60.1758Z" fill="#D1D1D1"/>
<path d="M59.7633 66.1953C58.7633 66.1953 57.9595 66.9992 57.9595 67.9992C57.9595 68.9992 58.7633 69.8031 59.7633 69.8031C60.7633 69.8031 61.5673 68.9992 61.5673 67.9992C61.5673 66.9992 60.7633 66.1953 59.7633 66.1953Z" fill="#D1D1D1"/>
<path d="M83.8411 57.764C84.841 57.764 85.6449 56.9601 85.6449 55.9601C85.6449 54.9601 84.841 54.1562 83.8411 54.1562C82.8411 54.1562 82.0372 54.9601 82.0372 55.9601C82.0372 56.9601 82.8411 57.764 83.8411 57.764Z" fill="#D1D1D1"/>
<path d="M63.9785 86.0558C63.9785 87.0558 64.7824 87.8597 65.7824 87.8597C66.7823 87.8597 67.5862 87.0558 67.5862 86.0558C67.5862 85.0559 66.7823 84.252 65.7824 84.252C64.7824 84.252 63.9785 85.0559 63.9785 86.0558Z" fill="#D1D1D1"/>
<path d="M76.0569 85.6637C76.7039 85.2127 77.3314 84.7421 77.9589 84.2715C77.9196 84.2715 77.8608 84.252 77.8216 84.252C76.9589 84.252 76.2334 84.8598 76.0569 85.6637Z" fill="#D1D1D1"/>
<path d="M59.7633 90.2715C58.7633 90.2715 57.9595 91.0754 57.9595 92.0754C57.9595 92.5655 58.1556 93.0165 58.4889 93.3499C59.5085 93.1342 60.5084 92.8793 61.4888 92.6048C61.5476 92.4479 61.5673 92.2714 61.5673 92.095C61.5673 91.0754 60.7633 90.2715 59.7633 90.2715Z" fill="#D1D1D1"/>
<path d="M84.3314 78.3109C84.1745 78.2717 83.998 78.2324 83.8215 78.2324C82.8216 78.2324 82.0177 79.0363 82.0177 80.0363C82.0177 80.2324 82.0569 80.4284 82.1157 80.6245C82.9 79.8794 83.6255 79.1148 84.3314 78.3109Z" fill="#D1D1D1"/>
<path d="M71.802 81.8402C72.802 81.8402 73.6059 81.0363 73.6059 80.0363C73.6059 79.0363 72.802 78.2324 71.802 78.2324C70.802 78.2324 69.9982 79.0363 69.9982 80.0363C69.9982 81.0363 70.802 81.8402 71.802 81.8402Z" fill="#D1D1D1"/>
<path d="M47.7241 6C46.7242 6 45.9202 6.8039 45.9202 7.80387C45.9202 8.80385 46.7242 9.60775 47.7241 9.60775C48.7241 9.60775 49.528 8.80385 49.528 7.80387C49.528 6.82351 48.7241 6 47.7241 6Z" fill="#D1D1D1"/>
<path d="M43.5089 1.80387C43.5089 0.803898 42.7051 0 41.7051 0C40.7051 0 39.9011 0.803898 39.9011 1.80387C39.9011 2.80385 40.7051 3.60775 41.7051 3.60775C42.7051 3.60775 43.5089 2.78424 43.5089 1.80387Z" fill="#D1D1D1"/>
<path d="M55.5476 1.80387C55.5476 0.803898 54.7436 0 53.7437 0C52.7437 0 51.9398 0.803898 51.9398 1.80387C51.9398 2.80385 52.7437 3.60775 53.7437 3.60775C54.7436 3.60775 55.5476 2.78424 55.5476 1.80387Z" fill="#D1D1D1"/>
<path d="M59.7633 21.6664C60.7633 21.6664 61.5673 20.8625 61.5673 19.8625C61.5673 18.8625 60.7633 18.0586 59.7633 18.0586C58.7633 18.0586 57.9595 18.8625 57.9595 19.8625C57.9595 20.8429 58.7633 21.6664 59.7633 21.6664Z" fill="#D1D1D1"/>
<path d="M47.7241 21.6664C48.7241 21.6664 49.528 20.8625 49.528 19.8625C49.528 18.8625 48.7241 18.0586 47.7241 18.0586C46.7242 18.0586 45.9202 18.8625 45.9202 19.8625C45.9202 20.8429 46.7242 21.6664 47.7241 21.6664Z" fill="#D1D1D1"/>
<path d="M41.7051 27.6663C42.7051 27.6663 43.5089 26.8624 43.5089 25.8625C43.5089 24.8625 42.7051 24.0586 41.7051 24.0586C40.7051 24.0586 39.9011 24.8625 39.9011 25.8625C39.9011 26.8624 40.7051 27.6663 41.7051 27.6663Z" fill="#D1D1D1"/>
<path d="M53.7437 27.6663C54.7436 27.6663 55.5476 26.8624 55.5476 25.8625C55.5476 24.8625 54.7436 24.0586 53.7437 24.0586C52.7437 24.0586 51.9398 24.8625 51.9398 25.8625C51.9398 26.8624 52.7437 27.6663 53.7437 27.6663Z" fill="#D1D1D1"/>
<path d="M41.7051 15.6468C42.7051 15.6468 43.5089 14.8429 43.5089 13.8429C43.5089 12.843 42.7051 12.0391 41.7051 12.0391C40.7051 12.0391 39.9011 12.843 39.9011 13.8429C39.9011 14.8233 40.7051 15.6468 41.7051 15.6468Z" fill="#D1D1D1"/>
<path d="M53.7437 15.6468C54.7436 15.6468 55.5476 14.8429 55.5476 13.8429C55.5476 12.843 54.7436 12.0391 53.7437 12.0391C52.7437 12.0391 51.9398 12.843 51.9398 13.8429C51.9398 14.8233 52.7437 15.6468 53.7437 15.6468Z" fill="#D1D1D1"/>
<path d="M47.7241 54.1562C46.7242 54.1562 45.9202 54.9601 45.9202 55.9601C45.9202 56.9601 46.7242 57.764 47.7241 57.764C48.7241 57.764 49.528 56.9601 49.528 55.9601C49.528 54.9601 48.7241 54.1562 47.7241 54.1562Z" fill="#D1D1D1"/>
<path d="M59.7633 45.7249C60.7633 45.7249 61.5673 44.921 61.5673 43.9211C61.5673 42.9211 60.7633 42.1172 59.7633 42.1172C58.7633 42.1172 57.9595 42.9211 57.9595 43.9211C57.9595 44.921 58.7633 45.7249 59.7633 45.7249Z" fill="#D1D1D1"/>
<path d="M47.7241 42.1172C46.7242 42.1172 45.9202 42.9211 45.9202 43.9211C45.9202 44.921 46.7242 45.7249 47.7241 45.7249C48.7241 45.7249 49.528 44.921 49.528 43.9211C49.528 42.9211 48.7241 42.1172 47.7241 42.1172Z" fill="#D1D1D1"/>
<path d="M41.7051 48.1367C40.7051 48.1367 39.9011 48.9406 39.9011 49.9406C39.9011 50.9406 40.7051 51.7445 41.7051 51.7445C42.7051 51.7445 43.5089 50.9406 43.5089 49.9406C43.5089 48.9406 42.7051 48.1367 41.7051 48.1367Z" fill="#D1D1D1"/>
<path d="M53.7437 48.1367C52.7437 48.1367 51.9398 48.9406 51.9398 49.9406C51.9398 50.9406 52.7437 51.7445 53.7437 51.7445C54.7436 51.7445 55.5476 50.9406 55.5476 49.9406C55.5476 48.9406 54.7436 48.1367 53.7437 48.1367Z" fill="#D1D1D1"/>
<path d="M41.7051 36.0977C40.7051 36.0977 39.9011 36.9016 39.9011 37.9015C39.9011 38.9015 40.7051 39.7054 41.7051 39.7054C42.7051 39.7054 43.5089 38.9015 43.5089 37.9015C43.5089 36.9016 42.7051 36.0977 41.7051 36.0977Z" fill="#D1D1D1"/>
<path d="M53.7437 36.0977C52.7437 36.0977 51.9398 36.9016 51.9398 37.9015C51.9398 38.9015 52.7437 39.7054 53.7437 39.7054C54.7436 39.7054 55.5476 38.9015 55.5476 37.9015C55.5476 36.9016 54.7436 36.0977 53.7437 36.0977Z" fill="#D1D1D1"/>
<path d="M35.6854 54.1562C34.6855 54.1562 33.8816 54.9601 33.8816 55.9601C33.8816 56.9601 34.6855 57.764 35.6854 57.764C36.6854 57.764 37.4893 56.9601 37.4893 55.9601C37.4893 54.9601 36.6854 54.1562 35.6854 54.1562Z" fill="#D1D1D1"/>
<path d="M35.6854 42.1172C34.6855 42.1172 33.8816 42.9211 33.8816 43.9211C33.8816 44.921 34.6855 45.7249 35.6854 45.7249C36.6854 45.7249 37.4893 44.921 37.4893 43.9211C37.4893 42.9211 36.6854 42.1172 35.6854 42.1172Z" fill="#D1D1D1"/>
<path d="M47.7241 33.7054C48.7241 33.7054 49.528 32.9015 49.528 31.9016C49.528 30.9016 48.7241 30.0977 47.7241 30.0977C46.7242 30.0977 45.9202 30.9016 45.9202 31.9016C45.9202 32.8819 46.7242 33.7054 47.7241 33.7054Z" fill="#D1D1D1"/>
<path d="M47.7241 78.2324C46.7242 78.2324 45.9202 79.0363 45.9202 80.0363C45.9202 81.0363 46.7242 81.8402 47.7241 81.8402C48.7241 81.8402 49.528 81.0363 49.528 80.0363C49.528 79.0363 48.7241 78.2324 47.7241 78.2324Z" fill="#D1D1D1"/>
<path d="M47.7241 66.1953C46.7242 66.1953 45.9202 66.9992 45.9202 67.9992C45.9202 68.9992 46.7242 69.8031 47.7241 69.8031C48.7241 69.8031 49.528 68.9992 49.528 67.9992C49.528 66.9992 48.7241 66.1953 47.7241 66.1953Z" fill="#D1D1D1"/>
<path d="M41.7051 72.2148C40.7051 72.2148 39.9011 73.0187 39.9011 74.0187C39.9011 75.0187 40.7051 75.8226 41.7051 75.8226C42.7051 75.8226 43.5089 75.0187 43.5089 74.0187C43.5089 73.0187 42.7051 72.2148 41.7051 72.2148Z" fill="#D1D1D1"/>
<path d="M53.7437 72.2148C52.7437 72.2148 51.9398 73.0187 51.9398 74.0187C51.9398 75.0187 52.7437 75.8226 53.7437 75.8226C54.7436 75.8226 55.5476 75.0187 55.5476 74.0187C55.5476 73.0187 54.7436 72.2148 53.7437 72.2148Z" fill="#D1D1D1"/>
<path d="M41.7051 60.1758C40.7051 60.1758 39.9011 60.9797 39.9011 61.9797C39.9011 62.9796 40.7051 63.7835 41.7051 63.7835C42.7051 63.7835 43.5089 62.9796 43.5089 61.9797C43.5089 60.9797 42.7051 60.1758 41.7051 60.1758Z" fill="#D1D1D1"/>
<path d="M53.7437 60.1758C52.7437 60.1758 51.9398 60.9797 51.9398 61.9797C51.9398 62.9796 52.7437 63.7835 53.7437 63.7835C54.7436 63.7835 55.5476 62.9796 55.5476 61.9797C55.5476 60.9797 54.7436 60.1758 53.7437 60.1758Z" fill="#D1D1D1"/>
<path d="M35.6854 66.1953C34.6855 66.1953 33.8816 66.9992 33.8816 67.9992C33.8816 68.9992 34.6855 69.8031 35.6854 69.8031C36.6854 69.8031 37.4893 68.9992 37.4893 67.9992C37.4893 66.9992 36.6854 66.1953 35.6854 66.1953Z" fill="#D1D1D1"/>
<path d="M47.7241 90.2715C46.7242 90.2715 45.9202 91.0754 45.9202 92.0754C45.9202 93.0753 46.7242 93.8793 47.7241 93.8793C48.7241 93.8793 49.528 93.0753 49.528 92.0754C49.528 91.0754 48.7241 90.2715 47.7241 90.2715Z" fill="#D1D1D1"/>
<path d="M39.9011 86.0558C39.9011 87.0558 40.7051 87.8597 41.7051 87.8597C42.7051 87.8597 43.5089 87.0558 43.5089 86.0558C43.5089 85.0559 42.7051 84.252 41.7051 84.252C40.7051 84.252 39.9011 85.0559 39.9011 86.0558Z" fill="#D1D1D1"/>
<path d="M51.9398 86.0558C51.9398 87.0558 52.7437 87.8597 53.7437 87.8597C54.7436 87.8597 55.5476 87.0558 55.5476 86.0558C55.5476 85.0559 54.7436 84.252 53.7437 84.252C52.7437 84.252 51.9398 85.0559 51.9398 86.0558Z" fill="#D1D1D1"/>
<path d="M35.6854 90.2715C34.6855 90.2715 33.8816 91.0754 33.8816 92.0754C33.8816 92.1342 33.9011 92.1734 33.9011 92.2322C34.9795 92.5655 36.058 92.8597 37.1756 93.1146C37.3717 92.8205 37.5089 92.4675 37.5089 92.0754C37.4893 91.0754 36.6854 90.2715 35.6854 90.2715Z" fill="#D1D1D1"/>
<path d="M59.7633 81.8402C60.7633 81.8402 61.5673 81.0363 61.5673 80.0363C61.5673 79.0363 60.7633 78.2324 59.7633 78.2324C58.7633 78.2324 57.9595 79.0363 57.9595 80.0363C57.9595 81.0363 58.7633 81.8402 59.7633 81.8402Z" fill="#D1D1D1"/>
<path d="M23.6466 6C22.6466 6 21.8428 6.8039 21.8428 7.80387C21.8428 8.80385 22.6466 9.60775 23.6466 9.60775C24.6466 9.60775 25.4505 8.80385 25.4505 7.80387C25.4505 6.82351 24.6466 6 23.6466 6Z" fill="#D1D1D1"/>
<path d="M29.666 3.6083C30.666 3.6083 31.4698 2.8044 31.4698 1.80443C31.4698 1.45149 31.3718 1.13778 31.1953 0.863281C30.0777 1.29464 28.9797 1.7456 27.9209 2.25539C28.117 3.02007 28.8229 3.6083 29.666 3.6083Z" fill="#D1D1D1"/>
<path d="M35.6854 21.6664C36.6854 21.6664 37.4893 20.8625 37.4893 19.8625C37.4893 18.8625 36.6854 18.0586 35.6854 18.0586C34.6855 18.0586 33.8816 18.8625 33.8816 19.8625C33.8816 20.8429 34.6855 21.6664 35.6854 21.6664Z" fill="#D1D1D1"/>
<path d="M23.6466 21.6664C24.6429 21.6664 25.4505 20.8587 25.4505 19.8625C25.4505 18.8662 24.6429 18.0586 23.6466 18.0586C22.6504 18.0586 21.8428 18.8662 21.8428 19.8625C21.8428 20.8587 22.6504 21.6664 23.6466 21.6664Z" fill="#D1D1D1"/>
<path d="M19.4309 25.8625C19.4309 24.8625 18.6271 24.0586 17.6271 24.0586C16.6271 24.0586 15.8232 24.8625 15.8232 25.8625C15.8232 26.8624 16.6271 27.6663 17.6271 27.6663C18.6271 27.6663 19.4309 26.8624 19.4309 25.8625Z" fill="#D1D1D1"/>
<path d="M29.6657 27.6663C30.6656 27.6663 31.4695 26.8624 31.4695 25.8625C31.4695 24.8625 30.6656 24.0586 29.6657 24.0586C28.6657 24.0586 27.8618 24.8625 27.8618 25.8625C27.8618 26.8624 28.6657 27.6663 29.6657 27.6663Z" fill="#D1D1D1"/>
<path d="M15.8232 13.8429C15.8232 14.8429 16.6271 15.6468 17.6271 15.6468C18.6271 15.6468 19.4309 14.8429 19.4309 13.8429C19.4309 12.843 18.6271 12.0391 17.6271 12.0391C16.6271 12.0391 15.8232 12.843 15.8232 13.8429Z" fill="#D1D1D1"/>
<path d="M29.6657 15.6468C30.6656 15.6468 31.4695 14.8429 31.4695 13.8429C31.4695 12.843 30.6656 12.0391 29.6657 12.0391C28.6657 12.0391 27.8618 12.843 27.8618 13.8429C27.8618 14.8233 28.6657 15.6468 29.6657 15.6468Z" fill="#D1D1D1"/>
<path d="M35.6854 9.62731C36.6854 9.62731 37.4893 8.82341 37.4893 7.82343C37.4893 6.82346 36.6854 6.01953 35.6854 6.01953C34.6855 6.01953 33.8816 6.82346 33.8816 7.82343C33.8816 8.82341 34.6855 9.62731 35.6854 9.62731Z" fill="#D1D1D1"/>
<path d="M23.6466 54.1562C22.6466 54.1562 21.8428 54.9601 21.8428 55.9601C21.8428 56.9601 22.6466 57.764 23.6466 57.764C24.6466 57.764 25.4505 56.9601 25.4505 55.9601C25.4505 54.9601 24.6466 54.1562 23.6466 54.1562Z" fill="#D1D1D1"/>
<path d="M23.6466 42.1172C22.6466 42.1172 21.8428 42.9211 21.8428 43.9211C21.8428 44.921 22.6466 45.7249 23.6466 45.7249C24.6466 45.7249 25.4505 44.921 25.4505 43.9211C25.4505 42.9211 24.6466 42.1172 23.6466 42.1172Z" fill="#D1D1D1"/>
<path d="M17.6271 48.1367C16.6271 48.1367 15.8232 48.9406 15.8232 49.9406C15.8232 50.9406 16.6271 51.7445 17.6271 51.7445C18.6271 51.7445 19.4309 50.9406 19.4309 49.9406C19.4309 48.9406 18.6271 48.1367 17.6271 48.1367Z" fill="#D1D1D1"/>
<path d="M29.6657 48.1367C28.6657 48.1367 27.8618 48.9406 27.8618 49.9406C27.8618 50.9406 28.6657 51.7445 29.6657 51.7445C30.6656 51.7445 31.4695 50.9406 31.4695 49.9406C31.4695 48.9406 30.6656 48.1367 29.6657 48.1367Z" fill="#D1D1D1"/>
<path d="M17.6271 36.0977C16.6271 36.0977 15.8232 36.9016 15.8232 37.9015C15.8232 38.9015 16.6271 39.7054 17.6271 39.7054C18.6271 39.7054 19.4309 38.9015 19.4309 37.9015C19.4309 36.9016 18.6271 36.0977 17.6271 36.0977Z" fill="#D1D1D1"/>
<path d="M29.6657 36.0977C28.6657 36.0977 27.8618 36.9016 27.8618 37.9015C27.8618 38.9015 28.6657 39.7054 29.6657 39.7054C30.6656 39.7054 31.4695 38.9015 31.4695 37.9015C31.4695 36.9016 30.6656 36.0977 29.6657 36.0977Z" fill="#D1D1D1"/>
<path d="M11.6074 54.1562C10.6075 54.1562 9.80359 54.9601 9.80359 55.9601C9.80359 56.9601 10.6075 57.764 11.6074 57.764C12.6074 57.764 13.4114 56.9601 13.4114 55.9601C13.4114 54.9601 12.6074 54.1562 11.6074 54.1562Z" fill="#D1D1D1"/>
<path d="M11.6074 42.1172C10.6075 42.1172 9.80359 42.9211 9.80359 43.9211C9.80359 44.921 10.6075 45.7249 11.6074 45.7249C12.6074 45.7249 13.4114 44.921 13.4114 43.9211C13.4114 42.9211 12.6074 42.1172 11.6074 42.1172Z" fill="#D1D1D1"/>
<path d="M35.6854 33.7054C36.6854 33.7054 37.4893 32.9015 37.4893 31.9016C37.4893 30.9016 36.6854 30.0977 35.6854 30.0977C34.6855 30.0977 33.8816 30.9016 33.8816 31.9016C33.8816 32.8819 34.6855 33.7054 35.6854 33.7054Z" fill="#D1D1D1"/>
<path d="M23.6466 33.7054C24.6466 33.7054 25.4505 32.9015 25.4505 31.9016C25.4505 30.9016 24.6466 30.0977 23.6466 30.0977C22.6466 30.0977 21.8428 30.9016 21.8428 31.9016C21.8428 32.8819 22.6466 33.7054 23.6466 33.7054Z" fill="#D1D1D1"/>
<path d="M23.6466 66.1953C22.6466 66.1953 21.8428 66.9992 21.8428 67.9992C21.8428 68.9992 22.6466 69.8031 23.6466 69.8031C24.6466 69.8031 25.4505 68.9992 25.4505 67.9992C25.4505 66.9992 24.6466 66.1953 23.6466 66.1953Z" fill="#D1D1D1"/>
<path d="M17.6271 72.2148C16.6271 72.2148 15.8232 73.0187 15.8232 74.0187C15.8232 75.0187 16.6271 75.8226 17.6271 75.8226C18.6271 75.8226 19.4309 75.0187 19.4309 74.0187C19.4309 73.0187 18.6271 72.2148 17.6271 72.2148Z" fill="#D1D1D1"/>
<path d="M29.6657 72.2148C28.6657 72.2148 27.8618 73.0187 27.8618 74.0187C27.8618 75.0187 28.6657 75.8226 29.6657 75.8226C30.6656 75.8226 31.4695 75.0187 31.4695 74.0187C31.4695 73.0187 30.6656 72.2148 29.6657 72.2148Z" fill="#D1D1D1"/>
<path d="M17.6271 60.1758C16.6271 60.1758 15.8232 60.9797 15.8232 61.9797C15.8232 62.9796 16.6271 63.7835 17.6271 63.7835C18.6271 63.7835 19.4309 62.9796 19.4309 61.9797C19.4309 60.9797 18.6271 60.1758 17.6271 60.1758Z" fill="#D1D1D1"/>
<path d="M29.6657 60.1758C28.6657 60.1758 27.8618 60.9797 27.8618 61.9797C27.8618 62.9796 28.6657 63.7835 29.6657 63.7835C30.6656 63.7835 31.4695 62.9796 31.4695 61.9797C31.4695 60.9797 30.6656 60.1758 29.6657 60.1758Z" fill="#D1D1D1"/>
<path d="M13.294 79.3513C13.1175 78.9395 12.8038 78.6062 12.4116 78.4102C12.6861 78.7435 12.9803 79.0572 13.294 79.3513Z" fill="#D1D1D1"/>
<path d="M13.4114 67.9992C13.4114 66.9992 12.6074 66.1953 11.6074 66.1953C10.6075 66.1953 9.80359 66.9992 9.80359 67.9992C9.80359 68.9992 10.6075 69.8031 11.6074 69.8031C12.6074 69.8031 13.4114 68.9992 13.4114 67.9992Z" fill="#D1D1D1"/>
<path d="M27.8618 86.0558C27.8618 87.0558 28.6657 87.8597 29.6657 87.8597C30.6656 87.8597 31.4695 87.0558 31.4695 86.0558C31.4695 85.0559 30.6656 84.252 29.6657 84.252C28.6657 84.252 27.8618 85.0559 27.8618 86.0558Z" fill="#D1D1D1"/>
<path d="M35.6854 81.8402C36.6854 81.8402 37.4893 81.0363 37.4893 80.0363C37.4893 79.0363 36.6854 78.2324 35.6854 78.2324C34.6855 78.2324 33.8816 79.0363 33.8816 80.0363C33.8816 81.0363 34.6855 81.8402 35.6854 81.8402Z" fill="#D1D1D1"/>
<path d="M23.6466 81.8402C24.6466 81.8402 25.4505 81.0363 25.4505 80.0363C25.4505 79.0363 24.6466 78.2324 23.6466 78.2324C22.6466 78.2324 21.8428 79.0363 21.8428 80.0363C21.8428 81.0363 22.6466 81.8402 23.6466 81.8402Z" fill="#D1D1D1"/>
<path d="M11.6074 21.6664C12.6074 21.6664 13.4114 20.8625 13.4114 19.8625C13.4114 18.8625 12.6074 18.0586 11.6074 18.0586C10.6075 18.0586 9.80359 18.8625 9.80359 19.8625C9.80359 20.8429 10.6075 21.6664 11.6074 21.6664Z" fill="#D1D1D1"/>
<path d="M5.58807 27.6663C6.58804 27.6663 7.39203 26.8624 7.39203 25.8625C7.39203 24.8625 6.58804 24.0586 5.58807 24.0586C5.47042 24.0586 5.37242 24.0782 5.25478 24.0978C4.82342 24.9605 4.39202 25.8429 3.99988 26.7252C4.3136 27.2938 4.90181 27.6663 5.58807 27.6663Z" fill="#D1D1D1"/>
<path d="M0.744751 54.5879C0.882002 55.3134 1.0192 56.0388 1.17606 56.7643C1.2937 56.529 1.3722 56.2545 1.3722 55.9604C1.39181 55.4114 1.1369 54.9212 0.744751 54.5879Z" fill="#D1D1D1"/>
<path d="M1.39216 43.9207C1.39216 43.1168 0.862757 42.4501 0.156892 42.2148C0.0588556 43.3521 0 44.5089 0 45.6657C0.784294 45.4893 1.39216 44.7834 1.39216 43.9207Z" fill="#D1D1D1"/>
<path d="M5.5879 51.7445C6.58788 51.7445 7.39186 50.9406 7.39186 49.9406C7.39186 48.9406 6.58788 48.1367 5.5879 48.1367C4.58793 48.1367 3.78406 48.9406 3.78406 49.9406C3.78406 50.9406 4.60753 51.7445 5.5879 51.7445Z" fill="#D1D1D1"/>
<path d="M3.78406 37.9015C3.78406 38.9015 4.58793 39.7054 5.5879 39.7054C6.58788 39.7054 7.39186 38.9015 7.39186 37.9015C7.39186 36.9016 6.58788 36.0977 5.5879 36.0977C4.60753 36.0977 3.78406 36.9016 3.78406 37.9015Z" fill="#D1D1D1"/>
<path d="M11.6074 33.7054C12.6074 33.7054 13.4114 32.9015 13.4114 31.9016C13.4114 30.9016 12.6074 30.0977 11.6074 30.0977C10.6075 30.0977 9.80359 30.9016 9.80359 31.9016C9.80359 32.8819 10.6075 33.7054 11.6074 33.7054Z" fill="#D1D1D1"/>
<path d="M3.78406 61.9797C3.78406 62.9796 4.58793 63.7835 5.5879 63.7835C6.58788 63.7835 7.39186 62.9796 7.39186 61.9797C7.39186 60.9797 6.58788 60.1758 5.5879 60.1758C4.60753 60.1758 3.78406 60.9797 3.78406 61.9797Z" fill="#D1D1D1"/>
</svg>
