<svg width="71" height="81" viewBox="0 0 71 81" fill="none" xmlns="http://www.w3.org/2000/svg">
<path d="M49.1633 42.3146L58.8286 48.0321L59.0606 59.0744L69.1372 65.0253C69.5779 65.3085 70.1495 65.1189 70.3906 64.7168C70.6829 64.2858 70.4909 63.7291 70.0796 63.4957L60.855 58.0615L60.6231 47.0192L50.9577 41.3017L50.7258 30.2595L41.0604 24.542L40.8285 13.4997L30.7519 7.54881C30.3111 7.26552 29.7395 7.45515 29.4985 7.85725C29.2062 8.28828 29.3982 8.84496 29.8094 9.07837L39.0341 14.5126L39.266 25.5548L48.9314 31.2723L49.1633 42.3146Z" fill="#D1D1D1"/>
<path d="M42.0882 46.3087L51.7536 52.0262L51.9855 63.0685L62.0621 69.0194C62.5029 69.3027 63.0745 69.1131 63.3155 68.711C63.6078 68.2799 63.4158 67.7232 63.0045 67.4898L53.7799 62.0556L53.548 51.0134L43.8826 45.2959L43.6507 34.2536L33.9853 28.5361L33.7534 17.4939L23.6768 11.543C23.2361 11.2597 22.6645 11.4493 22.4234 11.8514C22.1311 12.2824 22.3231 12.8391 22.7344 13.0725L31.959 18.5067L32.1909 29.549L41.8563 35.2665L42.0882 46.3087Z" fill="#D1D1D1"/>
<path d="M35.0131 50.3009L44.6785 56.0184L44.9104 67.0607L54.9871 73.0116C55.4278 73.2949 55.9994 73.1052 56.2404 72.7031C56.5328 72.2721 56.3407 71.7154 55.9295 71.482L46.7048 66.0478L46.4729 55.0056L36.8075 49.2881L36.5756 38.2458L26.9103 32.5283L26.6783 21.486L16.6017 15.5351C16.161 15.2519 15.5894 15.4415 15.3483 15.8436C15.056 16.2746 15.248 16.8313 15.6593 17.0647L24.8839 22.4989L25.1159 33.5412L34.7812 39.2587L35.0131 50.3009Z" fill="#D1D1D1"/>
<path d="M27.9893 54.2658L37.6547 59.9833L37.8866 71.0255L47.9633 76.9764C48.404 77.2597 48.9756 77.0701 49.2166 76.668C49.509 76.237 49.3169 75.6803 48.9057 75.4469L39.681 70.0127L39.4491 58.9704L29.7837 53.2529L29.5518 42.2106L19.8865 36.4931L19.6545 25.4509L9.57791 19.5C9.13719 19.2167 8.56559 19.4063 8.32453 19.8084C8.0322 20.2395 8.22423 20.7961 8.6355 21.0295L17.8601 26.4637L18.1215 37.5559L27.7869 43.2734L27.9893 54.2658Z" fill="#D1D1D1"/>
<path d="M41.4616 38.879L51.127 44.5965L51.3589 55.6388L61.4355 61.5897C61.8763 61.873 62.4479 61.6834 62.6889 61.2813C62.9812 60.8502 62.7892 60.2936 62.3779 60.0601L53.1533 54.6259L52.9214 43.5837L43.256 37.8662L43.0241 26.8239L33.3587 21.1064L33.1268 10.0642L23.0502 4.11326C22.6095 3.82998 22.0379 4.01961 21.7968 4.4217C21.5558 4.82379 21.6965 5.40941 22.1078 5.64282L31.3324 11.077L31.5643 22.1193L41.2297 27.8368L41.4616 38.879Z" fill="white"/>
<path d="M34.3866 42.8732L44.0519 48.5907L44.2838 59.6329L54.3605 65.5838C54.8012 65.8671 55.3728 65.6775 55.6138 65.2754C55.9062 64.8444 55.7141 64.2877 55.3029 64.0543L46.0782 58.6201L45.8463 47.5778L36.181 41.8603L35.949 30.8181L26.2837 25.1006L26.0518 14.0583L15.9751 8.1074C15.5344 7.82412 14.9628 8.01375 14.7217 8.41584C14.4294 8.84687 14.6214 9.40355 15.0327 9.63696L24.2574 15.0712L24.4893 26.1134L34.1546 31.8309L34.3866 42.8732Z" fill="white"/>
<path d="M27.3115 46.8654L36.9768 52.5829L37.2088 63.6251L47.2854 69.576C47.7261 69.8593 48.2977 69.6697 48.5388 69.2676C48.8311 68.8366 48.6391 68.2799 48.2278 68.0465L39.0032 62.6123L38.7712 51.57L29.1059 45.8525L28.874 34.8102L19.2086 29.0928L18.9767 18.0505L8.90005 12.0996C8.45933 11.8163 7.88773 12.0059 7.64667 12.408C7.35435 12.8391 7.54637 13.3957 7.95764 13.6291L17.1823 19.0634L17.4142 30.1056L27.0796 35.8231L27.3115 46.8654Z" fill="white"/>
<path d="M20.2365 50.8589L29.9019 56.5764L30.1338 67.6186L40.2104 73.5695C40.6511 73.8528 41.2227 73.6632 41.4638 73.2611C41.7561 72.8301 41.5641 72.2734 41.1528 72.04L31.9282 66.6058L31.6963 55.5635L22.0822 49.8171L21.8502 38.7748L12.1849 33.0573L11.953 22.0151L1.87634 16.0642C1.4138 15.8597 0.864011 15.9705 0.571686 16.4015C0.33063 16.8036 0.471386 17.3893 0.882654 17.6227L10.1073 23.0569L10.3392 34.0991L20.0046 39.8166L20.2365 50.8589Z" fill="white"/>
</svg>
