<svg width="56" height="38" viewBox="0 0 56 38" fill="none" xmlns="http://www.w3.org/2000/svg">
<path d="M5.60465 33.2239C5.56573 33.102 5.58025 33.0079 5.59478 32.9137C5.65289 32.5369 6.0317 32.3264 6.36692 32.3985L13.9846 33.9062L19.5909 27.9969L27.5843 29.5638L33.1906 23.6545L41.184 25.2213L46.7902 19.312L55.1189 20.951C55.4946 21.0101 55.7053 21.3906 55.6342 21.7267C55.5761 22.1034 55.1973 22.3139 54.862 22.2419L47.2443 20.7341L41.6381 26.6434L33.6446 25.0766L28.0384 30.9859L20.045 29.419L14.4387 35.3283L6.09711 33.6487C5.85581 33.5915 5.66952 33.4271 5.60465 33.2239Z" fill="white"/>
<path d="M3.81424 27.6165C3.77532 27.4946 3.78985 27.4004 3.80438 27.3062C3.86249 26.9295 4.24129 26.719 4.57651 26.7911L12.1942 28.2988L17.8005 22.3895L25.7939 23.9563L31.4002 18.0471L39.3936 19.6139L44.9998 13.7046L53.3285 15.3435C53.7042 15.4027 53.9149 15.7831 53.8438 16.1192C53.7857 16.496 53.4069 16.7065 53.0716 16.6344L45.4539 15.1267L39.8477 21.036L31.8542 19.4691L26.248 25.3784L18.2546 23.8116L12.6483 29.7209L4.3067 28.0413C4.0654 27.984 3.87911 27.8197 3.81424 27.6165Z" fill="white"/>
<path d="M2.02387 22.0107C1.98495 21.8888 1.99948 21.7946 2.01401 21.7004C2.07212 21.3236 2.45092 21.1131 2.78614 21.1852L10.4039 22.6929L16.0101 16.7836L23.9906 18.3099L29.5968 12.4006L37.5902 13.9674L43.1965 8.05814L51.5251 9.69705C51.9008 9.75618 52.1115 10.1366 52.0404 10.4728C51.9823 10.8495 51.6035 11.06 51.2683 10.9879L43.6506 9.48023L38.0443 15.3895L30.0509 13.8227L24.4446 19.7319L16.4512 18.1651L10.845 24.0744L2.51633 22.4355C2.28801 22.4188 2.08874 22.2138 2.02387 22.0107Z" fill="white"/>
<path d="M0.233526 16.4032C0.194605 16.2813 0.209133 16.1872 0.210687 16.0523C0.268799 15.6756 0.647603 15.4651 0.982825 15.5371L8.60054 17.0449L14.2068 11.1356L22.2002 12.7024L27.8065 6.79315L35.7999 8.36L41.4061 2.45072L49.7348 4.08963C50.1105 4.14876 50.3212 4.52922 50.2501 4.86534C50.192 5.24208 49.8132 5.45258 49.4779 5.38053L41.8602 3.87281L36.254 9.78209L28.2735 8.25587L22.6673 14.1652L14.6739 12.5983L9.0676 18.5076L0.73896 16.8687C0.497663 16.8114 0.298395 16.6064 0.233526 16.4032Z" fill="white"/>
</svg>
