<svg width="39" height="43" viewBox="0 0 39 43" fill="none" xmlns="http://www.w3.org/2000/svg">
<path d="M23.5 11.6992C31.9 11.6992 38.7 18.4992 38.7 26.8992C38.7 35.2992 31.9 42.0992 23.5 42.0992C15.1 42.0992 8.40002 35.2992 8.40002 26.8992C8.40002 18.4992 15.2 11.6992 23.5 11.6992ZM23.5 14.7992C16.8 14.7992 11.4 20.1992 11.4 26.8992C11.4 33.5992 16.8 38.9992 23.5 38.9992C30.2 38.9992 35.6 33.5992 35.6 26.8992C35.6 20.1992 30.2 14.7992 23.5 14.7992Z" fill="#654DEE"/>
<path d="M15.2 0C23.6 0 30.4 6.8 30.4 15.2C30.4 23.6 23.6 30.4 15.2 30.4C6.8 30.4 0 23.6 0 15.2C0 6.8 6.8 0 15.2 0ZM15.2 3.1C8.5 3.1 3.1 8.5 3.1 15.2C3.1 21.9 8.5 27.3 15.2 27.3C21.9 27.3 27.3 21.9 27.3 15.2C27.3 8.5 21.8 3.1 15.2 3.1Z" fill="white"/>
</svg>
