<svg width="98" height="101" viewBox="0 0 98 101" fill="none" xmlns="http://www.w3.org/2000/svg">
<path d="M70.9594 13.4922L70.1779 24.3182L59.463 26.002L58.6883 36.8206L47.9734 38.5043L47.2118 49.1313L47.2192 49.1381L47.216 49.2302L36.4944 50.9213L35.7196 61.7399L25.0048 63.4237L24.23 74.2423L13.5152 75.9261L12.7468 86.5604L13.7113 87.4469L14.4797 76.8125L25.1946 75.1288L25.9693 64.3101L36.6842 62.6264L37.4589 51.8078L48.1805 50.1166L48.1825 49.9962L48.938 39.3908L59.6602 37.7137L60.4276 26.8884L71.1498 25.2114L71.9239 14.3786L82.6461 12.7016L82.6549 12.5739L81.683 11.6807L81.6742 11.8084L70.9594 13.4922Z" fill="#FFD8E9" fill-opacity="0.4"/>
<path d="M74.5248 5.23809L63.81 6.92188L63.0284 17.7479L52.3136 19.4316L51.5388 30.2502L40.824 31.934L40.0697 42.5678L40.0665 42.6599L29.345 44.351L28.5702 55.1696L17.8554 56.8534L17.0806 67.672L6.36577 69.3558L5.59737 79.9901L6.56193 80.8765L7.33032 70.2422L18.0451 68.5584L18.8199 57.7398L29.5347 56.0561L30.3095 45.2374L41.0311 43.5463L41.0405 43.4327L41.0331 43.4259L41.7885 32.8204L52.5108 31.1434L53.2781 20.318L64.0003 18.641L64.7745 7.8083L75.4967 6.13128L75.5055 6.00355L74.5409 5.11713L74.5248 5.23809Z" fill="#FFD8E9" fill-opacity="0.4"/>
<path d="M85.31 26.6797L84.5358 37.5124L73.8136 39.1894L73.0462 50.0148L62.324 51.6918L61.5697 62.3256L61.5771 62.3323L61.5665 62.4177L50.845 64.1088L50.0702 74.9274L39.3554 76.6112L38.5806 87.4298L27.8658 89.1136L27.0974 99.7479L28.0693 100.641L28.8303 90L39.5451 88.3163L40.3199 77.4976L51.0347 75.8139L51.8095 64.9953L62.5311 63.3041L62.5405 63.1905L62.5331 63.1837L63.2885 52.5782L74.0108 50.9012L74.7781 40.0758L85.5003 38.3989L86.2745 27.5661L96.9967 25.8891L97.0054 25.7613L96.0409 24.8749L96.0322 25.0027L85.31 26.6797Z" fill="#FFD8E9" fill-opacity="0.4"/>
<path d="M78.1604 20.1094L77.3862 30.9421L66.6641 32.6191L65.8967 43.4445L55.1745 45.1215L54.4202 55.7553L54.4276 55.762L54.417 55.8474L43.6954 57.5385L42.9207 68.3571L32.2058 70.0409L31.4311 80.8595L20.7162 82.5433L19.9552 93.1844L20.9198 94.0708L21.6808 83.4297L32.403 81.7527L33.1704 70.9273L43.8926 69.2503L44.66 58.4249L55.3889 56.7406L55.391 56.6202L55.3836 56.6134L56.1464 46.0147L66.8612 44.3309L67.636 33.5123L78.3508 31.8285L79.1323 21.0026L89.8472 19.3188L89.8559 19.191L88.8914 18.3046L88.8826 18.4324L78.1604 20.1094Z" fill="#FFD8E9" fill-opacity="0.4"/>
</svg>
