<svg width="99" height="100" viewBox="0 0 99 100" fill="none" xmlns="http://www.w3.org/2000/svg">
<path d="M12.9707 26.4795L23.754 27.7169L24.9844 38.4932L35.7607 39.7236L36.9911 50.4999L47.5765 51.7091L47.5835 51.702L47.6754 51.7091L48.9129 62.4925L59.6892 63.7228L60.9195 74.4991L71.6959 75.7295L72.9262 86.5058L83.5187 87.722L84.445 86.7957L73.8525 85.5795L72.6222 74.8032L61.8458 73.5728L60.6155 62.7965L49.8392 61.5662L48.6018 50.7828L48.4815 50.7757L37.9174 49.5736L36.6941 38.7902L25.9107 37.5669L24.6874 26.7836L13.897 25.5532L12.6736 14.7698L12.5464 14.7557L11.613 15.6891L11.7403 15.7032L12.9707 26.4795Z" fill="#FFD8E9" fill-opacity="0.4"/>
<path d="M4.87404 22.5684L6.10442 33.3448L16.8878 34.5822L18.1182 45.3585L28.8945 46.5889L30.1248 57.3652L40.7173 58.5672L40.8092 58.5743L42.0467 69.3577L52.823 70.5881L54.0533 81.3644L64.8297 82.5947L66.06 93.371L76.6525 94.5873L77.5788 93.661L66.9863 92.4447L65.756 81.6684L54.9796 80.4381L53.7493 69.6618L42.973 68.4314L41.7355 57.648L41.6224 57.6339L41.6153 57.6409L31.0511 56.4389L29.8278 45.6555L19.0445 44.4322L17.8212 33.6488L7.03073 32.4185L5.80743 21.6351L5.68017 21.6209L4.75387 22.5472L4.87404 22.5684Z" fill="#FFD8E9" fill-opacity="0.4"/>
<path d="M26.7521 12.6963L37.5426 13.9267L38.7659 24.7101L49.5492 25.9333L50.7725 36.7167L61.365 37.9188L61.3721 37.9118L61.4569 37.9259L62.6944 48.7093L73.4707 49.9396L74.701 60.7159L85.4774 61.9463L86.7077 72.7226L97.3002 73.9389L98.2335 73.0055L87.634 71.7963L86.4037 61.02L75.6273 59.7896L74.397 49.0133L63.6207 47.783L62.3832 36.9996L62.2701 36.9854L62.263 36.9925L51.6989 35.7904L50.4755 25.007L39.6922 23.7838L38.4689 13.0004L27.6784 11.77L26.4551 0.986617L26.3279 0.972504L25.4015 1.89881L25.5288 1.91293L26.7521 12.6963Z" fill="#FFD8E9" fill-opacity="0.4"/>
<path d="M19.8859 19.5635L30.6764 20.7939L31.8997 31.5772L42.683 32.8005L43.9064 43.5839L54.4988 44.786L54.5059 44.7789L54.5907 44.7931L55.8282 55.5765L66.6045 56.8068L67.8348 67.5831L78.6111 68.8135L79.8415 79.5898L90.441 80.7989L91.3674 79.8726L80.7678 78.6635L79.5445 67.8801L68.7611 66.6568L67.5379 55.8734L56.7545 54.6501L55.5241 43.8597L55.4039 43.8526L55.3968 43.8597L44.8397 42.6505L43.6093 31.8742L32.833 30.6439L31.6027 19.8676L20.8193 18.6301L19.5889 7.8538L19.4617 7.83967L18.5354 8.76598L18.6626 8.78011L19.8859 19.5635Z" fill="#FFD8E9" fill-opacity="0.4"/>
</svg>
