<svg width="64" height="64" viewBox="0 0 64 64" fill="none" xmlns="http://www.w3.org/2000/svg">
<rect width="64" height="64" rx="6" fill="white"/>
<path d="M46.9666 20.9082H18.0334C16.9121 20.9082 16 21.8204 16 22.9416V42.0582C16 43.1795 16.9121 44.0916 18.0334 44.0916H37.15C37.4169 44.0916 37.6334 43.8752 37.6334 43.6082C37.6334 43.3412 37.4169 43.1248 37.15 43.1248H18.0334C17.4452 43.1248 16.9668 42.6464 16.9668 42.0582V22.9416C16.9668 22.3535 17.4452 21.8751 18.0334 21.8751H46.9666C47.5547 21.8751 48.0331 22.3535 48.0331 22.9416V42.0582C48.0331 42.6464 47.5547 43.1248 46.9666 43.1248H43.3499C43.0829 43.1248 42.8665 43.3412 42.8665 43.6082C42.8665 43.8752 43.0829 44.0916 43.3499 44.0916H46.9666C48.0878 44.0916 48.9999 43.1795 48.9999 42.0582V22.9416C49 21.8204 48.0879 20.9082 46.9666 20.9082Z" fill="#111111"/>
<path d="M40.7331 40.6209V34.8723L43.4859 33.6754C43.8568 33.5141 44.0873 33.1627 44.0873 32.7583C44.0873 32.3538 43.8568 32.0024 43.486 31.8411L33.5165 27.5066C32.8704 27.2257 32.1291 27.2257 31.4829 27.5066L21.5135 31.8411C21.1425 32.0023 20.9121 32.3537 20.9121 32.7582C20.9121 33.1626 21.1425 33.5141 21.5135 33.6753L24.557 34.9986C24.8017 35.1051 25.0865 34.9928 25.193 34.748C25.2995 34.5031 25.1873 34.2184 24.9424 34.112L21.8989 32.7887C21.8891 32.7844 21.8789 32.78 21.8789 32.7581C21.8789 32.7363 21.8891 32.7319 21.8989 32.7276L31.8684 28.3931C32.2696 28.2187 32.7297 28.2186 33.131 28.3931L43.1005 32.7276C43.1103 32.7319 43.1205 32.7363 43.1205 32.7581C43.1205 32.78 43.1103 32.7844 43.1005 32.7887L38.6664 34.7165V33.2748C38.6664 32.6921 38.0499 32.3312 36.6049 32.0685C35.5038 31.8683 34.0459 31.7581 32.4998 31.7581C30.9536 31.7581 29.4957 31.8683 28.3946 32.0685C26.9496 32.3312 26.3331 32.692 26.3331 33.2748V37.4082C26.3331 37.9596 26.7817 38.4082 27.3331 38.4082H37.6664C38.2178 38.4082 38.6664 37.9596 38.6664 37.4082V35.7707L39.7663 35.2925V40.6208C39.1663 40.8231 38.7329 41.3908 38.7329 42.0581V43.6081C38.7329 43.8751 38.9494 44.0915 39.2163 44.0915H41.283C41.55 44.0915 41.7664 43.8751 41.7664 43.6081V42.0581C41.7664 41.3908 41.333 40.8232 40.7331 40.6209ZM32.4997 32.7249C35.5578 32.7249 37.321 33.138 37.6996 33.3907V35.3748H27.2998V33.3907C27.6784 33.138 29.4416 32.7249 32.4997 32.7249ZM37.6663 37.4414H27.3331C27.3147 37.4414 27.2998 37.4265 27.2998 37.4082V36.3416H37.6996V37.4082C37.6996 37.4265 37.6847 37.4414 37.6663 37.4414ZM40.7996 43.1248H39.6997V42.0582C39.6997 41.7549 39.9464 41.5083 40.2497 41.5083C40.5529 41.5083 40.7996 41.755 40.7996 42.0582V43.1248Z" fill="#111111"/>
<path d="M22.6497 25.5246C22.6497 24.4034 21.7376 23.4912 20.6164 23.4912C19.4951 23.4912 18.583 24.4034 18.583 25.5246C18.583 26.6458 19.4951 27.5579 20.6164 27.5579C21.7376 27.5579 22.6497 26.6458 22.6497 25.5246ZM20.6164 26.5912C20.0282 26.5912 19.5498 26.1128 19.5498 25.5246C19.5498 24.9365 20.0282 24.4581 20.6164 24.4581C21.2045 24.4581 21.6829 24.9365 21.6829 25.5246C21.6829 26.1128 21.2045 26.5912 20.6164 26.5912Z" fill="#111111"/>
<path d="M24.2334 24.9746H30.4334C30.7004 24.9746 30.9168 24.7582 30.9168 24.4912C30.9168 24.2242 30.7004 24.0078 30.4334 24.0078H24.2334C23.9664 24.0078 23.75 24.2242 23.75 24.4912C23.75 24.7582 23.9664 24.9746 24.2334 24.9746Z" fill="#111111"/>
<path d="M24.2334 27.042H27.3334C27.6004 27.042 27.8168 26.8256 27.8168 26.5586C27.8168 26.2916 27.6004 26.0752 27.3334 26.0752H24.2334C23.9664 26.0752 23.75 26.2916 23.75 26.5586C23.75 26.8256 23.9664 27.042 24.2334 27.042Z" fill="#111111"/>
</svg>
