<svg width="72" height="72" viewBox="0 0 72 72" fill="none" xmlns="http://www.w3.org/2000/svg">
<path d="M36 0L67.1769 18V54L36 72L4.82309 54V18L36 0Z" fill="#E0F15E"/>
<path d="M50.9666 24.9082H22.0334C20.9121 24.9082 20 25.8204 20 26.9416V46.0582C20 47.1795 20.9121 48.0916 22.0334 48.0916H41.15C41.4169 48.0916 41.6334 47.8752 41.6334 47.6082C41.6334 47.3412 41.4169 47.1248 41.15 47.1248H22.0334C21.4452 47.1248 20.9668 46.6464 20.9668 46.0582V26.9416C20.9668 26.3535 21.4452 25.8751 22.0334 25.8751H50.9666C51.5547 25.8751 52.0331 26.3535 52.0331 26.9416V46.0582C52.0331 46.6464 51.5547 47.1248 50.9666 47.1248H47.3499C47.0829 47.1248 46.8665 47.3412 46.8665 47.6082C46.8665 47.8752 47.0829 48.0916 47.3499 48.0916H50.9666C52.0878 48.0916 52.9999 47.1795 52.9999 46.0582V26.9416C53 25.8204 52.0879 24.9082 50.9666 24.9082Z" fill="black"/>
<path d="M44.7334 44.6209V38.8723L47.4862 37.6754C47.8572 37.5141 48.0876 37.1627 48.0876 36.7583C48.0876 36.3538 47.8572 36.0024 47.4863 35.8411L37.5168 31.5066C36.8707 31.2257 36.1295 31.2257 35.4833 31.5066L25.5138 35.8411C25.1428 36.0023 24.9124 36.3537 24.9124 36.7582C24.9124 37.1626 25.1428 37.5141 25.5138 37.6753L28.5573 38.9986C28.802 39.1051 29.0869 38.9928 29.1933 38.748C29.2998 38.5031 29.1876 38.2184 28.9427 38.112L25.8992 36.7887C25.8894 36.7844 25.8792 36.78 25.8792 36.7581C25.8792 36.7363 25.8894 36.7319 25.8992 36.7276L35.8687 32.3931C36.2699 32.2187 36.73 32.2186 37.1313 32.3931L47.1008 36.7276C47.1106 36.7319 47.1208 36.7363 47.1208 36.7581C47.1208 36.78 47.1106 36.7844 47.1008 36.7887L42.6668 38.7165V37.2748C42.6668 36.6921 42.0503 36.3312 40.6052 36.0685C39.5042 35.8683 38.0462 35.7581 36.5001 35.7581C34.9539 35.7581 33.496 35.8683 32.3949 36.0685C30.9499 36.3312 30.3334 36.692 30.3334 37.2748V41.4082C30.3334 41.9596 30.782 42.4082 31.3334 42.4082H41.6667C42.2182 42.4082 42.6668 41.9596 42.6668 41.4082V39.7707L43.7666 39.2925V44.6208C43.1667 44.8231 42.7333 45.3908 42.7333 46.0581V47.6081C42.7333 47.8751 42.9497 48.0915 43.2167 48.0915H45.2834C45.5503 48.0915 45.7668 47.8751 45.7668 47.6081V46.0581C45.7667 45.3908 45.3333 44.8232 44.7334 44.6209ZM36.5 36.7249C39.5581 36.7249 41.3213 37.138 41.6999 37.3907V39.3748H31.3001V37.3907C31.6787 37.138 33.4419 36.7249 36.5 36.7249ZM41.6666 41.4414H31.3334C31.315 41.4414 31.3001 41.4265 31.3001 41.4082V40.3416H41.6999V41.4082C41.6999 41.4265 41.685 41.4414 41.6666 41.4414ZM44.7999 47.1248H43.7V46.0582C43.7 45.7549 43.9467 45.5083 44.25 45.5083C44.5532 45.5083 44.7999 45.755 44.7999 46.0582V47.1248Z" fill="black"/>
<path d="M26.6501 29.5246C26.6501 28.4034 25.7379 27.4912 24.6167 27.4912C23.4955 27.4912 22.5833 28.4034 22.5833 29.5246C22.5833 30.6458 23.4955 31.5579 24.6167 31.5579C25.7379 31.5579 26.6501 30.6458 26.6501 29.5246ZM24.6167 30.5912C24.0286 30.5912 23.5501 30.1128 23.5501 29.5246C23.5501 28.9365 24.0286 28.4581 24.6167 28.4581C25.2048 28.4581 25.6833 28.9365 25.6833 29.5246C25.6833 30.1128 25.2048 30.5912 24.6167 30.5912Z" fill="black"/>
<path d="M28.2334 28.9746H34.4334C34.7003 28.9746 34.9168 28.7582 34.9168 28.4912C34.9168 28.2242 34.7003 28.0078 34.4334 28.0078H28.2334C27.9664 28.0078 27.75 28.2242 27.75 28.4912C27.75 28.7582 27.9664 28.9746 28.2334 28.9746Z" fill="black"/>
<path d="M28.2334 31.042H31.3334C31.6003 31.042 31.8168 30.8256 31.8168 30.5586C31.8168 30.2916 31.6003 30.0752 31.3334 30.0752H28.2334C27.9664 30.0752 27.75 30.2916 27.75 30.5586C27.75 30.8256 27.9664 31.042 28.2334 31.042Z" fill="black"/>
</svg>
