<svg width="64" height="64" viewBox="0 0 64 64" fill="none" xmlns="http://www.w3.org/2000/svg">
<rect width="64" height="64" rx="32" fill="#FDF6F4"/>
<path d="M31.7435 31.3413C34.1259 31.3413 36.1885 30.4869 37.8744 28.801C39.5597 27.1155 40.4144 25.053 40.4144 22.6704C40.4144 20.2886 39.56 18.2259 37.8741 16.5398C36.1883 14.8545 34.1256 14 31.7435 14C29.3608 14 27.2984 14.8545 25.6128 16.54C23.9272 18.2256 23.0725 20.2883 23.0725 22.6704C23.0725 25.053 23.9272 27.1157 25.6128 28.8013C27.299 30.4866 29.3616 31.3413 31.7435 31.3413ZM27.1048 18.0317C28.3981 16.7383 29.9153 16.1096 31.7435 16.1096C33.5713 16.1096 35.0888 16.7383 36.3824 18.0317C37.6758 19.3253 38.3048 20.8428 38.3048 22.6704C38.3048 24.4985 37.6758 26.0157 36.3824 27.3094C35.0888 28.603 33.5713 29.2317 31.7435 29.2317C29.9159 29.2317 28.3987 28.6027 27.1048 27.3094C25.8111 26.016 25.1822 24.4985 25.1822 22.6704C25.1822 20.8428 25.8111 19.3253 27.1048 18.0317Z" fill="#111111"/>
<path d="M46.9153 41.6815C46.8667 40.98 46.7684 40.2148 46.6236 39.4068C46.4775 38.5927 46.2894 37.8231 46.0641 37.1197C45.8312 36.3927 45.5151 35.6747 45.1237 34.9867C44.718 34.2726 44.2412 33.6508 43.7062 33.1391C43.1467 32.6038 42.4617 32.1734 41.6696 31.8594C40.8802 31.5471 40.0055 31.3889 39.0697 31.3889C38.7022 31.3889 38.3468 31.5397 37.6604 31.9866C37.238 32.2621 36.7439 32.5807 36.1924 32.9331C35.7208 33.2335 35.0819 33.5151 34.2928 33.77C33.523 34.0191 32.7413 34.1454 31.9695 34.1454C31.1983 34.1454 30.4166 34.0191 29.6462 33.77C28.8579 33.5153 28.2188 33.2338 27.748 32.9333C27.2017 32.5843 26.7073 32.2657 26.2786 31.9863C25.5928 31.5395 25.2374 31.3887 24.8699 31.3887C23.9338 31.3887 23.0593 31.5471 22.2702 31.8597C21.4787 32.1731 20.7934 32.6035 20.2334 33.1393C19.6983 33.6513 19.2215 34.2729 18.8161 34.9867C18.4253 35.6747 18.1089 36.3924 17.876 37.12C17.651 37.8234 17.4629 38.5927 17.3168 39.4068C17.1718 40.2137 17.0737 40.9792 17.0251 41.6823C16.9773 42.3698 16.9531 43.0852 16.9531 43.8081C16.9531 45.6874 17.5505 47.2087 18.7285 48.3307C19.892 49.4378 21.4312 49.9992 23.3035 49.9992H40.6377C42.5095 49.9992 44.0487 49.4378 45.2124 48.3307C46.3907 47.2095 46.9881 45.6876 46.9881 43.8079C46.9878 43.0825 46.9634 42.367 46.9153 41.6815ZM43.7578 46.8022C42.9891 47.5339 41.9684 47.8896 40.6375 47.8896H23.3035C21.9722 47.8896 20.9516 47.5339 20.1831 46.8025C19.4292 46.0848 19.0628 45.1051 19.0628 43.8081C19.0628 43.1336 19.085 42.4675 19.1295 41.8281C19.1729 41.2008 19.2616 40.5117 19.3932 39.7795C19.5231 39.0563 19.6884 38.3776 19.8851 37.7632C20.0738 37.1741 20.3311 36.5907 20.6503 36.0287C20.9549 35.4932 21.3054 35.0337 21.6921 34.6634C22.0538 34.3171 22.5097 34.0336 23.047 33.821C23.5438 33.6244 24.1022 33.5167 24.7084 33.5005C24.7823 33.5398 24.9138 33.6148 25.127 33.7537C25.5606 34.0364 26.0605 34.3588 26.6131 34.7118C27.2361 35.1089 28.0386 35.4676 28.9974 35.7772C29.9777 36.0941 30.9774 36.2551 31.9698 36.2551C32.9621 36.2551 33.9622 36.0941 34.9419 35.7774C35.9015 35.4673 36.7038 35.1089 37.3275 34.7112C37.8931 34.3498 38.3789 34.0366 38.8126 33.7537C39.0258 33.615 39.1573 33.5398 39.2312 33.5005C39.8376 33.5167 40.396 33.6244 40.8932 33.821C41.4301 34.0336 41.886 34.3173 42.2478 34.6634C42.6345 35.0334 42.985 35.4929 43.2896 36.029C43.609 36.5907 43.8666 37.1743 44.055 37.7629C44.252 38.3782 44.4176 39.0566 44.5472 39.7792C44.6785 40.5128 44.7675 41.2022 44.8109 41.8284V41.829C44.8557 42.4659 44.8782 43.1317 44.8784 43.8081C44.8782 45.1054 44.5118 46.0848 43.7578 46.8022Z" fill="#111111"/>
</svg>
