<svg width="64" height="64" viewBox="0 0 64 64" fill="none" xmlns="http://www.w3.org/2000/svg">
<rect width="64" height="64" rx="32" fill="#FDF6F4"/>
<path d="M46.1864 24.1078C45.9139 23.7282 45.6963 23.3122 45.5398 22.8719C45.4493 22.3929 45.4269 21.9035 45.4734 21.4183C45.5868 20.572 45.4573 19.711 45.1001 18.9355C44.6023 18.2321 43.9143 17.6853 43.1168 17.3591C42.68 17.1613 42.2736 16.9025 41.9097 16.5903C41.5978 16.2262 41.3389 15.8198 41.1409 15.3831C40.8148 14.5854 40.2679 13.8971 39.5645 13.3991C38.7893 13.0427 37.9288 12.9135 37.0831 13.0265C36.5976 13.073 36.108 13.0507 35.6288 12.9601C35.1883 12.8039 34.7719 12.5864 34.3922 12.3139C33.7012 11.7782 32.8709 11.4523 32 11.375C31.129 11.4522 30.2986 11.778 29.6075 12.3136C29.2279 12.5859 28.8118 12.8035 28.3715 12.9598C27.8925 13.0497 27.4032 13.072 26.9179 13.0262C26.0717 12.9131 25.2107 13.0425 24.4352 13.3996C23.7319 13.8974 23.1851 14.5855 22.8591 15.3831C22.6613 15.8199 22.4025 16.2263 22.0903 16.5902C21.7262 16.9022 21.3198 17.161 20.8831 17.3591C20.0854 17.6852 19.3971 18.2321 18.8991 18.9355C18.5428 19.7108 18.4136 20.5712 18.5265 21.4169C18.5731 21.9024 18.5507 22.392 18.4601 22.8712C18.3038 23.3118 18.0861 23.7281 17.8135 24.1078C17.278 24.7989 16.9522 25.6292 16.875 26.5C16.9522 27.371 17.278 28.2014 17.8136 28.8925C18.0861 29.2721 18.3037 29.6882 18.4602 30.1285C18.5507 30.6075 18.5731 31.0968 18.5266 31.5821C18.4132 32.4283 18.5427 33.2894 18.8999 34.0648C19.3977 34.7682 20.0857 35.3151 20.8832 35.6413C21.32 35.839 21.7264 36.0979 22.0903 36.41C22.4022 36.774 22.661 37.1803 22.8591 37.6169C23.053 38.0093 23.2763 38.3866 23.5269 38.7455L19.6666 49.3514C19.6224 49.4731 19.6134 49.6048 19.6407 49.7314C19.6681 49.858 19.7306 49.9743 19.8211 50.0669C19.9116 50.1595 20.0264 50.2246 20.1524 50.2548C20.2783 50.285 20.4102 50.279 20.5328 50.2376L24.1818 49.005L26.1853 52.2954C26.2467 52.3962 26.3329 52.4795 26.4358 52.5373C26.5387 52.5951 26.6547 52.6254 26.7727 52.6254C26.7949 52.6254 26.8177 52.624 26.8405 52.622C26.9694 52.6093 27.0921 52.5604 27.1944 52.4809C27.2967 52.4014 27.3744 52.2947 27.4186 52.1729L31.2937 41.5276C31.7556 41.658 32.2446 41.658 32.7065 41.5276L36.5817 52.1729C36.6259 52.2947 36.7036 52.4014 36.8059 52.4809C36.9082 52.5604 37.0309 52.6093 37.1598 52.622C37.1826 52.624 37.2054 52.6254 37.2275 52.6254C37.3455 52.6254 37.4616 52.5951 37.5645 52.5373C37.6673 52.4795 37.7536 52.3962 37.815 52.2954L39.8185 49.005L43.4675 50.2375C43.5902 50.279 43.7221 50.285 43.848 50.2547C43.9739 50.2245 44.0887 50.1594 44.1793 50.0668C44.2698 49.9742 44.3323 49.8579 44.3596 49.7313C44.387 49.6048 44.378 49.473 44.3337 49.3513L40.4732 38.7449C40.7236 38.3861 40.9468 38.009 41.1409 37.6168C41.3387 37.18 41.5975 36.7736 41.9097 36.4097C42.2738 36.0978 42.6802 35.839 43.1169 35.6409C43.9146 35.3148 44.6029 34.7679 45.1009 34.0645C45.4572 33.2892 45.5864 32.4288 45.4735 31.5831C45.4269 31.0976 45.4493 30.608 45.5399 30.1288C45.6962 29.6882 45.9139 29.2719 46.1865 28.8922C46.722 28.2011 47.0478 27.3708 47.125 26.5C47.0478 25.6292 46.722 24.7989 46.1864 24.1078ZM26.6161 50.3584L25.0706 47.8199C24.9893 47.6865 24.8651 47.5848 24.7183 47.5314C24.5715 47.4781 24.4109 47.4764 24.2629 47.5265L21.4478 48.4772L24.6416 39.7021C25.3684 39.9692 26.1479 40.0622 26.9172 39.9734C27.4026 39.9272 27.8922 39.9496 28.3714 40.0398C28.812 40.1961 29.2284 40.4138 29.6081 40.6864C29.7476 40.7752 29.892 40.8659 30.0394 40.9546L26.6161 50.3584ZM39.7371 47.5265C39.5891 47.4764 39.4285 47.4781 39.2817 47.5314C39.1349 47.5848 39.0107 47.6865 38.9294 47.8199L37.3839 50.3584L33.9609 40.9549C34.1083 40.8655 34.2527 40.7752 34.3922 40.6864C34.7718 40.4139 35.1878 40.1963 35.6281 40.0398C36.1072 39.9496 36.5965 39.9272 37.0817 39.9734C37.8515 40.0626 38.6314 39.9694 39.3585 39.7015L42.5522 48.4772L39.7371 47.5265ZM45.0263 28.1536C44.6742 28.6493 44.3996 29.1955 44.2119 29.7737C44.0806 30.3859 44.0426 31.0145 44.099 31.6381C44.1859 32.2241 44.121 32.8226 43.9104 33.3764C43.5321 33.8425 43.0397 34.2028 42.481 34.4223C41.9179 34.6804 41.3975 35.0227 40.9375 35.4375C40.5223 35.8973 40.1797 36.4178 39.9217 36.981C39.7022 37.5397 39.3418 38.0321 38.8757 38.4104C38.3218 38.6204 37.7235 38.6854 37.1375 38.599C36.5138 38.543 35.8853 38.581 35.273 38.7119C34.6951 38.8998 34.1491 39.1744 33.6536 39.5263C33.1754 39.9083 32.6051 40.1579 32 40.25C31.3949 40.1579 30.8246 39.9083 30.3464 39.5263C29.8508 39.1743 29.3045 38.8996 28.7263 38.7119C28.3405 38.617 27.9439 38.573 27.5467 38.5812C27.3171 38.5812 27.0882 38.5906 26.8619 38.5993C26.2759 38.6858 25.6774 38.6209 25.1236 38.4107C24.6575 38.0324 24.2972 37.54 24.0777 36.9813C23.8196 36.4181 23.4773 35.8975 23.0625 35.4375C22.6028 35.0223 22.0822 34.6797 21.519 34.4217C20.9603 34.2022 20.4679 33.8418 20.0896 33.3757C19.8791 32.822 19.8141 32.2235 19.901 31.6375C19.9574 31.0138 19.9193 30.3853 19.7881 29.773C19.6002 29.1951 19.3256 28.6491 18.9737 28.1536C18.5917 27.6754 18.3421 27.1051 18.25 26.5C18.3421 25.8949 18.5917 25.3246 18.9737 24.8464C19.3258 24.3508 19.6004 23.8045 19.7881 23.2263C19.9194 22.6141 19.9574 21.9855 19.901 21.3619C19.8141 20.7759 19.879 20.1774 20.0896 19.6236C20.4679 19.1575 20.9603 18.7972 21.519 18.5777C22.0821 18.3196 22.6025 17.9773 23.0625 17.5625C23.4777 17.1028 23.8203 16.5822 24.0783 16.019C24.2978 15.4603 24.6582 14.9679 25.1243 14.5896C25.6781 14.3792 26.2765 14.3143 26.8625 14.401C27.4862 14.457 28.1147 14.419 28.727 14.2881C29.3049 14.1002 29.8509 13.8256 30.3464 13.4737C30.8246 13.0917 31.3949 12.8421 32 12.75C32.6051 12.8421 33.1754 13.0917 33.6536 13.4737C34.1492 13.8258 34.6955 14.1004 35.2737 14.2881C35.886 14.419 36.5145 14.457 37.1381 14.401C37.7241 14.3141 38.3226 14.3791 38.8764 14.5896C39.3425 14.9679 39.7028 15.4603 39.9223 16.019C40.1804 16.5821 40.5227 17.1025 40.9375 17.5625C41.3972 17.9778 41.9178 18.3203 42.481 18.5783C43.0397 18.7978 43.5321 19.1582 43.9104 19.6243C44.1209 20.178 44.1859 20.7765 44.099 21.3625C44.0426 21.9862 44.0807 22.6147 44.2119 23.227C44.3998 23.8049 44.6744 24.3509 45.0263 24.8464C45.4083 25.3246 45.6579 25.8949 45.75 26.5C45.6579 27.1051 45.4083 27.6754 45.0263 28.1536Z" fill="#111111"/>
<path d="M32 15.5C29.8244 15.5 27.6977 16.1451 25.8887 17.3538C24.0798 18.5625 22.6699 20.2805 21.8373 22.2905C21.0048 24.3005 20.7869 26.5122 21.2114 28.646C21.6358 30.7798 22.6835 32.7398 24.2218 34.2782C25.7602 35.8166 27.7202 36.8642 29.854 37.2886C31.9878 37.7131 34.1995 37.4952 36.2095 36.6627C38.2195 35.8301 39.9375 34.4202 41.1462 32.6113C42.3549 30.8023 43 28.6756 43 26.5C42.9967 23.5836 41.8367 20.7877 39.7745 18.7255C37.7123 16.6633 34.9164 15.5033 32 15.5ZM32 36.125C30.0964 36.125 28.2355 35.5605 26.6526 34.5029C25.0698 33.4453 23.8362 31.9421 23.1077 30.1833C22.3792 28.4246 22.1886 26.4893 22.5599 24.6223C22.9313 22.7552 23.848 21.0402 25.1941 19.6941C26.5402 18.348 28.2552 17.4313 30.1223 17.0599C31.9893 16.6886 33.9246 16.8792 35.6833 17.6077C37.4421 18.3362 38.9453 19.5698 40.0029 21.1526C41.0605 22.7355 41.625 24.5964 41.625 26.5C41.6221 29.0518 40.6071 31.4983 38.8027 33.3027C36.9983 35.1071 34.5518 36.1221 32 36.125Z" fill="#111111"/>
<path d="M34.4667 23.0703L32.6163 19.3213C32.5532 19.214 32.4631 19.125 32.355 19.0631C32.2469 19.0013 32.1245 18.9688 32 18.9688C31.8754 18.9688 31.753 19.0013 31.6449 19.0631C31.5368 19.125 31.4468 19.214 31.3836 19.3213L29.5333 23.0703L25.3956 23.6719C25.2687 23.6904 25.1495 23.7439 25.0514 23.8266C24.9534 23.9092 24.8804 24.0176 24.8407 24.1396C24.8011 24.2615 24.7963 24.3921 24.8269 24.5166C24.8576 24.6411 24.9225 24.7546 25.0142 24.8442L28.0086 27.7627L27.3016 31.8844C27.28 32.0108 27.2941 32.1408 27.3425 32.2596C27.3909 32.3784 27.4715 32.4813 27.5753 32.5566C27.6791 32.632 27.8019 32.6768 27.9299 32.686C28.0578 32.6953 28.1858 32.6685 28.2993 32.6088L32 30.6631L35.7006 32.6087C35.8142 32.6684 35.9421 32.6952 36.0701 32.686C36.198 32.6768 36.3208 32.6319 36.4246 32.5566C36.5284 32.4812 36.6091 32.3783 36.6574 32.2595C36.7058 32.1407 36.72 32.0107 36.6983 31.8843L35.9914 27.7626L38.9857 24.8441C39.0775 24.7545 39.1423 24.6411 39.173 24.5165C39.2037 24.392 39.1989 24.2614 39.1592 24.1395C39.1195 24.0176 39.0466 23.9091 38.9485 23.8265C38.8505 23.7439 38.7313 23.6903 38.6044 23.6718L34.4667 23.0703ZM34.7728 27.0309C34.6931 27.1087 34.6335 27.2047 34.5991 27.3107C34.5647 27.4166 34.5566 27.5293 34.5754 27.6391L35.1078 30.7437L32.3202 29.278C32.2215 29.226 32.1116 29.1988 32 29.1988C31.8884 29.1988 31.7785 29.226 31.6797 29.278L28.8925 30.7437L29.4249 27.6391C29.4437 27.5293 29.4356 27.4166 29.4012 27.3107C29.3668 27.2047 29.3072 27.1087 29.2275 27.0309L26.9716 24.8321L30.0889 24.3789C30.1992 24.363 30.304 24.3204 30.3942 24.2549C30.4844 24.1894 30.5573 24.1029 30.6065 24.0029L32 21.1792L33.3937 24.0031C33.443 24.1031 33.5159 24.1896 33.6061 24.2551C33.6963 24.3206 33.8011 24.3631 33.9114 24.3791L37.0287 24.8322L34.7728 27.0309Z" fill="#111111"/>
</svg>
