<svg width="64" height="64" viewBox="0 0 64 64" fill="none" xmlns="http://www.w3.org/2000/svg">
<rect width="64" height="64" fill="#FDF6F4"/>
<path d="M49.873 27.2059C49.9585 26.9375 49.7717 26.6901 49.5201 26.6659L46.317 26.3518C45.7586 25.329 45.2021 24.2995 44.6432 23.2788C44.4944 23.197 44.334 23.1396 44.1702 23.0951C43.9559 22.9118 43.6325 22.9985 43.5234 23.2474L42.102 26.5003L38.6168 27.1735C38.2781 27.2384 38.1609 27.6655 38.4189 27.8946L41.0731 30.2515L40.6365 33.7742C40.6056 34.0233 40.8 34.2422 41.0503 34.2422C41.2573 34.2422 41.1639 34.2186 44.3232 32.3891L47.5383 33.8931C47.8537 34.0392 48.1961 33.7612 48.1222 33.4256L47.4561 30.3947C48.2826 29.4657 49.1117 28.5218 49.9999 27.6544C49.9576 27.5049 49.9153 27.3554 49.873 27.2059ZM44.4779 31.5405C44.3539 31.483 44.2086 31.4884 44.0903 31.559L41.568 33.038L41.9277 30.1364C41.9448 30.0007 41.8935 29.865 41.7909 29.7737L39.6044 27.8321L42.4752 27.2772C42.6102 27.2512 42.7234 27.1605 42.7782 27.0351L43.9491 24.3556L45.3638 26.9151C45.43 27.0351 45.5513 27.1149 45.6879 27.1279L48.5976 27.4135L46.6011 29.5495C46.5075 29.6494 46.4689 29.7895 46.4985 29.9236L47.1265 32.7795L44.4779 31.5405Z" fill="#111111"/>
<path d="M23.9279 47.1019C24.0821 47.3924 24.2776 47.6974 24.4416 47.9929L39.3305 48.0581C39.5071 47.7783 39.6961 47.4425 39.8808 47.1266C40.1738 47.0567 40.2597 46.7812 40.1727 46.5728C39.8664 45.8376 39.0832 44.3803 38.4683 43.6674C37.525 42.5739 36.6386 41.9126 35.5044 41.456C35.3417 41.3906 35.1059 41.4553 35.0018 41.6107C34.4043 42.505 33.2492 43.1294 32.1929 43.1294C31.1154 43.1294 30.0811 42.5777 29.426 41.6531C29.3303 41.5182 29.1023 41.4432 28.9395 41.5038C28.2567 41.7595 27.66 42.0484 27.2137 42.3388C25.7231 43.3075 24.5815 44.9819 23.6612 46.4919C23.5279 46.7113 23.6085 47.0283 23.9279 47.1019ZM27.6685 43.0382C28.0039 42.8199 28.4471 42.6006 28.9539 42.3955C29.7681 43.3795 30.9532 43.9633 32.1929 43.9633C33.3963 43.9633 34.6947 43.3126 35.4787 42.3542C37.225 43.1521 38.2769 44.5977 39.1348 46.3149L24.768 46.2932C25.5637 45.0498 26.5147 43.788 27.6685 43.0382Z" fill="#111111"/>
<path d="M28.5146 37.1369C28.6293 37.9231 28.871 38.7755 29.3856 39.5154C31.0916 41.9674 34.7227 41.7262 35.5068 37.7801C35.5475 37.6218 35.5833 37.4663 35.6148 37.3116C36.7375 37.0887 36.81 35.5579 36.1848 35.079C36.9351 32.188 34.5221 29.7125 31.9419 30.8016C32.0457 30.6039 31.9781 30.3581 31.7827 30.2466C31.5827 30.1321 31.3283 30.2016 31.2134 30.4008C31.148 30.5152 31.0979 30.6359 31.0549 30.759C30.7139 30.5849 30.3346 30.9163 30.4906 31.2857C29.1529 31.3827 27.9831 32.6782 28.2484 34.8538C27.2901 35.1655 27.3454 36.6422 28.5146 37.1369ZM30.0703 39.0387C29.59 38.3487 29.3314 37.4448 29.2648 36.2233C30.6459 36.2629 32.5892 35.3845 33.6049 34.1814C33.8222 34.9877 34.1863 35.7405 34.8636 36.2244C34.8077 37.0275 34.7193 37.865 34.3992 38.6146C34.0574 39.416 33.4548 40.0106 32.7875 40.2044C31.7477 40.5079 30.6325 39.8471 30.0703 39.0387ZM29.056 33.9094C29.1933 32.5084 30.252 31.8565 31.0492 32.1882C31.2137 32.2583 31.4043 32.2138 31.5227 32.0802C32.0594 31.4737 33.1135 31.2066 33.8704 31.4851C35.2952 32.0089 35.9127 33.8387 35.1832 35.4122C34.58 34.8613 34.3537 33.9175 34.2081 32.9587C34.1405 32.5172 33.5206 32.4805 33.3956 32.9033C33.0076 34.2222 30.5714 35.4886 29.1921 35.3931C29.06 34.8083 29.0141 34.3373 29.056 33.9094Z" fill="#111111"/>
<path d="M38.0342 19.4352L34.6377 19.1015C33.7831 17.9091 32.9962 16.6479 32.3552 15.3304C32.0975 15.2304 31.827 15.1687 31.5535 15.1286C31.3436 14.9114 30.9894 14.9809 30.8719 15.2501L29.135 19.2245L24.876 20.0471C24.5374 20.112 24.4201 20.5391 24.6781 20.7681L27.9215 23.6485L27.388 27.9536C27.3454 28.2964 27.7164 28.5393 28.0127 28.364L31.7544 26.1694L35.6832 28.0073C35.9979 28.1534 36.3413 27.8761 36.2672 27.5398L35.4529 23.8338C36.4671 22.7625 37.4847 21.6536 38.4983 20.5894C38.453 20.4073 38.4077 20.2251 38.3624 20.043C38.5006 19.7794 38.3264 19.4633 38.0342 19.4352ZM31.9092 25.3208C31.7851 25.2632 31.6399 25.2687 31.5215 25.3392L28.3194 27.2173L28.7761 23.5334C28.7932 23.3976 28.7419 23.2619 28.6392 23.1707L25.8637 20.7057L29.5082 20.002C29.6432 19.976 29.7564 19.8853 29.8115 19.7593L31.2975 16.3577L33.0934 19.6068C33.1596 19.7267 33.2809 19.8066 33.4175 19.8196L37.112 20.1823L34.5772 22.8943C34.4836 22.9942 34.445 23.1343 34.4746 23.2684L35.2714 26.8937L31.9092 25.3208Z" fill="#111111"/>
<path d="M16.3577 33.7747C16.3152 34.1175 16.6861 34.3604 16.9824 34.1851L20.0444 32.3896L23.2595 33.8936C23.5749 34.0397 23.9173 33.7617 23.8434 33.4261L23.2852 30.8862C24.074 29.813 24.9277 28.7021 25.8959 27.8029C25.7641 27.6238 25.6679 27.4223 25.5918 27.2134C25.6833 26.9431 25.4954 26.6908 25.2412 26.6663L22.349 26.3827C21.8113 25.3881 21.3001 24.4126 20.7569 23.4142C20.469 23.2485 20.1559 23.1282 19.8328 23.0511C19.6255 22.9307 19.3453 23.0181 19.2446 23.2479L17.8232 26.5007L14.3379 27.174C13.9993 27.2389 13.8821 27.666 14.14 27.895L16.7943 30.252L16.3577 33.7747ZM15.3256 27.8326L18.1964 27.2777C18.3314 27.2516 18.4446 27.1609 18.4994 27.0355L19.6703 24.3561L21.0849 26.9155C21.1512 27.0355 21.2725 27.1153 21.4091 27.1284L24.3188 27.414L22.3223 29.5499C22.2287 29.6498 22.1901 29.7899 22.2197 29.924L22.8476 32.78L20.1991 31.5409C20.0751 31.4834 19.9298 31.4888 19.8115 31.5594L17.2892 33.0384L17.6489 30.1369C17.666 30.0011 17.6147 29.8654 17.512 29.7742L15.3256 27.8326Z" fill="#111111"/>
</svg>
